<svg xmlns="http://www.w3.org/2000/svg" xmlns:xlink="http://www.w3.org/1999/xlink" viewBox="0 0 199.75 94.67"><defs><style>.\36 d68b47a-a26f-4be0-9c72-c7d97782fd66{fill:#3c3c3b;}.\38 4da2456-d135-4dd3-8d41-c6fa3d48aec4{fill:#999;}.c00c8f12-02e8-45b3-bba3-afcc6978d30b{fill:none;stroke-miterlimit:10;stroke-width:3px;stroke:url(#8945c459-4a08-4cb3-9e11-793b17a81b36);}.\36 a292959-3c63-48a3-95f3-c33ce9276305{fill:url(#4afeecc7-df3d-46e3-a127-8b10d2fc8040);}</style><linearGradient id="8945c459-4a08-4cb3-9e11-793b17a81b36" x1="18.75" y1="85.28" x2="18.75" y2="8.47" gradientUnits="userSpaceOnUse"><stop offset="0" stop-color="#ededed"/><stop offset="1" stop-color="#1d1d1b"/></linearGradient><linearGradient id="4afeecc7-df3d-46e3-a127-8b10d2fc8040" y1="85.28" x2="18.75" y2="8.47" xlink:href="#8945c459-4a08-4cb3-9e11-793b17a81b36"/></defs><title>accuracy</title><g id="72f06239-b9ad-4ec4-81c7-f164ec100612" data-name="text-titles"><path class="6d68b47a-a26f-4be0-9c72-c7d97782fd66" d="M35.85,13.26h3v.91h-3Z"/><path class="6d68b47a-a26f-4be0-9c72-c7d97782fd66" d="M43.6,8.75a.79.79,0,0,1,.18.16l5,6.48c0-.1,0-.2,0-.3V8.71h1v8.6h-.59a.52.52,0,0,1-.23,0,.47.47,0,0,1-.19-.16l-5-6.47c0,.1,0,.19,0,.29v6.39h-1V8.71h.6A.59.59,0,0,1,43.6,8.75Z"/><path class="6d68b47a-a26f-4be0-9c72-c7d97782fd66" d="M54.14,11.14a3.09,3.09,0,0,1,1.2.22,2.56,2.56,0,0,1,.91.63,2.85,2.85,0,0,1,.58,1,4,4,0,0,1,.2,1.29,4.08,4.08,0,0,1-.2,1.3,2.9,2.9,0,0,1-.58,1,2.56,2.56,0,0,1-.91.63,3.41,3.41,0,0,1-2.41,0,2.65,2.65,0,0,1-.91-.63,2.74,2.74,0,0,1-.58-1,3.81,3.81,0,0,1-.21-1.3A3.71,3.71,0,0,1,51.44,13,2.7,2.7,0,0,1,52,12a2.65,2.65,0,0,1,.91-.63A3.11,3.11,0,0,1,54.14,11.14Zm0,5.42a1.56,1.56,0,0,0,1.34-.6,2.77,2.77,0,0,0,.44-1.68,2.82,2.82,0,0,0-.44-1.7,1.56,1.56,0,0,0-1.34-.6,2,2,0,0,0-.8.15,1.64,1.64,0,0,0-.56.45,2,2,0,0,0-.33.73,3.55,3.55,0,0,0-.11,1,3.52,3.52,0,0,0,.11,1,1.91,1.91,0,0,0,.33.72,1.5,1.5,0,0,0,.56.44A1.81,1.81,0,0,0,54.14,16.56Z"/><path class="6d68b47a-a26f-4be0-9c72-c7d97782fd66" d="M57.42,11.23h.88a.3.3,0,0,1,.21.07.33.33,0,0,1,.12.15l1.54,3.92a2.13,2.13,0,0,1,.13.43c0,.14.07.28.1.43,0-.15.06-.29.1-.43a3.06,3.06,0,0,1,.13-.43l1.57-3.92a.33.33,0,0,1,.11-.15.29.29,0,0,1,.2-.07h.84l-2.48,6.08h-1Z"/><path class="6d68b47a-a26f-4be0-9c72-c7d97782fd66" d="M66.59,11.14a2.79,2.79,0,0,1,1,.18,2.24,2.24,0,0,1,.79.53,2.36,2.36,0,0,1,.53.85,3.44,3.44,0,0,1,.19,1.16.62.62,0,0,1-.06.33.2.2,0,0,1-.2.09h-4a3.34,3.34,0,0,0,.15,1,2.12,2.12,0,0,0,.4.71,1.56,1.56,0,0,0,.6.42,1.94,1.94,0,0,0,.78.15,2.34,2.34,0,0,0,.69-.1,3.46,3.46,0,0,0,.5-.2l.35-.2a.51.51,0,0,1,.25-.09.23.23,0,0,1,.2.1l.3.39a2.11,2.11,0,0,1-.47.42,4.15,4.15,0,0,1-.6.29,4.42,4.42,0,0,1-.65.17,3.68,3.68,0,0,1-.66.06,3.11,3.11,0,0,1-1.16-.22,2.54,2.54,0,0,1-.92-.62,2.87,2.87,0,0,1-.6-1,4,4,0,0,1-.22-1.39A3.58,3.58,0,0,1,63.94,13a2.72,2.72,0,0,1,.57-1,2.48,2.48,0,0,1,.89-.63A2.84,2.84,0,0,1,66.59,11.14Zm0,.78a1.65,1.65,0,0,0-1.22.45,2.13,2.13,0,0,0-.55,1.24h3.31a2.37,2.37,0,0,0-.1-.68,1.57,1.57,0,0,0-.3-.54,1.39,1.39,0,0,0-.49-.34A1.48,1.48,0,0,0,66.61,11.92Z"/><path class="6d68b47a-a26f-4be0-9c72-c7d97782fd66" d="M71.66,8.47v8.84H70.59V8.47Z"/><path class="6d68b47a-a26f-4be0-9c72-c7d97782fd66" d="M75.09,11.23H76a.28.28,0,0,1,.21.07.33.33,0,0,1,.12.15l1.55,3.92a3.06,3.06,0,0,1,.13.43l.09.43c0-.15.07-.29.1-.43a3.09,3.09,0,0,1,.14-.43l1.56-3.92A.29.29,0,0,1,80,11.3a.27.27,0,0,1,.2-.07H81l-2.48,6.08h-1Z"/><path class="6d68b47a-a26f-4be0-9c72-c7d97782fd66" d="M86.46,17.31H86a.58.58,0,0,1-.25,0,.25.25,0,0,1-.13-.2l-.12-.57a4,4,0,0,1-.47.39,2.36,2.36,0,0,1-.48.29,2.21,2.21,0,0,1-.53.18,3.06,3.06,0,0,1-.63.06,2.41,2.41,0,0,1-.67-.1,1.78,1.78,0,0,1-.54-.3,1.43,1.43,0,0,1-.36-.5,1.81,1.81,0,0,1-.13-.72,1.31,1.31,0,0,1,.2-.7,1.72,1.72,0,0,1,.63-.59,4.64,4.64,0,0,1,1.16-.43,7.91,7.91,0,0,1,1.75-.16v-.48a1.69,1.69,0,0,0-.31-1.08,1.1,1.1,0,0,0-.9-.36,1.81,1.81,0,0,0-.65.1,2.19,2.19,0,0,0-.46.22l-.34.22a.46.46,0,0,1-.28.1.33.33,0,0,1-.19-.06.35.35,0,0,1-.13-.14L82,12.09a3.79,3.79,0,0,1,1.09-.73,3.33,3.33,0,0,1,1.29-.24,2.29,2.29,0,0,1,.9.17,1.8,1.8,0,0,1,.67.47,2.07,2.07,0,0,1,.41.73,3,3,0,0,1,.13.93Zm-2.77-.65a2.12,2.12,0,0,0,.52-.06,2.09,2.09,0,0,0,.44-.16,2.48,2.48,0,0,0,.4-.26c.12-.1.24-.21.37-.34V14.59a7.42,7.42,0,0,0-1.26.09,3.55,3.55,0,0,0-.84.24,1.21,1.21,0,0,0-.47.36.77.77,0,0,0-.15.46,1.08,1.08,0,0,0,.08.42.74.74,0,0,0,.21.28.85.85,0,0,0,.31.17A1.6,1.6,0,0,0,83.69,16.66Z"/><path class="6d68b47a-a26f-4be0-9c72-c7d97782fd66" d="M88.08,17.31V11.23h.62a.33.33,0,0,1,.24.07.46.46,0,0,1,.09.23l.07,1a2.75,2.75,0,0,1,.77-1A1.71,1.71,0,0,1,91,11.12a1.58,1.58,0,0,1,.45.06,1.45,1.45,0,0,1,.38.16l-.14.8a.18.18,0,0,1-.18.15.84.84,0,0,1-.26-.06,1.59,1.59,0,0,0-.49-.06,1.36,1.36,0,0,0-.93.33,2.42,2.42,0,0,0-.63.94v3.87Z"/><path class="6d68b47a-a26f-4be0-9c72-c7d97782fd66" d="M94.35,9.32a.73.73,0,0,1-.06.3,1,1,0,0,1-.17.24.78.78,0,0,1-.24.16.8.8,0,0,1-.3.06.72.72,0,0,1-.29-.06.78.78,0,0,1-.24-.16.81.81,0,0,1-.17-.24.73.73,0,0,1-.06-.3A.72.72,0,0,1,92.88,9a.74.74,0,0,1,.17-.25.78.78,0,0,1,.24-.16.72.72,0,0,1,.29-.06.8.8,0,0,1,.3.06.78.78,0,0,1,.24.16.92.92,0,0,1,.17.25A.72.72,0,0,1,94.35,9.32Zm-.24,1.91v6.08H93V11.23Z"/><path class="6d68b47a-a26f-4be0-9c72-c7d97782fd66" d="M100.46,17.31H100a.58.58,0,0,1-.25,0,.27.27,0,0,1-.13-.2l-.12-.57a5,5,0,0,1-.46.39,3.07,3.07,0,0,1-.48.29,2.45,2.45,0,0,1-.54.18,3.06,3.06,0,0,1-.63.06,2.41,2.41,0,0,1-.67-.1,1.62,1.62,0,0,1-.53-.3,1.34,1.34,0,0,1-.37-.5,1.81,1.81,0,0,1-.13-.72,1.31,1.31,0,0,1,.2-.7,1.68,1.68,0,0,1,.64-.59,4.41,4.41,0,0,1,1.15-.43,8,8,0,0,1,1.75-.16v-.48a1.64,1.64,0,0,0-.31-1.08,1.1,1.1,0,0,0-.89-.36,1.83,1.83,0,0,0-.66.1,2.19,2.19,0,0,0-.46.22l-.34.22a.46.46,0,0,1-.28.1.33.33,0,0,1-.19-.06.44.44,0,0,1-.13-.14L96,12.09a3.79,3.79,0,0,1,1.09-.73,3.37,3.37,0,0,1,1.29-.24,2.29,2.29,0,0,1,.9.17,1.8,1.8,0,0,1,.67.47,1.93,1.93,0,0,1,.41.73,3,3,0,0,1,.14.93Zm-2.78-.65a2.12,2.12,0,0,0,.52-.06,2.09,2.09,0,0,0,.44-.16,2.48,2.48,0,0,0,.4-.26,3.81,3.81,0,0,0,.37-.34V14.59a7.5,7.5,0,0,0-1.26.09,3.55,3.55,0,0,0-.84.24,1.3,1.3,0,0,0-.47.36.77.77,0,0,0-.15.46,1.08,1.08,0,0,0,.08.42.74.74,0,0,0,.21.28.85.85,0,0,0,.31.17A1.6,1.6,0,0,0,97.68,16.66Z"/><path class="6d68b47a-a26f-4be0-9c72-c7d97782fd66" d="M102.08,17.31V11.23h.63a.28.28,0,0,1,.29.22l.08.66a3.48,3.48,0,0,1,.89-.7,2.28,2.28,0,0,1,1.13-.27,2.19,2.19,0,0,1,.88.16,1.78,1.78,0,0,1,.64.47,2,2,0,0,1,.38.73,3.1,3.1,0,0,1,.13.94v3.87h-1.06V13.44a1.63,1.63,0,0,0-.32-1.07,1.19,1.19,0,0,0-1-.38,1.84,1.84,0,0,0-.89.23,3,3,0,0,0-.76.61v4.48Z"/><path class="6d68b47a-a26f-4be0-9c72-c7d97782fd66" d="M110.59,17.41a1.47,1.47,0,0,1-1.11-.41,1.61,1.61,0,0,1-.38-1.15V12.13h-.74a.21.21,0,0,1-.22-.24v-.42l1-.13.25-1.88a.18.18,0,0,1,.08-.14.23.23,0,0,1,.16-.06h.54v2.09h1.74v.78h-1.74v3.65a.81.81,0,0,0,.19.57.65.65,0,0,0,.48.18.85.85,0,0,0,.29,0l.21-.1.16-.1a.21.21,0,0,1,.11-.05c.05,0,.1,0,.15.11l.31.51a2,2,0,0,1-.67.4A2.18,2.18,0,0,1,110.59,17.41Z"/><path class="6d68b47a-a26f-4be0-9c72-c7d97782fd66" d="M116.7,12.23a.23.23,0,0,1-.22.14.35.35,0,0,1-.2-.07l-.28-.15-.39-.15a2.23,2.23,0,0,0-.54-.06,1.83,1.83,0,0,0-.49.06,1.29,1.29,0,0,0-.37.19.86.86,0,0,0-.23.28.69.69,0,0,0-.08.35.59.59,0,0,0,.13.39,1.3,1.3,0,0,0,.36.27,4,4,0,0,0,.5.2l.58.18.58.22a1.9,1.9,0,0,1,.5.3,1.31,1.31,0,0,1,.5,1.07,2,2,0,0,1-.15.78,1.71,1.71,0,0,1-.45.62,2.09,2.09,0,0,1-.72.41,2.93,2.93,0,0,1-1,.15,3,3,0,0,1-1.15-.21,2.83,2.83,0,0,1-.88-.53l.25-.41a.34.34,0,0,1,.12-.12.29.29,0,0,1,.17,0,.46.46,0,0,1,.23.08l.29.19a2.26,2.26,0,0,0,.41.19,2.1,2.1,0,0,0,.61.08,1.82,1.82,0,0,0,.55-.08,1.47,1.47,0,0,0,.39-.22A.9.9,0,0,0,116,16a1,1,0,0,0,.07-.38.64.64,0,0,0-.13-.42,1.15,1.15,0,0,0-.36-.28,3,3,0,0,0-.51-.21l-.58-.18a5.77,5.77,0,0,1-.58-.22,1.88,1.88,0,0,1-.51-.31,1.37,1.37,0,0,1-.35-.46,1.46,1.46,0,0,1-.14-.66,1.59,1.59,0,0,1,.15-.67,1.5,1.5,0,0,1,.42-.56,2.19,2.19,0,0,1,.67-.39,2.91,2.91,0,0,1,.92-.14,2.85,2.85,0,0,1,1.08.19,2.25,2.25,0,0,1,.82.52Z"/><path class="6d68b47a-a26f-4be0-9c72-c7d97782fd66" d="M120.84,17.44a.65.65,0,0,1-.25.31.61.61,0,0,1-.34.1h-.45l3.61-9a.57.57,0,0,1,.56-.4h.45Z"/><path class="6d68b47a-a26f-4be0-9c72-c7d97782fd66" d="M129,13.72v3.59h-1.16V8.71h2.43a5.34,5.34,0,0,1,1.41.17,2.72,2.72,0,0,1,1,.48,1.75,1.75,0,0,1,.57.75,2.58,2.58,0,0,1,0,1.84,2.2,2.2,0,0,1-.41.71,2.35,2.35,0,0,1-.67.53,3.36,3.36,0,0,1-.89.34,1.21,1.21,0,0,1,.38.37l2.51,3.41h-1a.52.52,0,0,1-.47-.24L130.45,14a.68.68,0,0,0-.22-.2.7.7,0,0,0-.36-.07Zm0-.84h1.21a2.75,2.75,0,0,0,.9-.13,1.74,1.74,0,0,0,.65-.34,1.5,1.5,0,0,0,.39-.54,1.73,1.73,0,0,0,.13-.69,1.39,1.39,0,0,0-.5-1.16,2.45,2.45,0,0,0-1.51-.39H129Z"/><path class="6d68b47a-a26f-4be0-9c72-c7d97782fd66" d="M136.27,8.75a.78.78,0,0,1,.17.16l5,6.48,0-.3V8.71h1v8.6h-.59a.47.47,0,0,1-.41-.21l-5-6.47a2.83,2.83,0,0,1,0,.29c0,.1,0,.19,0,.27v6.12h-1V8.71h.6A.63.63,0,0,1,136.27,8.75Z"/><path class="6d68b47a-a26f-4be0-9c72-c7d97782fd66" d="M151.58,17.31h-.9a.39.39,0,0,1-.25-.08.48.48,0,0,1-.14-.2L149.48,15h-3.86l-.8,2.07a.56.56,0,0,1-.14.2.45.45,0,0,1-.26.08h-.9L147,8.71h1.18ZM146,14.12h3.21l-1.35-3.5a5.56,5.56,0,0,1-.26-.81c0,.17-.09.32-.13.45s-.08.26-.12.37Z"/><path class="6d68b47a-a26f-4be0-9c72-c7d97782fd66" d="M157.22,11.14a2.79,2.79,0,0,1,1,.18,2.28,2.28,0,0,1,.8.53,2.34,2.34,0,0,1,.52.85,3.21,3.21,0,0,1,.19,1.16.77.77,0,0,1-.05.33.23.23,0,0,1-.21.09h-4a3.33,3.33,0,0,0,.16,1A2,2,0,0,0,156,16a1.56,1.56,0,0,0,.6.42,1.94,1.94,0,0,0,.78.15,2.29,2.29,0,0,0,.69-.1,3.19,3.19,0,0,0,.51-.2c.14-.07.25-.14.35-.2a.45.45,0,0,1,.24-.09.21.21,0,0,1,.2.1l.3.39a2.11,2.11,0,0,1-.47.42,3.59,3.59,0,0,1-.59.29,4.77,4.77,0,0,1-.65.17,3.88,3.88,0,0,1-.67.06,3.11,3.11,0,0,1-1.16-.22,2.62,2.62,0,0,1-.92-.62,2.87,2.87,0,0,1-.6-1,4.22,4.22,0,0,1-.22-1.39,3.58,3.58,0,0,1,.2-1.19,2.86,2.86,0,0,1,.56-1,2.48,2.48,0,0,1,.89-.63A2.87,2.87,0,0,1,157.22,11.14Zm0,.78a1.62,1.62,0,0,0-1.22.45,2.07,2.07,0,0,0-.55,1.24h3.3a2.07,2.07,0,0,0-.1-.68,1.57,1.57,0,0,0-.3-.54,1.27,1.27,0,0,0-.48-.34A1.51,1.51,0,0,0,157.25,11.92Z"/><path class="6d68b47a-a26f-4be0-9c72-c7d97782fd66" d="M165.38,17.31a.27.27,0,0,1-.29-.22l-.09-.74a3.19,3.19,0,0,1-.89.76,2.31,2.31,0,0,1-1.15.29,2.11,2.11,0,0,1-1-.21,2,2,0,0,1-.73-.59,2.82,2.82,0,0,1-.46-1,4.92,4.92,0,0,1-.16-1.34,4.24,4.24,0,0,1,.18-1.25,3,3,0,0,1,.52-1,2.31,2.31,0,0,1,.82-.67,2.52,2.52,0,0,1,1.11-.25,2.26,2.26,0,0,1,1,.19,2.31,2.31,0,0,1,.71.54V8.47H166v8.84Zm-2.07-.78a1.75,1.75,0,0,0,.92-.24,2.7,2.7,0,0,0,.72-.68V12.67a1.65,1.65,0,0,0-.65-.55,1.77,1.77,0,0,0-.77-.16,1.52,1.52,0,0,0-1.31.61,2.82,2.82,0,0,0-.46,1.72,4.24,4.24,0,0,0,.11,1,1.79,1.79,0,0,0,.3.7,1.13,1.13,0,0,0,.48.39A1.53,1.53,0,0,0,163.31,16.53Z"/><path class="6d68b47a-a26f-4be0-9c72-c7d97782fd66" d="M169.24,9.32a.73.73,0,0,1-.06.3,1,1,0,0,1-.17.24.78.78,0,0,1-.24.16.77.77,0,0,1-.3.06.72.72,0,0,1-.29-.06.74.74,0,0,1-.4-.4.73.73,0,0,1-.06-.3.82.82,0,0,1,.22-.54.78.78,0,0,1,.24-.16.72.72,0,0,1,.29-.06.77.77,0,0,1,.3.06.78.78,0,0,1,.24.16.92.92,0,0,1,.17.25A.72.72,0,0,1,169.24,9.32ZM169,11.23v6.08h-1.07V11.23Z"/><path class="6d68b47a-a26f-4be0-9c72-c7d97782fd66" d="M172.73,17.41a1.47,1.47,0,0,1-1.11-.41,1.57,1.57,0,0,1-.39-1.15V12.13h-.73a.23.23,0,0,1-.16-.06.21.21,0,0,1-.07-.18v-.42l1-.13.24-1.88a.22.22,0,0,1,.08-.14.25.25,0,0,1,.17-.06h.54v2.09H174v.78H172.3v3.65a.77.77,0,0,0,.19.57.65.65,0,0,0,.48.18.88.88,0,0,0,.29,0l.21-.1.15-.1a.25.25,0,0,1,.11-.05.18.18,0,0,1,.15.11l.32.51a2.13,2.13,0,0,1-.67.4A2.22,2.22,0,0,1,172.73,17.41Z"/><path class="6d68b47a-a26f-4be0-9c72-c7d97782fd66" d="M176.79,9.32a.6.6,0,0,1-.07.3.78.78,0,0,1-.16.24.76.76,0,0,1-.83.16.78.78,0,0,1-.24-.16.81.81,0,0,1-.17-.24.73.73,0,0,1-.06-.3.72.72,0,0,1,.06-.29.74.74,0,0,1,.17-.25.78.78,0,0,1,.24-.16.74.74,0,0,1,1,.41A.59.59,0,0,1,176.79,9.32Zm-.24,1.91v6.08h-1.07V11.23Z"/><path class="6d68b47a-a26f-4be0-9c72-c7d97782fd66" d="M178.43,17.31V11.23h.64a.28.28,0,0,1,.29.22l.08.66a3.44,3.44,0,0,1,.88-.7,2.34,2.34,0,0,1,1.14-.27,2.14,2.14,0,0,1,.87.16,1.69,1.69,0,0,1,.64.47,2,2,0,0,1,.39.73,3.1,3.1,0,0,1,.13.94v3.87h-1.07V13.44a1.63,1.63,0,0,0-.31-1.07,1.19,1.19,0,0,0-1-.38,1.81,1.81,0,0,0-.88.23,2.72,2.72,0,0,0-.76.61v4.48Z"/><path class="6d68b47a-a26f-4be0-9c72-c7d97782fd66" d="M187.15,11.13a2.94,2.94,0,0,1,.74.09,2.51,2.51,0,0,1,.63.25h1.65v.4c0,.13-.09.21-.25.25l-.69.1a2,2,0,0,1,0,1.67,1.86,1.86,0,0,1-.48.63,2.08,2.08,0,0,1-.72.39,2.9,2.9,0,0,1-.91.14,3,3,0,0,1-.8-.1,1.12,1.12,0,0,0-.3.26.54.54,0,0,0-.09.28.37.37,0,0,0,.17.34,1.3,1.3,0,0,0,.46.17,4.33,4.33,0,0,0,.66,0H188a4.54,4.54,0,0,1,.75.07,2.49,2.49,0,0,1,.65.22,1.19,1.19,0,0,1,.47.42,1.31,1.31,0,0,1,.17.69,1.67,1.67,0,0,1-.2.77,2.15,2.15,0,0,1-.56.66,3,3,0,0,1-.89.46,4,4,0,0,1-1.19.17,4.5,4.5,0,0,1-1.17-.13,2.66,2.66,0,0,1-.83-.36,1.52,1.52,0,0,1-.5-.51,1.21,1.21,0,0,1-.16-.61,1.08,1.08,0,0,1,.28-.76,2,2,0,0,1,.79-.51,1,1,0,0,1-.42-.32.86.86,0,0,1-.15-.53,1,1,0,0,1,.05-.28.91.91,0,0,1,.15-.27,1.2,1.2,0,0,1,.24-.27,1.66,1.66,0,0,1,.34-.22,1.91,1.91,0,0,1-.71-.67,1.82,1.82,0,0,1-.25-1,1.83,1.83,0,0,1,.64-1.43,2.22,2.22,0,0,1,.73-.39A3,3,0,0,1,187.15,11.13Zm1.9,6.49a.54.54,0,0,0-.13-.37.75.75,0,0,0-.34-.22,2.31,2.31,0,0,0-.5-.11,3.81,3.81,0,0,0-.59,0h-.64a2.51,2.51,0,0,1-.62-.08,1.8,1.8,0,0,0-.55.39.79.79,0,0,0-.22.56.77.77,0,0,0,.11.39.93.93,0,0,0,.32.3,1.69,1.69,0,0,0,.54.21,3.55,3.55,0,0,0,.77.07,3.67,3.67,0,0,0,.78-.08,1.8,1.8,0,0,0,.58-.23,1.07,1.07,0,0,0,.36-.34A.9.9,0,0,0,189.05,17.62Zm-1.9-3.28a1.62,1.62,0,0,0,.57-.09,1.09,1.09,0,0,0,.42-.25,1,1,0,0,0,.25-.39,1.3,1.3,0,0,0,.09-.49,1.2,1.2,0,0,0-.34-.89,1.38,1.38,0,0,0-1-.33,1.33,1.33,0,0,0-1,.33,1.16,1.16,0,0,0-.34.89,1.3,1.3,0,0,0,.09.49,1,1,0,0,0,.25.39,1.09,1.09,0,0,0,.42.25A1.6,1.6,0,0,0,187.15,14.34Z"/><path class="6d68b47a-a26f-4be0-9c72-c7d97782fd66" d="M35.85,30.26h3v.91h-3Z"/><path class="6d68b47a-a26f-4be0-9c72-c7d97782fd66" d="M49.85,34.31H49a.37.37,0,0,1-.25-.08.43.43,0,0,1-.15-.2L47.75,32H43.89L43.08,34a.39.39,0,0,1-.14.2.41.41,0,0,1-.25.08h-.9l3.44-8.6h1.18Zm-5.64-3.19h3.21l-1.35-3.5a7.33,7.33,0,0,1-.25-.81l-.13.45-.13.37Z"/><path class="6d68b47a-a26f-4be0-9c72-c7d97782fd66" d="M52,25.47v8.84H50.88V25.47Z"/><path class="6d68b47a-a26f-4be0-9c72-c7d97782fd66" d="M55,25.47v8.84H54V25.47Z"/><path class="6d68b47a-a26f-4be0-9c72-c7d97782fd66" d="M59.31,28.14a2.75,2.75,0,0,1,1,.18,2.2,2.2,0,0,1,.8.53,2.51,2.51,0,0,1,.53.85,3.45,3.45,0,0,1,.18,1.16.64.64,0,0,1,0,.33.22.22,0,0,1-.2.09h-4a3.33,3.33,0,0,0,.16,1,2.11,2.11,0,0,0,.39.71,1.56,1.56,0,0,0,.6.42,2,2,0,0,0,.78.15,2.41,2.41,0,0,0,.7-.1,3.46,3.46,0,0,0,.5-.2l.35-.2a.45.45,0,0,1,.24-.09.24.24,0,0,1,.21.1l.3.39a2.16,2.16,0,0,1-.48.42,3.59,3.59,0,0,1-.59.29,4.77,4.77,0,0,1-.65.17,3.79,3.79,0,0,1-.67.06,3.15,3.15,0,0,1-1.16-.22,2.5,2.5,0,0,1-.91-.62,3,3,0,0,1-.61-1,4.23,4.23,0,0,1-.21-1.39A3.58,3.58,0,0,1,56.67,30a2.86,2.86,0,0,1,.56-1,2.52,2.52,0,0,1,.9-.63A2.79,2.79,0,0,1,59.31,28.14Zm0,.78a1.64,1.64,0,0,0-1.22.45,2.07,2.07,0,0,0-.55,1.24h3.3a2.07,2.07,0,0,0-.1-.68,1.57,1.57,0,0,0-.3-.54,1.27,1.27,0,0,0-.48-.34A1.51,1.51,0,0,0,59.34,28.92Z"/><path class="6d68b47a-a26f-4be0-9c72-c7d97782fd66" d="M64.38,25.47v8.84H63.32V25.47Z"/><path class="6d68b47a-a26f-4be0-9c72-c7d97782fd66" d="M68.67,28.14a2.75,2.75,0,0,1,1,.18,2.2,2.2,0,0,1,.8.53,2.34,2.34,0,0,1,.52.85,3.21,3.21,0,0,1,.19,1.16.64.64,0,0,1,0,.33.22.22,0,0,1-.2.09h-4a3.33,3.33,0,0,0,.16,1,2.11,2.11,0,0,0,.39.71,1.56,1.56,0,0,0,.6.42,2,2,0,0,0,.78.15,2.41,2.41,0,0,0,.7-.1,3.46,3.46,0,0,0,.5-.2l.35-.2a.45.45,0,0,1,.24-.09.24.24,0,0,1,.21.1l.3.39a2.16,2.16,0,0,1-.48.42,3.59,3.59,0,0,1-.59.29,4.77,4.77,0,0,1-.65.17,3.79,3.79,0,0,1-.67.06,3.15,3.15,0,0,1-1.16-.22,2.5,2.5,0,0,1-.91-.62,3,3,0,0,1-.61-1,4.23,4.23,0,0,1-.21-1.39A3.58,3.58,0,0,1,66,30a2.86,2.86,0,0,1,.56-1,2.52,2.52,0,0,1,.9-.63A2.79,2.79,0,0,1,68.67,28.14Zm0,.78a1.64,1.64,0,0,0-1.22.45,2.07,2.07,0,0,0-.55,1.24h3.3a2.07,2.07,0,0,0-.1-.68,1.57,1.57,0,0,0-.3-.54,1.27,1.27,0,0,0-.48-.34A1.51,1.51,0,0,0,68.7,28.92Z"/><path class="6d68b47a-a26f-4be0-9c72-c7d97782fd66" d="M72.28,30.26h3v.91h-3Z"/><path class="6d68b47a-a26f-4be0-9c72-c7d97782fd66" d="M80.2,29.23a.24.24,0,0,1-.22.14.4.4,0,0,1-.21-.07l-.27-.15L79.1,29a2.12,2.12,0,0,0-.54-.06,1.75,1.75,0,0,0-.48.06,1.17,1.17,0,0,0-.37.19,1.05,1.05,0,0,0-.24.28.82.82,0,0,0-.08.35.6.6,0,0,0,.14.39,1.41,1.41,0,0,0,.35.27,4.18,4.18,0,0,0,.51.2l.58.18.58.22a2.29,2.29,0,0,1,.5.3,1.27,1.27,0,0,1,.49,1.07,2,2,0,0,1-.15.78,1.8,1.8,0,0,1-.44.62,2.3,2.3,0,0,1-.72.41,3,3,0,0,1-1,.15,3.06,3.06,0,0,1-1.15-.21,2.89,2.89,0,0,1-.87-.53l.25-.41a.43.43,0,0,1,.11-.12.32.32,0,0,1,.18,0,.42.42,0,0,1,.22.08l.3.19a2.26,2.26,0,0,0,.41.19,2,2,0,0,0,.61.08,1.71,1.71,0,0,0,.54-.08,1.21,1.21,0,0,0,.39-.22.71.71,0,0,0,.23-.32,1,1,0,0,0,.08-.38.64.64,0,0,0-.13-.42,1.15,1.15,0,0,0-.36-.28,3,3,0,0,0-.51-.21L78,31.55a5.77,5.77,0,0,1-.58-.22,1.88,1.88,0,0,1-.51-.31,1.27,1.27,0,0,1-.36-.46,1.47,1.47,0,0,1-.13-.66,1.59,1.59,0,0,1,.56-1.23,2.24,2.24,0,0,1,.68-.39,3.13,3.13,0,0,1,2,0,2.34,2.34,0,0,1,.82.52Z"/><path class="6d68b47a-a26f-4be0-9c72-c7d97782fd66" d="M81.93,36.37V28.23h.63a.27.27,0,0,1,.29.22l.09.72a3.56,3.56,0,0,1,.89-.76A2.32,2.32,0,0,1,85,28.12a2.14,2.14,0,0,1,1,.21,1.94,1.94,0,0,1,.72.59,2.7,2.7,0,0,1,.46,1,4.83,4.83,0,0,1,.17,1.33,4.15,4.15,0,0,1-.18,1.25,3.22,3.22,0,0,1-.52,1,2.34,2.34,0,0,1-.83.66,2.44,2.44,0,0,1-1.1.25,2.35,2.35,0,0,1-1-.19,2.13,2.13,0,0,1-.7-.53v2.69ZM84.63,29a1.72,1.72,0,0,0-.91.24,2.55,2.55,0,0,0-.72.68v2.94a1.63,1.63,0,0,0,.64.55,1.85,1.85,0,0,0,.78.17A1.56,1.56,0,0,0,85.73,33a2.85,2.85,0,0,0,.45-1.73,4.4,4.4,0,0,0-.1-1,2,2,0,0,0-.31-.7,1.23,1.23,0,0,0-.48-.4A1.69,1.69,0,0,0,84.63,29Z"/><path class="6d68b47a-a26f-4be0-9c72-c7d97782fd66" d="M91,28.14a2.79,2.79,0,0,1,1,.18,2.24,2.24,0,0,1,.79.53,2.36,2.36,0,0,1,.53.85,3.21,3.21,0,0,1,.19,1.16.62.62,0,0,1-.06.33.2.2,0,0,1-.2.09h-4a3.34,3.34,0,0,0,.15,1,2.12,2.12,0,0,0,.4.71,1.56,1.56,0,0,0,.6.42,1.94,1.94,0,0,0,.78.15,2.29,2.29,0,0,0,.69-.1,3.05,3.05,0,0,0,.5-.2l.35-.2A.51.51,0,0,1,92.9,33a.23.23,0,0,1,.2.1l.3.39a2.11,2.11,0,0,1-.47.42,3.45,3.45,0,0,1-1.25.46,3.68,3.68,0,0,1-.66.06,3.11,3.11,0,0,1-1.16-.22,2.54,2.54,0,0,1-.92-.62,2.87,2.87,0,0,1-.6-1,4,4,0,0,1-.22-1.39,3.34,3.34,0,0,1,.2-1.19,2.7,2.7,0,0,1,.56-1,2.48,2.48,0,0,1,.89-.63A2.84,2.84,0,0,1,91,28.14Zm0,.78a1.65,1.65,0,0,0-1.22.45,2.13,2.13,0,0,0-.55,1.24h3.31a2.37,2.37,0,0,0-.1-.68,1.57,1.57,0,0,0-.3-.54,1.39,1.39,0,0,0-.49-.34A1.48,1.48,0,0,0,91,28.92Z"/><path class="6d68b47a-a26f-4be0-9c72-c7d97782fd66" d="M99,29.31a.46.46,0,0,1-.1.1.2.2,0,0,1-.14,0,.32.32,0,0,1-.19-.07l-.27-.17a2.42,2.42,0,0,0-.39-.16,1.91,1.91,0,0,0-.57-.08,1.8,1.8,0,0,0-.79.16,1.68,1.68,0,0,0-.57.46,2.16,2.16,0,0,0-.35.73,3.49,3.49,0,0,0-.11.95,3.65,3.65,0,0,0,.12,1A2,2,0,0,0,96,33a1.47,1.47,0,0,0,.55.44,1.61,1.61,0,0,0,.74.16,1.69,1.69,0,0,0,.64-.1,2.06,2.06,0,0,0,.42-.2l.27-.21a.37.37,0,0,1,.22-.09.21.21,0,0,1,.2.1l.3.39a2.29,2.29,0,0,1-1,.71,3.47,3.47,0,0,1-1.25.23A2.86,2.86,0,0,1,96,34.19a2.71,2.71,0,0,1-.85-.61,2.86,2.86,0,0,1-.56-1,3.91,3.91,0,0,1-.21-1.33A3.86,3.86,0,0,1,94.6,30a2.77,2.77,0,0,1,.55-1,2.48,2.48,0,0,1,.9-.65,2.92,2.92,0,0,1,1.22-.23,3.08,3.08,0,0,1,1.13.2,2.73,2.73,0,0,1,.87.59Z"/><path class="6d68b47a-a26f-4be0-9c72-c7d97782fd66" d="M101.87,26.32a.73.73,0,0,1-.06.3.81.81,0,0,1-.17.24.78.78,0,0,1-.24.16.73.73,0,0,1-.3.06.72.72,0,0,1-.29-.06.74.74,0,0,1-.4-.4.73.73,0,0,1-.06-.3.82.82,0,0,1,.22-.54.78.78,0,0,1,.24-.16.72.72,0,0,1,.29-.06.73.73,0,0,1,.3.06.78.78,0,0,1,.24.16.74.74,0,0,1,.17.25A.72.72,0,0,1,101.87,26.32Zm-.24,1.91v6.08h-1.07V28.23Z"/><path class="6d68b47a-a26f-4be0-9c72-c7d97782fd66" d="M103.76,34.31V29.15l-.68-.08a.42.42,0,0,1-.2-.1.19.19,0,0,1-.08-.18v-.44h1V28a2.86,2.86,0,0,1,.17-1,2.26,2.26,0,0,1,.52-.8,2.35,2.35,0,0,1,.87-.52,3.7,3.7,0,0,1,1.21-.19,2.45,2.45,0,0,1,.46,0,1.93,1.93,0,0,1,.41.09l0,.56s0,.08-.07.09a.44.44,0,0,1-.18,0h-.3a2.25,2.25,0,0,0-1.54.44,1.74,1.74,0,0,0-.49,1.33v.3h3.68v6H107.4V29.13h-2.57v5.18Z"/><path class="6d68b47a-a26f-4be0-9c72-c7d97782fd66" d="M114.5,29.31a.3.3,0,0,1-.09.1.21.21,0,0,1-.14,0,.35.35,0,0,1-.2-.07l-.26-.17a2.21,2.21,0,0,0-.4-.16,2,2,0,0,0-1.35.08,1.51,1.51,0,0,0-.57.46,2,2,0,0,0-.35.73,3.48,3.48,0,0,0-.12.95,3.28,3.28,0,0,0,.13,1,2,2,0,0,0,.35.72,1.5,1.5,0,0,0,.56.44,1.57,1.57,0,0,0,.73.16,1.65,1.65,0,0,0,.64-.1,2.06,2.06,0,0,0,.42-.2l.28-.21a.33.33,0,0,1,.22-.09.21.21,0,0,1,.2.1l.3.39a2.29,2.29,0,0,1-1,.71,3.51,3.51,0,0,1-1.25.23,2.82,2.82,0,0,1-1.06-.21,2.6,2.6,0,0,1-.85-.61,3,3,0,0,1-.57-1,3.91,3.91,0,0,1-.21-1.33,4.15,4.15,0,0,1,.19-1.25,2.79,2.79,0,0,1,.56-1,2.53,2.53,0,0,1,.89-.65,3.32,3.32,0,0,1,2.35,0,2.73,2.73,0,0,1,.87.59Z"/><path class="6d68b47a-a26f-4be0-9c72-c7d97782fd66" d="M120.68,28.14a2.75,2.75,0,0,1,1,.18,2.28,2.28,0,0,1,.8.53,2.34,2.34,0,0,1,.52.85,3.21,3.21,0,0,1,.19,1.16.77.77,0,0,1,0,.33.23.23,0,0,1-.21.09h-4a3.33,3.33,0,0,0,.16,1,2,2,0,0,0,.39.71,1.56,1.56,0,0,0,.6.42,1.94,1.94,0,0,0,.78.15,2.29,2.29,0,0,0,.69-.1,3.19,3.19,0,0,0,.51-.2l.35-.2a.45.45,0,0,1,.24-.09.21.21,0,0,1,.2.1l.3.39a2.11,2.11,0,0,1-.47.42,3.59,3.59,0,0,1-.59.29,4.77,4.77,0,0,1-.65.17,3.88,3.88,0,0,1-.67.06,3.11,3.11,0,0,1-1.16-.22,2.62,2.62,0,0,1-.92-.62,2.87,2.87,0,0,1-.6-1,4.22,4.22,0,0,1-.22-1.39A3.58,3.58,0,0,1,118,30a2.86,2.86,0,0,1,.56-1,2.48,2.48,0,0,1,.89-.63A2.87,2.87,0,0,1,120.68,28.14Zm0,.78a1.62,1.62,0,0,0-1.22.45,2.07,2.07,0,0,0-.55,1.24h3.3a2.07,2.07,0,0,0-.1-.68,1.57,1.57,0,0,0-.3-.54,1.27,1.27,0,0,0-.48-.34A1.51,1.51,0,0,0,120.71,28.92Z"/><path class="6d68b47a-a26f-4be0-9c72-c7d97782fd66" d="M125.63,31.2l-2-3h1a.33.33,0,0,1,.19.05.33.33,0,0,1,.11.12l1.48,2.27a1.66,1.66,0,0,1,.16-.33l1.31-1.92a.87.87,0,0,1,.12-.14.25.25,0,0,1,.15-.05h1l-2,2.91,2.13,3.17h-1a.28.28,0,0,1-.21-.07.44.44,0,0,1-.12-.15l-1.53-2.38a1.07,1.07,0,0,1-.13.31l-1.41,2.07a1,1,0,0,1-.13.15.25.25,0,0,1-.19.07h-1Z"/><path class="6d68b47a-a26f-4be0-9c72-c7d97782fd66" d="M130.25,36.37V28.23h.64a.28.28,0,0,1,.29.22l.09.72a3.39,3.39,0,0,1,.89-.76,2.28,2.28,0,0,1,1.15-.29,2.11,2.11,0,0,1,.95.21,2,2,0,0,1,.73.59,2.87,2.87,0,0,1,.46,1,4.85,4.85,0,0,1,.16,1.33,4.15,4.15,0,0,1-.18,1.25,3,3,0,0,1-.52,1,2.3,2.3,0,0,1-.82.66,2.47,2.47,0,0,1-1.1.25,2.36,2.36,0,0,1-1-.19,2.24,2.24,0,0,1-.7-.53v2.69ZM133,29a1.73,1.73,0,0,0-.92.24,2.55,2.55,0,0,0-.72.68v2.94a1.7,1.7,0,0,0,.64.55,1.86,1.86,0,0,0,.79.17,1.54,1.54,0,0,0,1.3-.61,2.85,2.85,0,0,0,.46-1.73,4.36,4.36,0,0,0-.11-1,2.14,2.14,0,0,0-.3-.7,1.26,1.26,0,0,0-.49-.4A1.67,1.67,0,0,0,133,29Z"/><path class="6d68b47a-a26f-4be0-9c72-c7d97782fd66" d="M136.88,34.31V28.23h.61a.33.33,0,0,1,.24.07.46.46,0,0,1,.09.23l.07.95a2.75,2.75,0,0,1,.77-1,1.71,1.71,0,0,1,1.08-.36,1.53,1.53,0,0,1,.45.06,1.45,1.45,0,0,1,.38.16l-.14.8a.17.17,0,0,1-.18.15.9.9,0,0,1-.26-.06,1.59,1.59,0,0,0-.49-.06,1.36,1.36,0,0,0-.93.33,2.42,2.42,0,0,0-.63.94v3.87Z"/><path class="6d68b47a-a26f-4be0-9c72-c7d97782fd66" d="M144.12,28.14a2.79,2.79,0,0,1,1,.18,2.24,2.24,0,0,1,.79.53,2.36,2.36,0,0,1,.53.85,3.21,3.21,0,0,1,.19,1.16.62.62,0,0,1-.06.33.2.2,0,0,1-.2.09h-4a3.67,3.67,0,0,0,.16,1,2.12,2.12,0,0,0,.4.71,1.49,1.49,0,0,0,.6.42,1.94,1.94,0,0,0,.78.15,2.29,2.29,0,0,0,.69-.1,3.05,3.05,0,0,0,.5-.2l.35-.2a.51.51,0,0,1,.25-.09.23.23,0,0,1,.2.1l.3.39a2,2,0,0,1-.48.42,3.92,3.92,0,0,1-.58.29,4.91,4.91,0,0,1-.66.17,3.68,3.68,0,0,1-.66.06,3.11,3.11,0,0,1-1.16-.22,2.54,2.54,0,0,1-.92-.62,2.87,2.87,0,0,1-.6-1,4,4,0,0,1-.22-1.39,3.58,3.58,0,0,1,.19-1.19,2.72,2.72,0,0,1,.57-1,2.48,2.48,0,0,1,.89-.63A2.84,2.84,0,0,1,144.12,28.14Zm0,.78a1.65,1.65,0,0,0-1.22.45,2.13,2.13,0,0,0-.55,1.24h3.31a2.37,2.37,0,0,0-.1-.68,1.57,1.57,0,0,0-.3-.54,1.39,1.39,0,0,0-.49-.34A1.48,1.48,0,0,0,144.14,28.92Z"/><path class="6d68b47a-a26f-4be0-9c72-c7d97782fd66" d="M151.48,29.23a.24.24,0,0,1-.22.14.4.4,0,0,1-.21-.07l-.28-.15-.39-.15a2.12,2.12,0,0,0-.54-.06,1.75,1.75,0,0,0-.48.06,1.17,1.17,0,0,0-.37.19.9.9,0,0,0-.24.28.82.82,0,0,0-.08.35.6.6,0,0,0,.14.39,1.25,1.25,0,0,0,.35.27,4.18,4.18,0,0,0,.51.2l.58.18.58.22a2.29,2.29,0,0,1,.5.3,1.27,1.27,0,0,1,.49,1.07,2,2,0,0,1-.15.78,1.8,1.8,0,0,1-.44.62,2.3,2.3,0,0,1-.72.41,3,3,0,0,1-1,.15,3,3,0,0,1-1.15-.21,2.89,2.89,0,0,1-.87-.53l.25-.41a.43.43,0,0,1,.11-.12.32.32,0,0,1,.18,0,.42.42,0,0,1,.22.08l.29.19a2.76,2.76,0,0,0,.42.19,2,2,0,0,0,.61.08,1.71,1.71,0,0,0,.54-.08,1.21,1.21,0,0,0,.39-.22.79.79,0,0,0,.23-.32,1,1,0,0,0,.08-.38.64.64,0,0,0-.14-.42,1.23,1.23,0,0,0-.35-.28,3,3,0,0,0-.51-.21l-.58-.18a5.77,5.77,0,0,1-.58-.22,1.88,1.88,0,0,1-.51-.31,1.27,1.27,0,0,1-.36-.46,1.47,1.47,0,0,1-.13-.66,1.59,1.59,0,0,1,.56-1.23,2.24,2.24,0,0,1,.68-.39,2.87,2.87,0,0,1,.92-.14,2.76,2.76,0,0,1,1.07.19,2.29,2.29,0,0,1,.83.52Z"/><path class="6d68b47a-a26f-4be0-9c72-c7d97782fd66" d="M156.69,29.23a.24.24,0,0,1-.23.14.4.4,0,0,1-.2-.07l-.28-.15-.39-.15a2.12,2.12,0,0,0-.54-.06,1.88,1.88,0,0,0-.49.06,1.43,1.43,0,0,0-.37.19.86.86,0,0,0-.23.28.82.82,0,0,0-.08.35.59.59,0,0,0,.13.39,1.3,1.3,0,0,0,.36.27,4.18,4.18,0,0,0,.51.2l.57.18.58.22a2.14,2.14,0,0,1,.51.3,1.51,1.51,0,0,1,.35.44,1.39,1.39,0,0,1,.14.63,2,2,0,0,1-.15.78,1.71,1.71,0,0,1-.45.62,2.09,2.09,0,0,1-.72.41,2.93,2.93,0,0,1-1,.15,3,3,0,0,1-1.15-.21,3,3,0,0,1-.88-.53l.26-.41a.43.43,0,0,1,.11-.12.29.29,0,0,1,.17,0,.43.43,0,0,1,.23.08l.29.19a2.38,2.38,0,0,0,.42.19,2,2,0,0,0,.61.08,1.8,1.8,0,0,0,.54-.08,1.21,1.21,0,0,0,.39-.22A.79.79,0,0,0,156,33a1,1,0,0,0,.08-.38.64.64,0,0,0-.14-.42,1.23,1.23,0,0,0-.35-.28,3,3,0,0,0-.51-.21l-.58-.18a6,6,0,0,1-.59-.22,1.69,1.69,0,0,1-.5-.31,1.27,1.27,0,0,1-.36-.46,1.47,1.47,0,0,1-.13-.66,1.58,1.58,0,0,1,.14-.67,1.76,1.76,0,0,1,.42-.56,2.13,2.13,0,0,1,.68-.39,2.87,2.87,0,0,1,.92-.14,2.83,2.83,0,0,1,1.07.19,2.29,2.29,0,0,1,.83.52Z"/><path class="6d68b47a-a26f-4be0-9c72-c7d97782fd66" d="M159.84,26.32a.73.73,0,0,1-.06.3.81.81,0,0,1-.17.24.78.78,0,0,1-.24.16.72.72,0,0,1-.29.06.73.73,0,0,1-.3-.06.74.74,0,0,1-.4-.4.73.73,0,0,1-.06-.3.82.82,0,0,1,.22-.54.78.78,0,0,1,.24-.16.73.73,0,0,1,.3-.06.72.72,0,0,1,.29.06.78.78,0,0,1,.24.16.74.74,0,0,1,.17.25A.72.72,0,0,1,159.84,26.32Zm-.24,1.91v6.08h-1.06V28.23Z"/><path class="6d68b47a-a26f-4be0-9c72-c7d97782fd66" d="M164,28.14a3.09,3.09,0,0,1,1.2.22,2.56,2.56,0,0,1,.91.63,2.85,2.85,0,0,1,.58,1,4,4,0,0,1,.2,1.29,4.08,4.08,0,0,1-.2,1.3,2.9,2.9,0,0,1-.58,1,2.56,2.56,0,0,1-.91.63,3.41,3.41,0,0,1-2.41,0,2.65,2.65,0,0,1-.91-.63,2.74,2.74,0,0,1-.58-1,3.81,3.81,0,0,1-.21-1.3,3.71,3.71,0,0,1,.21-1.29,2.7,2.7,0,0,1,.58-1,2.65,2.65,0,0,1,.91-.63A3.11,3.11,0,0,1,164,28.14Zm0,5.42a1.55,1.55,0,0,0,1.34-.6,2.77,2.77,0,0,0,.45-1.68,2.82,2.82,0,0,0-.45-1.7A1.55,1.55,0,0,0,164,29a1.89,1.89,0,0,0-.79.15,1.59,1.59,0,0,0-.57.45,2,2,0,0,0-.33.73,4.29,4.29,0,0,0,0,1.93,1.91,1.91,0,0,0,.33.72,1.46,1.46,0,0,0,.57.44A1.74,1.74,0,0,0,164,33.56Z"/><path class="6d68b47a-a26f-4be0-9c72-c7d97782fd66" d="M168.16,34.31V28.23h.63a.27.27,0,0,1,.29.22l.09.66a3.44,3.44,0,0,1,.88-.7,2.3,2.3,0,0,1,1.13-.27,2.16,2.16,0,0,1,.88.16,1.69,1.69,0,0,1,.64.47,1.88,1.88,0,0,1,.38.73,3.09,3.09,0,0,1,.14.94v3.87h-1.07V30.44a1.63,1.63,0,0,0-.32-1.07,1.19,1.19,0,0,0-1-.38,1.78,1.78,0,0,0-.88.23,2.72,2.72,0,0,0-.76.61v4.48Z"/><path class="6d68b47a-a26f-4be0-9c72-c7d97782fd66" d="M35.85,47.26h3v.91h-3Z"/><path class="6d68b47a-a26f-4be0-9c72-c7d97782fd66" d="M46.61,50.46a6.4,6.4,0,0,0,.64,0,3,3,0,0,0,.54-.1,2.35,2.35,0,0,0,.49-.16l.46-.21V48.07H47.41a.29.29,0,0,1-.19-.07.26.26,0,0,1-.07-.16v-.66h2.64v3.3a5.72,5.72,0,0,1-.67.41,6.13,6.13,0,0,1-.75.29,6.89,6.89,0,0,1-.86.17,7.52,7.52,0,0,1-1,.06,4.53,4.53,0,0,1-1.71-.32,3.93,3.93,0,0,1-2.23-2.29,5.32,5.32,0,0,1,0-3.58,3.8,3.8,0,0,1,2.27-2.28,4.8,4.8,0,0,1,1.82-.32,5.73,5.73,0,0,1,.95.07,4,4,0,0,1,.81.22,3.91,3.91,0,0,1,1.28.79l-.33.53a.28.28,0,0,1-.26.16.48.48,0,0,1-.21-.06l-.33-.21a3.44,3.44,0,0,0-1.09-.42,4.27,4.27,0,0,0-.86-.08,3.43,3.43,0,0,0-1.31.24,2.73,2.73,0,0,0-1,.68,2.94,2.94,0,0,0-.64,1.07,4.66,4.66,0,0,0,0,2.86,2.92,2.92,0,0,0,.65,1.08,2.83,2.83,0,0,0,1,.68A3.31,3.31,0,0,0,46.61,50.46Z"/><path class="6d68b47a-a26f-4be0-9c72-c7d97782fd66" d="M53.82,45.14a2.79,2.79,0,0,1,1,.18,2.28,2.28,0,0,1,.8.53,2.49,2.49,0,0,1,.52.85,3.21,3.21,0,0,1,.19,1.16.77.77,0,0,1-.05.33.23.23,0,0,1-.21.09H52a3.34,3.34,0,0,0,.15,1,2.12,2.12,0,0,0,.4.71,1.56,1.56,0,0,0,.6.42,1.94,1.94,0,0,0,.78.15,2.29,2.29,0,0,0,.69-.1,3.05,3.05,0,0,0,.5-.2l.35-.2a.51.51,0,0,1,.25-.09.22.22,0,0,1,.2.1l.3.39a2.11,2.11,0,0,1-.47.42,4,4,0,0,1-.59.29,4.55,4.55,0,0,1-.66.17,3.68,3.68,0,0,1-.66.06,3.11,3.11,0,0,1-1.16-.22,2.54,2.54,0,0,1-.92-.62,2.87,2.87,0,0,1-.6-1A4,4,0,0,1,51,48.15a3.58,3.58,0,0,1,.2-1.19,2.7,2.7,0,0,1,.56-1,2.48,2.48,0,0,1,.89-.63A2.84,2.84,0,0,1,53.82,45.14Zm0,.78a1.61,1.61,0,0,0-1.21.45,2.14,2.14,0,0,0-.56,1.24h3.31a2.07,2.07,0,0,0-.1-.68,1.57,1.57,0,0,0-.3-.54,1.31,1.31,0,0,0-.49-.34A1.48,1.48,0,0,0,53.84,45.92Z"/><path class="6d68b47a-a26f-4be0-9c72-c7d97782fd66" d="M57.7,51.31V45.23h.64a.29.29,0,0,1,.29.22l.08.66a3.44,3.44,0,0,1,.88-.7,2.34,2.34,0,0,1,1.14-.27,2.14,2.14,0,0,1,.87.16,1.69,1.69,0,0,1,.64.47,2,2,0,0,1,.39.73,3.1,3.1,0,0,1,.13.94v3.87H61.69V47.44a1.63,1.63,0,0,0-.31-1.07,1.19,1.19,0,0,0-1-.38,1.81,1.81,0,0,0-.88.23,2.72,2.72,0,0,0-.76.61v4.48Z"/><path class="6d68b47a-a26f-4be0-9c72-c7d97782fd66" d="M66.83,45.14a3.11,3.11,0,0,1,1.21.22A2.65,2.65,0,0,1,69,46a2.68,2.68,0,0,1,.57,1,3.71,3.71,0,0,1,.21,1.29,3.81,3.81,0,0,1-.21,1.3,2.72,2.72,0,0,1-.57,1,2.65,2.65,0,0,1-.91.63,3.41,3.41,0,0,1-2.41,0,2.69,2.69,0,0,1-.92-.63,2.9,2.9,0,0,1-.58-1,4.08,4.08,0,0,1-.2-1.3,4,4,0,0,1,.2-1.29,2.85,2.85,0,0,1,.58-1,2.69,2.69,0,0,1,.92-.63A3.09,3.09,0,0,1,66.83,45.14Zm0,5.42a1.58,1.58,0,0,0,1.35-.6,2.84,2.84,0,0,0,.44-1.68,2.89,2.89,0,0,0-.44-1.7,1.58,1.58,0,0,0-1.35-.6,2,2,0,0,0-.79.15,1.64,1.64,0,0,0-.56.45,2.14,2.14,0,0,0-.34.73,4.29,4.29,0,0,0,0,1.93,2.09,2.09,0,0,0,.34.72,1.5,1.5,0,0,0,.56.44A1.8,1.8,0,0,0,66.83,50.56Z"/><path class="6d68b47a-a26f-4be0-9c72-c7d97782fd66" d="M71,51.31V45.23h.64a.28.28,0,0,1,.29.22l.08.63a3,3,0,0,1,.75-.68,1.83,1.83,0,0,1,1-.26,1.44,1.44,0,0,1,1,.34,2,2,0,0,1,.55.92,1.78,1.78,0,0,1,.33-.57,1.75,1.75,0,0,1,.47-.39,1.83,1.83,0,0,1,.54-.23,2.38,2.38,0,0,1,.59-.07,2.28,2.28,0,0,1,.86.15,1.69,1.69,0,0,1,.64.45,2.08,2.08,0,0,1,.4.72,3.28,3.28,0,0,1,.13,1v3.87H78.21V47.44a1.6,1.6,0,0,0-.31-1.08A1.09,1.09,0,0,0,77,46a1.35,1.35,0,0,0-.5.09,1.07,1.07,0,0,0-.42.28,1.29,1.29,0,0,0-.29.45,1.74,1.74,0,0,0-.1.63v3.87H74.62V47.44a1.73,1.73,0,0,0-.29-1.09,1.06,1.06,0,0,0-.86-.36,1.41,1.41,0,0,0-.74.21,2.58,2.58,0,0,0-.62.58v4.53Z"/><path class="6d68b47a-a26f-4be0-9c72-c7d97782fd66" d="M83.3,45.14a2.75,2.75,0,0,1,1,.18,2.28,2.28,0,0,1,.8.53,2.34,2.34,0,0,1,.52.85,3.21,3.21,0,0,1,.19,1.16.64.64,0,0,1,0,.33.22.22,0,0,1-.2.09h-4a3.33,3.33,0,0,0,.16,1,2.11,2.11,0,0,0,.39.71,1.56,1.56,0,0,0,.6.42,2,2,0,0,0,.78.15,2.41,2.41,0,0,0,.7-.1,3.46,3.46,0,0,0,.5-.2l.35-.2a.45.45,0,0,1,.24-.09.24.24,0,0,1,.21.1l.3.39a2.16,2.16,0,0,1-.48.42,3.59,3.59,0,0,1-.59.29,4.77,4.77,0,0,1-.65.17,3.79,3.79,0,0,1-.67.06,3.15,3.15,0,0,1-1.16-.22,2.62,2.62,0,0,1-.92-.62,3.2,3.2,0,0,1-.6-1,4.22,4.22,0,0,1-.22-1.39,3.58,3.58,0,0,1,.2-1.19,2.86,2.86,0,0,1,.56-1,2.44,2.44,0,0,1,.9-.63A2.79,2.79,0,0,1,83.3,45.14Zm0,.78a1.64,1.64,0,0,0-1.22.45,2.07,2.07,0,0,0-.55,1.24h3.3a2.07,2.07,0,0,0-.1-.68,1.57,1.57,0,0,0-.3-.54,1.27,1.27,0,0,0-.48-.34A1.51,1.51,0,0,0,83.33,45.92Z"/><path class="6d68b47a-a26f-4be0-9c72-c7d97782fd66" d="M94,51.31h-.47a.58.58,0,0,1-.25-.05.25.25,0,0,1-.13-.2L93,50.49a4,4,0,0,1-.47.39,2.36,2.36,0,0,1-.48.29,2.21,2.21,0,0,1-.53.18,3.06,3.06,0,0,1-.63.06,2.41,2.41,0,0,1-.67-.1,1.78,1.78,0,0,1-.54-.3,1.43,1.43,0,0,1-.36-.5,1.81,1.81,0,0,1-.13-.72,1.31,1.31,0,0,1,.2-.7A1.72,1.72,0,0,1,90,48.5a4.64,4.64,0,0,1,1.16-.43,7.91,7.91,0,0,1,1.75-.16v-.48a1.69,1.69,0,0,0-.31-1.08,1.1,1.1,0,0,0-.9-.36,1.81,1.81,0,0,0-.65.1,2.19,2.19,0,0,0-.46.22l-.34.22a.46.46,0,0,1-.28.1.33.33,0,0,1-.19-.06.35.35,0,0,1-.13-.14l-.19-.34a3.79,3.79,0,0,1,1.09-.73,3.33,3.33,0,0,1,1.29-.24,2.29,2.29,0,0,1,.9.17,1.8,1.8,0,0,1,.67.47,2.07,2.07,0,0,1,.41.73,3,3,0,0,1,.13.93Zm-2.77-.65a2.12,2.12,0,0,0,.52-.06,2.09,2.09,0,0,0,.44-.16,2.48,2.48,0,0,0,.4-.26c.12-.1.24-.21.37-.34V48.59a7.42,7.42,0,0,0-1.26.09,3.55,3.55,0,0,0-.84.24,1.21,1.21,0,0,0-.47.36.77.77,0,0,0-.15.46,1.08,1.08,0,0,0,.08.42.74.74,0,0,0,.21.28.85.85,0,0,0,.31.17A1.6,1.6,0,0,0,91.19,50.66Z"/><path class="6d68b47a-a26f-4be0-9c72-c7d97782fd66" d="M95.58,51.31V45.23h.64a.28.28,0,0,1,.29.22l.08.66a3.48,3.48,0,0,1,.89-.7,2.28,2.28,0,0,1,1.13-.27,2.23,2.23,0,0,1,.88.16,1.74,1.74,0,0,1,.63.47,2,2,0,0,1,.39.73,3.1,3.1,0,0,1,.13.94v3.87H99.58V47.44a1.63,1.63,0,0,0-.32-1.07,1.19,1.19,0,0,0-1-.38,1.84,1.84,0,0,0-.89.23,2.87,2.87,0,0,0-.76.61v4.48Z"/><path class="6d68b47a-a26f-4be0-9c72-c7d97782fd66" d="M102.26,51.31V45.23h.63a.28.28,0,0,1,.29.22l.08.66a3.48,3.48,0,0,1,.89-.7,2.3,2.3,0,0,1,1.13-.27,2.19,2.19,0,0,1,.88.16,1.78,1.78,0,0,1,.64.47,2,2,0,0,1,.38.73,3.1,3.1,0,0,1,.13.94v3.87h-1.06V47.44a1.63,1.63,0,0,0-.32-1.07,1.19,1.19,0,0,0-1-.38,1.84,1.84,0,0,0-.89.23,3,3,0,0,0-.76.61v4.48Z"/><path class="6d68b47a-a26f-4be0-9c72-c7d97782fd66" d="M111.39,45.14a3.09,3.09,0,0,1,1.2.22,2.56,2.56,0,0,1,.91.63,2.7,2.7,0,0,1,.58,1,4,4,0,0,1,.2,1.29,4.08,4.08,0,0,1-.2,1.3,2.74,2.74,0,0,1-.58,1,2.56,2.56,0,0,1-.91.63,3.29,3.29,0,0,1-1.2.22,3.21,3.21,0,0,1-1.2-.22,2.6,2.6,0,0,1-.92-.63,2.74,2.74,0,0,1-.58-1,3.81,3.81,0,0,1-.21-1.3,3.71,3.71,0,0,1,.21-1.29,2.7,2.7,0,0,1,.58-1,2.6,2.6,0,0,1,.92-.63A3,3,0,0,1,111.39,45.14Zm0,5.42a1.55,1.55,0,0,0,1.34-.6,2.77,2.77,0,0,0,.45-1.68,2.82,2.82,0,0,0-.45-1.7,1.55,1.55,0,0,0-1.34-.6,1.89,1.89,0,0,0-.79.15,1.55,1.55,0,0,0-.56.45,2,2,0,0,0-.34.73,4.29,4.29,0,0,0,0,1.93A1.92,1.92,0,0,0,110,50a1.43,1.43,0,0,0,.56.44A1.74,1.74,0,0,0,111.39,50.56Z"/><path class="6d68b47a-a26f-4be0-9c72-c7d97782fd66" d="M117.44,51.41a1.47,1.47,0,0,1-1.11-.41,1.61,1.61,0,0,1-.38-1.15V46.13h-.73a.25.25,0,0,1-.17-.06.24.24,0,0,1-.06-.18v-.42l1-.13.25-1.88a.18.18,0,0,1,.08-.14.24.24,0,0,1,.17-.06H117v2.09h1.74v.78H117v3.65a.81.81,0,0,0,.18.57.68.68,0,0,0,.48.18.85.85,0,0,0,.29,0,1.56,1.56,0,0,0,.22-.1l.15-.1a.21.21,0,0,1,.11,0,.18.18,0,0,1,.15.11l.31.51a2,2,0,0,1-.66.4A2.24,2.24,0,0,1,117.44,51.41Z"/><path class="6d68b47a-a26f-4be0-9c72-c7d97782fd66" d="M124.54,51.31h-.47a.63.63,0,0,1-.26-.05.27.27,0,0,1-.12-.2l-.12-.57a5.09,5.09,0,0,1-.47.39,2.36,2.36,0,0,1-.48.29,2.45,2.45,0,0,1-.54.18,3.06,3.06,0,0,1-.63.06,2.28,2.28,0,0,1-.66-.1,1.57,1.57,0,0,1-.54-.3,1.43,1.43,0,0,1-.36-.5,1.81,1.81,0,0,1-.14-.72,1.41,1.41,0,0,1,.2-.7,1.76,1.76,0,0,1,.64-.59,4.56,4.56,0,0,1,1.15-.43,8,8,0,0,1,1.75-.16v-.48a1.69,1.69,0,0,0-.3-1.08,1.1,1.1,0,0,0-.9-.36,1.83,1.83,0,0,0-.66.1,2.46,2.46,0,0,0-.46.22l-.34.22a.43.43,0,0,1-.27.1.29.29,0,0,1-.19-.06.29.29,0,0,1-.13-.14l-.19-.34a3.62,3.62,0,0,1,1.08-.73,3.37,3.37,0,0,1,1.29-.24,2.38,2.38,0,0,1,.91.17,1.85,1.85,0,0,1,.66.47,1.93,1.93,0,0,1,.41.73,3,3,0,0,1,.14.93Zm-2.77-.65a2,2,0,0,0,.51-.06,2.18,2.18,0,0,0,.45-.16,2.41,2.41,0,0,0,.39-.26,2.92,2.92,0,0,0,.37-.34V48.59a7.37,7.37,0,0,0-1.25.09,3.28,3.28,0,0,0-.84.24,1.14,1.14,0,0,0-.47.36.77.77,0,0,0-.15.46.93.93,0,0,0,.08.42.74.74,0,0,0,.21.28.78.78,0,0,0,.31.17A1.6,1.6,0,0,0,121.77,50.66Z"/><path class="6d68b47a-a26f-4be0-9c72-c7d97782fd66" d="M128,51.41a1.43,1.43,0,0,1-1.1-.41,1.57,1.57,0,0,1-.39-1.15V46.13h-.73a.25.25,0,0,1-.17-.06.24.24,0,0,1-.06-.18v-.42l1-.13.25-1.88a.18.18,0,0,1,.08-.14.24.24,0,0,1,.17-.06h.54v2.09h1.74v.78h-1.74v3.65a.81.81,0,0,0,.18.57.68.68,0,0,0,.48.18.85.85,0,0,0,.29,0,1.56,1.56,0,0,0,.22-.1l.15-.1a.21.21,0,0,1,.11,0,.18.18,0,0,1,.15.11l.31.51a2,2,0,0,1-.66.4A2.24,2.24,0,0,1,128,51.41Z"/><path class="6d68b47a-a26f-4be0-9c72-c7d97782fd66" d="M132.06,43.32a.73.73,0,0,1-.06.3.81.81,0,0,1-.17.24.78.78,0,0,1-.24.16.72.72,0,0,1-.29.06A.73.73,0,0,1,131,44a.91.91,0,0,1-.24-.16,1,1,0,0,1-.16-.24.73.73,0,0,1-.06-.3.72.72,0,0,1,.06-.29.89.89,0,0,1,.16-.25.91.91,0,0,1,.24-.16.73.73,0,0,1,.3-.06.72.72,0,0,1,.29.06.78.78,0,0,1,.24.16A.74.74,0,0,1,132,43,.72.72,0,0,1,132.06,43.32Zm-.24,1.91v6.08h-1.06V45.23Z"/><path class="6d68b47a-a26f-4be0-9c72-c7d97782fd66" d="M136.17,45.14a3.09,3.09,0,0,1,1.2.22,2.56,2.56,0,0,1,.91.63,2.85,2.85,0,0,1,.58,1,4,4,0,0,1,.2,1.29,4.08,4.08,0,0,1-.2,1.3,2.9,2.9,0,0,1-.58,1,2.56,2.56,0,0,1-.91.63,3.41,3.41,0,0,1-2.41,0,2.65,2.65,0,0,1-.91-.63,2.74,2.74,0,0,1-.58-1,3.81,3.81,0,0,1-.21-1.3,3.71,3.71,0,0,1,.21-1.29,2.7,2.7,0,0,1,.58-1,2.65,2.65,0,0,1,.91-.63A3.11,3.11,0,0,1,136.17,45.14Zm0,5.42a1.55,1.55,0,0,0,1.34-.6,2.77,2.77,0,0,0,.45-1.68,2.82,2.82,0,0,0-.45-1.7,1.55,1.55,0,0,0-1.34-.6,1.89,1.89,0,0,0-.79.15,1.59,1.59,0,0,0-.57.45,2.13,2.13,0,0,0-.33.73,4.29,4.29,0,0,0,0,1.93,2.08,2.08,0,0,0,.33.72,1.46,1.46,0,0,0,.57.44A1.74,1.74,0,0,0,136.17,50.56Z"/><path class="6d68b47a-a26f-4be0-9c72-c7d97782fd66" d="M140.38,51.31V45.23H141a.27.27,0,0,1,.28.22l.09.66a3.44,3.44,0,0,1,.88-.7,2.33,2.33,0,0,1,1.13-.27,2.16,2.16,0,0,1,.88.16,1.69,1.69,0,0,1,.64.47,2,2,0,0,1,.39.73,3.44,3.44,0,0,1,.13.94v3.87h-1.07V47.44a1.63,1.63,0,0,0-.32-1.07,1.19,1.19,0,0,0-1-.38,1.78,1.78,0,0,0-.88.23,2.72,2.72,0,0,0-.76.61v4.48Z"/><path class="6d68b47a-a26f-4be0-9c72-c7d97782fd66" d="M35.85,64.26h3v.91h-3Z"/><path class="6d68b47a-a26f-4be0-9c72-c7d97782fd66" d="M46.61,67.46a6.4,6.4,0,0,0,.64,0,3,3,0,0,0,.54-.1,2.35,2.35,0,0,0,.49-.16l.46-.21V65.07H47.41a.29.29,0,0,1-.19-.07.26.26,0,0,1-.07-.16v-.66h2.64v3.3a5.72,5.72,0,0,1-.67.41,6.13,6.13,0,0,1-.75.29,6.89,6.89,0,0,1-.86.17,7.52,7.52,0,0,1-1,.06,4.53,4.53,0,0,1-1.71-.32,3.93,3.93,0,0,1-2.23-2.29,5.32,5.32,0,0,1,0-3.58,3.8,3.8,0,0,1,2.27-2.28,4.8,4.8,0,0,1,1.82-.32,5.73,5.73,0,0,1,.95.07,4,4,0,0,1,.81.22,3.91,3.91,0,0,1,1.28.79l-.33.53a.28.28,0,0,1-.26.16.48.48,0,0,1-.21-.06l-.33-.21a3.44,3.44,0,0,0-1.09-.42,4.27,4.27,0,0,0-.86-.08,3.43,3.43,0,0,0-1.31.24,2.73,2.73,0,0,0-1,.68,2.94,2.94,0,0,0-.64,1.07,4.66,4.66,0,0,0,0,2.86,2.92,2.92,0,0,0,.65,1.08,2.83,2.83,0,0,0,1,.68A3.31,3.31,0,0,0,46.61,67.46Z"/><path class="6d68b47a-a26f-4be0-9c72-c7d97782fd66" d="M53.82,62.14a2.79,2.79,0,0,1,1,.18,2.28,2.28,0,0,1,.8.53,2.49,2.49,0,0,1,.52.85,3.21,3.21,0,0,1,.19,1.16.77.77,0,0,1-.05.33.23.23,0,0,1-.21.09H52a3.34,3.34,0,0,0,.15,1,2.12,2.12,0,0,0,.4.71,1.56,1.56,0,0,0,.6.42,1.94,1.94,0,0,0,.78.15,2.29,2.29,0,0,0,.69-.1,3.05,3.05,0,0,0,.5-.2l.35-.2a.51.51,0,0,1,.25-.09.22.22,0,0,1,.2.1l.3.39a2.11,2.11,0,0,1-.47.42,4,4,0,0,1-.59.29,4.55,4.55,0,0,1-.66.17,3.68,3.68,0,0,1-.66.06,3.11,3.11,0,0,1-1.16-.22,2.54,2.54,0,0,1-.92-.62,2.87,2.87,0,0,1-.6-1A4,4,0,0,1,51,65.15a3.58,3.58,0,0,1,.2-1.19,2.7,2.7,0,0,1,.56-1,2.48,2.48,0,0,1,.89-.63A2.84,2.84,0,0,1,53.82,62.14Zm0,.78a1.61,1.61,0,0,0-1.21.45,2.14,2.14,0,0,0-.56,1.24h3.31a2.07,2.07,0,0,0-.1-.68,1.57,1.57,0,0,0-.3-.54,1.31,1.31,0,0,0-.49-.34A1.48,1.48,0,0,0,53.84,62.92Z"/><path class="6d68b47a-a26f-4be0-9c72-c7d97782fd66" d="M57.7,68.31V62.23h.64a.29.29,0,0,1,.29.22l.08.66a3.44,3.44,0,0,1,.88-.7,2.34,2.34,0,0,1,1.14-.27,2.14,2.14,0,0,1,.87.16,1.69,1.69,0,0,1,.64.47,2,2,0,0,1,.39.73,3.1,3.1,0,0,1,.13.94v3.87H61.69V64.44a1.63,1.63,0,0,0-.31-1.07,1.19,1.19,0,0,0-1-.38,1.81,1.81,0,0,0-.88.23,2.72,2.72,0,0,0-.76.61v4.48Z"/><path class="6d68b47a-a26f-4be0-9c72-c7d97782fd66" d="M66.78,62.14a2.79,2.79,0,0,1,1,.18,2.16,2.16,0,0,1,.79.53,2.36,2.36,0,0,1,.53.85,3.21,3.21,0,0,1,.19,1.16.77.77,0,0,1,0,.33.23.23,0,0,1-.21.09H65a3.34,3.34,0,0,0,.15,1,2.12,2.12,0,0,0,.4.71,1.56,1.56,0,0,0,.6.42,1.94,1.94,0,0,0,.78.15,2.29,2.29,0,0,0,.69-.1,3.05,3.05,0,0,0,.5-.2l.35-.2a.51.51,0,0,1,.25-.09.22.22,0,0,1,.2.1l.3.39a2.11,2.11,0,0,1-.47.42,4,4,0,0,1-.59.29,4.55,4.55,0,0,1-.66.17,3.68,3.68,0,0,1-.66.06,3.11,3.11,0,0,1-1.16-.22,2.54,2.54,0,0,1-.92-.62,2.87,2.87,0,0,1-.6-1,4,4,0,0,1-.22-1.39,3.58,3.58,0,0,1,.2-1.19,2.7,2.7,0,0,1,.56-1,2.48,2.48,0,0,1,.89-.63A2.84,2.84,0,0,1,66.78,62.14Zm0,.78a1.65,1.65,0,0,0-1.22.45A2.19,2.19,0,0,0,65,64.61h3.31a2.07,2.07,0,0,0-.1-.68,1.57,1.57,0,0,0-.3-.54,1.31,1.31,0,0,0-.49-.34A1.48,1.48,0,0,0,66.8,62.92Z"/><path class="6d68b47a-a26f-4be0-9c72-c7d97782fd66" d="M77.44,68.31H77a.63.63,0,0,1-.26,0,.27.27,0,0,1-.12-.2l-.12-.57a5.09,5.09,0,0,1-.47.39,2.36,2.36,0,0,1-.48.29,2.45,2.45,0,0,1-.54.18,3.06,3.06,0,0,1-.63.06,2.34,2.34,0,0,1-.66-.1,1.57,1.57,0,0,1-.54-.3,1.43,1.43,0,0,1-.36-.5,1.81,1.81,0,0,1-.14-.72,1.41,1.41,0,0,1,.2-.7,1.76,1.76,0,0,1,.64-.59,4.5,4.5,0,0,1,1.16-.43,7.81,7.81,0,0,1,1.74-.16v-.48a1.69,1.69,0,0,0-.3-1.08,1.1,1.1,0,0,0-.9-.36,1.83,1.83,0,0,0-.66.1,2.46,2.46,0,0,0-.46.22l-.33.22a.48.48,0,0,1-.28.1.31.31,0,0,1-.19-.06.29.29,0,0,1-.13-.14L73,63.09A3.75,3.75,0,0,1,74,62.36a3.37,3.37,0,0,1,1.29-.24,2.38,2.38,0,0,1,.91.17,2,2,0,0,1,.67.47,1.91,1.91,0,0,1,.4.73,2.75,2.75,0,0,1,.14.93Zm-2.77-.65a2.12,2.12,0,0,0,.52-.06,2.32,2.32,0,0,0,.44-.16,2.41,2.41,0,0,0,.39-.26,2.92,2.92,0,0,0,.37-.34V65.59a7.37,7.37,0,0,0-1.25.09,3.28,3.28,0,0,0-.84.24,1.14,1.14,0,0,0-.47.36.77.77,0,0,0-.15.46,1.08,1.08,0,0,0,.08.42.74.74,0,0,0,.21.28.85.85,0,0,0,.31.17A1.6,1.6,0,0,0,74.67,67.66Z"/><path class="6d68b47a-a26f-4be0-9c72-c7d97782fd66" d="M79.06,68.31V62.23h.64a.28.28,0,0,1,.29.22l.08.66a3.44,3.44,0,0,1,.88-.7,2.33,2.33,0,0,1,1.13-.27,2.16,2.16,0,0,1,.88.16,1.69,1.69,0,0,1,.64.47,2,2,0,0,1,.39.73,3.1,3.1,0,0,1,.13.94v3.87H83.05V64.44a1.63,1.63,0,0,0-.31-1.07,1.19,1.19,0,0,0-1-.38,1.81,1.81,0,0,0-.88.23,2.72,2.72,0,0,0-.76.61v4.48Z"/><path class="6d68b47a-a26f-4be0-9c72-c7d97782fd66" d="M90,68.31a.27.27,0,0,1-.29-.22l-.09-.74a3.19,3.19,0,0,1-.89.76,2.31,2.31,0,0,1-1.15.29,2.11,2.11,0,0,1-1-.21,2,2,0,0,1-.73-.59,2.82,2.82,0,0,1-.46-1,4.92,4.92,0,0,1-.16-1.34A4.24,4.24,0,0,1,85.47,64,3,3,0,0,1,86,63a2.31,2.31,0,0,1,.82-.67,2.48,2.48,0,0,1,1.11-.25,2.26,2.26,0,0,1,1,.19,2.43,2.43,0,0,1,.71.54V59.47h1.07v8.84Zm-2.07-.78a1.75,1.75,0,0,0,.92-.24,2.7,2.7,0,0,0,.72-.68V63.67a1.65,1.65,0,0,0-.65-.55,1.77,1.77,0,0,0-.77-.16,1.52,1.52,0,0,0-1.31.61,2.75,2.75,0,0,0-.46,1.72,4.24,4.24,0,0,0,.11,1,1.94,1.94,0,0,0,.29.7,1.21,1.21,0,0,0,.49.39A1.53,1.53,0,0,0,87.94,67.53Z"/><path class="6d68b47a-a26f-4be0-9c72-c7d97782fd66" d="M96.6,68.41A1.47,1.47,0,0,1,95.49,68a1.57,1.57,0,0,1-.38-1.15V63.13h-.74a.23.23,0,0,1-.16-.06.24.24,0,0,1-.06-.18v-.42l1-.13.25-1.88a.21.21,0,0,1,.07-.14.27.27,0,0,1,.17-.06h.54v2.09h1.74v.78H96.17v3.65a.81.81,0,0,0,.19.57.65.65,0,0,0,.48.18.85.85,0,0,0,.29,0l.21-.1.16-.1a.21.21,0,0,1,.11-.05s.1,0,.15.11l.31.51a2.13,2.13,0,0,1-.67.4A2.18,2.18,0,0,1,96.6,68.41Z"/><path class="6d68b47a-a26f-4be0-9c72-c7d97782fd66" d="M99.23,68.31V62.23h.61a.3.3,0,0,1,.24.07.33.33,0,0,1,.09.23l.08.95a2.75,2.75,0,0,1,.77-1,1.67,1.67,0,0,1,1.07-.36,1.63,1.63,0,0,1,.84.22l-.14.8a.18.18,0,0,1-.19.15.86.86,0,0,1-.25-.06,1.59,1.59,0,0,0-.49-.06,1.36,1.36,0,0,0-.93.33,2.42,2.42,0,0,0-.63.94v3.87Z"/><path class="6d68b47a-a26f-4be0-9c72-c7d97782fd66" d="M108.3,68.31h-.47a.58.58,0,0,1-.25,0,.25.25,0,0,1-.13-.2l-.12-.57a4,4,0,0,1-.47.39,2.36,2.36,0,0,1-.48.29,2.21,2.21,0,0,1-.53.18,3.1,3.1,0,0,1-.64.06,2.39,2.39,0,0,1-.66-.1A1.78,1.78,0,0,1,104,68a1.43,1.43,0,0,1-.36-.5,1.81,1.81,0,0,1-.13-.72,1.39,1.39,0,0,1,.19-.7,1.84,1.84,0,0,1,.64-.59,4.64,4.64,0,0,1,1.16-.43,7.87,7.87,0,0,1,1.74-.16v-.48a1.69,1.69,0,0,0-.3-1.08,1.1,1.1,0,0,0-.9-.36,1.78,1.78,0,0,0-.65.1,2.19,2.19,0,0,0-.46.22l-.34.22a.46.46,0,0,1-.28.1.33.33,0,0,1-.19-.06.35.35,0,0,1-.13-.14l-.19-.34a3.79,3.79,0,0,1,1.09-.73,3.3,3.3,0,0,1,1.29-.24,2.29,2.29,0,0,1,.9.17,1.8,1.8,0,0,1,.67.47,2.07,2.07,0,0,1,.41.73,3,3,0,0,1,.13.93Zm-2.77-.65a2.12,2.12,0,0,0,.52-.06,2.09,2.09,0,0,0,.44-.16,2.48,2.48,0,0,0,.4-.26,3.75,3.75,0,0,0,.36-.34V65.59a7.37,7.37,0,0,0-1.25.09,3.55,3.55,0,0,0-.84.24,1.21,1.21,0,0,0-.47.36.77.77,0,0,0-.15.46,1.08,1.08,0,0,0,.08.42.74.74,0,0,0,.21.28.85.85,0,0,0,.31.17A1.6,1.6,0,0,0,105.53,67.66Z"/><path class="6d68b47a-a26f-4be0-9c72-c7d97782fd66" d="M109.92,68.31V62.23h.64a.28.28,0,0,1,.29.22l.08.66a3.48,3.48,0,0,1,.89-.7,2.28,2.28,0,0,1,1.13-.27,2.23,2.23,0,0,1,.88.16,1.74,1.74,0,0,1,.63.47,2,2,0,0,1,.39.73,3.1,3.1,0,0,1,.13.94v3.87h-1.06V64.44a1.63,1.63,0,0,0-.32-1.07,1.19,1.19,0,0,0-1-.38,1.84,1.84,0,0,0-.89.23,2.87,2.87,0,0,0-.76.61v4.48Z"/><path class="6d68b47a-a26f-4be0-9c72-c7d97782fd66" d="M120.08,63.23a.25.25,0,0,1-.23.14.37.37,0,0,1-.2-.07l-.28-.15L119,63a2.12,2.12,0,0,0-.54-.06A1.88,1.88,0,0,0,118,63a1.43,1.43,0,0,0-.37.19.86.86,0,0,0-.23.28.82.82,0,0,0-.08.35.59.59,0,0,0,.13.39,1.3,1.3,0,0,0,.36.27,4.73,4.73,0,0,0,.5.2l.58.18.58.22a2.14,2.14,0,0,1,.51.3,1.51,1.51,0,0,1,.35.44,1.39,1.39,0,0,1,.14.63,2,2,0,0,1-.15.78,1.71,1.71,0,0,1-.45.62,2.09,2.09,0,0,1-.72.41,2.93,2.93,0,0,1-1,.15A3,3,0,0,1,117,68.2a2.83,2.83,0,0,1-.88-.53l.25-.41a.46.46,0,0,1,.12-.12.29.29,0,0,1,.17,0,.46.46,0,0,1,.23.08l.29.19a2.38,2.38,0,0,0,.42.19,2,2,0,0,0,.6.08,1.82,1.82,0,0,0,.55-.08,1.21,1.21,0,0,0,.39-.22.9.9,0,0,0,.23-.32,1,1,0,0,0,.08-.38.64.64,0,0,0-.14-.42,1.15,1.15,0,0,0-.36-.28,2.59,2.59,0,0,0-.5-.21l-.58-.18a6,6,0,0,1-.59-.22,1.69,1.69,0,0,1-.5-.31,1.27,1.27,0,0,1-.36-.46,1.46,1.46,0,0,1-.14-.66,1.59,1.59,0,0,1,.15-.67,1.5,1.5,0,0,1,.42-.56,2.13,2.13,0,0,1,.68-.39,2.81,2.81,0,0,1,.91-.14,2.85,2.85,0,0,1,1.08.19,2.38,2.38,0,0,1,.83.52Z"/><path class="6d68b47a-a26f-4be0-9c72-c7d97782fd66" d="M126,63.31a.24.24,0,0,1-.1.1.17.17,0,0,1-.13,0,.35.35,0,0,1-.2-.07l-.27-.17a1.84,1.84,0,0,0-.39-.16,1.82,1.82,0,0,0-.57-.08,1.78,1.78,0,0,0-.78.16,1.51,1.51,0,0,0-.57.46,2,2,0,0,0-.35.73,3.48,3.48,0,0,0-.12,1,3.28,3.28,0,0,0,.13,1A2,2,0,0,0,123,67a1.5,1.5,0,0,0,.56.44,1.57,1.57,0,0,0,.73.16,1.69,1.69,0,0,0,.64-.1,2.06,2.06,0,0,0,.42-.2l.28-.21a.32.32,0,0,1,.21-.09.23.23,0,0,1,.21.1l.3.39a2.42,2.42,0,0,1-1,.71,3.56,3.56,0,0,1-1.26.23,2.77,2.77,0,0,1-1-.21,2.6,2.6,0,0,1-.85-.61,3,3,0,0,1-.57-1,3.91,3.91,0,0,1-.21-1.33,4.15,4.15,0,0,1,.19-1.25,2.93,2.93,0,0,1,.55-1,2.57,2.57,0,0,1,.9-.65,3,3,0,0,1,1.22-.23,3,3,0,0,1,1.13.2,2.73,2.73,0,0,1,.87.59Z"/><path class="6d68b47a-a26f-4be0-9c72-c7d97782fd66" d="M127.41,68.31V62.23H128a.3.3,0,0,1,.24.07.46.46,0,0,1,.09.23l.07.95a2.86,2.86,0,0,1,.77-1,1.71,1.71,0,0,1,1.08-.36,1.65,1.65,0,0,1,.46.06,1.53,1.53,0,0,1,.37.16l-.13.8a.18.18,0,0,1-.19.15.9.9,0,0,1-.26-.06,1.52,1.52,0,0,0-.48-.06,1.37,1.37,0,0,0-.94.33,2.3,2.3,0,0,0-.62.94v3.87Z"/><path class="6d68b47a-a26f-4be0-9c72-c7d97782fd66" d="M133.67,60.32a.73.73,0,0,1-.06.3.81.81,0,0,1-.17.24.78.78,0,0,1-.24.16.73.73,0,0,1-.3.06.72.72,0,0,1-.29-.06.74.74,0,0,1-.4-.4.73.73,0,0,1-.06-.3.82.82,0,0,1,.22-.54.78.78,0,0,1,.24-.16.72.72,0,0,1,.29-.06.73.73,0,0,1,.3.06.78.78,0,0,1,.24.16.74.74,0,0,1,.17.25A.72.72,0,0,1,133.67,60.32Zm-.24,1.91v6.08h-1.07V62.23Z"/><path class="6d68b47a-a26f-4be0-9c72-c7d97782fd66" d="M135.32,70.37V62.23H136a.28.28,0,0,1,.29.22l.09.72a3.56,3.56,0,0,1,.89-.76,2.29,2.29,0,0,1,1.16-.29,2.09,2.09,0,0,1,.94.21,1.89,1.89,0,0,1,.73.59,2.87,2.87,0,0,1,.46,1,4.85,4.85,0,0,1,.16,1.33,4.15,4.15,0,0,1-.18,1.25,3.2,3.2,0,0,1-.51,1,2.46,2.46,0,0,1-1.93.91,2.35,2.35,0,0,1-1-.19,2.28,2.28,0,0,1-.71-.53v2.69ZM138,63a1.69,1.69,0,0,0-.91.24,2.45,2.45,0,0,0-.73.68v2.94a1.65,1.65,0,0,0,.65.55,1.79,1.79,0,0,0,.78.17,1.53,1.53,0,0,0,1.3-.61,2.78,2.78,0,0,0,.46-1.73,3.89,3.89,0,0,0-.11-1,2,2,0,0,0-.3-.7,1.23,1.23,0,0,0-.48-.4A1.73,1.73,0,0,0,138,63Z"/><path class="6d68b47a-a26f-4be0-9c72-c7d97782fd66" d="M143.78,68.41a1.47,1.47,0,0,1-1.11-.41,1.61,1.61,0,0,1-.38-1.15V63.13h-.73a.25.25,0,0,1-.17-.06.24.24,0,0,1-.06-.18v-.42l1-.13.25-1.88a.18.18,0,0,1,.08-.14.24.24,0,0,1,.17-.06h.54v2.09h1.74v.78h-1.74v3.65a.81.81,0,0,0,.18.57.68.68,0,0,0,.48.18.85.85,0,0,0,.29,0,1.56,1.56,0,0,0,.22-.1l.15-.1a.21.21,0,0,1,.11-.05.18.18,0,0,1,.15.11l.31.51a2,2,0,0,1-.66.4A2.24,2.24,0,0,1,143.78,68.41Z"/><path class="6d68b47a-a26f-4be0-9c72-c7d97782fd66" d="M153,68.31a.27.27,0,0,1-.29-.22l-.09-.74a3.09,3.09,0,0,1-.9.76,2.25,2.25,0,0,1-1.14.29,2.11,2.11,0,0,1-1-.21,1.89,1.89,0,0,1-.73-.59,2.82,2.82,0,0,1-.46-1,4.92,4.92,0,0,1-.16-1.34,4.24,4.24,0,0,1,.18-1.25,3,3,0,0,1,.52-1,2.31,2.31,0,0,1,.82-.67,2.48,2.48,0,0,1,1.11-.25,2.26,2.26,0,0,1,1,.19,2.43,2.43,0,0,1,.71.54V59.47h1.07v8.84Zm-2.07-.78a1.69,1.69,0,0,0,.91-.24,2.59,2.59,0,0,0,.73-.68V63.67a1.65,1.65,0,0,0-.65-.55,1.77,1.77,0,0,0-.77-.16,1.52,1.52,0,0,0-1.31.61,2.75,2.75,0,0,0-.46,1.72,4.88,4.88,0,0,0,.1,1,2.14,2.14,0,0,0,.3.7,1.21,1.21,0,0,0,.49.39A1.53,1.53,0,0,0,150.94,67.53Z"/><path class="6d68b47a-a26f-4be0-9c72-c7d97782fd66" d="M156.87,60.32a.6.6,0,0,1-.07.3.78.78,0,0,1-.16.24.76.76,0,0,1-.83.16.78.78,0,0,1-.24-.16.81.81,0,0,1-.17-.24.73.73,0,0,1-.06-.3.72.72,0,0,1,.06-.29.74.74,0,0,1,.17-.25.78.78,0,0,1,.24-.16.74.74,0,0,1,1,.41A.59.59,0,0,1,156.87,60.32Zm-.24,1.91v6.08h-1.07V62.23Z"/><path class="6d68b47a-a26f-4be0-9c72-c7d97782fd66" d="M162,63.23a.24.24,0,0,1-.22.14.35.35,0,0,1-.2-.07l-.28-.15a3.44,3.44,0,0,0-.4-.15,2.12,2.12,0,0,0-.54-.06,1.75,1.75,0,0,0-.48.06,1.17,1.17,0,0,0-.37.19,1.05,1.05,0,0,0-.24.28.82.82,0,0,0-.08.35.6.6,0,0,0,.14.39,1.3,1.3,0,0,0,.36.27,3.46,3.46,0,0,0,.5.2l.58.18.58.22a2.07,2.07,0,0,1,.5.3,1.27,1.27,0,0,1,.49,1.07,2,2,0,0,1-.15.78,1.68,1.68,0,0,1-.44.62,2.3,2.3,0,0,1-.72.41,2.93,2.93,0,0,1-1,.15,3.07,3.07,0,0,1-1.16-.21,2.89,2.89,0,0,1-.87-.53l.25-.41a.43.43,0,0,1,.11-.12.34.34,0,0,1,.18,0,.46.46,0,0,1,.23.08l.29.19a2.26,2.26,0,0,0,.41.19,2.1,2.1,0,0,0,.61.08,1.82,1.82,0,0,0,.55-.08,1.47,1.47,0,0,0,.39-.22.9.9,0,0,0,.23-.32,1,1,0,0,0,.07-.38.64.64,0,0,0-.13-.42,1.15,1.15,0,0,0-.36-.28,3,3,0,0,0-.51-.21l-.58-.18a5.77,5.77,0,0,1-.58-.22,1.88,1.88,0,0,1-.51-.31,1.27,1.27,0,0,1-.36-.46,1.47,1.47,0,0,1-.13-.66,1.59,1.59,0,0,1,.56-1.23,2.24,2.24,0,0,1,.68-.39,2.91,2.91,0,0,1,.92-.14,2.85,2.85,0,0,1,1.08.19,2.34,2.34,0,0,1,.82.52Z"/><path class="6d68b47a-a26f-4be0-9c72-c7d97782fd66" d="M167.87,63.31a.46.46,0,0,1-.1.1.2.2,0,0,1-.14,0,.32.32,0,0,1-.19-.07l-.27-.17a2.42,2.42,0,0,0-.39-.16,1.91,1.91,0,0,0-.57-.08,1.8,1.8,0,0,0-.79.16,1.59,1.59,0,0,0-.57.46,2.16,2.16,0,0,0-.35.73,3.49,3.49,0,0,0-.11,1,3.65,3.65,0,0,0,.12,1,2,2,0,0,0,.36.72,1.47,1.47,0,0,0,.55.44,1.61,1.61,0,0,0,.74.16,1.69,1.69,0,0,0,.64-.1,2.06,2.06,0,0,0,.42-.2l.27-.21a.37.37,0,0,1,.22-.09.21.21,0,0,1,.2.1l.3.39a2.29,2.29,0,0,1-1,.71,3.47,3.47,0,0,1-1.25.23,2.86,2.86,0,0,1-1.06-.21,2.6,2.6,0,0,1-.85-.61,2.86,2.86,0,0,1-.56-1,3.91,3.91,0,0,1-.21-1.33,3.86,3.86,0,0,1,.19-1.25,2.77,2.77,0,0,1,.55-1,2.48,2.48,0,0,1,.9-.65,2.92,2.92,0,0,1,1.22-.23,3.08,3.08,0,0,1,1.13.2,2.73,2.73,0,0,1,.87.59Z"/><path class="6d68b47a-a26f-4be0-9c72-c7d97782fd66" d="M171.78,62.14a3.11,3.11,0,0,1,1.21.22,2.65,2.65,0,0,1,.91.63,2.68,2.68,0,0,1,.57,1,3.72,3.72,0,0,1,.2,1.29,3.82,3.82,0,0,1-.2,1.3,2.72,2.72,0,0,1-.57,1,2.65,2.65,0,0,1-.91.63,3.41,3.41,0,0,1-2.41,0,2.56,2.56,0,0,1-.91-.63,2.76,2.76,0,0,1-.59-1,4.08,4.08,0,0,1-.2-1.3,4,4,0,0,1,.2-1.29,2.72,2.72,0,0,1,.59-1,2.56,2.56,0,0,1,.91-.63A3.09,3.09,0,0,1,171.78,62.14Zm0,5.42a1.58,1.58,0,0,0,1.35-.6,2.84,2.84,0,0,0,.44-1.68,2.89,2.89,0,0,0-.44-1.7,1.58,1.58,0,0,0-1.35-.6,1.92,1.92,0,0,0-.79.15,1.64,1.64,0,0,0-.56.45,2.14,2.14,0,0,0-.34.73,4.29,4.29,0,0,0,0,1.93,2.09,2.09,0,0,0,.34.72,1.5,1.5,0,0,0,.56.44A1.77,1.77,0,0,0,171.78,67.56Z"/><path class="6d68b47a-a26f-4be0-9c72-c7d97782fd66" d="M175.07,62.23H176a.31.31,0,0,1,.21.07.57.57,0,0,1,.12.15l1.54,3.92a2.13,2.13,0,0,1,.13.43l.09.43c0-.15.07-.29.1-.43a3.09,3.09,0,0,1,.14-.43l1.56-3.92a.35.35,0,0,1,.12-.15.27.27,0,0,1,.2-.07H181l-2.48,6.08h-1Z"/><path class="6d68b47a-a26f-4be0-9c72-c7d97782fd66" d="M184.23,62.14a2.75,2.75,0,0,1,1,.18,2.28,2.28,0,0,1,.8.53,2.34,2.34,0,0,1,.52.85,3.21,3.21,0,0,1,.19,1.16.77.77,0,0,1-.05.33.23.23,0,0,1-.21.09h-4a3.33,3.33,0,0,0,.16,1A2,2,0,0,0,183,67a1.56,1.56,0,0,0,.6.42,1.94,1.94,0,0,0,.78.15,2.41,2.41,0,0,0,.7-.1,3.46,3.46,0,0,0,.5-.2l.35-.2a.45.45,0,0,1,.24-.09.21.21,0,0,1,.2.1l.3.39a2.11,2.11,0,0,1-.47.42,3.59,3.59,0,0,1-.59.29,4.77,4.77,0,0,1-.65.17,3.88,3.88,0,0,1-.67.06,3.15,3.15,0,0,1-1.16-.22,2.62,2.62,0,0,1-.92-.62,3,3,0,0,1-.6-1,4.22,4.22,0,0,1-.22-1.39,3.58,3.58,0,0,1,.2-1.19,2.86,2.86,0,0,1,.56-1,2.48,2.48,0,0,1,.89-.63A2.87,2.87,0,0,1,184.23,62.14Zm0,.78a1.62,1.62,0,0,0-1.22.45,2.07,2.07,0,0,0-.55,1.24h3.3a2.07,2.07,0,0,0-.1-.68,1.57,1.57,0,0,0-.3-.54,1.27,1.27,0,0,0-.48-.34A1.51,1.51,0,0,0,184.26,62.92Z"/><path class="6d68b47a-a26f-4be0-9c72-c7d97782fd66" d="M188.11,68.31V62.23h.62a.33.33,0,0,1,.24.07.46.46,0,0,1,.09.23l.07.95a2.75,2.75,0,0,1,.77-1,1.69,1.69,0,0,1,1.08-.36,1.58,1.58,0,0,1,.45.06,1.61,1.61,0,0,1,.38.16l-.14.8a.18.18,0,0,1-.18.15.84.84,0,0,1-.26-.06,1.59,1.59,0,0,0-.49-.06,1.36,1.36,0,0,0-.93.33,2.42,2.42,0,0,0-.63.94v3.87Z"/><path class="6d68b47a-a26f-4be0-9c72-c7d97782fd66" d="M194.73,70.11a.53.53,0,0,1-.13.19.37.37,0,0,1-.25.07h-.79L194.67,68l-2.51-5.73h.92a.36.36,0,0,1,.22.07.48.48,0,0,1,.11.15L195,66.28c0,.09.07.18.09.27a2.68,2.68,0,0,1,.07.27,2.76,2.76,0,0,0,.08-.27c0-.09.06-.18.1-.27L197,62.45a.29.29,0,0,1,.12-.15.28.28,0,0,1,.19-.07h.85Z"/><path class="6d68b47a-a26f-4be0-9c72-c7d97782fd66" d="M35.85,81.26h3v.91h-3Z"/><path class="6d68b47a-a26f-4be0-9c72-c7d97782fd66" d="M50.23,81a4.91,4.91,0,0,1-.31,1.75,4,4,0,0,1-.86,1.36,3.93,3.93,0,0,1-1.34.87,4.59,4.59,0,0,1-1.73.31H42.77v-8.6H46a4.8,4.8,0,0,1,1.73.31,4,4,0,0,1,1.34.88,4,4,0,0,1,.86,1.36A4.88,4.88,0,0,1,50.23,81ZM49,81a4.46,4.46,0,0,0-.21-1.42,3,3,0,0,0-.62-1.06,2.5,2.5,0,0,0-1-.66A3.31,3.31,0,0,0,46,77.65H43.94v6.72H46a3.31,3.31,0,0,0,1.25-.23,2.5,2.5,0,0,0,1-.66,2.87,2.87,0,0,0,.62-1A4.4,4.4,0,0,0,49,81Z"/><path class="6d68b47a-a26f-4be0-9c72-c7d97782fd66" d="M53.07,77.32a.73.73,0,0,1-.06.3,1,1,0,0,1-.17.24.72.72,0,0,1-.25.16.68.68,0,0,1-.29.06A.72.72,0,0,1,52,78a.78.78,0,0,1-.24-.16.81.81,0,0,1-.17-.24.73.73,0,0,1-.06-.3A.72.72,0,0,1,51.6,77a.74.74,0,0,1,.17-.25.78.78,0,0,1,.24-.16.72.72,0,0,1,.29-.06.68.68,0,0,1,.29.06.72.72,0,0,1,.25.16A.92.92,0,0,1,53,77,.72.72,0,0,1,53.07,77.32Zm-.24,1.91v6.08H51.76V79.23Z"/><path class="6d68b47a-a26f-4be0-9c72-c7d97782fd66" d="M55,85.31V80.15l-.67-.08a.51.51,0,0,1-.21-.1.22.22,0,0,1-.08-.18v-.44h1v-.58a2.67,2.67,0,0,1,.15-.93,2,2,0,0,1,.42-.69,1.87,1.87,0,0,1,.66-.42,2.54,2.54,0,0,1,.86-.14,2.37,2.37,0,0,1,.76.12l0,.53a.15.15,0,0,1-.1.15l-.27,0h-.19a1.59,1.59,0,0,0-.5.07,1,1,0,0,0-.38.23,1.06,1.06,0,0,0-.25.43,2,2,0,0,0-.09.65v.56h1.76v.78H56v5.18Z"/><path class="6d68b47a-a26f-4be0-9c72-c7d97782fd66" d="M59,85.31V80.15l-.68-.08a.42.42,0,0,1-.2-.1.19.19,0,0,1-.08-.18v-.44h1v-.58a2.93,2.93,0,0,1,.14-.93,2,2,0,0,1,.42-.69,2,2,0,0,1,.66-.42,2.58,2.58,0,0,1,.86-.14,2.29,2.29,0,0,1,.76.12l0,.53a.15.15,0,0,1-.11.15l-.27,0h-.18a1.55,1.55,0,0,0-.5.07,1.09,1.09,0,0,0-.39.23,1.06,1.06,0,0,0-.25.43,2,2,0,0,0-.09.65v.56h1.76v.78H60.07v5.18Z"/><path class="6d68b47a-a26f-4be0-9c72-c7d97782fd66" d="M65.21,79.14a2.7,2.7,0,0,1,1,.18,2.2,2.2,0,0,1,.8.53,2.36,2.36,0,0,1,.53.85,3.44,3.44,0,0,1,.19,1.16.62.62,0,0,1-.06.33.2.2,0,0,1-.2.09h-4a3.33,3.33,0,0,0,.16,1A2.12,2.12,0,0,0,64,84a1.42,1.42,0,0,0,.6.42,1.94,1.94,0,0,0,.78.15,2.34,2.34,0,0,0,.69-.1,3.46,3.46,0,0,0,.5-.2l.35-.2a.51.51,0,0,1,.24-.09.24.24,0,0,1,.21.1l.3.39a2,2,0,0,1-.48.42,3.59,3.59,0,0,1-.59.29,4.42,4.42,0,0,1-.65.17,3.68,3.68,0,0,1-.66.06,3.11,3.11,0,0,1-1.16-.22,2.54,2.54,0,0,1-.92-.62,3,3,0,0,1-.61-1,4.23,4.23,0,0,1-.21-1.39A3.58,3.58,0,0,1,62.56,81a2.72,2.72,0,0,1,.57-1,2.48,2.48,0,0,1,.89-.63A2.84,2.84,0,0,1,65.21,79.14Zm0,.78a1.64,1.64,0,0,0-1.22.45,2.13,2.13,0,0,0-.55,1.24h3.31a2.37,2.37,0,0,0-.1-.68,1.44,1.44,0,0,0-.31-.54,1.27,1.27,0,0,0-.48-.34A1.51,1.51,0,0,0,65.23,79.92Z"/><path class="6d68b47a-a26f-4be0-9c72-c7d97782fd66" d="M69.09,85.31V79.23h.61a.3.3,0,0,1,.24.07.46.46,0,0,1,.09.23l.07,1a2.86,2.86,0,0,1,.77-1A1.71,1.71,0,0,1,72,79.12a1.65,1.65,0,0,1,.46.06,1.53,1.53,0,0,1,.37.16l-.13.8a.18.18,0,0,1-.19.15.9.9,0,0,1-.26-.06,1.52,1.52,0,0,0-.48-.06,1.37,1.37,0,0,0-.94.33,2.3,2.3,0,0,0-.62.94v3.87Z"/><path class="6d68b47a-a26f-4be0-9c72-c7d97782fd66" d="M76.33,79.14a2.79,2.79,0,0,1,1,.18,2.28,2.28,0,0,1,.8.53,2.34,2.34,0,0,1,.52.85,3.21,3.21,0,0,1,.19,1.16.77.77,0,0,1,0,.33.23.23,0,0,1-.21.09h-4a3.69,3.69,0,0,0,.15,1,2.12,2.12,0,0,0,.4.71,1.56,1.56,0,0,0,.6.42,1.94,1.94,0,0,0,.78.15,2.29,2.29,0,0,0,.69-.1,3.05,3.05,0,0,0,.5-.2l.36-.2a.45.45,0,0,1,.24-.09.22.22,0,0,1,.2.1l.3.39a2.11,2.11,0,0,1-.47.42,4,4,0,0,1-.59.29,4.77,4.77,0,0,1-.65.17,3.88,3.88,0,0,1-.67.06,3.11,3.11,0,0,1-1.16-.22,2.62,2.62,0,0,1-.92-.62,2.87,2.87,0,0,1-.6-1,4,4,0,0,1-.22-1.39,3.58,3.58,0,0,1,.2-1.19,2.7,2.7,0,0,1,.56-1,2.48,2.48,0,0,1,.89-.63A2.84,2.84,0,0,1,76.33,79.14Zm0,.78a1.61,1.61,0,0,0-1.21.45,2.14,2.14,0,0,0-.56,1.24h3.31a2.07,2.07,0,0,0-.1-.68,1.57,1.57,0,0,0-.3-.54,1.23,1.23,0,0,0-.49-.34A1.45,1.45,0,0,0,76.35,79.92Z"/><path class="6d68b47a-a26f-4be0-9c72-c7d97782fd66" d="M80.21,85.31V79.23h.64a.28.28,0,0,1,.29.22l.08.66a3.32,3.32,0,0,1,.89-.7,2.28,2.28,0,0,1,1.13-.27,2.23,2.23,0,0,1,.88.16,1.74,1.74,0,0,1,.63.47,2,2,0,0,1,.39.73,3.1,3.1,0,0,1,.13.94v3.87H84.2V81.44a1.63,1.63,0,0,0-.31-1.07,1.19,1.19,0,0,0-1-.38,1.81,1.81,0,0,0-.88.23,2.87,2.87,0,0,0-.76.61v4.48Z"/><path class="6d68b47a-a26f-4be0-9c72-c7d97782fd66" d="M88.73,85.41A1.47,1.47,0,0,1,87.62,85a1.57,1.57,0,0,1-.39-1.15V80.13H86.5a.23.23,0,0,1-.16-.06.21.21,0,0,1-.07-.18v-.42l1-.13.24-1.88a.22.22,0,0,1,.08-.14.25.25,0,0,1,.17-.06h.54v2.09H90v.78H88.3v3.65a.77.77,0,0,0,.19.57.65.65,0,0,0,.48.18.88.88,0,0,0,.29,0l.21-.1.15-.1a.25.25,0,0,1,.11-.05.18.18,0,0,1,.15.11l.32.51a2.13,2.13,0,0,1-.67.4A2.22,2.22,0,0,1,88.73,85.41Z"/><path class="6d68b47a-a26f-4be0-9c72-c7d97782fd66" d="M92.79,77.32a.6.6,0,0,1-.07.3.78.78,0,0,1-.16.24.76.76,0,0,1-.83.16.78.78,0,0,1-.24-.16.81.81,0,0,1-.17-.24.73.73,0,0,1-.06-.3.72.72,0,0,1,.06-.29.74.74,0,0,1,.17-.25.78.78,0,0,1,.24-.16.74.74,0,0,1,1,.41A.59.59,0,0,1,92.79,77.32Zm-.24,1.91v6.08H91.48V79.23Z"/><path class="6d68b47a-a26f-4be0-9c72-c7d97782fd66" d="M98.9,85.31h-.48a.58.58,0,0,1-.25,0,.27.27,0,0,1-.13-.2l-.12-.57a5,5,0,0,1-.46.39,3.07,3.07,0,0,1-.48.29,2.45,2.45,0,0,1-.54.18,3.06,3.06,0,0,1-.63.06,2.41,2.41,0,0,1-.67-.1,1.62,1.62,0,0,1-.53-.3,1.34,1.34,0,0,1-.37-.5,1.81,1.81,0,0,1-.13-.72,1.31,1.31,0,0,1,.2-.7,1.72,1.72,0,0,1,.63-.59,4.64,4.64,0,0,1,1.16-.43,8,8,0,0,1,1.75-.16v-.48a1.69,1.69,0,0,0-.31-1.08,1.1,1.1,0,0,0-.89-.36,1.83,1.83,0,0,0-.66.1,2.19,2.19,0,0,0-.46.22l-.34.22a.46.46,0,0,1-.28.1.33.33,0,0,1-.19-.06.44.44,0,0,1-.13-.14l-.19-.34a3.79,3.79,0,0,1,1.09-.73,3.37,3.37,0,0,1,1.29-.24,2.29,2.29,0,0,1,.9.17,1.8,1.8,0,0,1,.67.47,1.93,1.93,0,0,1,.41.73,3,3,0,0,1,.14.93Zm-2.78-.65a2.12,2.12,0,0,0,.52-.06,2.09,2.09,0,0,0,.44-.16,2.48,2.48,0,0,0,.4-.26,3.81,3.81,0,0,0,.37-.34V82.59a7.5,7.5,0,0,0-1.26.09,3.55,3.55,0,0,0-.84.24,1.3,1.3,0,0,0-.47.36.77.77,0,0,0-.15.46,1.08,1.08,0,0,0,.08.42.74.74,0,0,0,.21.28.85.85,0,0,0,.31.17A1.6,1.6,0,0,0,96.12,84.66Z"/><path class="6d68b47a-a26f-4be0-9c72-c7d97782fd66" d="M101.7,76.47v8.84h-1.06V76.47Z"/><path class="6d68b47a-a26f-4be0-9c72-c7d97782fd66" d="M108.31,79.14a2.79,2.79,0,0,1,1,.18,2.28,2.28,0,0,1,.8.53,2.49,2.49,0,0,1,.52.85,3.21,3.21,0,0,1,.19,1.16.77.77,0,0,1,0,.33.23.23,0,0,1-.21.09h-4a3.69,3.69,0,0,0,.15,1,2.12,2.12,0,0,0,.4.71,1.56,1.56,0,0,0,.6.42,1.94,1.94,0,0,0,.78.15,2.29,2.29,0,0,0,.69-.1,3.05,3.05,0,0,0,.5-.2l.35-.2a.51.51,0,0,1,.25-.09.23.23,0,0,1,.2.1l.3.39a2.11,2.11,0,0,1-.47.42,4,4,0,0,1-.59.29,4.77,4.77,0,0,1-.65.17,3.88,3.88,0,0,1-.67.06,3.11,3.11,0,0,1-1.16-.22,2.54,2.54,0,0,1-.92-.62,2.87,2.87,0,0,1-.6-1,4,4,0,0,1-.22-1.39,3.58,3.58,0,0,1,.2-1.19,2.7,2.7,0,0,1,.56-1,2.48,2.48,0,0,1,.89-.63A2.84,2.84,0,0,1,108.31,79.14Zm0,.78a1.61,1.61,0,0,0-1.21.45,2.08,2.08,0,0,0-.56,1.24h3.31a2.37,2.37,0,0,0-.1-.68,1.57,1.57,0,0,0-.3-.54,1.39,1.39,0,0,0-.49-.34A1.48,1.48,0,0,0,108.33,79.92Z"/><path class="6d68b47a-a26f-4be0-9c72-c7d97782fd66" d="M113.25,82.2l-2-3h1a.31.31,0,0,1,.19,0,.26.26,0,0,1,.11.12L114,81.67a1.66,1.66,0,0,1,.16-.33l1.3-1.92a.87.87,0,0,1,.12-.14.27.27,0,0,1,.15,0h1l-2,2.91,2.13,3.17h-1a.28.28,0,0,1-.21-.07.44.44,0,0,1-.12-.15l-1.53-2.38a1.07,1.07,0,0,1-.13.31l-1.42,2.07a1,1,0,0,1-.12.15.25.25,0,0,1-.19.07h-1Z"/><path class="6d68b47a-a26f-4be0-9c72-c7d97782fd66" d="M117.88,87.37V79.23h.63a.27.27,0,0,1,.29.22l.09.72a3.56,3.56,0,0,1,.89-.76,2.32,2.32,0,0,1,1.16-.29,2.14,2.14,0,0,1,1,.21,1.94,1.94,0,0,1,.72.59,2.7,2.7,0,0,1,.46,1,4.83,4.83,0,0,1,.17,1.33,4.15,4.15,0,0,1-.18,1.25,3.22,3.22,0,0,1-.52,1,2.39,2.39,0,0,1-.82.66,2.52,2.52,0,0,1-1.11.25,2.35,2.35,0,0,1-1-.19,2.24,2.24,0,0,1-.7-.53v2.69Zm2.7-7.38a1.72,1.72,0,0,0-.91.24,2.55,2.55,0,0,0-.72.68v2.94a1.63,1.63,0,0,0,.64.55,1.86,1.86,0,0,0,.79.17,1.55,1.55,0,0,0,1.3-.61,2.85,2.85,0,0,0,.45-1.73,4.4,4.4,0,0,0-.1-1,2,2,0,0,0-.31-.7,1.23,1.23,0,0,0-.48-.4A1.69,1.69,0,0,0,120.58,80Z"/><path class="6d68b47a-a26f-4be0-9c72-c7d97782fd66" d="M124.5,85.31V79.23h.61a.3.3,0,0,1,.24.07.33.33,0,0,1,.09.23l.08,1a2.65,2.65,0,0,1,.77-1,1.78,1.78,0,0,1,1.53-.3,1.61,1.61,0,0,1,.38.16l-.14.8a.18.18,0,0,1-.18.15.84.84,0,0,1-.26-.06,1.59,1.59,0,0,0-.49-.06,1.36,1.36,0,0,0-.93.33,2.42,2.42,0,0,0-.63.94v3.87Z"/><path class="6d68b47a-a26f-4be0-9c72-c7d97782fd66" d="M131.75,79.14a2.73,2.73,0,0,1,1,.18,2.2,2.2,0,0,1,.8.53,2.51,2.51,0,0,1,.53.85,3.45,3.45,0,0,1,.18,1.16.64.64,0,0,1,0,.33.22.22,0,0,1-.2.09h-4a3.33,3.33,0,0,0,.16,1,2.11,2.11,0,0,0,.39.71,1.56,1.56,0,0,0,.6.42,2,2,0,0,0,.78.15,2.41,2.41,0,0,0,.7-.1,3.46,3.46,0,0,0,.5-.2l.35-.2a.45.45,0,0,1,.24-.09.24.24,0,0,1,.21.1l.3.39a2.16,2.16,0,0,1-.48.42,3.59,3.59,0,0,1-.59.29,4.77,4.77,0,0,1-.65.17,3.79,3.79,0,0,1-.67.06,3.15,3.15,0,0,1-1.16-.22,2.5,2.5,0,0,1-.91-.62,3,3,0,0,1-.61-1,4.23,4.23,0,0,1-.21-1.39A3.58,3.58,0,0,1,129.1,81a2.86,2.86,0,0,1,.56-1,2.61,2.61,0,0,1,.9-.63A2.81,2.81,0,0,1,131.75,79.14Zm0,.78a1.64,1.64,0,0,0-1.22.45,2.07,2.07,0,0,0-.55,1.24h3.3a2.07,2.07,0,0,0-.1-.68,1.57,1.57,0,0,0-.3-.54,1.27,1.27,0,0,0-.48-.34A1.51,1.51,0,0,0,131.77,79.92Z"/><path class="6d68b47a-a26f-4be0-9c72-c7d97782fd66" d="M139.11,80.23a.25.25,0,0,1-.23.14.4.4,0,0,1-.2-.07l-.28-.15L138,80a2.12,2.12,0,0,0-.54-.06A1.88,1.88,0,0,0,137,80a1.43,1.43,0,0,0-.37.19.86.86,0,0,0-.23.28.82.82,0,0,0-.08.35.59.59,0,0,0,.13.39,1.3,1.3,0,0,0,.36.27,4.73,4.73,0,0,0,.5.2l.58.18.58.22a2.14,2.14,0,0,1,.51.3,1.51,1.51,0,0,1,.35.44,1.39,1.39,0,0,1,.14.63,2,2,0,0,1-.15.78,1.71,1.71,0,0,1-.45.62,2.09,2.09,0,0,1-.72.41,2.93,2.93,0,0,1-1,.15A3,3,0,0,1,136,85.2a2.83,2.83,0,0,1-.88-.53l.26-.41a.32.32,0,0,1,.11-.12.29.29,0,0,1,.17,0,.46.46,0,0,1,.23.08l.29.19a2.38,2.38,0,0,0,.42.19,2,2,0,0,0,.61.08,1.8,1.8,0,0,0,.54-.08,1.21,1.21,0,0,0,.39-.22.79.79,0,0,0,.23-.32,1,1,0,0,0,.08-.38.64.64,0,0,0-.14-.42,1.23,1.23,0,0,0-.35-.28,3,3,0,0,0-.51-.21l-.58-.18a6,6,0,0,1-.59-.22,1.69,1.69,0,0,1-.5-.31,1.27,1.27,0,0,1-.36-.46,1.47,1.47,0,0,1-.13-.66,1.58,1.58,0,0,1,.14-.67,1.62,1.62,0,0,1,.42-.56,2.13,2.13,0,0,1,.68-.39,2.81,2.81,0,0,1,.91-.14,2.85,2.85,0,0,1,1.08.19,2.38,2.38,0,0,1,.83.52Z"/><path class="6d68b47a-a26f-4be0-9c72-c7d97782fd66" d="M144.32,80.23a.25.25,0,0,1-.23.14.35.35,0,0,1-.2-.07l-.28-.15-.39-.15a2.23,2.23,0,0,0-.54-.06,1.83,1.83,0,0,0-.49.06,1.29,1.29,0,0,0-.37.19.86.86,0,0,0-.23.28.69.69,0,0,0-.08.35.59.59,0,0,0,.13.39,1.3,1.3,0,0,0,.36.27,4,4,0,0,0,.5.2l.58.18.58.22a2.14,2.14,0,0,1,.51.3,1.51,1.51,0,0,1,.35.44,1.39,1.39,0,0,1,.14.63,2,2,0,0,1-.15.78,1.71,1.71,0,0,1-.45.62,2.09,2.09,0,0,1-.72.41,2.93,2.93,0,0,1-1,.15,3,3,0,0,1-1.15-.21,2.83,2.83,0,0,1-.88-.53l.25-.41a.34.34,0,0,1,.12-.12.29.29,0,0,1,.17,0,.46.46,0,0,1,.23.08l.29.19a2.26,2.26,0,0,0,.41.19,2.15,2.15,0,0,0,.61.08,1.82,1.82,0,0,0,.55-.08,1.32,1.32,0,0,0,.39-.22.9.9,0,0,0,.23-.32,1,1,0,0,0,.08-.38.64.64,0,0,0-.14-.42,1.15,1.15,0,0,0-.36-.28,3.26,3.26,0,0,0-.5-.21l-.59-.18c-.19-.06-.39-.14-.58-.22A1.88,1.88,0,0,1,141,82a1.37,1.37,0,0,1-.35-.46,1.46,1.46,0,0,1-.14-.66,1.59,1.59,0,0,1,.15-.67,1.5,1.5,0,0,1,.42-.56,2.19,2.19,0,0,1,.67-.39,2.91,2.91,0,0,1,.92-.14,2.85,2.85,0,0,1,1.08.19,2.25,2.25,0,0,1,.82.52Z"/><path class="6d68b47a-a26f-4be0-9c72-c7d97782fd66" d="M147.47,77.32a.73.73,0,0,1-.06.3.81.81,0,0,1-.17.24A.78.78,0,0,1,147,78a.77.77,0,0,1-.3.06.72.72,0,0,1-.29-.06.74.74,0,0,1-.4-.4.73.73,0,0,1-.06-.3.82.82,0,0,1,.22-.54.78.78,0,0,1,.24-.16.72.72,0,0,1,.29-.06.77.77,0,0,1,.3.06.78.78,0,0,1,.24.16.74.74,0,0,1,.17.25A.72.72,0,0,1,147.47,77.32Zm-.24,1.91v6.08h-1.07V79.23Z"/><path class="6d68b47a-a26f-4be0-9c72-c7d97782fd66" d="M151.57,79.14a3.11,3.11,0,0,1,1.21.22,2.65,2.65,0,0,1,.91.63,2.85,2.85,0,0,1,.58,1,4,4,0,0,1,.2,1.29,4.08,4.08,0,0,1-.2,1.3,2.9,2.9,0,0,1-.58,1,2.65,2.65,0,0,1-.91.63,3.41,3.41,0,0,1-2.41,0,2.56,2.56,0,0,1-.91-.63,2.76,2.76,0,0,1-.59-1,4.08,4.08,0,0,1-.2-1.3,4,4,0,0,1,.2-1.29,2.72,2.72,0,0,1,.59-1,2.56,2.56,0,0,1,.91-.63A3.09,3.09,0,0,1,151.57,79.14Zm0,5.42a1.58,1.58,0,0,0,1.35-.6,2.84,2.84,0,0,0,.44-1.68,2.89,2.89,0,0,0-.44-1.7,1.58,1.58,0,0,0-1.35-.6,2,2,0,0,0-.79.15,1.64,1.64,0,0,0-.56.45,2,2,0,0,0-.33.73,3.94,3.94,0,0,0,0,1.93,1.91,1.91,0,0,0,.33.72,1.5,1.5,0,0,0,.56.44A1.8,1.8,0,0,0,151.57,84.56Z"/><path class="6d68b47a-a26f-4be0-9c72-c7d97782fd66" d="M155.79,85.31V79.23h.63a.28.28,0,0,1,.29.22l.08.66a3.48,3.48,0,0,1,.89-.7,2.28,2.28,0,0,1,1.13-.27,2.19,2.19,0,0,1,.88.16,1.78,1.78,0,0,1,.64.47,2,2,0,0,1,.38.73,3.1,3.1,0,0,1,.13.94v3.87h-1.06V81.44a1.63,1.63,0,0,0-.32-1.07,1.19,1.19,0,0,0-1-.38,1.84,1.84,0,0,0-.89.23,3,3,0,0,0-.76.61v4.48Z"/><path class="84da2456-d135-4dd3-8d41-c6fa3d48aec4" d="M11,84.42v.73l-5.53-.68v-.73Z"/><path class="84da2456-d135-4dd3-8d41-c6fa3d48aec4" d="M11,83.18,7,82.72v-.35a.21.21,0,0,1,.24-.23L8,82.2a2.58,2.58,0,0,1-.78-.71A1.47,1.47,0,0,1,7,80.68.85.85,0,0,1,7.28,80a1.35,1.35,0,0,1,.86-.24H8.3l.17,0,2.49.29v.69l-2.49-.29-.15,0H8.18a.78.78,0,0,0-.47.12.42.42,0,0,0-.15.36.9.9,0,0,0,.1.38,1.39,1.39,0,0,0,.29.37,2.2,2.2,0,0,0,.44.33,3.08,3.08,0,0,0,.58.26l2,.22Z"/><path class="84da2456-d135-4dd3-8d41-c6fa3d48aec4" d="M10.63,76.61a2.41,2.41,0,0,1,.23.36,1.29,1.29,0,0,1,.12.38,2.72,2.72,0,0,1,0,.42,1.46,1.46,0,0,1-.12.6,1.18,1.18,0,0,1-.33.43,1.34,1.34,0,0,1-.5.27,2.27,2.27,0,0,1-.65.09,2.77,2.77,0,0,1-1.69-.56A2,2,0,0,1,7.2,78a1.57,1.57,0,0,1-.21-.8,1.39,1.39,0,0,1,.14-.65,1.35,1.35,0,0,1,.4-.46l.26.21,0,.06a.19.19,0,0,1,0,.08.16.16,0,0,1-.05.1l-.11.14a.82.82,0,0,0-.1.21.74.74,0,0,0,0,.32,1,1,0,0,0,.14.5,1.45,1.45,0,0,0,.4.42,1.9,1.9,0,0,0,.59.28,2.55,2.55,0,0,0,.74.1,1.52,1.52,0,0,0,.44,0,1,1,0,0,0,.33-.16.81.81,0,0,0,.29-.63,1.37,1.37,0,0,0,0-.31l-.09-.24-.12-.19-.12-.14L10,76.64a.25.25,0,0,1,0-.11.17.17,0,0,1,.07-.13l.21-.17A3.24,3.24,0,0,1,10.63,76.61Z"/><path class="84da2456-d135-4dd3-8d41-c6fa3d48aec4" d="M11,75.77,7,75.3V75a.26.26,0,0,1,0-.17.22.22,0,0,1,.16-.07h.18l.72.05a2.67,2.67,0,0,1-.84-.56A1,1,0,0,1,7,73.57a.77.77,0,0,1,.07-.32l.66.12a.93.93,0,0,0-.08.35.86.86,0,0,0,.37.67,2.89,2.89,0,0,0,1.11.49L11,75.1Z"/><path class="84da2456-d135-4dd3-8d41-c6fa3d48aec4" d="M7.89,70.08a1.08,1.08,0,0,1,.47.11,1,1,0,0,1,.38.38,2.57,2.57,0,0,1,.3.77,7.48,7.48,0,0,1,.21,1.25h.16a1.2,1.2,0,0,0,.79-.22.85.85,0,0,0,.28-.69,1.66,1.66,0,0,0,0-.33,2,2,0,0,0-.1-.26,1.32,1.32,0,0,0-.12-.2,1.83,1.83,0,0,1-.13-.16L10,70.6a.2.2,0,0,1,0-.13.15.15,0,0,1,.07-.12l.21-.17a3.92,3.92,0,0,1,.35.38,1.78,1.78,0,0,1,.24.39,1.42,1.42,0,0,1,.14.41,2.16,2.16,0,0,1,0,.46,1.46,1.46,0,0,1-.12.6,1.21,1.21,0,0,1-.31.45,1.46,1.46,0,0,1-.5.29,2,2,0,0,1-.66.1,3.05,3.05,0,0,1-.6-.06A3.47,3.47,0,0,1,8.26,73a2.29,2.29,0,0,1-.5-.3,1.69,1.69,0,0,1-.4-.4,1.72,1.72,0,0,1-.27-.5,1.81,1.81,0,0,1-.1-.58,1.38,1.38,0,0,1,.09-.52,1.1,1.1,0,0,1,.22-.35.86.86,0,0,1,.29-.21A.82.82,0,0,1,7.89,70.08Zm-.4,1.19a1,1,0,0,0,.1.45,1.35,1.35,0,0,0,.28.36,1.82,1.82,0,0,0,.41.27,2.78,2.78,0,0,0,.51.17,6.66,6.66,0,0,0-.17-1,2.23,2.23,0,0,0-.2-.55.61.61,0,0,0-.24-.26.6.6,0,0,0-.27-.06l-.14,0a.33.33,0,0,0-.14.1.55.55,0,0,0-.1.17A.73.73,0,0,0,7.49,71.27Z"/><path class="84da2456-d135-4dd3-8d41-c6fa3d48aec4" d="M11,66.77v.36c0,.09,0,.15-.07.18a.29.29,0,0,1-.17,0l-.78-.07a2.83,2.83,0,0,1,.44.3,1.82,1.82,0,0,1,.34.34,1.34,1.34,0,0,1,.22.38,1.11,1.11,0,0,1,.08.41,1,1,0,0,1-.09.42.91.91,0,0,1-.27.32,1.33,1.33,0,0,1-.43.21,2.17,2.17,0,0,1-.59.07A2.54,2.54,0,0,1,9,69.65a2.82,2.82,0,0,1-.63-.24A2.9,2.9,0,0,1,7.8,69a2.28,2.28,0,0,1-.43-.5,2.46,2.46,0,0,1-.28-.59,2.41,2.41,0,0,1-.1-.67,2.52,2.52,0,0,1,0-.48,1.59,1.59,0,0,1,.14-.47Zm-.52,1.69a.64.64,0,0,0-.11-.37,1.72,1.72,0,0,0-.32-.35,2.55,2.55,0,0,0-.49-.3,5,5,0,0,0-.62-.25L7.57,67a.34.34,0,0,0-.07.17v.17a1.32,1.32,0,0,0,.08.44,1.59,1.59,0,0,0,.21.41,1.72,1.72,0,0,0,.32.34,1.82,1.82,0,0,0,.41.27A2.48,2.48,0,0,0,9,69a2.24,2.24,0,0,0,.52.06C10.13,69.05,10.44,68.85,10.44,68.46Z"/><path class="84da2456-d135-4dd3-8d41-c6fa3d48aec4" d="M7.67,63.23a.14.14,0,0,1,.07.06.11.11,0,0,1,0,.08.21.21,0,0,1,0,.12,1,1,0,0,0-.09.15,1.12,1.12,0,0,0-.1.22,1,1,0,0,0,0,.32,1.07,1.07,0,0,0,0,.32.72.72,0,0,0,.14.24.45.45,0,0,0,.2.16.48.48,0,0,0,.24.06.38.38,0,0,0,.29-.12,1.09,1.09,0,0,0,.18-.3,3.52,3.52,0,0,0,.16-.39,2.32,2.32,0,0,1,.18-.39,1,1,0,0,1,.29-.31.77.77,0,0,1,.45-.12,1.35,1.35,0,0,1,.52.11,1.18,1.18,0,0,1,.43.31,1.31,1.31,0,0,1,.3.48,1.52,1.52,0,0,1,.11.62,1.6,1.6,0,0,1-.13.67,1.35,1.35,0,0,1-.34.46l-.26-.16a.3.3,0,0,1-.08-.08.18.18,0,0,1,0-.11.17.17,0,0,1,.06-.12l.12-.16a1.2,1.2,0,0,0,.12-.23.92.92,0,0,0,0-.36,1.21,1.21,0,0,0,0-.34.76.76,0,0,0-.16-.26.63.63,0,0,0-.23-.16.59.59,0,0,0-.27,0,.43.43,0,0,0-.31.11.87.87,0,0,0-.2.31,3.54,3.54,0,0,0-.14.39,2.32,2.32,0,0,1-.18.39,1,1,0,0,1-.27.3.79.79,0,0,1-.45.12,1.12,1.12,0,0,1-.48-.1,1.28,1.28,0,0,1-.41-.29,1.33,1.33,0,0,1-.28-.44,1.64,1.64,0,0,1-.11-.6,1.49,1.49,0,0,1,.12-.62,1.36,1.36,0,0,1,.32-.46Z"/><path class="84da2456-d135-4dd3-8d41-c6fa3d48aec4" d="M7.05,61.5,11,62v.68l-3.91-.47Zm-1.23-.26a.58.58,0,0,1,.19,0,.83.83,0,0,1,.15.11.57.57,0,0,1,.11.16.47.47,0,0,1,0,.17.58.58,0,0,1,0,.18.72.72,0,0,1-.11.15.78.78,0,0,1-.15.1.47.47,0,0,1-.38,0A.57.57,0,0,1,5.47,62a.4.4,0,0,1-.1-.15.33.33,0,0,1,0-.17.57.57,0,0,1,0-.18.42.42,0,0,1,.11-.15.46.46,0,0,1,.16-.11A.58.58,0,0,1,5.82,61.24Z"/><path class="84da2456-d135-4dd3-8d41-c6fa3d48aec4" d="M11,60.86,7,60.39v-.34a.21.21,0,0,1,.24-.23l.75.06a2.58,2.58,0,0,1-.78-.71A1.47,1.47,0,0,1,7,58.36a.85.85,0,0,1,.29-.68,1.35,1.35,0,0,1,.86-.24H8.3l.17,0,2.49.29v.69l-2.49-.3H8.18a.86.86,0,0,0-.47.11.45.45,0,0,0-.15.37.9.9,0,0,0,.1.38,1.39,1.39,0,0,0,.29.37,2.2,2.2,0,0,0,.44.33A3.08,3.08,0,0,0,9,60l2,.22Z"/><path class="84da2456-d135-4dd3-8d41-c6fa3d48aec4" d="M8.13,53.92a1.23,1.23,0,0,1,.35,0,1.45,1.45,0,0,1,.29.11,1.38,1.38,0,0,1,.24.14l.24.14a1,1,0,0,0,.23.11.81.81,0,0,0,.27.05.55.55,0,0,0,.29-.08l.27-.18a3.07,3.07,0,0,1,.31-.17A.92.92,0,0,1,11,54a1,1,0,0,1,.52.13,1.25,1.25,0,0,1,.44.36,1.68,1.68,0,0,1,.3.58,2.47,2.47,0,0,1,.11.75,2.4,2.4,0,0,1-.07.62,1.55,1.55,0,0,1-.2.47.89.89,0,0,1-.31.3.77.77,0,0,1-.39.11,1,1,0,0,1-.53-.16,1.48,1.48,0,0,1-.36-.42,2.06,2.06,0,0,1-.21-.59,3.71,3.71,0,0,1-.06-.67,2.53,2.53,0,0,1,0-.28l0-.27-.15.05A.52.52,0,0,1,10,55a1,1,0,0,1-.24,0l-.29-.12a1,1,0,0,1,.16.33,1.64,1.64,0,0,1,.05.41,1.42,1.42,0,0,1-.07.42,1,1,0,0,1-.22.34,1.11,1.11,0,0,1-.36.23,1.28,1.28,0,0,1-.5.09,1.54,1.54,0,0,1-.55-.11,1.36,1.36,0,0,1-.47-.29,1.54,1.54,0,0,1-.34-.49A1.6,1.6,0,0,1,7,55.12a1.39,1.39,0,0,1,.2-.74V53.32l.23,0,.12,0a.17.17,0,0,1,.06.11l.09.49.21-.05A.86.86,0,0,1,8.13,53.92Zm2.93.72a.58.58,0,0,0-.19,0l-.16.05a3,3,0,0,0-.05.39c0,.12,0,.24,0,.34a2.15,2.15,0,0,0,.06.55,1.18,1.18,0,0,0,.15.39.64.64,0,0,0,.21.22.47.47,0,0,0,.25.07.47.47,0,0,0,.43-.23,1.24,1.24,0,0,0,.15-.66,1.72,1.72,0,0,0-.07-.47,1.51,1.51,0,0,0-.18-.36.94.94,0,0,0-.26-.23A.63.63,0,0,0,11.06,54.64Zm-1.86.77A.75.75,0,0,0,9.11,55a1.22,1.22,0,0,0-.24-.27,1,1,0,0,0-.34-.16,1.19,1.19,0,0,0-.37-.06.74.74,0,0,0-.52.17.64.64,0,0,0-.17.47.87.87,0,0,0,.08.37,1,1,0,0,0,.23.27,1.26,1.26,0,0,0,.33.16,1.16,1.16,0,0,0,.38.06A.74.74,0,0,0,9,55.88.58.58,0,0,0,9.2,55.41Z"/><path class="84da2456-d135-4dd3-8d41-c6fa3d48aec4" d="M11,47.43V48a.2.2,0,0,1-.05.15.24.24,0,0,1-.12.07l-1.35.3v2.26l1.35.63a.41.41,0,0,1,.12.11.24.24,0,0,1,.05.16v.56L5.43,49.52v-.73Zm-2.05,3.1v-1.9l-2.29.51-.23,0-.27.05.27.11.23.1Z"/><path class="84da2456-d135-4dd3-8d41-c6fa3d48aec4" d="M10.63,44.43a2.41,2.41,0,0,1,.23.36,1.23,1.23,0,0,1,.12.37,2.72,2.72,0,0,1,0,.42,1.4,1.4,0,0,1-.12.6,1.22,1.22,0,0,1-.33.44,1.34,1.34,0,0,1-.5.27,2.27,2.27,0,0,1-.65.09,2.86,2.86,0,0,1-.92-.15,2.61,2.61,0,0,1-.77-.42,1.9,1.9,0,0,1-.53-.63A1.58,1.58,0,0,1,7,45a1.45,1.45,0,0,1,.14-.65,1.56,1.56,0,0,1,.4-.46l.26.22,0,.06a.19.19,0,0,1,0,.08.16.16,0,0,1-.05.1l-.11.14a.69.69,0,0,0-.1.21.74.74,0,0,0,0,.32,1,1,0,0,0,.14.5,1.45,1.45,0,0,0,.4.42,1.9,1.9,0,0,0,.59.28,2.55,2.55,0,0,0,.74.1,2,2,0,0,0,.44,0,.86.86,0,0,0,.33-.17.75.75,0,0,0,.21-.26.84.84,0,0,0,.08-.37,1.36,1.36,0,0,0,0-.3q0-.14-.09-.24l-.12-.19-.12-.14L10,44.45a.21.21,0,0,1,0-.1.17.17,0,0,1,.07-.13l.21-.17A3.24,3.24,0,0,1,10.63,44.43Z"/><path class="84da2456-d135-4dd3-8d41-c6fa3d48aec4" d="M10.63,41.08a2.41,2.41,0,0,1,.23.36,1.29,1.29,0,0,1,.12.38,2.72,2.72,0,0,1,0,.42,1.46,1.46,0,0,1-.12.6,1.18,1.18,0,0,1-.33.43,1.34,1.34,0,0,1-.5.27,2.27,2.27,0,0,1-.65.09,2.86,2.86,0,0,1-.92-.15,2.59,2.59,0,0,1-.77-.41,2,2,0,0,1-.53-.64,1.57,1.57,0,0,1-.21-.8A1.39,1.39,0,0,1,7.13,41a1.35,1.35,0,0,1,.4-.46l.26.21,0,.06a.24.24,0,0,1,0,.08.18.18,0,0,1-.05.11l-.11.13a1,1,0,0,0-.1.21.74.74,0,0,0,0,.32,1,1,0,0,0,.14.51,1.55,1.55,0,0,0,.4.41,1.9,1.9,0,0,0,.59.28,2.55,2.55,0,0,0,.74.1,1.52,1.52,0,0,0,.44,0,1,1,0,0,0,.33-.16.71.71,0,0,0,.21-.27.8.8,0,0,0,.08-.36,1.37,1.37,0,0,0,0-.31q0-.13-.09-.24l-.12-.18-.12-.15L10,41.11A.25.25,0,0,1,10,41a.19.19,0,0,1,.07-.13l.21-.17A3.24,3.24,0,0,1,10.63,41.08Z"/><path class="84da2456-d135-4dd3-8d41-c6fa3d48aec4" d="M7.05,39.15l2.49.29.14,0h.14a.83.83,0,0,0,.47-.11.46.46,0,0,0,.15-.38.8.8,0,0,0-.09-.36,1.57,1.57,0,0,0-.28-.37,2.18,2.18,0,0,0-.43-.32,3.24,3.24,0,0,0-.56-.27l-2-.24v-.68L11,37.2v.34a.3.3,0,0,1-.05.18.19.19,0,0,1-.17.07h-.21l-.14,0h-.07l-.32,0a2.36,2.36,0,0,1,.76.7,1.44,1.44,0,0,1,.26.8.84.84,0,0,1-.3.68,1.32,1.32,0,0,1-.85.24H9.54l-2.49-.3Z"/><path class="84da2456-d135-4dd3-8d41-c6fa3d48aec4" d="M11,36.19,7,35.72v-.35a.29.29,0,0,1,0-.17.21.21,0,0,1,.16-.06h.18l.72.05a2.51,2.51,0,0,1-.84-.56A.94.94,0,0,1,7,34a.78.78,0,0,1,.07-.33l.66.13a.93.93,0,0,0-.08.35.87.87,0,0,0,.37.67,3,3,0,0,0,1.11.49l1.81.21Z"/><path class="84da2456-d135-4dd3-8d41-c6fa3d48aec4" d="M11,30.75v.36c0,.09,0,.15-.07.18a.29.29,0,0,1-.17.05l-.78-.07a2.83,2.83,0,0,1,.44.3,1.56,1.56,0,0,1,.34.34,1.29,1.29,0,0,1,.22.37,1.19,1.19,0,0,1,.08.41,1,1,0,0,1-.09.43.91.91,0,0,1-.27.32,1.14,1.14,0,0,1-.43.2,2.16,2.16,0,0,1-.59.08A2.54,2.54,0,0,1,9,33.63a2.85,2.85,0,0,1-.63-.25A2.45,2.45,0,0,1,7.8,33a2.53,2.53,0,0,1-.43-.5,2.66,2.66,0,0,1-.28-.59,2.53,2.53,0,0,1-.1-.67,2.63,2.63,0,0,1,0-.49,1.68,1.68,0,0,1,.14-.47Zm-.52,1.69a.69.69,0,0,0-.11-.38,1.68,1.68,0,0,0-.32-.34,2.55,2.55,0,0,0-.49-.3,3.82,3.82,0,0,0-.62-.25L7.57,31a.31.31,0,0,0-.07.17v.16a1.33,1.33,0,0,0,.08.45,1.59,1.59,0,0,0,.21.41,2.05,2.05,0,0,0,.32.34,2.9,2.9,0,0,0,.41.27A2.48,2.48,0,0,0,9,33a2.24,2.24,0,0,0,.52.06C10.13,33,10.44,32.83,10.44,32.44Z"/><path class="84da2456-d135-4dd3-8d41-c6fa3d48aec4" d="M10.63,27.22a2.41,2.41,0,0,1,.23.36A1.33,1.33,0,0,1,11,28a3,3,0,0,1,0,.42,1.48,1.48,0,0,1-.12.61,1.27,1.27,0,0,1-.33.43,1.34,1.34,0,0,1-.5.27,2.27,2.27,0,0,1-.65.09,2.77,2.77,0,0,1-1.69-.56,2,2,0,0,1-.53-.64A1.58,1.58,0,0,1,7,27.76a1.45,1.45,0,0,1,.14-.65,1.56,1.56,0,0,1,.4-.46l.26.22,0,.06a.19.19,0,0,1,0,.08.16.16,0,0,1-.05.1l-.11.14a.69.69,0,0,0-.1.21.74.74,0,0,0,0,.32,1,1,0,0,0,.14.5,1.45,1.45,0,0,0,.4.42,1.9,1.9,0,0,0,.59.28,2.55,2.55,0,0,0,.74.1,2,2,0,0,0,.44,0,1,1,0,0,0,.33-.16.9.9,0,0,0,.21-.27.84.84,0,0,0,.08-.37,1.36,1.36,0,0,0,0-.3q0-.13-.09-.24l-.12-.19-.12-.14L10,27.24a.21.21,0,0,1,0-.1.17.17,0,0,1,.07-.13l.21-.17A3.24,3.24,0,0,1,10.63,27.22Z"/><path class="84da2456-d135-4dd3-8d41-c6fa3d48aec4" d="M12.13,25.43a.28.28,0,0,1,.16.24v.51l-1.56-.85-3.68,1v-.57a.16.16,0,0,1,0-.12.31.31,0,0,1,.1,0L9.66,25a.41.41,0,0,1,.16,0l.16,0-.16-.07-.17-.08L7.18,23.54a.2.2,0,0,1-.09-.09.19.19,0,0,1,0-.11v-.55Z"/><line class="c00c8f12-02e8-45b3-bba3-afcc6978d30b" x1="18.75" y1="85.28" x2="18.75" y2="17.08"/><polygon class="6a292959-3c63-48a3-95f3-c33ce9276305" points="24.73 18.83 18.75 8.47 12.77 18.83 24.73 18.83"/></g></svg>