<svg xmlns="http://www.w3.org/2000/svg" viewBox="0 0 223.81 56.38"><defs><style>.\38 9a31ca7-eb02-4c08-bb32-7024384e6e33,.bc7b7a68-17de-4d6f-b6d0-821b2694e778,.c0bd5717-6fd8-4bc0-b7de-a050b44c0f80{fill:none;}.\35 ea84334-ffb7-4b68-9db3-5ff32e80e10e,.\36 b6f79c6-3646-4d9b-9e4f-e603ef33ad81,.\38 9a31ca7-eb02-4c08-bb32-7024384e6e33,.bc7b7a68-17de-4d6f-b6d0-821b2694e778,.c0bd5717-6fd8-4bc0-b7de-a050b44c0f80,.e8021b8d-411d-44f1-be57-d757dc98822b{stroke:#575756;stroke-miterlimit:10;}.\38 9a31ca7-eb02-4c08-bb32-7024384e6e33{stroke-dasharray:2.5 2.5;}.bc7b7a68-17de-4d6f-b6d0-821b2694e778{stroke-dasharray:1.77 1.77;}.\30 608fab1-a078-4132-aef7-14565688df5a,.\36 b6f79c6-3646-4d9b-9e4f-e603ef33ad81{fill:#a7cee3;}.ae2aa641-6074-4ec4-ade1-52d075ce56b0{fill:#575756;}.\35 ea84334-ffb7-4b68-9db3-5ff32e80e10e,.a38a7cf0-b422-4d62-80c1-70a18318083c{fill:#fffbbf;}.\32 aa43d46-b4e5-4c63-8e01-a7edd1e7626d,.e8021b8d-411d-44f1-be57-d757dc98822b{fill:#c7a0ce;}.\35 ea84334-ffb7-4b68-9db3-5ff32e80e10e,.\36 b6f79c6-3646-4d9b-9e4f-e603ef33ad81,.e8021b8d-411d-44f1-be57-d757dc98822b{stroke-width:0.5px;}</style></defs><title>rnaseq</title><g id="5e8d502a-bf5f-4288-9370-6e43db0f2da3" data-name="lines"><line class="c0bd5717-6fd8-4bc0-b7de-a050b44c0f80" x1="5.42" y1="31.36" x2="219.34" y2="31.36"/><line class="c0bd5717-6fd8-4bc0-b7de-a050b44c0f80" x1="19.06" y1="10.74" x2="20.06" y2="10.74"/><line class="89a31ca7-eb02-4c08-bb32-7024384e6e33" x1="22.56" y1="10.74" x2="26.31" y2="10.74"/><line class="c0bd5717-6fd8-4bc0-b7de-a050b44c0f80" x1="27.56" y1="10.74" x2="28.56" y2="10.74"/><line class="c0bd5717-6fd8-4bc0-b7de-a050b44c0f80" x1="181.14" y1="10.74" x2="182.14" y2="10.74"/><line class="bc7b7a68-17de-4d6f-b6d0-821b2694e778" x1="183.91" y1="10.74" x2="193.66" y2="10.74"/><line class="c0bd5717-6fd8-4bc0-b7de-a050b44c0f80" x1="194.55" y1="10.74" x2="195.55" y2="10.74"/></g><g id="3180499a-05b0-45e8-b8b9-67666868e10f" data-name="boxes"><rect class="0608fab1-a078-4132-aef7-14565688df5a" x="48.19" y="23.44" width="11.58" height="15.83"/><path class="ae2aa641-6074-4ec4-ade1-52d075ce56b0" d="M59.51,23.69V39H48.44V23.69H59.51m.5-.5H47.94V39.52H60V23.19Z"/><rect class="0608fab1-a078-4132-aef7-14565688df5a" x="28.31" y="23.44" width="8.33" height="15.83"/><path class="ae2aa641-6074-4ec4-ade1-52d075ce56b0" d="M36.38,23.69V39H28.56V23.69h7.82m.5-.5H28.06V39.52h8.82V23.19Z"/><rect class="0608fab1-a078-4132-aef7-14565688df5a" x="40.06" y="23.44" width="5.34" height="15.83"/><path class="ae2aa641-6074-4ec4-ade1-52d075ce56b0" d="M45.14,23.69V39H40.31V23.69h4.83m.5-.5H39.81V39.52h5.83V23.19Z"/><rect class="0608fab1-a078-4132-aef7-14565688df5a" x="5.17" y="23.44" width="14.13" height="15.83"/><path class="ae2aa641-6074-4ec4-ade1-52d075ce56b0" d="M19.06,23.69V39H5.42V23.69H19.06m.5-.5H4.92V39.52H19.56V23.19Z"/><rect class="a38a7cf0-b422-4d62-80c1-70a18318083c" x="112.13" y="23.44" width="12.92" height="15.83"/><path class="ae2aa641-6074-4ec4-ade1-52d075ce56b0" d="M124.81,23.69V39H112.38V23.69h12.43m.5-.5H111.88V39.52h13.43V23.19Z"/><rect class="a38a7cf0-b422-4d62-80c1-70a18318083c" x="95.63" y="23.44" width="12.92" height="15.83"/><path class="ae2aa641-6074-4ec4-ade1-52d075ce56b0" d="M108.31,23.69V39H95.88V23.69h12.43m.5-.5H95.38V39.52h13.43V23.19Z"/><rect class="a38a7cf0-b422-4d62-80c1-70a18318083c" x="82.63" y="23.44" width="9.43" height="15.83"/><path class="ae2aa641-6074-4ec4-ade1-52d075ce56b0" d="M91.81,23.69V39H82.88V23.69h8.93m.5-.5H82.38V39.52h9.93V23.19Z"/><rect class="2aa43d46-b4e5-4c63-8e01-a7edd1e7626d" x="194.81" y="23.44" width="24.79" height="15.83"/><path class="ae2aa641-6074-4ec4-ade1-52d075ce56b0" d="M219.34,23.69V39H195.06V23.69h24.28m.5-.5H194.56V39.52h25.28V23.19Z"/><rect class="2aa43d46-b4e5-4c63-8e01-a7edd1e7626d" x="157.56" y="23.44" width="23.25" height="15.83"/><path class="ae2aa641-6074-4ec4-ade1-52d075ce56b0" d="M180.56,23.69V39H157.81V23.69h22.75m.5-.5H157.31V39.52h23.75V23.19Z"/><rect class="6b6f79c6-3646-4d9b-9e4f-e603ef33ad81" x="9.06" y="5.43" width="4.34" height="10.63"/><rect class="6b6f79c6-3646-4d9b-9e4f-e603ef33ad81" x="14.96" y="5.43" width="4.34" height="10.63"/><rect class="6b6f79c6-3646-4d9b-9e4f-e603ef33ad81" x="28.89" y="5.43" width="4.34" height="10.63"/><rect class="6b6f79c6-3646-4d9b-9e4f-e603ef33ad81" x="49.44" y="5.43" width="4.34" height="10.63"/><rect class="5ea84334-ffb7-4b68-9db3-5ff32e80e10e" x="83.82" y="5.43" width="4.34" height="10.63"/><rect class="5ea84334-ffb7-4b68-9db3-5ff32e80e10e" x="96.46" y="5.43" width="4.34" height="10.63"/><rect class="5ea84334-ffb7-4b68-9db3-5ff32e80e10e" x="103.74" y="5.43" width="4.34" height="10.63"/><rect class="5ea84334-ffb7-4b68-9db3-5ff32e80e10e" x="114.5" y="5.43" width="4.34" height="10.63"/><rect class="e8021b8d-411d-44f1-be57-d757dc98822b" x="157.81" y="5.43" width="4.34" height="10.63"/><rect class="e8021b8d-411d-44f1-be57-d757dc98822b" x="165.34" y="5.43" width="4.34" height="10.63"/><rect class="e8021b8d-411d-44f1-be57-d757dc98822b" x="176.8" y="5.43" width="4.34" height="10.63"/><rect class="e8021b8d-411d-44f1-be57-d757dc98822b" x="195.06" y="5.43" width="4.34" height="10.63"/><rect class="e8021b8d-411d-44f1-be57-d757dc98822b" x="205.03" y="5.43" width="4.34" height="10.63"/></g><g id="a88cf9fa-7249-4d47-b351-d5eb53f771c1" data-name="text-annotations"><path class="ae2aa641-6074-4ec4-ade1-52d075ce56b0" d="M19.28,51.84a5.41,5.41,0,0,0,.59,0,4,4,0,0,0,.5-.09,2.52,2.52,0,0,0,.44-.15,3.89,3.89,0,0,0,.42-.19V49.64H20a.25.25,0,0,1-.17-.06.2.2,0,0,1-.06-.15v-.6H22.2v3a4.9,4.9,0,0,1-.62.38,4.57,4.57,0,0,1-.68.26,4.8,4.8,0,0,1-.79.16,6.48,6.48,0,0,1-.91.05,4,4,0,0,1-1.57-.29,3.63,3.63,0,0,1-1.23-.82,3.68,3.68,0,0,1-.81-1.28,4.5,4.5,0,0,1-.29-1.63A4.61,4.61,0,0,1,15.59,47a3.64,3.64,0,0,1,.81-1.27,3.57,3.57,0,0,1,1.27-.82,4.4,4.4,0,0,1,1.67-.29,4.61,4.61,0,0,1,.86.07,4.11,4.11,0,0,1,.75.19,3.1,3.1,0,0,1,.63.32,3.74,3.74,0,0,1,.55.41l-.3.49a.31.31,0,0,1-.25.14.41.41,0,0,1-.19-.06L21.08,46a1.74,1.74,0,0,0-.41-.21,3.33,3.33,0,0,0-.58-.18,4.37,4.37,0,0,0-.79-.07,3.09,3.09,0,0,0-1.2.22,2.45,2.45,0,0,0-.92.62,2.74,2.74,0,0,0-.58,1,3.71,3.71,0,0,0-.21,1.29A3.91,3.91,0,0,0,16.6,50a3,3,0,0,0,.6,1,2.73,2.73,0,0,0,.91.62A3.16,3.16,0,0,0,19.28,51.84Z"/><path class="ae2aa641-6074-4ec4-ade1-52d075ce56b0" d="M25.89,47a2.47,2.47,0,0,1,.92.16,2.22,2.22,0,0,1,.74.49,2.34,2.34,0,0,1,.48.78,3.14,3.14,0,0,1,.17,1.06.69.69,0,0,1-.05.31c0,.05-.09.07-.19.07h-3.7a3.12,3.12,0,0,0,.14.92,1.93,1.93,0,0,0,.36.65,1.39,1.39,0,0,0,.55.39,1.85,1.85,0,0,0,.72.13,2.3,2.3,0,0,0,.63-.08,2.91,2.91,0,0,0,.46-.19,1.82,1.82,0,0,0,.32-.18.42.42,0,0,1,.23-.09.21.21,0,0,1,.18.1l.28.36a2,2,0,0,1-.44.38,2.25,2.25,0,0,1-.54.26,3,3,0,0,1-.59.16,3.2,3.2,0,0,1-.61,0,2.87,2.87,0,0,1-1.07-.19,2.41,2.41,0,0,1-.84-.57,2.57,2.57,0,0,1-.55-.94,3.8,3.8,0,0,1-.2-1.27,3.24,3.24,0,0,1,.18-1.09,2.64,2.64,0,0,1,.51-.88,2.4,2.4,0,0,1,.82-.58A2.72,2.72,0,0,1,25.89,47Zm0,.72a1.46,1.46,0,0,0-1.11.41,1.89,1.89,0,0,0-.51,1.13h3a2.06,2.06,0,0,0-.09-.62,1.39,1.39,0,0,0-.28-.49,1.28,1.28,0,0,0-.44-.32A1.57,1.57,0,0,0,25.91,47.68Z"/><path class="ae2aa641-6074-4ec4-ade1-52d075ce56b0" d="M29.45,52.62V47.05H30a.25.25,0,0,1,.27.2l.07.6a3.79,3.79,0,0,1,.81-.65,2.19,2.19,0,0,1,1-.24,2.05,2.05,0,0,1,.81.15,1.55,1.55,0,0,1,.58.43,1.71,1.71,0,0,1,.35.67,2.59,2.59,0,0,1,.13.86v3.55h-1V49.07a1.51,1.51,0,0,0-.29-1,1.06,1.06,0,0,0-.88-.35,1.7,1.7,0,0,0-.82.21,2.58,2.58,0,0,0-.69.56v4.11Z"/><path class="ae2aa641-6074-4ec4-ade1-52d075ce56b0" d="M37.77,47a2.51,2.51,0,0,1,.92.16,2.22,2.22,0,0,1,.74.49,2.34,2.34,0,0,1,.48.78,3.14,3.14,0,0,1,.17,1.06.69.69,0,0,1,0,.31c0,.05-.09.07-.19.07h-3.7a3.12,3.12,0,0,0,.14.92,1.93,1.93,0,0,0,.36.65,1.39,1.39,0,0,0,.55.39,1.85,1.85,0,0,0,.72.13,2.3,2.3,0,0,0,.63-.08,2.91,2.91,0,0,0,.46-.19,1.82,1.82,0,0,0,.32-.18.42.42,0,0,1,.23-.09.21.21,0,0,1,.18.1l.28.36a2,2,0,0,1-.44.38,2.25,2.25,0,0,1-.54.26,3,3,0,0,1-.59.16,3.2,3.2,0,0,1-.61,0,2.87,2.87,0,0,1-1.07-.19,2.41,2.41,0,0,1-.84-.57,2.57,2.57,0,0,1-.55-.94,3.8,3.8,0,0,1-.2-1.27,3.24,3.24,0,0,1,.18-1.09,2.64,2.64,0,0,1,.51-.88,2.4,2.4,0,0,1,.82-.58A2.72,2.72,0,0,1,37.77,47Zm0,.72a1.46,1.46,0,0,0-1.11.41,1.89,1.89,0,0,0-.51,1.13h3a2.06,2.06,0,0,0-.09-.62,1.39,1.39,0,0,0-.28-.49,1.28,1.28,0,0,0-.44-.32A1.57,1.57,0,0,0,37.79,47.68Z"/><path class="ae2aa641-6074-4ec4-ade1-52d075ce56b0" d="M50.09,52.62h-.82a.43.43,0,0,1-.24-.07.53.53,0,0,1-.13-.19l-.73-1.9H44.63l-.74,1.9a.38.38,0,0,1-.13.18.36.36,0,0,1-.23.08H42.7l3.16-7.89h1.08Zm-5.16-2.93h2.94l-1.24-3.21a4.71,4.71,0,0,1-.23-.74q-.07.23-.12.42t-.12.33Z"/><path class="ae2aa641-6074-4ec4-ade1-52d075ce56b0" d="M90.73,51.84a5.28,5.28,0,0,0,.59,0,3.44,3.44,0,0,0,.5-.09,3,3,0,0,0,.45-.15,3.89,3.89,0,0,0,.42-.19V49.64H91.47a.24.24,0,0,1-.17-.06.21.21,0,0,1-.07-.15v-.6h2.42v3a4.78,4.78,0,0,1-.61.38,5.17,5.17,0,0,1-.69.26,4.8,4.8,0,0,1-.79.16,6.34,6.34,0,0,1-.9.05,4,4,0,0,1-1.58-.29,3.55,3.55,0,0,1-2-2.1,4.3,4.3,0,0,1-.29-1.63A4.61,4.61,0,0,1,87,47a3.64,3.64,0,0,1,.81-1.27,3.57,3.57,0,0,1,1.27-.82,4.44,4.44,0,0,1,1.67-.29,4.79,4.79,0,0,1,.87.07,4,4,0,0,1,.74.19,3.48,3.48,0,0,1,.64.32,4.26,4.26,0,0,1,.54.41l-.3.49a.28.28,0,0,1-.24.14.38.38,0,0,1-.19-.06L92.54,46a1.83,1.83,0,0,0-.42-.21,3.2,3.2,0,0,0-.57-.18,4.55,4.55,0,0,0-.79-.07,3.11,3.11,0,0,0-1.21.22,2.54,2.54,0,0,0-.92.62,2.9,2.9,0,0,0-.58,1,3.72,3.72,0,0,0-.2,1.29A3.91,3.91,0,0,0,88.06,50a3,3,0,0,0,.59,1,2.77,2.77,0,0,0,.92.62A3.11,3.11,0,0,0,90.73,51.84Z"/><path class="ae2aa641-6074-4ec4-ade1-52d075ce56b0" d="M97.34,47a2.52,2.52,0,0,1,.93.16,2.18,2.18,0,0,1,.73.49,2.06,2.06,0,0,1,.48.78,2.91,2.91,0,0,1,.17,1.06.73.73,0,0,1,0,.31.22.22,0,0,1-.19.07H95.71a3.49,3.49,0,0,0,.14.92,1.79,1.79,0,0,0,.37.65,1.32,1.32,0,0,0,.55.39,1.8,1.8,0,0,0,.71.13,2.38,2.38,0,0,0,.64-.08,2.91,2.91,0,0,0,.46-.19,2.28,2.28,0,0,0,.32-.18.4.4,0,0,1,.22-.09.24.24,0,0,1,.19.1l.27.36a2,2,0,0,1-.43.38,2.69,2.69,0,0,1-.54.26,3.45,3.45,0,0,1-1.21.21,2.81,2.81,0,0,1-1.06-.19,2.36,2.36,0,0,1-.85-.57,2.72,2.72,0,0,1-.55-.94,3.8,3.8,0,0,1-.2-1.27,3.24,3.24,0,0,1,.18-1.09,2.5,2.5,0,0,1,.52-.88,2.22,2.22,0,0,1,.82-.58A2.67,2.67,0,0,1,97.34,47Zm0,.72a1.47,1.47,0,0,0-1.12.41,2,2,0,0,0-.51,1.13h3a2.06,2.06,0,0,0-.09-.62,1.37,1.37,0,0,0-.27-.49,1.23,1.23,0,0,0-.45-.32A1.55,1.55,0,0,0,97.37,47.68Z"/><path class="ae2aa641-6074-4ec4-ade1-52d075ce56b0" d="M100.9,52.62V47.05h.59a.24.24,0,0,1,.26.2l.08.6a3.36,3.36,0,0,1,.81-.65,2.16,2.16,0,0,1,1-.24,2,2,0,0,1,.8.15,1.47,1.47,0,0,1,.58.43,1.72,1.72,0,0,1,.36.67,2.88,2.88,0,0,1,.12.86v3.55h-1V49.07a1.51,1.51,0,0,0-.29-1,1,1,0,0,0-.88-.35,1.63,1.63,0,0,0-.81.21,2.62,2.62,0,0,0-.7.56v4.11Z"/><path class="ae2aa641-6074-4ec4-ade1-52d075ce56b0" d="M109.23,47a2.51,2.51,0,0,1,.92.16,2.29,2.29,0,0,1,.73.49,2.06,2.06,0,0,1,.48.78,2.91,2.91,0,0,1,.17,1.06.58.58,0,0,1,0,.31c0,.05-.09.07-.18.07h-3.71a3.49,3.49,0,0,0,.14.92,1.79,1.79,0,0,0,.37.65,1.26,1.26,0,0,0,.55.39,1.8,1.8,0,0,0,.71.13,2.38,2.38,0,0,0,.64-.08,2.91,2.91,0,0,0,.46-.19l.32-.18a.4.4,0,0,1,.22-.09.23.23,0,0,1,.19.1l.27.36a2,2,0,0,1-.43.38,2.69,2.69,0,0,1-.54.26,3.45,3.45,0,0,1-1.21.21,2.81,2.81,0,0,1-1.06-.19,2.36,2.36,0,0,1-.85-.57,2.72,2.72,0,0,1-.55-.94,3.8,3.8,0,0,1-.2-1.27,3.24,3.24,0,0,1,.18-1.09,2.5,2.5,0,0,1,.52-.88,2.22,2.22,0,0,1,.82-.58A2.68,2.68,0,0,1,109.23,47Zm0,.72a1.47,1.47,0,0,0-1.12.41,2,2,0,0,0-.51,1.13h3a2.06,2.06,0,0,0-.09-.62,1.37,1.37,0,0,0-.27-.49,1.23,1.23,0,0,0-.45-.32A1.55,1.55,0,0,0,109.25,47.68Z"/><path class="ae2aa641-6074-4ec4-ade1-52d075ce56b0" d="M115.06,52.62V44.73h2.51a4.5,4.5,0,0,1,1.25.15,2.5,2.5,0,0,1,.87.4,1.75,1.75,0,0,1,.5.65,2.16,2.16,0,0,1,.16.86,1.73,1.73,0,0,1-.09.56,1.46,1.46,0,0,1-.28.5,1.88,1.88,0,0,1-.46.42,2.29,2.29,0,0,1-.65.29,2.44,2.44,0,0,1,1.3.62,1.61,1.61,0,0,1,.45,1.19,2.29,2.29,0,0,1-.19.92,1.84,1.84,0,0,1-.54.7,2.33,2.33,0,0,1-.87.46,3.79,3.79,0,0,1-1.17.17Zm1.07-4.35h1.41a3,3,0,0,0,.78-.1,1.53,1.53,0,0,0,.54-.28,1.1,1.1,0,0,0,.33-.42,1.63,1.63,0,0,0,.1-.55,1.22,1.22,0,0,0-.42-1,2.09,2.09,0,0,0-1.3-.32h-1.44Zm0,.75v2.75h1.7a2.6,2.6,0,0,0,.79-.11,1.3,1.3,0,0,0,.53-.29,1.17,1.17,0,0,0,.32-.45,1.75,1.75,0,0,0,.09-.57,1.19,1.19,0,0,0-.43-1,2,2,0,0,0-1.3-.36Z"/><path class="ae2aa641-6074-4ec4-ade1-52d075ce56b0" d="M175.36,51.84a5.09,5.09,0,0,0,.58,0,3.86,3.86,0,0,0,.51-.09,2.84,2.84,0,0,0,.44-.15,3.89,3.89,0,0,0,.42-.19V49.64h-1.22a.24.24,0,0,1-.17-.06.2.2,0,0,1-.06-.15v-.6h2.42v3a4.9,4.9,0,0,1-.62.38,4.3,4.3,0,0,1-.69.26,4.48,4.48,0,0,1-.78.16,6.48,6.48,0,0,1-.91.05,4,4,0,0,1-1.57-.29,3.63,3.63,0,0,1-1.23-.82,3.68,3.68,0,0,1-.81-1.28,4.5,4.5,0,0,1-.29-1.63,4.61,4.61,0,0,1,.29-1.65,3.48,3.48,0,0,1,.8-1.27,3.66,3.66,0,0,1,1.27-.82,4.47,4.47,0,0,1,1.67-.29,4.65,4.65,0,0,1,.87.07,4.11,4.11,0,0,1,.75.19,3.1,3.1,0,0,1,.63.32,3.74,3.74,0,0,1,.55.41l-.3.49a.31.31,0,0,1-.25.14.38.38,0,0,1-.19-.06l-.31-.18a1.74,1.74,0,0,0-.41-.21,3.62,3.62,0,0,0-.58-.18,4.37,4.37,0,0,0-.79-.07,3.09,3.09,0,0,0-1.2.22,2.45,2.45,0,0,0-.92.62,2.74,2.74,0,0,0-.58,1,3.71,3.71,0,0,0-.21,1.29,3.91,3.91,0,0,0,.21,1.33,2.87,2.87,0,0,0,.6,1,2.73,2.73,0,0,0,.91.62A3.16,3.16,0,0,0,175.36,51.84Z"/><path class="ae2aa641-6074-4ec4-ade1-52d075ce56b0" d="M182,47a2.51,2.51,0,0,1,.92.16,2.22,2.22,0,0,1,.74.49,2.34,2.34,0,0,1,.48.78,3.14,3.14,0,0,1,.17,1.06.69.69,0,0,1-.05.31c0,.05-.09.07-.19.07h-3.7a2.82,2.82,0,0,0,.14.92,1.93,1.93,0,0,0,.36.65,1.39,1.39,0,0,0,.55.39,1.81,1.81,0,0,0,.72.13,2.35,2.35,0,0,0,.63-.08,2.91,2.91,0,0,0,.46-.19,1.82,1.82,0,0,0,.32-.18.42.42,0,0,1,.23-.09.21.21,0,0,1,.18.1l.28.36a2,2,0,0,1-.44.38,2.69,2.69,0,0,1-.54.26,3,3,0,0,1-.59.16,3.24,3.24,0,0,1-.62,0A2.81,2.81,0,0,1,181,52.5a2.32,2.32,0,0,1-.84-.57,2.57,2.57,0,0,1-.55-.94,3.57,3.57,0,0,1-.2-1.27,3.24,3.24,0,0,1,.18-1.09,2.64,2.64,0,0,1,.51-.88,2.31,2.31,0,0,1,.82-.58A2.72,2.72,0,0,1,182,47Zm0,.72a1.46,1.46,0,0,0-1.11.41,1.89,1.89,0,0,0-.51,1.13h3a2.06,2.06,0,0,0-.09-.62,1.57,1.57,0,0,0-.28-.49,1.28,1.28,0,0,0-.44-.32A1.6,1.6,0,0,0,182,47.68Z"/><path class="ae2aa641-6074-4ec4-ade1-52d075ce56b0" d="M185.53,52.62V47.05h.58a.23.23,0,0,1,.26.2l.08.6a3.36,3.36,0,0,1,.81-.65,2.19,2.19,0,0,1,1-.24,2.09,2.09,0,0,1,.81.15,1.55,1.55,0,0,1,.58.43,1.85,1.85,0,0,1,.35.67,2.88,2.88,0,0,1,.12.86v3.55h-1V49.07a1.51,1.51,0,0,0-.29-1,1.08,1.08,0,0,0-.89-.35,1.63,1.63,0,0,0-.81.21,2.58,2.58,0,0,0-.69.56v4.11Z"/><path class="ae2aa641-6074-4ec4-ade1-52d075ce56b0" d="M193.85,47a2.51,2.51,0,0,1,.92.16,2.22,2.22,0,0,1,.74.49,2.34,2.34,0,0,1,.48.78,3.14,3.14,0,0,1,.17,1.06.69.69,0,0,1,0,.31c0,.05-.09.07-.19.07h-3.7a2.82,2.82,0,0,0,.14.92,1.93,1.93,0,0,0,.36.65,1.39,1.39,0,0,0,.55.39,1.81,1.81,0,0,0,.72.13,2.35,2.35,0,0,0,.63-.08,2.91,2.91,0,0,0,.46-.19,1.82,1.82,0,0,0,.32-.18.42.42,0,0,1,.23-.09.21.21,0,0,1,.18.1l.28.36a2,2,0,0,1-.44.38,2.69,2.69,0,0,1-.54.26,3,3,0,0,1-.59.16,3.24,3.24,0,0,1-.62,0,2.81,2.81,0,0,1-1.06-.19,2.32,2.32,0,0,1-.84-.57,2.57,2.57,0,0,1-.55-.94,3.57,3.57,0,0,1-.2-1.27,3.24,3.24,0,0,1,.18-1.09,2.64,2.64,0,0,1,.51-.88,2.31,2.31,0,0,1,.82-.58A2.72,2.72,0,0,1,193.85,47Zm0,.72a1.46,1.46,0,0,0-1.11.41,1.83,1.83,0,0,0-.51,1.13h3a2.06,2.06,0,0,0-.09-.62,1.57,1.57,0,0,0-.28-.49,1.28,1.28,0,0,0-.44-.32A1.6,1.6,0,0,0,193.87,47.68Z"/><path class="ae2aa641-6074-4ec4-ade1-52d075ce56b0" d="M205.24,51a.21.21,0,0,1,.16.07l.42.46a3.52,3.52,0,0,1-1.18.87,4,4,0,0,1-1.66.31,3.89,3.89,0,0,1-1.55-.29,3.52,3.52,0,0,1-1.18-.82,3.88,3.88,0,0,1-.76-1.28,4.72,4.72,0,0,1-.27-1.63,4.46,4.46,0,0,1,.29-1.63,3.59,3.59,0,0,1,.81-1.28,3.7,3.7,0,0,1,1.25-.83,4.23,4.23,0,0,1,1.61-.29,3.6,3.6,0,0,1,2.62,1l-.35.49-.08.09a.31.31,0,0,1-.15,0,.26.26,0,0,1-.15,0l-.19-.13-.26-.16a1.9,1.9,0,0,0-.35-.17,3.44,3.44,0,0,0-.47-.13,3.8,3.8,0,0,0-.62,0,2.92,2.92,0,0,0-1.16.22,2.59,2.59,0,0,0-.91.62,2.73,2.73,0,0,0-.59,1,3.71,3.71,0,0,0-.21,1.29,3.79,3.79,0,0,0,.21,1.31,3,3,0,0,0,.58,1,2.54,2.54,0,0,0,.87.61,2.74,2.74,0,0,0,1.08.21,4,4,0,0,0,.63,0,2.82,2.82,0,0,0,.52-.12,2,2,0,0,0,.44-.23,2.92,2.92,0,0,0,.42-.32A.29.29,0,0,1,205.24,51Z"/></g></svg>