<svg xmlns="http://www.w3.org/2000/svg" viewBox="0 0 193.33 238.53"><defs><style>.\31 51152e3-1716-45b4-b0c5-1bed6e2e11f4,.\38 746ba77-70c6-4125-9909-71cf37291c2e,.cafdcdf5-60ae-4e5f-aca1-927a3f89499c{fill:none;}.\31 51152e3-1716-45b4-b0c5-1bed6e2e11f4{stroke:#575756;stroke-width:0.5px;}.\32 34e24ee-85f1-4d6c-8a8c-20f8366f2073{fill:#575756;}.\34 8d6d6c9-24b1-4408-acab-3448fcf8749a{fill:#ededed;stroke:#dadada;}.a4d34169-53bb-456c-a706-cd252cf23121{fill:#3c3c3b;}.\36 f178c31-a885-42d5-9fc8-784c8fbc70fd{fill:#878787;}.ae31a38b-a90c-420a-b6c3-eeea5d42a08c,.cafdcdf5-60ae-4e5f-aca1-927a3f89499c{stroke:#00af9a;}.\38 245e526-4cb0-44ce-a885-062e93391af8,.\38 746ba77-70c6-4125-9909-71cf37291c2e{stroke:#fb8072;}.ae31a38b-a90c-420a-b6c3-eeea5d42a08c{fill:#00af9a;}.\38 245e526-4cb0-44ce-a885-062e93391af8{fill:#fb8072;}</style></defs><title>batch-effect</title><g id="0e8b030e-a928-4fa0-9d73-f199f0aa368c" data-name="arrows"><line class="151152e3-1716-45b4-b0c5-1bed6e2e11f4" x1="9.08" y1="70" x2="9.08" y2="131.33"/><polygon class="234e24ee-85f1-4d6c-8a8c-20f8366f2073" points="7.23 129.92 9.08 130.71 10.94 129.92 9.08 134.31 7.23 129.92"/><line class="151152e3-1716-45b4-b0c5-1bed6e2e11f4" x1="20.5" y1="70" x2="20.5" y2="131.33"/><polygon class="234e24ee-85f1-4d6c-8a8c-20f8366f2073" points="18.65 129.92 20.5 130.71 22.35 129.92 20.5 134.31 18.65 129.92"/><line class="151152e3-1716-45b4-b0c5-1bed6e2e11f4" x1="20.5" y1="149.88" x2="20.5" y2="175.52"/><polygon class="234e24ee-85f1-4d6c-8a8c-20f8366f2073" points="18.65 174.11 20.5 174.9 22.35 174.11 20.5 178.5 18.65 174.11"/><line class="151152e3-1716-45b4-b0c5-1bed6e2e11f4" x1="20.5" y1="193.88" x2="20.5" y2="220.43"/><polygon class="234e24ee-85f1-4d6c-8a8c-20f8366f2073" points="18.65 219.02 20.5 219.81 22.35 219.02 20.5 223.41 18.65 219.02"/><line class="151152e3-1716-45b4-b0c5-1bed6e2e11f4" x1="32.25" y1="70" x2="32.25" y2="131.33"/><polygon class="234e24ee-85f1-4d6c-8a8c-20f8366f2073" points="30.4 129.92 32.25 130.71 34.1 129.92 32.25 134.31 30.4 129.92"/><line class="151152e3-1716-45b4-b0c5-1bed6e2e11f4" x1="51.75" y1="70" x2="51.75" y2="131.33"/><polygon class="234e24ee-85f1-4d6c-8a8c-20f8366f2073" points="49.9 129.92 51.75 130.71 53.6 129.92 51.75 134.31 49.9 129.92"/><line class="151152e3-1716-45b4-b0c5-1bed6e2e11f4" x1="63.33" y1="70" x2="63.33" y2="131.33"/><polygon class="234e24ee-85f1-4d6c-8a8c-20f8366f2073" points="61.48 129.92 63.33 130.71 65.19 129.92 63.33 134.31 61.48 129.92"/><line class="151152e3-1716-45b4-b0c5-1bed6e2e11f4" x1="75.08" y1="70" x2="75.08" y2="131.33"/><polygon class="234e24ee-85f1-4d6c-8a8c-20f8366f2073" points="73.23 129.92 75.08 130.71 76.94 129.92 75.08 134.31 73.23 129.92"/><line class="151152e3-1716-45b4-b0c5-1bed6e2e11f4" x1="116.72" y1="70" x2="116.72" y2="131.33"/><polygon class="234e24ee-85f1-4d6c-8a8c-20f8366f2073" points="114.87 129.92 116.72 130.71 118.57 129.92 116.72 134.31 114.87 129.92"/><line class="151152e3-1716-45b4-b0c5-1bed6e2e11f4" x1="128.5" y1="70" x2="128.5" y2="131.33"/><polygon class="234e24ee-85f1-4d6c-8a8c-20f8366f2073" points="126.65 129.92 128.5 130.71 130.35 129.92 128.5 134.31 126.65 129.92"/><line class="151152e3-1716-45b4-b0c5-1bed6e2e11f4" x1="145.12" y1="70" x2="145.12" y2="131.33"/><polygon class="234e24ee-85f1-4d6c-8a8c-20f8366f2073" points="143.27 129.92 145.13 130.71 146.98 129.92 145.13 134.31 143.27 129.92"/><line class="151152e3-1716-45b4-b0c5-1bed6e2e11f4" x1="156.75" y1="70" x2="156.75" y2="131.33"/><polygon class="234e24ee-85f1-4d6c-8a8c-20f8366f2073" points="154.9 129.92 156.75 130.71 158.6 129.92 156.75 134.31 154.9 129.92"/><line class="151152e3-1716-45b4-b0c5-1bed6e2e11f4" x1="172.37" y1="70" x2="172.37" y2="131.33"/><polygon class="234e24ee-85f1-4d6c-8a8c-20f8366f2073" points="170.52 129.92 172.38 130.71 174.23 129.92 172.38 134.31 170.52 129.92"/><line class="151152e3-1716-45b4-b0c5-1bed6e2e11f4" x1="184.12" y1="70" x2="184.12" y2="131.33"/><polygon class="234e24ee-85f1-4d6c-8a8c-20f8366f2073" points="182.27 129.92 184.13 130.71 185.98 129.92 184.13 134.31 182.27 129.92"/><path class="151152e3-1716-45b4-b0c5-1bed6e2e11f4" d="M9.08,149.88v2.39a2.66,2.66,0,0,0,2.84,2.4h5.75c1.55,0,2.83.51,2.83,1.13v1.13"/><path class="151152e3-1716-45b4-b0c5-1bed6e2e11f4" d="M31.92,149.88v2.39a2.66,2.66,0,0,1-2.84,2.4H23.33c-1.55,0-2.83.51-2.83,1.13v1.13"/><line class="151152e3-1716-45b4-b0c5-1bed6e2e11f4" x1="63.5" y1="149.88" x2="63.5" y2="175.52"/><polygon class="234e24ee-85f1-4d6c-8a8c-20f8366f2073" points="61.65 174.11 63.5 174.9 65.35 174.11 63.5 178.5 61.65 174.11"/><path class="151152e3-1716-45b4-b0c5-1bed6e2e11f4" d="M52.08,149.88v2.39a2.66,2.66,0,0,0,2.84,2.4h5.75c1.55,0,2.83.51,2.83,1.13v1.13"/><path class="151152e3-1716-45b4-b0c5-1bed6e2e11f4" d="M74.92,149.88v2.39a2.66,2.66,0,0,1-2.84,2.4H66.33c-1.55,0-2.83.51-2.83,1.13v1.13"/><line class="151152e3-1716-45b4-b0c5-1bed6e2e11f4" x1="122.5" y1="156" x2="122.5" y2="175.52"/><polygon class="234e24ee-85f1-4d6c-8a8c-20f8366f2073" points="120.65 174.11 122.5 174.9 124.35 174.11 122.5 178.5 120.65 174.11"/><path class="151152e3-1716-45b4-b0c5-1bed6e2e11f4" d="M116.72,149.88v2.39a2.66,2.66,0,0,0,2.84,2.4h.22c1.55,0,2.83.51,2.83,1.13v1.13"/><path class="151152e3-1716-45b4-b0c5-1bed6e2e11f4" d="M128.5,149.88v2.39a2.65,2.65,0,0,1-2.83,2.4h-.23c-1.55,0-2.83.51-2.83,1.13v1.13"/><line class="151152e3-1716-45b4-b0c5-1bed6e2e11f4" x1="150.49" y1="156" x2="150.49" y2="175.52"/><polygon class="234e24ee-85f1-4d6c-8a8c-20f8366f2073" points="148.64 174.11 150.49 174.9 152.34 174.11 150.49 178.5 148.64 174.11"/><path class="151152e3-1716-45b4-b0c5-1bed6e2e11f4" d="M144.71,149.88v2.39a2.66,2.66,0,0,0,2.84,2.4h.22c1.56,0,2.83.51,2.83,1.13v1.13"/><path class="151152e3-1716-45b4-b0c5-1bed6e2e11f4" d="M156.49,149.88v2.39a2.65,2.65,0,0,1-2.83,2.4h-.22c-1.56,0-2.84.51-2.84,1.13v1.13"/><line class="151152e3-1716-45b4-b0c5-1bed6e2e11f4" x1="178.14" y1="156" x2="178.14" y2="175.52"/><polygon class="234e24ee-85f1-4d6c-8a8c-20f8366f2073" points="176.29 174.11 178.14 174.9 179.99 174.11 178.14 178.5 176.29 174.11"/><path class="151152e3-1716-45b4-b0c5-1bed6e2e11f4" d="M172.36,149.88v2.39a2.65,2.65,0,0,0,2.83,2.4h.23c1.55,0,2.83.51,2.83,1.13v1.13"/><path class="151152e3-1716-45b4-b0c5-1bed6e2e11f4" d="M184.14,149.88v2.39a2.65,2.65,0,0,1-2.83,2.4h-.23c-1.55,0-2.83.51-2.83,1.13v1.13"/><path class="151152e3-1716-45b4-b0c5-1bed6e2e11f4" d="M20.5,212.67v1.41c0,.78-1.28,1.42-2.83,1.42H11.92a2.85,2.85,0,0,0-2.84,2.83v2.1"/><polygon class="234e24ee-85f1-4d6c-8a8c-20f8366f2073" points="7.23 219.02 9.08 219.81 10.94 219.02 9.08 223.41 7.23 219.02"/><path class="151152e3-1716-45b4-b0c5-1bed6e2e11f4" d="M20.5,212.67v1.41c0,.78,1.28,1.42,2.83,1.42h5.75a2.85,2.85,0,0,1,2.84,2.83v2.1"/><polygon class="234e24ee-85f1-4d6c-8a8c-20f8366f2073" points="30.07 219.02 31.92 219.81 33.77 219.02 31.92 223.41 30.07 219.02"/><line class="151152e3-1716-45b4-b0c5-1bed6e2e11f4" x1="63.33" y1="193.88" x2="63.33" y2="220.43"/><polygon class="234e24ee-85f1-4d6c-8a8c-20f8366f2073" points="61.48 219.02 63.33 219.81 65.19 219.02 63.33 223.41 61.48 219.02"/><path class="151152e3-1716-45b4-b0c5-1bed6e2e11f4" d="M63.33,212.67v1.41c0,.78-1.27,1.42-2.83,1.42H54.75a2.84,2.84,0,0,0-2.83,2.83v2.1"/><polygon class="234e24ee-85f1-4d6c-8a8c-20f8366f2073" points="50.06 219.02 51.92 219.81 53.77 219.02 51.92 223.41 50.06 219.02"/><path class="151152e3-1716-45b4-b0c5-1bed6e2e11f4" d="M63.33,212.67v1.41c0,.78,1.28,1.42,2.84,1.42h5.75a2.85,2.85,0,0,1,2.83,2.83v2.1"/><polygon class="234e24ee-85f1-4d6c-8a8c-20f8366f2073" points="72.9 219.02 74.75 219.81 76.6 219.02 74.75 223.41 72.9 219.02"/><path class="151152e3-1716-45b4-b0c5-1bed6e2e11f4" d="M122.61,208.67v4a2.85,2.85,0,0,1-2.83,2.83h-.22a2.85,2.85,0,0,0-2.84,2.83v2.1"/><polygon class="234e24ee-85f1-4d6c-8a8c-20f8366f2073" points="114.87 219.02 116.72 219.81 118.57 219.02 116.72 223.41 114.87 219.02"/><path class="151152e3-1716-45b4-b0c5-1bed6e2e11f4" d="M122.61,193.67v19a2.85,2.85,0,0,0,2.83,2.83h.23a2.85,2.85,0,0,1,2.83,2.83v2.1"/><polygon class="234e24ee-85f1-4d6c-8a8c-20f8366f2073" points="126.65 219.02 128.5 219.81 130.35 219.02 128.5 223.41 126.65 219.02"/><path class="151152e3-1716-45b4-b0c5-1bed6e2e11f4" d="M150.29,208.67v4a2.84,2.84,0,0,1-2.83,2.83h-.22a2.85,2.85,0,0,0-2.84,2.83v2.1"/><polygon class="234e24ee-85f1-4d6c-8a8c-20f8366f2073" points="142.55 219.02 144.4 219.81 146.25 219.02 144.4 223.41 142.55 219.02"/><path class="151152e3-1716-45b4-b0c5-1bed6e2e11f4" d="M150.29,193.67v19a2.85,2.85,0,0,0,2.84,2.83h.22a2.84,2.84,0,0,1,2.83,2.83v2.1"/><polygon class="234e24ee-85f1-4d6c-8a8c-20f8366f2073" points="154.33 219.02 156.18 219.81 158.03 219.02 156.18 223.41 154.33 219.02"/><path class="151152e3-1716-45b4-b0c5-1bed6e2e11f4" d="M178.14,208.67v4a2.85,2.85,0,0,1-2.84,2.83h-.22a2.85,2.85,0,0,0-2.83,2.83v2.1"/><polygon class="234e24ee-85f1-4d6c-8a8c-20f8366f2073" points="170.4 219.02 172.25 219.81 174.1 219.02 172.25 223.41 170.4 219.02"/><path class="151152e3-1716-45b4-b0c5-1bed6e2e11f4" d="M178.14,193.67v19A2.85,2.85,0,0,0,181,215.5h.22a2.85,2.85,0,0,1,2.84,2.83v2.1"/><polygon class="234e24ee-85f1-4d6c-8a8c-20f8366f2073" points="182.18 219.02 184.03 219.81 185.88 219.02 184.03 223.41 182.18 219.02"/></g><g id="be5908f3-0d69-46a3-8df8-775fdc192a6e" data-name="background"><rect class="48d6d6c9-24b1-4408-acab-3448fcf8749a" x="3" y="74.63" width="78" height="28.83" rx="1.95" ry="1.95"/><rect class="48d6d6c9-24b1-4408-acab-3448fcf8749a" x="3" y="19.76" width="33.83" height="17.07" rx="0.99" ry="0.99"/><rect class="48d6d6c9-24b1-4408-acab-3448fcf8749a" x="46.58" y="19.76" width="33.83" height="17.07" rx="0.99" ry="0.99"/><rect class="48d6d6c9-24b1-4408-acab-3448fcf8749a" x="111" y="19.76" width="22.08" height="17.07" rx="0.8" ry="0.8"/><rect class="48d6d6c9-24b1-4408-acab-3448fcf8749a" x="139.56" y="19.76" width="22.08" height="17.07" rx="0.8" ry="0.8"/><rect class="48d6d6c9-24b1-4408-acab-3448fcf8749a" x="167.21" y="19.76" width="22.08" height="17.07" rx="0.8" ry="0.8"/><rect class="48d6d6c9-24b1-4408-acab-3448fcf8749a" x="3" y="157.14" width="33.83" height="15.11" rx="0.93" ry="0.93"/><rect class="48d6d6c9-24b1-4408-acab-3448fcf8749a" x="46.58" y="157.14" width="33.83" height="15.11" rx="0.93" ry="0.93"/><rect class="48d6d6c9-24b1-4408-acab-3448fcf8749a" x="111" y="157.14" width="22.08" height="15.11" rx="0.75" ry="0.75"/><rect class="48d6d6c9-24b1-4408-acab-3448fcf8749a" x="139.56" y="157.14" width="22.08" height="15.11" rx="0.75" ry="0.75"/><rect class="48d6d6c9-24b1-4408-acab-3448fcf8749a" x="167.21" y="157.14" width="22.08" height="15.11" rx="0.75" ry="0.75"/><rect class="48d6d6c9-24b1-4408-acab-3448fcf8749a" x="112" y="74.63" width="78" height="28.83" rx="1.95" ry="1.95"/><rect class="48d6d6c9-24b1-4408-acab-3448fcf8749a" x="3" y="108.47" width="78" height="16.79" rx="1.49" ry="1.49"/><rect class="48d6d6c9-24b1-4408-acab-3448fcf8749a" x="3" y="196.05" width="78" height="16.79" rx="1.49" ry="1.49"/><rect class="48d6d6c9-24b1-4408-acab-3448fcf8749a" x="110.71" y="196.05" width="78" height="16.79" rx="1.49" ry="1.49"/><rect class="48d6d6c9-24b1-4408-acab-3448fcf8749a" x="112" y="108.47" width="78" height="16.79" rx="1.49" ry="1.49"/></g><g id="016795fc-6ea2-49ff-96d6-4185b993129d" data-name="text-titles"><path class="a4d34169-53bb-456c-a706-cd252cf23121" d="M12.79,50.85h-.9a.37.37,0,0,1-.25-.08.43.43,0,0,1-.15-.2l-.8-2.08H6.83L6,50.57a.45.45,0,0,1-.15.19.37.37,0,0,1-.25.09h-.9l3.44-8.6H9.35Zm-5.64-3.2h3.21L9,44.16a8.07,8.07,0,0,1-.25-.81c0,.16-.09.31-.13.45s-.09.26-.13.36Z"/><path class="a4d34169-53bb-456c-a706-cd252cf23121" d="M24.54,50.85h-.9a.37.37,0,0,1-.25-.08.43.43,0,0,1-.15-.2l-.8-2.08H18.58l-.8,2.08a.45.45,0,0,1-.15.19.37.37,0,0,1-.25.09h-.9l3.44-8.6H21.1Zm-5.64-3.2h3.21l-1.35-3.49a8.07,8.07,0,0,1-.25-.81c-.05.16-.09.31-.13.45s-.09.26-.13.36Z"/><path class="a4d34169-53bb-456c-a706-cd252cf23121" d="M36.29,50.85h-.9a.37.37,0,0,1-.25-.08.43.43,0,0,1-.15-.2l-.8-2.08H30.33l-.8,2.08a.45.45,0,0,1-.15.19.37.37,0,0,1-.25.09h-.9l3.44-8.6h1.18Zm-5.64-3.2h3.21l-1.35-3.49a8.07,8.07,0,0,1-.25-.81c0,.16-.09.31-.13.45s-.09.26-.13.36Z"/><path class="a4d34169-53bb-456c-a706-cd252cf23121" d="M48.91,50.85v-8.6h2.74A5.46,5.46,0,0,1,53,42.4a2.74,2.74,0,0,1,.94.45,1.77,1.77,0,0,1,.55.7,2.54,2.54,0,0,1,.17.94,1.77,1.77,0,0,1-.1.61,1.56,1.56,0,0,1-.3.55,2,2,0,0,1-.5.45,2.73,2.73,0,0,1-.71.32,2.67,2.67,0,0,1,1.42.68A1.78,1.78,0,0,1,55,48.4a2.47,2.47,0,0,1-.2,1,2.13,2.13,0,0,1-.59.78,2.8,2.8,0,0,1-.94.5,4.28,4.28,0,0,1-1.29.18Zm1.17-4.75h1.53a3,3,0,0,0,.85-.11,1.69,1.69,0,0,0,.6-.3,1.11,1.11,0,0,0,.35-.46,1.46,1.46,0,0,0,.12-.6,1.34,1.34,0,0,0-.46-1.11,2.28,2.28,0,0,0-1.42-.35H50.08Zm0,.83v3h1.86a3,3,0,0,0,.85-.11,1.58,1.58,0,0,0,.59-.32,1.28,1.28,0,0,0,.34-.49,1.81,1.81,0,0,0,.11-.63,1.28,1.28,0,0,0-.47-1,2.22,2.22,0,0,0-1.43-.39Z"/><path class="a4d34169-53bb-456c-a706-cd252cf23121" d="M60.66,50.85v-8.6H63.4a5.46,5.46,0,0,1,1.37.15,2.74,2.74,0,0,1,.94.45,1.77,1.77,0,0,1,.55.7,2.54,2.54,0,0,1,.17.94,1.77,1.77,0,0,1-.1.61,1.56,1.56,0,0,1-.3.55,2,2,0,0,1-.5.45,2.73,2.73,0,0,1-.71.32,2.67,2.67,0,0,1,1.42.68,1.78,1.78,0,0,1,.48,1.3,2.47,2.47,0,0,1-.2,1,2.13,2.13,0,0,1-.59.78,2.8,2.8,0,0,1-.94.5,4.28,4.28,0,0,1-1.29.18Zm1.17-4.75h1.53a3,3,0,0,0,.85-.11,1.69,1.69,0,0,0,.6-.3,1.11,1.11,0,0,0,.35-.46,1.46,1.46,0,0,0,.12-.6,1.34,1.34,0,0,0-.46-1.11,2.28,2.28,0,0,0-1.42-.35H61.83Zm0,.83v3h1.86a3,3,0,0,0,.85-.11,1.58,1.58,0,0,0,.59-.32,1.28,1.28,0,0,0,.34-.49,1.81,1.81,0,0,0,.11-.63,1.28,1.28,0,0,0-.47-1,2.22,2.22,0,0,0-1.43-.39Z"/><path class="a4d34169-53bb-456c-a706-cd252cf23121" d="M72.41,50.85v-8.6h2.74a5.46,5.46,0,0,1,1.37.15,2.74,2.74,0,0,1,.94.45,1.77,1.77,0,0,1,.55.7,2.54,2.54,0,0,1,.17.94,1.77,1.77,0,0,1-.1.61,1.56,1.56,0,0,1-.3.55,2,2,0,0,1-.5.45,2.73,2.73,0,0,1-.71.32A2.67,2.67,0,0,1,78,47.1a1.78,1.78,0,0,1,.48,1.3,2.47,2.47,0,0,1-.2,1,2.13,2.13,0,0,1-.59.78,2.8,2.8,0,0,1-.94.5,4.28,4.28,0,0,1-1.29.18Zm1.17-4.75h1.53A3,3,0,0,0,76,46a1.69,1.69,0,0,0,.6-.3,1.11,1.11,0,0,0,.35-.46,1.46,1.46,0,0,0,.12-.6,1.34,1.34,0,0,0-.46-1.11,2.28,2.28,0,0,0-1.42-.35H73.58Zm0,.83v3h1.86a3,3,0,0,0,.85-.11,1.58,1.58,0,0,0,.59-.32,1.28,1.28,0,0,0,.34-.49,1.81,1.81,0,0,0,.11-.63,1.28,1.28,0,0,0-.47-1,2.22,2.22,0,0,0-1.43-.39Z"/><path class="a4d34169-53bb-456c-a706-cd252cf23121" d="M120.79,50.85h-.9a.37.37,0,0,1-.25-.08.43.43,0,0,1-.15-.2l-.8-2.08h-3.86l-.8,2.08a.45.45,0,0,1-.15.19.37.37,0,0,1-.25.09h-.9l3.44-8.6h1.18Zm-5.64-3.2h3.21L117,44.16a8.07,8.07,0,0,1-.25-.81c-.05.16-.09.31-.13.45s-.09.26-.13.36Z"/><path class="a4d34169-53bb-456c-a706-cd252cf23121" d="M125.66,50.85v-8.6h2.74a5.46,5.46,0,0,1,1.37.15,2.74,2.74,0,0,1,.94.45,1.77,1.77,0,0,1,.55.7,2.54,2.54,0,0,1,.17.94,1.77,1.77,0,0,1-.1.61,1.56,1.56,0,0,1-.3.55,2,2,0,0,1-.5.45,2.73,2.73,0,0,1-.71.32,2.67,2.67,0,0,1,1.42.68,1.78,1.78,0,0,1,.48,1.3,2.47,2.47,0,0,1-.2,1,2.13,2.13,0,0,1-.59.78,2.8,2.8,0,0,1-.94.5,4.28,4.28,0,0,1-1.29.18Zm1.17-4.75h1.53a3,3,0,0,0,.85-.11,1.69,1.69,0,0,0,.6-.3,1.11,1.11,0,0,0,.35-.46,1.46,1.46,0,0,0,.12-.6,1.34,1.34,0,0,0-.46-1.11,2.28,2.28,0,0,0-1.42-.35h-1.57Zm0,.83v3h1.86a3,3,0,0,0,.85-.11,1.58,1.58,0,0,0,.59-.32,1.28,1.28,0,0,0,.34-.49,1.81,1.81,0,0,0,.11-.63,1.28,1.28,0,0,0-.47-1,2.22,2.22,0,0,0-1.43-.39Z"/><path class="a4d34169-53bb-456c-a706-cd252cf23121" d="M148.29,50.85h-.9a.37.37,0,0,1-.25-.08.43.43,0,0,1-.15-.2l-.8-2.08h-3.86l-.8,2.08a.45.45,0,0,1-.15.19.37.37,0,0,1-.25.09h-.9l3.44-8.6h1.18Zm-5.64-3.2h3.21l-1.35-3.49a8.07,8.07,0,0,1-.25-.81c0,.16-.09.31-.13.45s-.09.26-.13.36Z"/><path class="a4d34169-53bb-456c-a706-cd252cf23121" d="M153.91,50.85v-8.6h2.74a5.46,5.46,0,0,1,1.37.15,2.74,2.74,0,0,1,.94.45,1.77,1.77,0,0,1,.55.7,2.54,2.54,0,0,1,.17.94,1.77,1.77,0,0,1-.1.61,1.56,1.56,0,0,1-.3.55,2,2,0,0,1-.5.45,2.73,2.73,0,0,1-.71.32,2.67,2.67,0,0,1,1.42.68,1.78,1.78,0,0,1,.48,1.3,2.47,2.47,0,0,1-.2,1,2.13,2.13,0,0,1-.59.78,2.8,2.8,0,0,1-.94.5,4.28,4.28,0,0,1-1.29.18Zm1.17-4.75h1.53a3,3,0,0,0,.85-.11,1.69,1.69,0,0,0,.6-.3,1.11,1.11,0,0,0,.35-.46,1.46,1.46,0,0,0,.12-.6,1.34,1.34,0,0,0-.46-1.11,2.28,2.28,0,0,0-1.42-.35h-1.57Zm0,.83v3h1.86a3,3,0,0,0,.85-.11,1.58,1.58,0,0,0,.59-.32,1.28,1.28,0,0,0,.34-.49,1.81,1.81,0,0,0,.11-.63,1.28,1.28,0,0,0-.47-1,2.22,2.22,0,0,0-1.43-.39Z"/><path class="a4d34169-53bb-456c-a706-cd252cf23121" d="M176.54,50.85h-.9a.37.37,0,0,1-.25-.08.43.43,0,0,1-.15-.2l-.8-2.08h-3.86l-.8,2.08a.45.45,0,0,1-.15.19.37.37,0,0,1-.25.09h-.9l3.44-8.6h1.18Zm-5.64-3.2h3.21l-1.35-3.49a8.07,8.07,0,0,1-.25-.81c0,.16-.09.31-.13.45s-.09.26-.13.36Z"/><path class="a4d34169-53bb-456c-a706-cd252cf23121" d="M181.41,50.85v-8.6h2.74a5.46,5.46,0,0,1,1.37.15,2.74,2.74,0,0,1,.94.45,1.77,1.77,0,0,1,.55.7,2.54,2.54,0,0,1,.17.94,1.77,1.77,0,0,1-.1.61,1.56,1.56,0,0,1-.3.55,2,2,0,0,1-.5.45,2.73,2.73,0,0,1-.71.32,2.67,2.67,0,0,1,1.42.68,1.78,1.78,0,0,1,.48,1.3,2.47,2.47,0,0,1-.2,1,2.13,2.13,0,0,1-.59.78,2.8,2.8,0,0,1-.94.5,4.28,4.28,0,0,1-1.29.18Zm1.17-4.75h1.53A3,3,0,0,0,185,46a1.69,1.69,0,0,0,.6-.3,1.11,1.11,0,0,0,.35-.46,1.46,1.46,0,0,0,.12-.6,1.34,1.34,0,0,0-.46-1.11,2.28,2.28,0,0,0-1.42-.35h-1.57Zm0,.83v3h1.86a3,3,0,0,0,.85-.11,1.58,1.58,0,0,0,.59-.32,1.28,1.28,0,0,0,.34-.49,1.81,1.81,0,0,0,.11-.63,1.28,1.28,0,0,0-.47-1,2.22,2.22,0,0,0-1.43-.39Z"/><path class="a4d34169-53bb-456c-a706-cd252cf23121" d="M31.84,82.62V86.2H30.68V77.6h2.43a5.23,5.23,0,0,1,1.41.17,2.69,2.69,0,0,1,1,.48,2.08,2.08,0,0,1,.57.75,2.57,2.57,0,0,1,.18,1,2.37,2.37,0,0,1-.14.85,2.22,2.22,0,0,1-.42.71,2.51,2.51,0,0,1-.66.54,3,3,0,0,1-.89.33,1.33,1.33,0,0,1,.38.37L37,86.2H36a.51.51,0,0,1-.47-.24l-2.23-3.08a.7.7,0,0,0-.23-.2.84.84,0,0,0-.36-.06Zm0-.85h1.22a3.06,3.06,0,0,0,.9-.12,2,2,0,0,0,.65-.35,1.5,1.5,0,0,0,.39-.54,1.73,1.73,0,0,0,.13-.69,1.37,1.37,0,0,0-.51-1.16,2.43,2.43,0,0,0-1.51-.39H31.84Z"/><path class="a4d34169-53bb-456c-a706-cd252cf23121" d="M39.12,77.64a.61.61,0,0,1,.17.16l5,6.48c0-.1,0-.2,0-.3s0-.19,0-.28V77.6h1v8.6h-.58a.57.57,0,0,1-.24,0,.7.7,0,0,1-.18-.17l-5-6.47c0,.1,0,.2,0,.29V86.2h-1V77.6h.6A.59.59,0,0,1,39.12,77.64Z"/><path class="a4d34169-53bb-456c-a706-cd252cf23121" d="M54.44,86.2h-.9a.37.37,0,0,1-.25-.07.48.48,0,0,1-.15-.2l-.8-2.08H48.48l-.8,2.08a.53.53,0,0,1-.15.19.41.41,0,0,1-.25.08h-.9l3.44-8.6H51ZM48.8,83H52l-1.35-3.5a6.71,6.71,0,0,1-.25-.81l-.13.46c0,.13-.09.26-.13.36Z"/><path class="a4d34169-53bb-456c-a706-cd252cf23121" d="M18.46,94.43a2.75,2.75,0,0,1,1,.18,2.28,2.28,0,0,1,.8.53,2.34,2.34,0,0,1,.52.85A3.21,3.21,0,0,1,21,97.15a.77.77,0,0,1-.05.33.23.23,0,0,1-.21.09h-4a3.27,3.27,0,0,0,.16,1,2,2,0,0,0,.39.71,1.7,1.7,0,0,0,.6.43,2.36,2.36,0,0,0,1.48,0,2.6,2.6,0,0,0,.5-.2c.14-.07.25-.14.35-.2a.45.45,0,0,1,.24-.09.21.21,0,0,1,.2.1l.3.39a2.11,2.11,0,0,1-.47.42,2.94,2.94,0,0,1-.59.29,3.66,3.66,0,0,1-.65.17,3.88,3.88,0,0,1-.67.06,3,3,0,0,1-1.16-.22,2.62,2.62,0,0,1-.92-.62,3,3,0,0,1-.6-1,4.22,4.22,0,0,1-.22-1.39,3.58,3.58,0,0,1,.2-1.19,2.81,2.81,0,0,1,.56-1,2.46,2.46,0,0,1,.9-.64A3,3,0,0,1,18.46,94.43Zm0,.78a1.62,1.62,0,0,0-1.22.45,2.07,2.07,0,0,0-.55,1.24H20a2.11,2.11,0,0,0-.1-.68,1.53,1.53,0,0,0-.3-.53,1.3,1.3,0,0,0-.48-.35A1.67,1.67,0,0,0,18.49,95.21Z"/><path class="a4d34169-53bb-456c-a706-cd252cf23121" d="M23.41,97.49l-2.05-3h1a.33.33,0,0,1,.19,0,.33.33,0,0,1,.11.12L24.17,97a1.5,1.5,0,0,1,.16-.34l1.31-1.92a.77.77,0,0,1,.12-.13.2.2,0,0,1,.15-.06h1l-2,2.91L27,100.6H26a.28.28,0,0,1-.21-.07.44.44,0,0,1-.12-.15L24.09,98a1,1,0,0,1-.13.31l-1.41,2.07a.64.64,0,0,1-.13.15.25.25,0,0,1-.19.07h-.95Z"/><path class="a4d34169-53bb-456c-a706-cd252cf23121" d="M29.87,100.7a1.48,1.48,0,0,1-1.1-.4,1.61,1.61,0,0,1-.39-1.16V95.42h-.73a.21.21,0,0,1-.16-.06.21.21,0,0,1-.07-.18v-.42l1-.13.24-1.88a.25.25,0,0,1,.08-.14.24.24,0,0,1,.17-.06h.54v2.09h1.74v.78H29.45v3.65a.81.81,0,0,0,.18.57.68.68,0,0,0,.48.18.91.91,0,0,0,.3,0l.21-.1.15-.1a.19.19,0,0,1,.11,0,.17.17,0,0,1,.15.1l.31.51a2,2,0,0,1-.66.4A2.24,2.24,0,0,1,29.87,100.7Z"/><path class="a4d34169-53bb-456c-a706-cd252cf23121" d="M32.51,100.6V94.52h.61a.34.34,0,0,1,.24.07.46.46,0,0,1,.09.23l.07,1a2.86,2.86,0,0,1,.77-1,1.77,1.77,0,0,1,1.08-.35,2.16,2.16,0,0,1,.46,0,1.53,1.53,0,0,1,.37.16l-.13.8a.18.18,0,0,1-.19.15.9.9,0,0,1-.26-.06,2,2,0,0,0-.48,0,1.41,1.41,0,0,0-.94.32,2.37,2.37,0,0,0-.62.94v3.87Z"/><path class="a4d34169-53bb-456c-a706-cd252cf23121" d="M41.58,100.6h-.47a.5.5,0,0,1-.26,0,.25.25,0,0,1-.12-.2l-.12-.56c-.16.14-.32.27-.47.38a2.36,2.36,0,0,1-.48.29,2.45,2.45,0,0,1-.54.18,3.06,3.06,0,0,1-.63.06,2,2,0,0,1-.66-.1,1.57,1.57,0,0,1-.54-.3,1.43,1.43,0,0,1-.36-.5,1.74,1.74,0,0,1-.14-.72,1.41,1.41,0,0,1,.2-.7,1.76,1.76,0,0,1,.64-.59,4.22,4.22,0,0,1,1.15-.42,7.91,7.91,0,0,1,1.75-.17v-.48a1.64,1.64,0,0,0-.3-1.07,1.08,1.08,0,0,0-.9-.37,1.83,1.83,0,0,0-.66.1,2.83,2.83,0,0,0-.46.22l-.34.22a.43.43,0,0,1-.27.1.36.36,0,0,1-.19,0,.37.37,0,0,1-.13-.15l-.19-.34a3.4,3.4,0,0,1,1.08-.72,3.37,3.37,0,0,1,1.29-.24,2.38,2.38,0,0,1,.91.16,2,2,0,0,1,.66.47,2,2,0,0,1,.41.73,3.07,3.07,0,0,1,.14.93ZM38.81,100a2,2,0,0,0,.51-.06,2.18,2.18,0,0,0,.45-.16,2.2,2.2,0,0,0,.39-.26,2.33,2.33,0,0,0,.37-.34V97.88a7.37,7.37,0,0,0-1.25.09,3.7,3.7,0,0,0-.84.25,1.13,1.13,0,0,0-.47.35.77.77,0,0,0-.15.46.93.93,0,0,0,.08.42.74.74,0,0,0,.21.28.78.78,0,0,0,.31.17A1.6,1.6,0,0,0,38.81,100Z"/><path class="a4d34169-53bb-456c-a706-cd252cf23121" d="M47.35,95.6l-.1.11a.26.26,0,0,1-.14,0,.32.32,0,0,1-.19-.07l-.27-.17a2.42,2.42,0,0,0-.39-.16,1.91,1.91,0,0,0-.57-.08,2,2,0,0,0-.79.16,1.68,1.68,0,0,0-.57.46,2.16,2.16,0,0,0-.35.73,3.49,3.49,0,0,0-.11,1,3.6,3.6,0,0,0,.12,1,2,2,0,0,0,.36.72,1.5,1.5,0,0,0,.55.45,1.75,1.75,0,0,0,.74.15,1.93,1.93,0,0,0,.64-.09,2.72,2.72,0,0,0,.42-.21l.27-.21a.37.37,0,0,1,.22-.09.21.21,0,0,1,.2.1l.3.39a2.21,2.21,0,0,1-1,.71,3.47,3.47,0,0,1-1.25.23,2.67,2.67,0,0,1-1.06-.21,2.56,2.56,0,0,1-.85-.61,2.86,2.86,0,0,1-.56-1,3.91,3.91,0,0,1-.21-1.33A3.86,3.86,0,0,1,43,96.31a2.77,2.77,0,0,1,.55-1,2.61,2.61,0,0,1,.9-.65,3.09,3.09,0,0,1,1.22-.23,2.88,2.88,0,0,1,1.13.21,2.55,2.55,0,0,1,.87.58Z"/><path class="a4d34169-53bb-456c-a706-cd252cf23121" d="M50.65,100.7a1.51,1.51,0,0,1-1.11-.4,1.61,1.61,0,0,1-.39-1.16V95.42h-.73a.23.23,0,0,1-.16-.06.21.21,0,0,1-.07-.18v-.42l1-.13.24-1.88a.25.25,0,0,1,.08-.14.25.25,0,0,1,.17-.06h.54v2.09H52v.78H50.22v3.65a.77.77,0,0,0,.19.57.65.65,0,0,0,.48.18.85.85,0,0,0,.29,0l.21-.1.15-.1a.21.21,0,0,1,.11,0,.17.17,0,0,1,.15.1l.32.51a2.13,2.13,0,0,1-.67.4A2.22,2.22,0,0,1,50.65,100.7Z"/><path class="a4d34169-53bb-456c-a706-cd252cf23121" d="M54.71,92.62a.72.72,0,0,1-.06.29,1,1,0,0,1-.17.24.76.76,0,0,1-.83.16.78.78,0,0,1-.24-.16.81.81,0,0,1-.17-.24.72.72,0,0,1-.06-.29.73.73,0,0,1,.06-.3.85.85,0,0,1,.17-.25.78.78,0,0,1,.24-.16.78.78,0,0,1,.83.16,1.1,1.1,0,0,1,.17.25A.73.73,0,0,1,54.71,92.62Zm-.24,1.9v6.08H53.4V94.52Z"/><path class="a4d34169-53bb-456c-a706-cd252cf23121" d="M58.81,94.43a3.11,3.11,0,0,1,1.21.22,2.65,2.65,0,0,1,.91.63,2.68,2.68,0,0,1,.57,1,3.72,3.72,0,0,1,.2,1.29,3.82,3.82,0,0,1-.2,1.3,2.72,2.72,0,0,1-.57,1,2.65,2.65,0,0,1-.91.63,3.41,3.41,0,0,1-2.41,0,2.69,2.69,0,0,1-.92-.63,2.9,2.9,0,0,1-.58-1,4.08,4.08,0,0,1-.2-1.3,4,4,0,0,1,.2-1.29,2.85,2.85,0,0,1,.58-1,2.69,2.69,0,0,1,.92-.63A3.09,3.09,0,0,1,58.81,94.43Zm0,5.42a1.58,1.58,0,0,0,1.35-.6,3.45,3.45,0,0,0,0-3.37,1.56,1.56,0,0,0-1.35-.61,1.92,1.92,0,0,0-.79.15,1.56,1.56,0,0,0-.56.46,2,2,0,0,0-.34.72,4,4,0,0,0-.11,1,4,4,0,0,0,.11,1,2,2,0,0,0,.34.72,1.64,1.64,0,0,0,.56.45A1.92,1.92,0,0,0,58.81,99.85Z"/><path class="a4d34169-53bb-456c-a706-cd252cf23121" d="M63,100.6V94.52h.64a.28.28,0,0,1,.29.23l.08.66a3.52,3.52,0,0,1,.89-.71,2.28,2.28,0,0,1,1.13-.27,2.23,2.23,0,0,1,.88.16,1.74,1.74,0,0,1,.63.47,2.13,2.13,0,0,1,.39.73,3.14,3.14,0,0,1,.13.94v3.87H67V96.73a1.64,1.64,0,0,0-.31-1.07,1.19,1.19,0,0,0-1-.38,1.82,1.82,0,0,0-.89.23,2.92,2.92,0,0,0-.76.62v4.47Z"/><path class="a4d34169-53bb-456c-a706-cd252cf23121" d="M140.84,82.62V86.2h-1.16V77.6h2.43a5.23,5.23,0,0,1,1.41.17,2.57,2.57,0,0,1,1,.48,2,2,0,0,1,.58.75,2.57,2.57,0,0,1,.18,1,2.37,2.37,0,0,1-.14.85,2.22,2.22,0,0,1-.42.71,2.51,2.51,0,0,1-.66.54,3,3,0,0,1-.89.33,1.33,1.33,0,0,1,.38.37L146,86.2h-1a.51.51,0,0,1-.47-.24l-2.23-3.08a.7.7,0,0,0-.23-.2.84.84,0,0,0-.36-.06Zm0-.85h1.22a3.06,3.06,0,0,0,.9-.12,2,2,0,0,0,.65-.35,1.5,1.5,0,0,0,.39-.54,1.73,1.73,0,0,0,.13-.69,1.37,1.37,0,0,0-.51-1.16,2.43,2.43,0,0,0-1.51-.39h-1.27Z"/><path class="a4d34169-53bb-456c-a706-cd252cf23121" d="M148.12,77.64a.61.61,0,0,1,.17.16l5,6.48c0-.1,0-.2,0-.3s0-.19,0-.28V77.6h1v8.6h-.58a.57.57,0,0,1-.24,0,.7.7,0,0,1-.18-.17l-5-6.47c0,.1,0,.2,0,.29V86.2h-1V77.6h.6A.59.59,0,0,1,148.12,77.64Z"/><path class="a4d34169-53bb-456c-a706-cd252cf23121" d="M163.44,86.2h-.9a.37.37,0,0,1-.25-.07.48.48,0,0,1-.15-.2l-.8-2.08h-3.86l-.8,2.08a.53.53,0,0,1-.15.19.41.41,0,0,1-.25.08h-.9l3.44-8.6H160ZM157.8,83H161l-1.35-3.5a6.71,6.71,0,0,1-.25-.81l-.13.46c0,.13-.09.26-.13.36Z"/><path class="a4d34169-53bb-456c-a706-cd252cf23121" d="M127.46,94.43a2.75,2.75,0,0,1,1,.18,2.28,2.28,0,0,1,.8.53,2.34,2.34,0,0,1,.52.85,3.21,3.21,0,0,1,.19,1.16.77.77,0,0,1,0,.33.23.23,0,0,1-.21.09h-4a3.27,3.27,0,0,0,.16,1,2,2,0,0,0,.39.71,1.7,1.7,0,0,0,.6.43,2.36,2.36,0,0,0,1.48,0,2.6,2.6,0,0,0,.5-.2c.14-.07.25-.14.35-.2a.45.45,0,0,1,.24-.09.21.21,0,0,1,.2.1l.3.39a2.11,2.11,0,0,1-.47.42,2.94,2.94,0,0,1-.59.29,3.66,3.66,0,0,1-.65.17,3.88,3.88,0,0,1-.67.06,3,3,0,0,1-1.16-.22,2.62,2.62,0,0,1-.92-.62,3,3,0,0,1-.6-1,4.22,4.22,0,0,1-.22-1.39,3.58,3.58,0,0,1,.2-1.19,2.81,2.81,0,0,1,.56-1,2.51,2.51,0,0,1,.89-.64A3,3,0,0,1,127.46,94.43Zm0,.78a1.62,1.62,0,0,0-1.22.45,2.07,2.07,0,0,0-.55,1.24H129a2.11,2.11,0,0,0-.1-.68,1.53,1.53,0,0,0-.3-.53,1.3,1.3,0,0,0-.48-.35A1.67,1.67,0,0,0,127.49,95.21Z"/><path class="a4d34169-53bb-456c-a706-cd252cf23121" d="M132.41,97.49l-2-3h1a.33.33,0,0,1,.19,0,.33.33,0,0,1,.11.12L133.17,97a1.5,1.5,0,0,1,.16-.34l1.31-1.92a.77.77,0,0,1,.12-.13.2.2,0,0,1,.15-.06h1l-2,2.91L136,100.6h-1a.28.28,0,0,1-.21-.07.44.44,0,0,1-.12-.15L133.09,98a1,1,0,0,1-.13.31l-1.41,2.07a.64.64,0,0,1-.13.15.25.25,0,0,1-.19.07h-.95Z"/><path class="a4d34169-53bb-456c-a706-cd252cf23121" d="M138.87,100.7a1.48,1.48,0,0,1-1.1-.4,1.61,1.61,0,0,1-.39-1.16V95.42h-.73a.21.21,0,0,1-.16-.06.21.21,0,0,1-.07-.18v-.42l1-.13.24-1.88a.25.25,0,0,1,.08-.14.24.24,0,0,1,.17-.06h.54v2.09h1.74v.78h-1.74v3.65a.81.81,0,0,0,.18.57.68.68,0,0,0,.48.18.81.81,0,0,0,.29,0,1.56,1.56,0,0,0,.22-.1l.15-.1a.19.19,0,0,1,.11,0,.17.17,0,0,1,.15.1l.31.51a2,2,0,0,1-.66.4A2.24,2.24,0,0,1,138.87,100.7Z"/><path class="a4d34169-53bb-456c-a706-cd252cf23121" d="M141.51,100.6V94.52h.61a.34.34,0,0,1,.24.07.46.46,0,0,1,.09.23l.07,1a2.86,2.86,0,0,1,.77-1,1.77,1.77,0,0,1,1.08-.35,2.16,2.16,0,0,1,.46,0,1.53,1.53,0,0,1,.37.16l-.13.8a.18.18,0,0,1-.19.15.9.9,0,0,1-.26-.06,2,2,0,0,0-.48,0,1.41,1.41,0,0,0-.94.32,2.37,2.37,0,0,0-.62.94v3.87Z"/><path class="a4d34169-53bb-456c-a706-cd252cf23121" d="M150.58,100.6h-.47a.5.5,0,0,1-.26,0,.25.25,0,0,1-.12-.2l-.12-.56c-.16.14-.32.27-.47.38a2.36,2.36,0,0,1-.48.29,2.45,2.45,0,0,1-.54.18,3.06,3.06,0,0,1-.63.06,2,2,0,0,1-.66-.1,1.57,1.57,0,0,1-.54-.3,1.43,1.43,0,0,1-.36-.5,1.74,1.74,0,0,1-.14-.72,1.41,1.41,0,0,1,.2-.7,1.68,1.68,0,0,1,.64-.59,4.22,4.22,0,0,1,1.15-.42,7.91,7.91,0,0,1,1.75-.17v-.48a1.64,1.64,0,0,0-.3-1.07,1.08,1.08,0,0,0-.9-.37,1.83,1.83,0,0,0-.66.1,2.83,2.83,0,0,0-.46.22l-.34.22a.43.43,0,0,1-.27.1.36.36,0,0,1-.19,0,.37.37,0,0,1-.13-.15l-.19-.34a3.4,3.4,0,0,1,1.08-.72,3.37,3.37,0,0,1,1.29-.24,2.38,2.38,0,0,1,.91.16,2,2,0,0,1,.66.47,2,2,0,0,1,.41.73,3.07,3.07,0,0,1,.14.93Zm-2.77-.65a2,2,0,0,0,.51-.06,1.91,1.91,0,0,0,.44-.16,2,2,0,0,0,.4-.26,2.33,2.33,0,0,0,.37-.34V97.88a7.37,7.37,0,0,0-1.25.09,3.7,3.7,0,0,0-.84.25,1.13,1.13,0,0,0-.47.35.77.77,0,0,0-.15.46.93.93,0,0,0,.08.42.74.74,0,0,0,.21.28.78.78,0,0,0,.31.17A1.6,1.6,0,0,0,147.81,100Z"/><path class="a4d34169-53bb-456c-a706-cd252cf23121" d="M156.35,95.6l-.1.11a.26.26,0,0,1-.14,0,.32.32,0,0,1-.19-.07l-.27-.17a2.42,2.42,0,0,0-.39-.16,1.91,1.91,0,0,0-.57-.08,2,2,0,0,0-.79.16,1.68,1.68,0,0,0-.57.46,2.16,2.16,0,0,0-.35.73,3.49,3.49,0,0,0-.11,1,3.6,3.6,0,0,0,.12,1,2,2,0,0,0,.36.72,1.5,1.5,0,0,0,.55.45,1.75,1.75,0,0,0,.74.15,1.93,1.93,0,0,0,.64-.09,2.72,2.72,0,0,0,.42-.21l.27-.21a.37.37,0,0,1,.22-.09.21.21,0,0,1,.2.1l.3.39a2.21,2.21,0,0,1-1,.71,3.47,3.47,0,0,1-1.25.23,2.67,2.67,0,0,1-1.06-.21,2.56,2.56,0,0,1-.85-.61,2.86,2.86,0,0,1-.56-1,3.91,3.91,0,0,1-.21-1.33,3.86,3.86,0,0,1,.19-1.25,2.77,2.77,0,0,1,.55-1,2.61,2.61,0,0,1,.9-.65,3.09,3.09,0,0,1,1.22-.23,2.88,2.88,0,0,1,1.13.21,2.55,2.55,0,0,1,.87.58Z"/><path class="a4d34169-53bb-456c-a706-cd252cf23121" d="M159.65,100.7a1.51,1.51,0,0,1-1.11-.4,1.61,1.61,0,0,1-.39-1.16V95.42h-.73a.23.23,0,0,1-.16-.06.21.21,0,0,1-.07-.18v-.42l1-.13.24-1.88a.25.25,0,0,1,.08-.14.25.25,0,0,1,.17-.06h.54v2.09H161v.78h-1.74v3.65a.77.77,0,0,0,.19.57.65.65,0,0,0,.48.18.88.88,0,0,0,.29,0l.21-.1.15-.1a.19.19,0,0,1,.11,0,.17.17,0,0,1,.15.1l.32.51a2.13,2.13,0,0,1-.67.4A2.22,2.22,0,0,1,159.65,100.7Z"/><path class="a4d34169-53bb-456c-a706-cd252cf23121" d="M163.71,92.62a.72.72,0,0,1-.06.29,1,1,0,0,1-.17.24.76.76,0,0,1-.83.16.78.78,0,0,1-.24-.16.81.81,0,0,1-.17-.24.72.72,0,0,1-.06-.29.73.73,0,0,1,.06-.3.85.85,0,0,1,.17-.25.78.78,0,0,1,.24-.16.78.78,0,0,1,.83.16,1.1,1.1,0,0,1,.17.25A.73.73,0,0,1,163.71,92.62Zm-.24,1.9v6.08H162.4V94.52Z"/><path class="a4d34169-53bb-456c-a706-cd252cf23121" d="M167.81,94.43a3,3,0,0,1,1.2.22,2.6,2.6,0,0,1,.92.63,2.68,2.68,0,0,1,.57,1,3.72,3.72,0,0,1,.2,1.29,3.82,3.82,0,0,1-.2,1.3,2.72,2.72,0,0,1-.57,1,2.6,2.6,0,0,1-.92.63,3.21,3.21,0,0,1-1.2.22,3.29,3.29,0,0,1-1.2-.22,2.69,2.69,0,0,1-.92-.63,2.9,2.9,0,0,1-.58-1,4.08,4.08,0,0,1-.2-1.3,4,4,0,0,1,.2-1.29,2.85,2.85,0,0,1,.58-1,2.69,2.69,0,0,1,.92-.63A3.09,3.09,0,0,1,167.81,94.43Zm0,5.42a1.58,1.58,0,0,0,1.35-.6,3.45,3.45,0,0,0,0-3.37,1.56,1.56,0,0,0-1.35-.61,1.92,1.92,0,0,0-.79.15,1.56,1.56,0,0,0-.56.46,2,2,0,0,0-.34.72,4,4,0,0,0-.11,1,4,4,0,0,0,.11,1,2,2,0,0,0,.34.72,1.64,1.64,0,0,0,.56.45A1.92,1.92,0,0,0,167.81,99.85Z"/><path class="a4d34169-53bb-456c-a706-cd252cf23121" d="M172,100.6V94.52h.64a.28.28,0,0,1,.29.23l.08.66a3.52,3.52,0,0,1,.89-.71,2.28,2.28,0,0,1,1.13-.27,2.23,2.23,0,0,1,.88.16,1.74,1.74,0,0,1,.63.47,2.13,2.13,0,0,1,.39.73,3.14,3.14,0,0,1,.13.94v3.87H176V96.73a1.64,1.64,0,0,0-.31-1.07,1.19,1.19,0,0,0-1-.38,1.82,1.82,0,0,0-.89.23,2.92,2.92,0,0,0-.76.62v4.47Z"/><path class="a4d34169-53bb-456c-a706-cd252cf23121" d="M11.7,120.06h3.72v1H10.54v-8.6H11.7Z"/><path class="a4d34169-53bb-456c-a706-cd252cf23121" d="M18,113.05a.73.73,0,0,1-.07.3.81.81,0,0,1-.17.24.78.78,0,0,1-.24.16.72.72,0,0,1-.29.06.68.68,0,0,1-.29-.06.78.78,0,0,1-.24-.16.81.81,0,0,1-.17-.24.73.73,0,0,1-.06-.3.72.72,0,0,1,.06-.29.74.74,0,0,1,.17-.25.78.78,0,0,1,.24-.16.68.68,0,0,1,.29-.06.72.72,0,0,1,.29.06.78.78,0,0,1,.24.16.74.74,0,0,1,.17.25A.73.73,0,0,1,18,113.05ZM17.73,115V121H16.66V115Z"/><path class="a4d34169-53bb-456c-a706-cd252cf23121" d="M19.65,121V112.2h1.07v3.64a3.12,3.12,0,0,1,.87-.71,2.33,2.33,0,0,1,1.11-.26,2.29,2.29,0,0,1,1,.19,1.89,1.89,0,0,1,.72.6,2.83,2.83,0,0,1,.47,1A5.27,5.27,0,0,1,25,118a4.15,4.15,0,0,1-.18,1.25,3,3,0,0,1-.52,1,2.46,2.46,0,0,1-1.93.91,2.08,2.08,0,0,1-1-.23,2.41,2.41,0,0,1-.72-.64l-.05.55a.26.26,0,0,1-.28.23Zm2.71-5.32a1.73,1.73,0,0,0-.92.24,2.55,2.55,0,0,0-.72.68v2.94a1.57,1.57,0,0,0,.64.55,1.79,1.79,0,0,0,.78.17,1.55,1.55,0,0,0,1.31-.61A2.85,2.85,0,0,0,23.9,118a4.4,4.4,0,0,0-.1-1,2.14,2.14,0,0,0-.3-.7,1.33,1.33,0,0,0-.49-.4A1.67,1.67,0,0,0,22.36,115.72Z"/><path class="a4d34169-53bb-456c-a706-cd252cf23121" d="M26.32,121V115h.61a.33.33,0,0,1,.24.07.46.46,0,0,1,.09.23l.07.95a2.86,2.86,0,0,1,.77-1,1.71,1.71,0,0,1,1.08-.36,1.53,1.53,0,0,1,.45.06,1.45,1.45,0,0,1,.38.16l-.14.8a.17.17,0,0,1-.18.15.9.9,0,0,1-.26-.06,1.54,1.54,0,0,0-.49-.06,1.36,1.36,0,0,0-.93.33,2.42,2.42,0,0,0-.63.94V121Z"/><path class="a4d34169-53bb-456c-a706-cd252cf23121" d="M35.39,121h-.48a.62.62,0,0,1-.25-.05.27.27,0,0,1-.12-.2l-.12-.57a5.09,5.09,0,0,1-.47.39,2.36,2.36,0,0,1-.48.29,2.45,2.45,0,0,1-.54.18,3.06,3.06,0,0,1-.63.06,2.28,2.28,0,0,1-.66-.1,1.57,1.57,0,0,1-.54-.3,1.43,1.43,0,0,1-.36-.5,1.81,1.81,0,0,1-.14-.72,1.38,1.38,0,0,1,.2-.7,1.68,1.68,0,0,1,.64-.59,4.56,4.56,0,0,1,1.15-.43,8,8,0,0,1,1.75-.16v-.48a1.69,1.69,0,0,0-.3-1.08,1.13,1.13,0,0,0-.9-.36,1.83,1.83,0,0,0-.66.1A2.19,2.19,0,0,0,32,116l-.34.22a.44.44,0,0,1-.28.1.28.28,0,0,1-.18-.06.29.29,0,0,1-.13-.14l-.19-.34a3.44,3.44,0,0,1,1.08-.73,3.37,3.37,0,0,1,1.29-.24,2.38,2.38,0,0,1,.91.17,1.85,1.85,0,0,1,.66.47,1.93,1.93,0,0,1,.41.73,3,3,0,0,1,.14.93Zm-2.77-.65a2,2,0,0,0,.51-.06,1.91,1.91,0,0,0,.44-.16,2.48,2.48,0,0,0,.4-.26,2.92,2.92,0,0,0,.37-.34v-1.25a7.58,7.58,0,0,0-1.26.09,3.55,3.55,0,0,0-.84.24,1.2,1.2,0,0,0-.47.36.83.83,0,0,0-.14.46,1.09,1.09,0,0,0,.07.42,1,1,0,0,0,.21.28.9.9,0,0,0,.32.17A1.6,1.6,0,0,0,32.62,120.39Z"/><path class="a4d34169-53bb-456c-a706-cd252cf23121" d="M37,121V115h.61a.3.3,0,0,1,.24.07.46.46,0,0,1,.09.23l.07.95a2.86,2.86,0,0,1,.77-1,1.71,1.71,0,0,1,1.08-.36,1.65,1.65,0,0,1,.46.06,1.53,1.53,0,0,1,.37.16l-.13.8a.18.18,0,0,1-.19.15.9.9,0,0,1-.26-.06,1.52,1.52,0,0,0-.48-.06,1.37,1.37,0,0,0-.94.33,2.3,2.3,0,0,0-.62.94V121Z"/><path class="a4d34169-53bb-456c-a706-cd252cf23121" d="M43.63,122.83a.51.51,0,0,1-.14.2.36.36,0,0,1-.25.07h-.79l1.11-2.41L41.05,115H42a.33.33,0,0,1,.21.07.79.79,0,0,1,.12.15L43.93,119c0,.09.07.18.1.27l.06.27.09-.27c0-.09.06-.18.1-.27l1.57-3.83A.37.37,0,0,1,46,115a.26.26,0,0,1,.18-.07H47Z"/><path class="a4d34169-53bb-456c-a706-cd252cf23121" d="M51.75,117.83V121H50.59v-8.6h2.54a5,5,0,0,1,1.42.19,2.9,2.9,0,0,1,1,.54,2.17,2.17,0,0,1,.59.84,3,3,0,0,1,.19,1.1,2.84,2.84,0,0,1-.21,1.1,2.23,2.23,0,0,1-.61.85,2.82,2.82,0,0,1-1,.56,4.11,4.11,0,0,1-1.37.21Zm0-.93h1.38a2.63,2.63,0,0,0,.88-.13,1.83,1.83,0,0,0,.64-.37,1.61,1.61,0,0,0,.39-.57,1.88,1.88,0,0,0,.13-.72,1.66,1.66,0,0,0-.51-1.29,2.17,2.17,0,0,0-1.53-.46H51.75Z"/><path class="a4d34169-53bb-456c-a706-cd252cf23121" d="M57.64,121V115h.61a.33.33,0,0,1,.24.07.46.46,0,0,1,.09.23l.07.95a2.86,2.86,0,0,1,.77-1,1.71,1.71,0,0,1,1.08-.36,1.53,1.53,0,0,1,.45.06,1.45,1.45,0,0,1,.38.16l-.14.8A.17.17,0,0,1,61,116a.9.9,0,0,1-.26-.06,1.59,1.59,0,0,0-.49-.06,1.36,1.36,0,0,0-.93.33,2.42,2.42,0,0,0-.63.94V121Z"/><path class="a4d34169-53bb-456c-a706-cd252cf23121" d="M64.88,114.87a2.79,2.79,0,0,1,1,.18,2.24,2.24,0,0,1,.79.53,2.36,2.36,0,0,1,.53.85,3.19,3.19,0,0,1,.19,1.15.63.63,0,0,1-.06.34c0,.06-.1.08-.2.08h-4a3.36,3.36,0,0,0,.15,1,2.12,2.12,0,0,0,.4.71,1.56,1.56,0,0,0,.6.42,1.94,1.94,0,0,0,.78.15,2.29,2.29,0,0,0,.69-.1,3.05,3.05,0,0,0,.5-.2,3.34,3.34,0,0,0,.35-.2.51.51,0,0,1,.25-.09.23.23,0,0,1,.2.1l.3.39a2.11,2.11,0,0,1-.47.42,4,4,0,0,1-.59.29,4.55,4.55,0,0,1-.66.17,3.68,3.68,0,0,1-.66.06,3.11,3.11,0,0,1-1.16-.22,2.54,2.54,0,0,1-.92-.62,2.87,2.87,0,0,1-.6-1,4,4,0,0,1-.22-1.39,3.58,3.58,0,0,1,.2-1.19,2.7,2.7,0,0,1,.56-1,2.48,2.48,0,0,1,.89-.63A2.84,2.84,0,0,1,64.88,114.87Zm0,.78a1.65,1.65,0,0,0-1.22.45,2.13,2.13,0,0,0-.55,1.24h3.31a2.37,2.37,0,0,0-.1-.68,1.57,1.57,0,0,0-.3-.54,1.39,1.39,0,0,0-.49-.34A1.48,1.48,0,0,0,64.9,115.65Z"/><path class="a4d34169-53bb-456c-a706-cd252cf23121" d="M68.76,123.1V115h.64a.27.27,0,0,1,.28.22l.09.72a3.36,3.36,0,0,1,.89-.76,2.32,2.32,0,0,1,1.16-.29,2.14,2.14,0,0,1,1,.21,1.94,1.94,0,0,1,.72.59,2.88,2.88,0,0,1,.47,1,5.27,5.27,0,0,1,.16,1.33,4.15,4.15,0,0,1-.18,1.25,3,3,0,0,1-.52,1,2.39,2.39,0,0,1-.82.66,2.5,2.5,0,0,1-1.1.25,2.36,2.36,0,0,1-1-.19,2.24,2.24,0,0,1-.7-.53v2.69Zm2.71-7.38a1.73,1.73,0,0,0-.92.24,2.55,2.55,0,0,0-.72.68v2.94a1.63,1.63,0,0,0,.64.55,1.86,1.86,0,0,0,.79.17,1.55,1.55,0,0,0,1.3-.61A2.85,2.85,0,0,0,73,118a4.4,4.4,0,0,0-.1-1,2.14,2.14,0,0,0-.3-.7,1.33,1.33,0,0,0-.49-.4A1.67,1.67,0,0,0,71.47,115.72Z"/><path class="a4d34169-53bb-456c-a706-cd252cf23121" d="M17.21,201.37a.4.4,0,0,1-.11.14.25.25,0,0,1-.16,0,.4.4,0,0,1-.23-.1c-.09-.07-.21-.14-.34-.22a2.59,2.59,0,0,0-.5-.23,2.13,2.13,0,0,0-.71-.1,2.09,2.09,0,0,0-.69.1,1.53,1.53,0,0,0-.5.29,1.25,1.25,0,0,0-.3.42,1.32,1.32,0,0,0-.1.53,1,1,0,0,0,.17.59,1.56,1.56,0,0,0,.47.41,4,4,0,0,0,.66.29l.76.26a6.13,6.13,0,0,1,.75.29,2.48,2.48,0,0,1,.66.42,1.82,1.82,0,0,1,.47.62,2,2,0,0,1,.18.9,3.11,3.11,0,0,1-.19,1.06,2.61,2.61,0,0,1-.56.86,2.71,2.71,0,0,1-.91.57,3.36,3.36,0,0,1-1.22.21,3.75,3.75,0,0,1-1.52-.3,3.52,3.52,0,0,1-1.18-.82l.34-.55a.32.32,0,0,1,.12-.11.25.25,0,0,1,.15-.05A.51.51,0,0,1,13,207l.4.3a4.06,4.06,0,0,0,.59.29,2.3,2.3,0,0,0,.84.14,2.09,2.09,0,0,0,.74-.12,1.47,1.47,0,0,0,.9-.81,1.69,1.69,0,0,0,.12-.64,1,1,0,0,0-.18-.64,1.37,1.37,0,0,0-.47-.42,3.54,3.54,0,0,0-.65-.29l-.76-.24a6.09,6.09,0,0,1-.75-.28,2.48,2.48,0,0,1-.66-.42,2,2,0,0,1-.47-.65,2.54,2.54,0,0,1,0-1.83,2.19,2.19,0,0,1,.52-.76,2.42,2.42,0,0,1,.83-.53,3.08,3.08,0,0,1,1.13-.2,3.73,3.73,0,0,1,1.32.23,3.07,3.07,0,0,1,1,.66Z"/><path class="a4d34169-53bb-456c-a706-cd252cf23121" d="M21.41,202.45a2.59,2.59,0,0,1,1,.19,2.22,2.22,0,0,1,.79.52,2.41,2.41,0,0,1,.53.86,3.38,3.38,0,0,1,.19,1.15.66.66,0,0,1-.06.34.22.22,0,0,1-.2.08h-4a3.24,3.24,0,0,0,.15,1,2,2,0,0,0,.4.71,1.58,1.58,0,0,0,.6.43,2.13,2.13,0,0,0,.78.14,2.31,2.31,0,0,0,.69-.09,3.46,3.46,0,0,0,.5-.2l.35-.2a.45.45,0,0,1,.25-.1.26.26,0,0,1,.2.1l.3.4a2.07,2.07,0,0,1-.47.41,2.69,2.69,0,0,1-.59.29,2.91,2.91,0,0,1-.66.17,3.68,3.68,0,0,1-.66.06,3.11,3.11,0,0,1-1.16-.21,2.44,2.44,0,0,1-.92-.63,2.74,2.74,0,0,1-.6-1,4,4,0,0,1-.22-1.4,3.52,3.52,0,0,1,.2-1.18,2.7,2.7,0,0,1,.56-1,2.64,2.64,0,0,1,.89-.64A3,3,0,0,1,21.41,202.45Zm0,.79a1.65,1.65,0,0,0-1.22.45,2.1,2.1,0,0,0-.55,1.23H23a2.48,2.48,0,0,0-.1-.68,1.62,1.62,0,0,0-.3-.53,1.42,1.42,0,0,0-.49-.35A1.64,1.64,0,0,0,21.43,203.24Z"/><path class="a4d34169-53bb-456c-a706-cd252cf23121" d="M30.2,202.55v8.14H29.14v-3a3.31,3.31,0,0,1-.88.71,2.26,2.26,0,0,1-1.12.27,2.23,2.23,0,0,1-.94-.2,1.89,1.89,0,0,1-.73-.59,2.91,2.91,0,0,1-.46-1,5,5,0,0,1-.16-1.34,4.15,4.15,0,0,1,.18-1.25,3.2,3.2,0,0,1,.51-1,2.7,2.7,0,0,1,.83-.67,2.44,2.44,0,0,1,1.1-.24,2.15,2.15,0,0,1,1,.21,2.33,2.33,0,0,1,.74.6l.07-.48a.27.27,0,0,1,.29-.22Zm-2.7,5.3a1.69,1.69,0,0,0,.91-.24,2.73,2.73,0,0,0,.73-.68V204a1.74,1.74,0,0,0-.65-.55,1.78,1.78,0,0,0-.78-.16,1.53,1.53,0,0,0-1.3.6,2.8,2.8,0,0,0-.46,1.73,4.4,4.4,0,0,0,.1,1,2,2,0,0,0,.3.69,1.18,1.18,0,0,0,.49.4A1.53,1.53,0,0,0,27.5,207.85Z"/><path class="a4d34169-53bb-456c-a706-cd252cf23121" d="M32.92,202.55v3.87a1.63,1.63,0,0,0,.32,1.07,1.16,1.16,0,0,0,1,.38,1.8,1.8,0,0,0,.88-.22,2.76,2.76,0,0,0,.76-.62v-4.48h1.07v6.08h-.63a.27.27,0,0,1-.29-.22l-.09-.66a3.48,3.48,0,0,1-.88.71,2.44,2.44,0,0,1-1.13.26,2.19,2.19,0,0,1-.88-.16,1.69,1.69,0,0,1-.64-.47,2.08,2.08,0,0,1-.39-.72,3.52,3.52,0,0,1-.13-1v-3.87Z"/><path class="a4d34169-53bb-456c-a706-cd252cf23121" d="M41.08,202.45a2.51,2.51,0,0,1,1,.19,2.17,2.17,0,0,1,.8.52,2.41,2.41,0,0,1,.53.86,3.38,3.38,0,0,1,.19,1.15.66.66,0,0,1-.06.34.22.22,0,0,1-.2.08H39.29a3.22,3.22,0,0,0,.16,1,2,2,0,0,0,.4.71,1.44,1.44,0,0,0,.6.43,2.13,2.13,0,0,0,.78.14,2.36,2.36,0,0,0,.69-.09,3.46,3.46,0,0,0,.5-.2l.35-.2a.42.42,0,0,1,.24-.1.27.27,0,0,1,.21.1l.3.4a1.93,1.93,0,0,1-.48.41,2.49,2.49,0,0,1-.59.29,2.83,2.83,0,0,1-.65.17,3.68,3.68,0,0,1-.66.06A3.11,3.11,0,0,1,40,208.5a2.44,2.44,0,0,1-.92-.63,2.9,2.9,0,0,1-.61-1,4.29,4.29,0,0,1-.21-1.4,3.52,3.52,0,0,1,.19-1.18,2.86,2.86,0,0,1,.56-1,2.78,2.78,0,0,1,.9-.64A3,3,0,0,1,41.08,202.45Zm0,.79a1.64,1.64,0,0,0-1.22.45,2.1,2.1,0,0,0-.55,1.23h3.31a2.15,2.15,0,0,0-.11-.68,1.33,1.33,0,0,0-.3-.53,1.3,1.3,0,0,0-.48-.35A1.67,1.67,0,0,0,41.1,203.24Z"/><path class="a4d34169-53bb-456c-a706-cd252cf23121" d="M45,208.63v-6.08h.63a.27.27,0,0,1,.29.22l.09.66a3.48,3.48,0,0,1,.88-.71,2.3,2.3,0,0,1,1.13-.27,2.19,2.19,0,0,1,.88.17,1.67,1.67,0,0,1,.64.47,1.88,1.88,0,0,1,.38.73,3,3,0,0,1,.14.94v3.87H49v-3.87a1.63,1.63,0,0,0-.32-1.07,1.16,1.16,0,0,0-1-.38,1.83,1.83,0,0,0-.89.22,3.09,3.09,0,0,0-.75.62v4.48Z"/><path class="a4d34169-53bb-456c-a706-cd252cf23121" d="M55.78,203.63a.93.93,0,0,1-.1.1.26.26,0,0,1-.14,0,.34.34,0,0,1-.19-.08l-.27-.16a2.4,2.4,0,0,0-.39-.17,1.93,1.93,0,0,0-.57-.07,1.8,1.8,0,0,0-.79.16,1.49,1.49,0,0,0-.57.46,2.2,2.2,0,0,0-.35.72,3.54,3.54,0,0,0-.11,1,3.73,3.73,0,0,0,.12,1,2.21,2.21,0,0,0,.36.72,1.47,1.47,0,0,0,.55.44,1.75,1.75,0,0,0,.74.15,1.93,1.93,0,0,0,.64-.09,1.64,1.64,0,0,0,.42-.21,2.37,2.37,0,0,0,.27-.2.33.33,0,0,1,.22-.1.23.23,0,0,1,.2.1l.3.4a2.29,2.29,0,0,1-1,.71,3.46,3.46,0,0,1-1.25.22,2.67,2.67,0,0,1-1.06-.21,2.34,2.34,0,0,1-.85-.61,2.85,2.85,0,0,1-.57-1,4.18,4.18,0,0,1-.2-1.33,3.86,3.86,0,0,1,.19-1.25,2.81,2.81,0,0,1,.55-1,2.37,2.37,0,0,1,.9-.65,2.92,2.92,0,0,1,1.22-.24,2.88,2.88,0,0,1,1.13.21,2.58,2.58,0,0,1,.87.59Z"/><path class="a4d34169-53bb-456c-a706-cd252cf23121" d="M58.66,200.64a.68.68,0,0,1-.06.29.87.87,0,0,1-.41.41.73.73,0,0,1-.3.06.72.72,0,0,1-.29-.06.81.81,0,0,1-.24-.17.78.78,0,0,1-.16-.24.68.68,0,0,1-.06-.29.8.8,0,0,1,.06-.3.78.78,0,0,1,.16-.24.81.81,0,0,1,.24-.17.72.72,0,0,1,.29-.06.73.73,0,0,1,.3.06.77.77,0,0,1,.47.71Zm-.24,1.91v6.08H57.35v-6.08Z"/><path class="a4d34169-53bb-456c-a706-cd252cf23121" d="M60.31,208.63v-6.08h.63a.27.27,0,0,1,.29.22l.08.66a3.52,3.52,0,0,1,.89-.71,2.28,2.28,0,0,1,1.13-.27,2.23,2.23,0,0,1,.88.17,1.63,1.63,0,0,1,.63.47,2,2,0,0,1,.39.73,3.05,3.05,0,0,1,.13.94v3.87H64.3v-3.87a1.63,1.63,0,0,0-.32-1.07,1.16,1.16,0,0,0-1-.38,1.83,1.83,0,0,0-.89.22,3.34,3.34,0,0,0-.76.62v4.48Z"/><path class="a4d34169-53bb-456c-a706-cd252cf23121" d="M69,202.45a3.43,3.43,0,0,1,.74.08,2.53,2.53,0,0,1,.63.26H72v.4c0,.13-.08.21-.25.25l-.69.09a1.89,1.89,0,0,1-.44,2.3,2.28,2.28,0,0,1-.72.4,3,3,0,0,1-1.72,0,1,1,0,0,0-.29.27.48.48,0,0,0-.1.28.4.4,0,0,0,.17.34,1.29,1.29,0,0,0,.47.16,4.19,4.19,0,0,0,.65.05h.75a3.64,3.64,0,0,1,.74.07,2.14,2.14,0,0,1,.66.22,1.24,1.24,0,0,1,.46.42,1.18,1.18,0,0,1,.17.69,1.59,1.59,0,0,1-.19.76,2.06,2.06,0,0,1-.56.66,2.64,2.64,0,0,1-.9.46,3.67,3.67,0,0,1-1.19.18,5.1,5.1,0,0,1-1.17-.13,2.77,2.77,0,0,1-.83-.36,1.57,1.57,0,0,1-.49-.51,1.25,1.25,0,0,1-.17-.61,1.12,1.12,0,0,1,.29-.77,1.91,1.91,0,0,1,.78-.5,1.11,1.11,0,0,1-.41-.32.87.87,0,0,1-.15-.54.93.93,0,0,1,0-.27,1.28,1.28,0,0,1,.15-.28,2,2,0,0,1,.24-.26,1.33,1.33,0,0,1,.34-.22,1.91,1.91,0,0,1-.71-.67,1.83,1.83,0,0,1-.25-1,1.91,1.91,0,0,1,.17-.8,1.62,1.62,0,0,1,.48-.62,2.22,2.22,0,0,1,.73-.4A3,3,0,0,1,69,202.45Zm1.9,6.49a.53.53,0,0,0-.13-.38.87.87,0,0,0-.34-.22,2.88,2.88,0,0,0-.5-.11,5.41,5.41,0,0,0-.59,0h-.64a2,2,0,0,1-.61-.09,1.71,1.71,0,0,0-.56.4.81.81,0,0,0-.21.56.72.72,0,0,0,.1.38,1,1,0,0,0,.32.31,2.19,2.19,0,0,0,.55.2,3.37,3.37,0,0,0,.77.08,3.57,3.57,0,0,0,.77-.08,2.06,2.06,0,0,0,.58-.23,1,1,0,0,0,.36-.35A.76.76,0,0,0,70.92,208.94ZM69,205.66a1.72,1.72,0,0,0,.58-.09,1.29,1.29,0,0,0,.41-.25,1,1,0,0,0,.26-.39,1.59,1.59,0,0,0,.08-.5,1.19,1.19,0,0,0-.34-.89,1.64,1.64,0,0,0-2,0,1.23,1.23,0,0,0-.34.89,1.35,1.35,0,0,0,.09.5,1,1,0,0,0,.26.39,1.29,1.29,0,0,0,.41.25A1.6,1.6,0,0,0,69,205.66Z"/><path class="a4d34169-53bb-456c-a706-cd252cf23121" d="M124.92,201.37a.4.4,0,0,1-.11.14.25.25,0,0,1-.16,0,.38.38,0,0,1-.23-.1,3.12,3.12,0,0,0-.35-.22,2.24,2.24,0,0,0-.49-.23,2.13,2.13,0,0,0-.71-.1,2.09,2.09,0,0,0-.69.1,1.43,1.43,0,0,0-.5.29,1.12,1.12,0,0,0-.3.42,1.32,1.32,0,0,0-.11.53.92.92,0,0,0,.18.59,1.56,1.56,0,0,0,.47.41,3.36,3.36,0,0,0,.66.29l.76.26a6.83,6.83,0,0,1,.75.29,2.48,2.48,0,0,1,.66.42,1.82,1.82,0,0,1,.47.62,2,2,0,0,1,.18.9,2.89,2.89,0,0,1-.2,1.06,2.33,2.33,0,0,1-.56.86,2.57,2.57,0,0,1-.9.57,3.36,3.36,0,0,1-1.22.21,3.72,3.72,0,0,1-1.52-.3,3.52,3.52,0,0,1-1.18-.82l.34-.55a.32.32,0,0,1,.12-.11.25.25,0,0,1,.15-.05.51.51,0,0,1,.29.14,4.14,4.14,0,0,0,.4.3,3.61,3.61,0,0,0,.59.29,2.3,2.3,0,0,0,.84.14,2.13,2.13,0,0,0,.74-.12,1.43,1.43,0,0,0,.55-.32,1.39,1.39,0,0,0,.34-.49,1.69,1.69,0,0,0,.12-.64,1,1,0,0,0-.17-.64,1.47,1.47,0,0,0-.47-.42,3.54,3.54,0,0,0-.65-.29l-.76-.24a6.92,6.92,0,0,1-.76-.28,2.59,2.59,0,0,1-.65-.42,1.85,1.85,0,0,1-.47-.65,2.41,2.41,0,0,1,0-1.83,2.31,2.31,0,0,1,.51-.76,2.56,2.56,0,0,1,.84-.53,3,3,0,0,1,1.13-.2,3.73,3.73,0,0,1,1.32.23,2.94,2.94,0,0,1,1,.66Z"/><path class="a4d34169-53bb-456c-a706-cd252cf23121" d="M129.12,202.45a2.51,2.51,0,0,1,1,.19,2.17,2.17,0,0,1,.8.52,2.41,2.41,0,0,1,.53.86,3.38,3.38,0,0,1,.19,1.15.66.66,0,0,1-.06.34.22.22,0,0,1-.2.08h-4a3.22,3.22,0,0,0,.16,1,2,2,0,0,0,.4.71,1.44,1.44,0,0,0,.6.43,2.13,2.13,0,0,0,.78.14,2.36,2.36,0,0,0,.69-.09,3.46,3.46,0,0,0,.5-.2l.35-.2a.42.42,0,0,1,.24-.1.27.27,0,0,1,.21.1l.3.4a1.93,1.93,0,0,1-.48.41,2.49,2.49,0,0,1-.59.29,2.83,2.83,0,0,1-.65.17,3.68,3.68,0,0,1-.66.06,3.11,3.11,0,0,1-1.16-.21,2.44,2.44,0,0,1-.92-.63,2.9,2.9,0,0,1-.61-1,4.29,4.29,0,0,1-.21-1.4,3.52,3.52,0,0,1,.19-1.18,2.86,2.86,0,0,1,.56-1,2.78,2.78,0,0,1,.9-.64A3,3,0,0,1,129.12,202.45Zm0,.79a1.64,1.64,0,0,0-1.22.45,2.1,2.1,0,0,0-.55,1.23h3.31a2.15,2.15,0,0,0-.11-.68,1.33,1.33,0,0,0-.3-.53,1.3,1.3,0,0,0-.48-.35A1.67,1.67,0,0,0,129.14,203.24Z"/><path class="a4d34169-53bb-456c-a706-cd252cf23121" d="M137.91,202.55v8.14h-1.07v-3a3.12,3.12,0,0,1-.87.71,2.41,2.41,0,0,1-2.07.07,1.94,1.94,0,0,1-.72-.59,2.73,2.73,0,0,1-.46-1,5,5,0,0,1-.17-1.34,4.15,4.15,0,0,1,.18-1.25,3.22,3.22,0,0,1,.52-1,2.58,2.58,0,0,1,.83-.67,2.44,2.44,0,0,1,1.1-.24,2.17,2.17,0,0,1,1,.21,2.45,2.45,0,0,1,.74.6l.07-.48a.27.27,0,0,1,.29-.22Zm-2.7,5.3a1.72,1.72,0,0,0,.91-.24,2.7,2.7,0,0,0,.72-.68V204a1.64,1.64,0,0,0-.64-.55,1.78,1.78,0,0,0-.78-.16,1.55,1.55,0,0,0-1.31.6,2.87,2.87,0,0,0-.45,1.73,4.4,4.4,0,0,0,.1,1,2,2,0,0,0,.3.69,1.12,1.12,0,0,0,.49.4A1.53,1.53,0,0,0,135.21,207.85Z"/><path class="a4d34169-53bb-456c-a706-cd252cf23121" d="M140.63,202.55v3.87a1.63,1.63,0,0,0,.32,1.07,1.16,1.16,0,0,0,1,.38,1.82,1.82,0,0,0,.88-.22,2.76,2.76,0,0,0,.76-.62v-4.48h1.07v6.08H144a.27.27,0,0,1-.28-.22l-.09-.66a3.36,3.36,0,0,1-.89.71,2.37,2.37,0,0,1-1.12.26,2.16,2.16,0,0,1-.88-.16,1.69,1.69,0,0,1-.64-.47,2.08,2.08,0,0,1-.39-.72,3.52,3.52,0,0,1-.13-1v-3.87Z"/><path class="a4d34169-53bb-456c-a706-cd252cf23121" d="M148.78,202.45a2.56,2.56,0,0,1,1,.19,2.17,2.17,0,0,1,.8.52,2.39,2.39,0,0,1,.52.86,3.15,3.15,0,0,1,.19,1.15.68.68,0,0,1-.05.34.23.23,0,0,1-.2.08H147a3.22,3.22,0,0,0,.16,1,2,2,0,0,0,.39.71,1.58,1.58,0,0,0,.6.43,2.21,2.21,0,0,0,.78.14,2.43,2.43,0,0,0,.7-.09,3.46,3.46,0,0,0,.5-.2l.35-.2a.4.4,0,0,1,.24-.1.27.27,0,0,1,.21.1l.3.4a2.12,2.12,0,0,1-.48.41,2.49,2.49,0,0,1-.59.29,3,3,0,0,1-.65.17,3.79,3.79,0,0,1-.67.06,3.15,3.15,0,0,1-1.16-.21,2.41,2.41,0,0,1-.91-.63,2.9,2.9,0,0,1-.61-1,4.29,4.29,0,0,1-.21-1.4,3.52,3.52,0,0,1,.19-1.18,2.86,2.86,0,0,1,.56-1,2.68,2.68,0,0,1,.9-.64A3,3,0,0,1,148.78,202.45Zm0,.79a1.64,1.64,0,0,0-1.22.45,2,2,0,0,0-.55,1.23h3.3a2.15,2.15,0,0,0-.1-.68,1.62,1.62,0,0,0-.3-.53,1.3,1.3,0,0,0-.48-.35A1.67,1.67,0,0,0,148.81,203.24Z"/><path class="a4d34169-53bb-456c-a706-cd252cf23121" d="M152.67,208.63v-6.08h.63a.27.27,0,0,1,.29.22l.08.66a3.52,3.52,0,0,1,.89-.71,2.28,2.28,0,0,1,1.13-.27,2.19,2.19,0,0,1,.88.17,1.63,1.63,0,0,1,.63.47,2,2,0,0,1,.39.73,3.05,3.05,0,0,1,.13.94v3.87h-1.06v-3.87a1.63,1.63,0,0,0-.32-1.07,1.16,1.16,0,0,0-1-.38,1.83,1.83,0,0,0-.89.22,3.34,3.34,0,0,0-.76.62v4.48Z"/><path class="a4d34169-53bb-456c-a706-cd252cf23121" d="M163.48,203.63a.45.45,0,0,1-.09.1.26.26,0,0,1-.14,0,.37.37,0,0,1-.2-.08,1.74,1.74,0,0,0-.26-.16,2.4,2.4,0,0,0-.39-.17,1.93,1.93,0,0,0-.57-.07,1.8,1.8,0,0,0-.79.16,1.42,1.42,0,0,0-.57.46,2.2,2.2,0,0,0-.35.72,3.53,3.53,0,0,0-.12,1,3.71,3.71,0,0,0,.13,1,2.2,2.2,0,0,0,.35.72,1.59,1.59,0,0,0,.56.44,1.73,1.73,0,0,0,.73.15,2,2,0,0,0,.65-.09,2.06,2.06,0,0,0,.42-.21,2.37,2.37,0,0,0,.27-.2.32.32,0,0,1,.22-.1.23.23,0,0,1,.2.1l.3.4a2.29,2.29,0,0,1-1,.71,3.46,3.46,0,0,1-1.25.22,2.67,2.67,0,0,1-1.06-.21,2.34,2.34,0,0,1-.85-.61,2.85,2.85,0,0,1-.57-1,4.48,4.48,0,0,1,0-2.58,2.83,2.83,0,0,1,.56-1,2.42,2.42,0,0,1,.89-.65,3,3,0,0,1,1.23-.24,2.88,2.88,0,0,1,1.13.21,2.79,2.79,0,0,1,.87.59Z"/><path class="a4d34169-53bb-456c-a706-cd252cf23121" d="M166.37,200.64a.68.68,0,0,1-.06.29.87.87,0,0,1-.41.41.77.77,0,0,1-.3.06.72.72,0,0,1-.29-.06.81.81,0,0,1-.24-.17.78.78,0,0,1-.16-.24.68.68,0,0,1-.06-.29.8.8,0,0,1,.06-.3.78.78,0,0,1,.16-.24.81.81,0,0,1,.24-.17.72.72,0,0,1,.29-.06.77.77,0,0,1,.3.06.77.77,0,0,1,.47.71Zm-.24,1.91v6.08h-1.07v-6.08Z"/><path class="a4d34169-53bb-456c-a706-cd252cf23121" d="M168,208.63v-6.08h.64a.27.27,0,0,1,.29.22l.08.66a3.52,3.52,0,0,1,.89-.71,2.28,2.28,0,0,1,1.13-.27,2.23,2.23,0,0,1,.88.17,1.63,1.63,0,0,1,.63.47,2,2,0,0,1,.39.73,3.05,3.05,0,0,1,.13.94v3.87H172v-3.87a1.63,1.63,0,0,0-.31-1.07,1.16,1.16,0,0,0-1-.38,1.81,1.81,0,0,0-.89.22,3.14,3.14,0,0,0-.76.62v4.48Z"/><path class="a4d34169-53bb-456c-a706-cd252cf23121" d="M176.73,202.45a3.43,3.43,0,0,1,.74.08,2.53,2.53,0,0,1,.63.26h1.65v.4c0,.13-.08.21-.25.25l-.69.09a2,2,0,0,1,0,1.68,1.79,1.79,0,0,1-.47.62,2.52,2.52,0,0,1-.72.4,3,3,0,0,1-.92.14,3,3,0,0,1-.8-.11,1,1,0,0,0-.29.27.48.48,0,0,0-.1.28.4.4,0,0,0,.17.34,1.3,1.3,0,0,0,.46.16,4.33,4.33,0,0,0,.66.05h.74a3.67,3.67,0,0,1,.75.07,2.23,2.23,0,0,1,.66.22,1.24,1.24,0,0,1,.46.42,1.26,1.26,0,0,1,.17.69,1.59,1.59,0,0,1-.19.76,2.06,2.06,0,0,1-.56.66,2.73,2.73,0,0,1-.9.46,3.67,3.67,0,0,1-1.19.18,5,5,0,0,1-1.17-.13,2.77,2.77,0,0,1-.83-.36,1.61,1.61,0,0,1-.5-.51,1.24,1.24,0,0,1-.16-.61,1.11,1.11,0,0,1,.28-.77,2,2,0,0,1,.79-.5,1.11,1.11,0,0,1-.41-.32.81.81,0,0,1-.16-.54,1,1,0,0,1,0-.27,1,1,0,0,1,.15-.28,1.45,1.45,0,0,1,.24-.26,1.33,1.33,0,0,1,.34-.22,1.91,1.91,0,0,1-.71-.67,1.83,1.83,0,0,1-.25-1,1.77,1.77,0,0,1,.17-.8,1.62,1.62,0,0,1,.48-.62,2.28,2.28,0,0,1,.72-.4A3.12,3.12,0,0,1,176.73,202.45Zm1.9,6.49a.53.53,0,0,0-.13-.38,1,1,0,0,0-.34-.22,2.88,2.88,0,0,0-.5-.11,5.54,5.54,0,0,0-.59,0h-.64a2.16,2.16,0,0,1-.62-.09,1.78,1.78,0,0,0-.55.4.81.81,0,0,0-.21.56.72.72,0,0,0,.1.38,1,1,0,0,0,.32.31,2.26,2.26,0,0,0,.54.2,3.53,3.53,0,0,0,.78.08,3.64,3.64,0,0,0,.77-.08,2.06,2.06,0,0,0,.58-.23,1,1,0,0,0,.36-.35A.76.76,0,0,0,178.63,208.94Zm-1.9-3.28a1.62,1.62,0,0,0,.57-.09,1.23,1.23,0,0,0,.42-.25,1,1,0,0,0,.25-.39,1.35,1.35,0,0,0,.09-.5,1.23,1.23,0,0,0-.34-.89,1.42,1.42,0,0,0-1-.33,1.4,1.4,0,0,0-1,.33,1.19,1.19,0,0,0-.34.89,1.35,1.35,0,0,0,.09.5,1.14,1.14,0,0,0,.25.39,1.34,1.34,0,0,0,.42.25A1.6,1.6,0,0,0,176.73,205.66Z"/><path class="a4d34169-53bb-456c-a706-cd252cf23121" d="M120.7,120.06h3.72v1h-4.88v-8.6h1.16Z"/><path class="a4d34169-53bb-456c-a706-cd252cf23121" d="M127,113.05a.73.73,0,0,1-.07.3.81.81,0,0,1-.17.24.78.78,0,0,1-.24.16.72.72,0,0,1-.29.06.68.68,0,0,1-.29-.06.78.78,0,0,1-.24-.16.81.81,0,0,1-.17-.24.73.73,0,0,1-.06-.3.72.72,0,0,1,.06-.29.74.74,0,0,1,.17-.25.78.78,0,0,1,.24-.16.68.68,0,0,1,.29-.06.72.72,0,0,1,.29.06.78.78,0,0,1,.24.16.74.74,0,0,1,.17.25A.73.73,0,0,1,127,113.05Zm-.24,1.91V121h-1.07V115Z"/><path class="a4d34169-53bb-456c-a706-cd252cf23121" d="M128.65,121V112.2h1.07v3.64a3.12,3.12,0,0,1,.87-.71,2.33,2.33,0,0,1,1.11-.26,2.29,2.29,0,0,1,1,.19,2,2,0,0,1,.72.6,2.83,2.83,0,0,1,.47,1A5.27,5.27,0,0,1,134,118a4.15,4.15,0,0,1-.18,1.25,3,3,0,0,1-.52,1,2.43,2.43,0,0,1-.83.66,2.47,2.47,0,0,1-1.1.25,2.05,2.05,0,0,1-1-.23,2.41,2.41,0,0,1-.72-.64l0,.55a.26.26,0,0,1-.28.23Zm2.71-5.32a1.73,1.73,0,0,0-.92.24,2.55,2.55,0,0,0-.72.68v2.94a1.57,1.57,0,0,0,.64.55,1.79,1.79,0,0,0,.78.17,1.55,1.55,0,0,0,1.31-.61,2.85,2.85,0,0,0,.45-1.73,4.4,4.4,0,0,0-.1-1,2.14,2.14,0,0,0-.3-.7,1.33,1.33,0,0,0-.49-.4A1.67,1.67,0,0,0,131.36,115.72Z"/><path class="a4d34169-53bb-456c-a706-cd252cf23121" d="M135.32,121V115h.61a.33.33,0,0,1,.24.07.46.46,0,0,1,.09.23l.07.95a2.86,2.86,0,0,1,.77-1,1.71,1.71,0,0,1,1.08-.36,1.53,1.53,0,0,1,.45.06,1.45,1.45,0,0,1,.38.16l-.14.8a.17.17,0,0,1-.18.15.9.9,0,0,1-.26-.06,1.54,1.54,0,0,0-.49-.06,1.36,1.36,0,0,0-.93.33,2.42,2.42,0,0,0-.63.94V121Z"/><path class="a4d34169-53bb-456c-a706-cd252cf23121" d="M144.39,121h-.48a.62.62,0,0,1-.25-.05.27.27,0,0,1-.12-.2l-.12-.57a5.09,5.09,0,0,1-.47.39,2.36,2.36,0,0,1-.48.29,2.45,2.45,0,0,1-.54.18,3.06,3.06,0,0,1-.63.06,2.28,2.28,0,0,1-.66-.1,1.57,1.57,0,0,1-.54-.3,1.31,1.31,0,0,1-.36-.5,1.81,1.81,0,0,1-.14-.72,1.38,1.38,0,0,1,.2-.7,1.68,1.68,0,0,1,.64-.59,4.56,4.56,0,0,1,1.15-.43,8,8,0,0,1,1.75-.16v-.48a1.69,1.69,0,0,0-.3-1.08,1.13,1.13,0,0,0-.9-.36,1.83,1.83,0,0,0-.66.1,2.19,2.19,0,0,0-.46.22l-.34.22a.44.44,0,0,1-.28.1.28.28,0,0,1-.18-.06.29.29,0,0,1-.13-.14l-.19-.34a3.44,3.44,0,0,1,1.08-.73,3.37,3.37,0,0,1,1.29-.24,2.38,2.38,0,0,1,.91.17,1.85,1.85,0,0,1,.66.47,1.93,1.93,0,0,1,.41.73,3,3,0,0,1,.14.93Zm-2.77-.65a2,2,0,0,0,.51-.06,1.91,1.91,0,0,0,.44-.16,2.48,2.48,0,0,0,.4-.26,2.92,2.92,0,0,0,.37-.34v-1.25a7.58,7.58,0,0,0-1.26.09,3.55,3.55,0,0,0-.84.24,1.2,1.2,0,0,0-.47.36.83.83,0,0,0-.14.46,1.09,1.09,0,0,0,.07.42,1,1,0,0,0,.21.28.9.9,0,0,0,.32.17A1.6,1.6,0,0,0,141.62,120.39Z"/><path class="a4d34169-53bb-456c-a706-cd252cf23121" d="M146,121V115h.61a.3.3,0,0,1,.24.07.46.46,0,0,1,.09.23l.07.95a2.86,2.86,0,0,1,.77-1,1.71,1.71,0,0,1,1.08-.36,1.65,1.65,0,0,1,.46.06,1.53,1.53,0,0,1,.37.16l-.13.8a.18.18,0,0,1-.19.15.9.9,0,0,1-.26-.06,1.52,1.52,0,0,0-.48-.06,1.37,1.37,0,0,0-.94.33,2.3,2.3,0,0,0-.62.94V121Z"/><path class="a4d34169-53bb-456c-a706-cd252cf23121" d="M152.63,122.83a.51.51,0,0,1-.14.2.36.36,0,0,1-.25.07h-.79l1.11-2.41L150.05,115H151a.33.33,0,0,1,.21.07.79.79,0,0,1,.12.15l1.62,3.83c0,.09.07.18.1.27l.06.27.09-.27.09-.27,1.58-3.83A.37.37,0,0,1,155,115a.26.26,0,0,1,.18-.07H156Z"/><path class="a4d34169-53bb-456c-a706-cd252cf23121" d="M160.75,117.83V121h-1.16v-8.6h2.54a5,5,0,0,1,1.42.19,2.9,2.9,0,0,1,1,.54,2.17,2.17,0,0,1,.59.84,3,3,0,0,1,.19,1.1,2.84,2.84,0,0,1-.21,1.1,2.23,2.23,0,0,1-.61.85,2.82,2.82,0,0,1-1,.56,4.11,4.11,0,0,1-1.37.21Zm0-.93h1.38a2.63,2.63,0,0,0,.88-.13,1.83,1.83,0,0,0,.64-.37,1.61,1.61,0,0,0,.39-.57,1.88,1.88,0,0,0,.13-.72,1.66,1.66,0,0,0-.51-1.29,2.19,2.19,0,0,0-1.53-.46h-1.38Z"/><path class="a4d34169-53bb-456c-a706-cd252cf23121" d="M166.64,121V115h.61a.33.33,0,0,1,.24.07.46.46,0,0,1,.09.23l.07.95a2.86,2.86,0,0,1,.77-1,1.71,1.71,0,0,1,1.08-.36,1.53,1.53,0,0,1,.45.06,1.45,1.45,0,0,1,.38.16l-.14.8a.17.17,0,0,1-.18.15.9.9,0,0,1-.26-.06,1.59,1.59,0,0,0-.49-.06,1.36,1.36,0,0,0-.93.33,2.42,2.42,0,0,0-.63.94V121Z"/><path class="a4d34169-53bb-456c-a706-cd252cf23121" d="M173.88,114.87a2.79,2.79,0,0,1,1,.18,2.24,2.24,0,0,1,.79.53,2.36,2.36,0,0,1,.53.85,3.42,3.42,0,0,1,.19,1.15.63.63,0,0,1-.06.34c0,.06-.1.08-.2.08h-4a3.36,3.36,0,0,0,.15,1,2.12,2.12,0,0,0,.4.71,1.56,1.56,0,0,0,.6.42,1.94,1.94,0,0,0,.78.15,2.29,2.29,0,0,0,.69-.1,3.46,3.46,0,0,0,.5-.2,3.34,3.34,0,0,0,.35-.2.51.51,0,0,1,.25-.09.23.23,0,0,1,.2.1l.3.39a2.11,2.11,0,0,1-.47.42,4,4,0,0,1-.59.29,4.55,4.55,0,0,1-.66.17,3.68,3.68,0,0,1-.66.06,3.11,3.11,0,0,1-1.16-.22,2.54,2.54,0,0,1-.92-.62,2.87,2.87,0,0,1-.6-1,4,4,0,0,1-.22-1.39,3.58,3.58,0,0,1,.2-1.19,2.7,2.7,0,0,1,.56-1,2.48,2.48,0,0,1,.89-.63A2.84,2.84,0,0,1,173.88,114.87Zm0,.78a1.65,1.65,0,0,0-1.22.45,2.13,2.13,0,0,0-.55,1.24h3.31a2.37,2.37,0,0,0-.1-.68,1.57,1.57,0,0,0-.3-.54,1.39,1.39,0,0,0-.49-.34A1.48,1.48,0,0,0,173.9,115.65Z"/><path class="a4d34169-53bb-456c-a706-cd252cf23121" d="M177.76,123.1V115h.64a.27.27,0,0,1,.28.22l.09.72a3.36,3.36,0,0,1,.89-.76,2.32,2.32,0,0,1,1.16-.29,2.14,2.14,0,0,1,1,.21,1.94,1.94,0,0,1,.72.59,2.88,2.88,0,0,1,.47,1,5.27,5.27,0,0,1,.16,1.33,4.15,4.15,0,0,1-.18,1.25,3,3,0,0,1-.52,1,2.39,2.39,0,0,1-.82.66,2.5,2.5,0,0,1-1.1.25,2.36,2.36,0,0,1-1-.19,2.24,2.24,0,0,1-.7-.53v2.69Zm2.71-7.38a1.73,1.73,0,0,0-.92.24,2.55,2.55,0,0,0-.72.68v2.94a1.63,1.63,0,0,0,.64.55,1.86,1.86,0,0,0,.79.17,1.55,1.55,0,0,0,1.3-.61A2.85,2.85,0,0,0,182,118a4.4,4.4,0,0,0-.1-1,2.14,2.14,0,0,0-.3-.7,1.33,1.33,0,0,0-.49-.4A1.67,1.67,0,0,0,180.47,115.72Z"/><path class="6f178c31-a885-42d5-9fc8-784c8fbc70fd" d="M14.71,31.91V24h2.51a4.55,4.55,0,0,1,1.25.15,2.5,2.5,0,0,1,.87.4,1.75,1.75,0,0,1,.5.65,2.35,2.35,0,0,1,.16.86,1.73,1.73,0,0,1-.09.56,1.46,1.46,0,0,1-.28.5,1.67,1.67,0,0,1-.46.41,2.05,2.05,0,0,1-.65.3,2.44,2.44,0,0,1,1.3.62,1.61,1.61,0,0,1,.44,1.19,2.21,2.21,0,0,1-.18.91,1.8,1.8,0,0,1-.54.71,2.58,2.58,0,0,1-.87.46,3.79,3.79,0,0,1-1.17.17Zm1.07-4.36h1.4a3,3,0,0,0,.78-.09,1.58,1.58,0,0,0,.55-.28,1,1,0,0,0,.32-.43,1.33,1.33,0,0,0,.11-.54,1.22,1.22,0,0,0-.42-1,2.09,2.09,0,0,0-1.3-.32H15.78Zm0,.76v2.75h1.7a2.53,2.53,0,0,0,.78-.11,1.39,1.39,0,0,0,.54-.29,1.14,1.14,0,0,0,.31-.45,1.57,1.57,0,0,0,.1-.58,1.18,1.18,0,0,0-.43-1,2,2,0,0,0-1.3-.36Z"/><path class="6f178c31-a885-42d5-9fc8-784c8fbc70fd" d="M22.45,31.16h1.69V25.78c0-.16,0-.32,0-.49L22.75,26.5a.3.3,0,0,1-.11.06.22.22,0,0,1-.11,0,.32.32,0,0,1-.14,0,.3.3,0,0,1-.1-.09L22,26l2.34-2h.8v7.15h1.55v.75H22.45Z"/><path class="6f178c31-a885-42d5-9fc8-784c8fbc70fd" d="M57.54,31.91V24h2.52a4.6,4.6,0,0,1,1.25.15,2.45,2.45,0,0,1,.86.4,1.65,1.65,0,0,1,.5.65,2.16,2.16,0,0,1,.16.86,1.73,1.73,0,0,1-.09.56,1.62,1.62,0,0,1-.27.5,2,2,0,0,1-.46.41,2.22,2.22,0,0,1-.66.3,2.51,2.51,0,0,1,1.31.62,1.65,1.65,0,0,1,.44,1.19,2.06,2.06,0,0,1-.19.91,1.8,1.8,0,0,1-.54.71,2.4,2.4,0,0,1-.87.46,3.79,3.79,0,0,1-1.17.17Zm1.07-4.36H60a3,3,0,0,0,.78-.09,1.67,1.67,0,0,0,.55-.28,1.13,1.13,0,0,0,.32-.43,1.33,1.33,0,0,0,.1-.54,1.22,1.22,0,0,0-.42-1,2.08,2.08,0,0,0-1.29-.32H58.61Zm0,.76v2.75h1.7A2.6,2.6,0,0,0,61.1,31a1.39,1.39,0,0,0,.54-.29,1.25,1.25,0,0,0,.31-.45,1.81,1.81,0,0,0,.1-.58,1.19,1.19,0,0,0-.44-1,2,2,0,0,0-1.3-.36Z"/><path class="6f178c31-a885-42d5-9fc8-784c8fbc70fd" d="M67,23.94a3.12,3.12,0,0,1,.93.14,2.16,2.16,0,0,1,.75.44,2,2,0,0,1,.5.69,2.25,2.25,0,0,1,.18.92,2.33,2.33,0,0,1-.13.81,3.46,3.46,0,0,1-.36.72,5.26,5.26,0,0,1-.52.67l-.62.66-2.08,2.12.45-.1.43,0h2.65a.35.35,0,0,1,.25.09.32.32,0,0,1,.09.24v.6H64.27v-.34a.54.54,0,0,1,0-.21.46.46,0,0,1,.13-.21L67,28.62l.58-.62a3.93,3.93,0,0,0,.44-.59,2.7,2.7,0,0,0,.28-.6,2,2,0,0,0,.1-.65,1.62,1.62,0,0,0-.11-.61,1.11,1.11,0,0,0-.3-.43,1.26,1.26,0,0,0-.45-.26,2,2,0,0,0-.56-.08,1.63,1.63,0,0,0-.55.09,1.39,1.39,0,0,0-.45.24,1.46,1.46,0,0,0-.33.37,1.6,1.6,0,0,0-.19.47.46.46,0,0,1-.13.24.39.39,0,0,1-.23.07h-.13l-.51-.09a2.85,2.85,0,0,1,.3-1,2.36,2.36,0,0,1,.56-.69,2.32,2.32,0,0,1,.77-.43A3,3,0,0,1,67,23.94Z"/><path class="6f178c31-a885-42d5-9fc8-784c8fbc70fd" d="M116.46,31.91V24H119a4.55,4.55,0,0,1,1.25.15,2.5,2.5,0,0,1,.87.4,1.75,1.75,0,0,1,.5.65,2.35,2.35,0,0,1,.16.86,1.73,1.73,0,0,1-.09.56,1.46,1.46,0,0,1-.28.5,1.67,1.67,0,0,1-.46.41,2.05,2.05,0,0,1-.65.3,2.44,2.44,0,0,1,1.3.62,1.61,1.61,0,0,1,.44,1.19,2.21,2.21,0,0,1-.18.91,1.8,1.8,0,0,1-.54.71,2.58,2.58,0,0,1-.87.46,3.79,3.79,0,0,1-1.17.17Zm1.07-4.36h1.4a3,3,0,0,0,.78-.09,1.58,1.58,0,0,0,.55-.28,1,1,0,0,0,.32-.43,1.33,1.33,0,0,0,.11-.54,1.22,1.22,0,0,0-.42-1,2.09,2.09,0,0,0-1.3-.32h-1.44Zm0,.76v2.75h1.7A2.53,2.53,0,0,0,120,31a1.39,1.39,0,0,0,.54-.29,1.14,1.14,0,0,0,.31-.45,1.57,1.57,0,0,0,.1-.58,1.18,1.18,0,0,0-.43-1,2,2,0,0,0-1.3-.36Z"/><path class="6f178c31-a885-42d5-9fc8-784c8fbc70fd" d="M124.2,31.16h1.69V25.78c0-.16,0-.32,0-.49L124.5,26.5a.3.3,0,0,1-.11.06.22.22,0,0,1-.11,0,.32.32,0,0,1-.14,0,.3.3,0,0,1-.1-.09l-.31-.42,2.34-2h.8v7.15h1.55v.75H124.2Z"/><path class="6f178c31-a885-42d5-9fc8-784c8fbc70fd" d="M145.21,31.91V24h2.51a4.55,4.55,0,0,1,1.25.15,2.5,2.5,0,0,1,.87.4,1.75,1.75,0,0,1,.5.65,2.35,2.35,0,0,1,.16.86,1.73,1.73,0,0,1-.09.56,1.46,1.46,0,0,1-.28.5,1.67,1.67,0,0,1-.46.41,2.05,2.05,0,0,1-.65.3,2.44,2.44,0,0,1,1.3.62,1.61,1.61,0,0,1,.44,1.19,2.21,2.21,0,0,1-.18.91,1.8,1.8,0,0,1-.54.71,2.58,2.58,0,0,1-.87.46,3.79,3.79,0,0,1-1.17.17Zm1.07-4.36h1.4a3,3,0,0,0,.78-.09,1.58,1.58,0,0,0,.55-.28,1,1,0,0,0,.32-.43,1.33,1.33,0,0,0,.11-.54,1.22,1.22,0,0,0-.42-1,2.09,2.09,0,0,0-1.3-.32h-1.44Zm0,.76v2.75H148a2.53,2.53,0,0,0,.78-.11,1.39,1.39,0,0,0,.54-.29,1.14,1.14,0,0,0,.31-.45,1.57,1.57,0,0,0,.1-.58,1.18,1.18,0,0,0-.43-1,2,2,0,0,0-1.3-.36Z"/><path class="6f178c31-a885-42d5-9fc8-784c8fbc70fd" d="M154.67,23.94a3.14,3.14,0,0,1,.94.14,2.16,2.16,0,0,1,.75.44,2,2,0,0,1,.5.69,2.25,2.25,0,0,1,.18.92,2.59,2.59,0,0,1-.13.81,3.46,3.46,0,0,1-.36.72,5.26,5.26,0,0,1-.52.67l-.63.66-2.07,2.12.45-.1.43,0h2.64a.33.33,0,0,1,.25.09.3.3,0,0,1,.1.24v.6h-5.26v-.34a.52.52,0,0,1,0-.21.49.49,0,0,1,.14-.21l2.52-2.53c.21-.22.4-.42.57-.62a3.93,3.93,0,0,0,.44-.59,2.75,2.75,0,0,0,.29-.6,2.27,2.27,0,0,0,.1-.65,1.62,1.62,0,0,0-.11-.61,1.25,1.25,0,0,0-.31-.43,1.11,1.11,0,0,0-.45-.26,1.92,1.92,0,0,0-.55-.08,1.63,1.63,0,0,0-.55.09,1.39,1.39,0,0,0-.45.24,1.46,1.46,0,0,0-.33.37,1.6,1.6,0,0,0-.19.47.46.46,0,0,1-.13.24.42.42,0,0,1-.23.07h-.13l-.51-.09a2.85,2.85,0,0,1,.3-1,2.33,2.33,0,0,1,.55-.69,2.47,2.47,0,0,1,.78-.43A2.89,2.89,0,0,1,154.67,23.94Z"/><path class="6f178c31-a885-42d5-9fc8-784c8fbc70fd" d="M172.46,31.91V24H175a4.55,4.55,0,0,1,1.25.15,2.5,2.5,0,0,1,.87.4,1.75,1.75,0,0,1,.5.65,2.35,2.35,0,0,1,.16.86,1.73,1.73,0,0,1-.09.56,1.46,1.46,0,0,1-.28.5,1.67,1.67,0,0,1-.46.41,2.05,2.05,0,0,1-.65.3,2.44,2.44,0,0,1,1.3.62,1.61,1.61,0,0,1,.44,1.19,2.21,2.21,0,0,1-.18.91,1.8,1.8,0,0,1-.54.71,2.58,2.58,0,0,1-.87.46,3.79,3.79,0,0,1-1.17.17Zm1.07-4.36h1.4a3,3,0,0,0,.78-.09,1.58,1.58,0,0,0,.55-.28,1,1,0,0,0,.32-.43,1.33,1.33,0,0,0,.11-.54,1.22,1.22,0,0,0-.42-1,2.09,2.09,0,0,0-1.3-.32h-1.44Zm0,.76v2.75h1.7A2.53,2.53,0,0,0,176,31a1.39,1.39,0,0,0,.54-.29,1.14,1.14,0,0,0,.31-.45,1.57,1.57,0,0,0,.1-.58,1.18,1.18,0,0,0-.43-1,2,2,0,0,0-1.3-.36Z"/><path class="6f178c31-a885-42d5-9fc8-784c8fbc70fd" d="M182,23.94a2.73,2.73,0,0,1,.92.14,2,2,0,0,1,1.21,1,2.05,2.05,0,0,1,.17.83,2.25,2.25,0,0,1-.1.67,1.71,1.71,0,0,1-.27.52,1.8,1.8,0,0,1-.44.38,2.2,2.2,0,0,1-.56.24,2.12,2.12,0,0,1,1.15.69,1.81,1.81,0,0,1,.39,1.19,2.35,2.35,0,0,1-.2,1,2.19,2.19,0,0,1-.57.74,2.42,2.42,0,0,1-.83.47,3.11,3.11,0,0,1-1,.16,3.32,3.32,0,0,1-1.07-.15,2.43,2.43,0,0,1-.76-.43,2.5,2.5,0,0,1-.5-.66,4.92,4.92,0,0,1-.34-.81l.42-.18a.64.64,0,0,1,.23-.05.46.46,0,0,1,.2.05.35.35,0,0,1,.13.14s0,0,0,.05,0,0,0,.05a3.2,3.2,0,0,0,.19.36,1.48,1.48,0,0,0,.29.38,1.58,1.58,0,0,0,.47.3,1.71,1.71,0,0,0,.69.12,1.81,1.81,0,0,0,.72-.14,1.49,1.49,0,0,0,.52-.35,1.42,1.42,0,0,0,.31-.47,1.46,1.46,0,0,0,.1-.53,1.81,1.81,0,0,0-.08-.58,1,1,0,0,0-.31-.46,1.51,1.51,0,0,0-.61-.3,4,4,0,0,0-1-.11v-.71a3,3,0,0,0,.85-.11,1.65,1.65,0,0,0,.58-.28,1.16,1.16,0,0,0,.33-.44,1.43,1.43,0,0,0,.1-.56,1.48,1.48,0,0,0-.11-.59,1.17,1.17,0,0,0-.29-.42,1.36,1.36,0,0,0-.44-.25,1.69,1.69,0,0,0-.56-.08,1.67,1.67,0,0,0-.55.09,1.34,1.34,0,0,0-.44.24,1.29,1.29,0,0,0-.33.37,1.75,1.75,0,0,0-.2.47.39.39,0,0,1-.13.23.36.36,0,0,1-.23.08H180l-.52-.09a3.09,3.09,0,0,1,.3-1,2.36,2.36,0,0,1,.56-.69,2.32,2.32,0,0,1,.77-.43A3,3,0,0,1,182,23.94Z"/><path class="a4d34169-53bb-456c-a706-cd252cf23121" d="M129.2,11.81V3.21h2.74a4.93,4.93,0,0,1,1.36.16,2.62,2.62,0,0,1,.95.44,1.8,1.8,0,0,1,.54.71,2.32,2.32,0,0,1,.18.94,1.81,1.81,0,0,1-.1.61,1.91,1.91,0,0,1-.3.54,2,2,0,0,1-.5.45,2.9,2.9,0,0,1-.71.33,2.7,2.7,0,0,1,1.42.67,1.8,1.8,0,0,1,.48,1.3,2.51,2.51,0,0,1-.2,1,2.12,2.12,0,0,1-.59.77,2.68,2.68,0,0,1-.95.5,4.17,4.17,0,0,1-1.28.18Zm1.16-4.75h1.54a3.05,3.05,0,0,0,.85-.1,2.1,2.1,0,0,0,.6-.3,1.35,1.35,0,0,0,.35-.47,1.64,1.64,0,0,0,.11-.6,1.34,1.34,0,0,0-.45-1.11,2.37,2.37,0,0,0-1.42-.35h-1.58Zm0,.83v3h1.86a2.76,2.76,0,0,0,.86-.11,1.41,1.41,0,0,0,.58-.32A1.18,1.18,0,0,0,134,10a1.61,1.61,0,0,0,.11-.63,1.3,1.3,0,0,0-.47-1.05,2.19,2.19,0,0,0-1.42-.39Z"/><path class="a4d34169-53bb-456c-a706-cd252cf23121" d="M141.26,11.81h-.48a.62.62,0,0,1-.25-.05.31.31,0,0,1-.13-.2l-.11-.57a5.09,5.09,0,0,1-.47.39,2.92,2.92,0,0,1-.48.29,2.43,2.43,0,0,1-.54.17,3,3,0,0,1-.63.07,2.41,2.41,0,0,1-.67-.1,1.62,1.62,0,0,1-.53-.3,1.4,1.4,0,0,1-.37-.51,1.73,1.73,0,0,1-.13-.71,1.35,1.35,0,0,1,.2-.7,1.68,1.68,0,0,1,.64-.59,3.9,3.9,0,0,1,1.15-.43,8,8,0,0,1,1.75-.16V7.93a1.64,1.64,0,0,0-.31-1.08,1.1,1.1,0,0,0-.89-.36,1.83,1.83,0,0,0-.66.1,2.19,2.19,0,0,0-.46.22l-.34.22a.46.46,0,0,1-.28.1.33.33,0,0,1-.19-.06.41.41,0,0,1-.12-.14l-.2-.34a3.42,3.42,0,0,1,1.09-.73,3.37,3.37,0,0,1,1.29-.24,2.38,2.38,0,0,1,.91.17,1.85,1.85,0,0,1,.66.47,2,2,0,0,1,.41.72,3.14,3.14,0,0,1,.14.94Zm-2.77-.65a2,2,0,0,0,.51-.06,2.09,2.09,0,0,0,.44-.16,2.48,2.48,0,0,0,.4-.26,3.81,3.81,0,0,0,.37-.34V9.08a7.48,7.48,0,0,0-1.26.1,3.55,3.55,0,0,0-.84.24,1.2,1.2,0,0,0-.47.36.76.76,0,0,0-.14.46,1,1,0,0,0,.07.41.81.81,0,0,0,.21.29.88.88,0,0,0,.32.16A1.23,1.23,0,0,0,138.49,11.16Z"/><path class="a4d34169-53bb-456c-a706-cd252cf23121" d="M144.07,3v8.84H143V3Z"/><path class="a4d34169-53bb-456c-a706-cd252cf23121" d="M150.41,11.81h-.47a.55.55,0,0,1-.25-.05.25.25,0,0,1-.13-.2l-.12-.57a5.09,5.09,0,0,1-.47.39,2.92,2.92,0,0,1-.48.29,2.34,2.34,0,0,1-.53.17,3.06,3.06,0,0,1-.64.07,2.39,2.39,0,0,1-.66-.1,1.67,1.67,0,0,1-.54-.3,1.38,1.38,0,0,1-.36-.51,1.73,1.73,0,0,1-.14-.71,1.35,1.35,0,0,1,.2-.7,1.76,1.76,0,0,1,.64-.59,4,4,0,0,1,1.16-.43,7.87,7.87,0,0,1,1.74-.16V7.93a1.69,1.69,0,0,0-.3-1.08,1.1,1.1,0,0,0-.9-.36,1.74,1.74,0,0,0-.65.1,2.28,2.28,0,0,0-.47.22l-.33.22a.48.48,0,0,1-.28.1.31.31,0,0,1-.19-.06.44.44,0,0,1-.13-.14l-.19-.34A3.42,3.42,0,0,1,147,5.86a3.3,3.3,0,0,1,1.29-.24,2.29,2.29,0,0,1,.9.17,1.8,1.8,0,0,1,.67.47,2.12,2.12,0,0,1,.41.72,3.14,3.14,0,0,1,.13.94Zm-2.77-.65a2.12,2.12,0,0,0,.52-.06,2.32,2.32,0,0,0,.44-.16,2,2,0,0,0,.39-.26,2.92,2.92,0,0,0,.37-.34V9.08a7.26,7.26,0,0,0-1.25.1,3.55,3.55,0,0,0-.84.24,1.13,1.13,0,0,0-.47.36.77.77,0,0,0-.15.46,1,1,0,0,0,.08.41.7.7,0,0,0,.21.29.83.83,0,0,0,.31.16A1.23,1.23,0,0,0,147.64,11.16Z"/><path class="a4d34169-53bb-456c-a706-cd252cf23121" d="M152,11.81V5.73h.64A.27.27,0,0,1,153,6l.08.66a3.28,3.28,0,0,1,.89-.7,2.18,2.18,0,0,1,1.13-.28,2.23,2.23,0,0,1,.88.17,1.74,1.74,0,0,1,.63.47A2,2,0,0,1,157,7a3.05,3.05,0,0,1,.13.94v3.87H156V7.94a1.63,1.63,0,0,0-.31-1.07,1.16,1.16,0,0,0-1-.38,1.8,1.8,0,0,0-.88.22,3.14,3.14,0,0,0-.76.62v4.48Z"/><path class="a4d34169-53bb-456c-a706-cd252cf23121" d="M162.85,6.81a.32.32,0,0,1-.1.1.17.17,0,0,1-.13,0,.37.37,0,0,1-.2-.08l-.27-.16a1.81,1.81,0,0,0-.39-.17,1.85,1.85,0,0,0-.57-.07,1.78,1.78,0,0,0-.78.16,1.42,1.42,0,0,0-.57.46,2,2,0,0,0-.35.72,3.6,3.6,0,0,0-.12,1,3.32,3.32,0,0,0,.13,1,2.2,2.2,0,0,0,.35.72,1.5,1.5,0,0,0,.56.44,1.7,1.7,0,0,0,.73.15,1.93,1.93,0,0,0,.64-.09,1.64,1.64,0,0,0,.42-.21,1.87,1.87,0,0,0,.28-.2.34.34,0,0,1,.21-.1.22.22,0,0,1,.21.11l.3.39a2.29,2.29,0,0,1-1,.71,3.52,3.52,0,0,1-1.26.22,2.59,2.59,0,0,1-1-.21,2.34,2.34,0,0,1-.85-.61,2.85,2.85,0,0,1-.57-1,3.85,3.85,0,0,1-.21-1.32,4.21,4.21,0,0,1,.19-1.26,3,3,0,0,1,.55-1,2.54,2.54,0,0,1,.9-.65,3,3,0,0,1,1.23-.24,2.8,2.8,0,0,1,1.12.21,2.58,2.58,0,0,1,.87.59Z"/><path class="a4d34169-53bb-456c-a706-cd252cf23121" d="M166.72,5.63a2.74,2.74,0,0,1,1,.19,2.2,2.2,0,0,1,.8.53,2.51,2.51,0,0,1,.53.85,3.42,3.42,0,0,1,.19,1.15.66.66,0,0,1-.06.34c0,.06-.1.08-.2.08h-4a3.22,3.22,0,0,0,.16,1,2.08,2.08,0,0,0,.4.72,1.46,1.46,0,0,0,.59.42,2,2,0,0,0,.78.14,2.43,2.43,0,0,0,.7-.09,3.46,3.46,0,0,0,.5-.2l.35-.2a.47.47,0,0,1,.24-.1.25.25,0,0,1,.21.11l.3.39a1.74,1.74,0,0,1-.48.41,3,3,0,0,1-.59.3,4.77,4.77,0,0,1-.65.17,5,5,0,0,1-.66.05,3.2,3.2,0,0,1-1.17-.21,2.5,2.5,0,0,1-.91-.62,3,3,0,0,1-.61-1,4.27,4.27,0,0,1-.21-1.39,3.54,3.54,0,0,1,.19-1.19,2.86,2.86,0,0,1,.56-1,2.61,2.61,0,0,1,.9-.63A2.84,2.84,0,0,1,166.72,5.63Zm0,.79a1.64,1.64,0,0,0-1.22.45A2.13,2.13,0,0,0,165,8.11h3.31a2.06,2.06,0,0,0-.11-.68,1.41,1.41,0,0,0-.78-.89A1.67,1.67,0,0,0,166.74,6.42Z"/><path class="a4d34169-53bb-456c-a706-cd252cf23121" d="M174.87,11.81a.26.26,0,0,1-.28-.22l-.1-.74a3.19,3.19,0,0,1-.89.76,2.28,2.28,0,0,1-1.15.28,2.13,2.13,0,0,1-.95-.2,1.94,1.94,0,0,1-.72-.59,2.65,2.65,0,0,1-.46-1,5,5,0,0,1-.17-1.34,4.2,4.2,0,0,1,.18-1.25,3.06,3.06,0,0,1,.52-1,2.34,2.34,0,0,1,.83-.67,2.32,2.32,0,0,1,1.1-.25,2.35,2.35,0,0,1,1,.19,2.4,2.4,0,0,1,.7.53V3h1.07v8.84ZM172.81,11a1.72,1.72,0,0,0,.91-.24,2.7,2.7,0,0,0,.72-.68V7.17a1.63,1.63,0,0,0-.64-.55,1.81,1.81,0,0,0-.78-.16,1.55,1.55,0,0,0-1.31.6,2.87,2.87,0,0,0-.45,1.73,4.29,4.29,0,0,0,.1,1,2,2,0,0,0,.3.69,1.05,1.05,0,0,0,.49.4A1.53,1.53,0,0,0,172.81,11Z"/><path class="a4d34169-53bb-456c-a706-cd252cf23121" d="M15,10a.25.25,0,0,1,.17.08l.46.5a3.55,3.55,0,0,1-1.28,1,4.34,4.34,0,0,1-1.82.35,4.13,4.13,0,0,1-1.68-.33,3.49,3.49,0,0,1-1.29-.9A4,4,0,0,1,8.73,9.3a5.13,5.13,0,0,1-.29-1.79,4.9,4.9,0,0,1,.31-1.78,4.09,4.09,0,0,1,.89-1.39A3.85,3.85,0,0,1,11,3.44a4.56,4.56,0,0,1,1.76-.32,3.88,3.88,0,0,1,2.85,1.09l-.38.53a.43.43,0,0,1-.09.1.25.25,0,0,1-.16,0,.29.29,0,0,1-.16-.06l-.21-.14-.28-.18-.39-.18a4.06,4.06,0,0,0-.51-.14,3.44,3.44,0,0,0-.68-.06,3.22,3.22,0,0,0-1.26.24,2.83,2.83,0,0,0-1,.68A2.89,2.89,0,0,0,9.86,6.1a3.93,3.93,0,0,0-.24,1.41A4,4,0,0,0,9.86,9,3,3,0,0,0,10.49,10a2.74,2.74,0,0,0,.94.67,3.06,3.06,0,0,0,1.18.22,4.93,4.93,0,0,0,.69,0,3.06,3.06,0,0,0,.56-.14,2.51,2.51,0,0,0,.49-.25,2.75,2.75,0,0,0,.45-.35A.32.32,0,0,1,15,10Z"/><path class="a4d34169-53bb-456c-a706-cd252cf23121" d="M19.45,5.64a3,3,0,0,1,1.2.22,2.6,2.6,0,0,1,.92.63,2.72,2.72,0,0,1,.57,1,3.82,3.82,0,0,1,.2,1.3,3.72,3.72,0,0,1-.2,1.29,2.68,2.68,0,0,1-.57,1,2.45,2.45,0,0,1-.92.62,3,3,0,0,1-1.2.22,3.09,3.09,0,0,1-1.2-.22,2.54,2.54,0,0,1-.92-.62,2.85,2.85,0,0,1-.58-1,4,4,0,0,1-.2-1.29,4.08,4.08,0,0,1,.2-1.3,2.9,2.9,0,0,1,.58-1,2.69,2.69,0,0,1,.92-.63A3.09,3.09,0,0,1,19.45,5.64Zm0,5.42a1.58,1.58,0,0,0,1.35-.6,2.88,2.88,0,0,0,.44-1.69,2.88,2.88,0,0,0-.44-1.69,1.58,1.58,0,0,0-1.35-.6,1.92,1.92,0,0,0-.79.15,1.64,1.64,0,0,0-.56.45,2.18,2.18,0,0,0-.34.72,4.11,4.11,0,0,0-.11,1,4,4,0,0,0,.11,1,2.18,2.18,0,0,0,.34.72,1.5,1.5,0,0,0,.56.44A1.77,1.77,0,0,0,19.45,11.06Z"/><path class="a4d34169-53bb-456c-a706-cd252cf23121" d="M23.66,11.81V5.73h.64a.28.28,0,0,1,.29.22l.08.66a3.48,3.48,0,0,1,.89-.7,2.28,2.28,0,0,1,1.13-.27,2.23,2.23,0,0,1,.88.16,1.74,1.74,0,0,1,.63.47,2,2,0,0,1,.39.73,3.1,3.1,0,0,1,.13.94v3.87H27.65V7.94a1.63,1.63,0,0,0-.31-1.07,1.19,1.19,0,0,0-1-.38,1.71,1.71,0,0,0-.89.23,2.87,2.87,0,0,0-.76.61v4.48Z"/><path class="a4d34169-53bb-456c-a706-cd252cf23121" d="M30.58,11.81V6.64l-.68-.07a.54.54,0,0,1-.2-.1.19.19,0,0,1-.08-.18V5.85h1V5.26a2.65,2.65,0,0,1,.14-.92,2,2,0,0,1,.42-.69,1.87,1.87,0,0,1,.66-.42,2.35,2.35,0,0,1,.86-.14,2.29,2.29,0,0,1,.76.12l0,.53c0,.08,0,.13-.11.14a.91.91,0,0,1-.27,0h-.18a1.55,1.55,0,0,0-.5.07,1.09,1.09,0,0,0-.39.23,1.06,1.06,0,0,0-.25.43,2,2,0,0,0-.09.65v.56h1.76v.78H31.65v5.18Z"/><path class="a4d34169-53bb-456c-a706-cd252cf23121" d="M36.84,5.64a3.09,3.09,0,0,1,1.2.22,2.56,2.56,0,0,1,.91.63,2.74,2.74,0,0,1,.58,1,4.08,4.08,0,0,1,.2,1.3,4,4,0,0,1-.2,1.29,2.7,2.7,0,0,1-.58,1,2.42,2.42,0,0,1-.91.62,3.09,3.09,0,0,1-1.2.22,3.06,3.06,0,0,1-1.2-.22,2.45,2.45,0,0,1-.92-.62,2.85,2.85,0,0,1-.58-1,3.72,3.72,0,0,1-.2-1.29,3.82,3.82,0,0,1,.2-1.3,2.9,2.9,0,0,1,.58-1,2.6,2.6,0,0,1,.92-.63A3.06,3.06,0,0,1,36.84,5.64Zm0,5.42a1.55,1.55,0,0,0,1.34-.6,2.8,2.8,0,0,0,.45-1.69,2.8,2.8,0,0,0-.45-1.69,1.55,1.55,0,0,0-1.34-.6,1.92,1.92,0,0,0-.79.15,1.55,1.55,0,0,0-.56.45,2.18,2.18,0,0,0-.34.72,4.11,4.11,0,0,0-.11,1,4,4,0,0,0,.11,1,2.18,2.18,0,0,0,.34.72,1.43,1.43,0,0,0,.56.44A1.77,1.77,0,0,0,36.84,11.06Z"/><path class="a4d34169-53bb-456c-a706-cd252cf23121" d="M42,5.73V9.61a1.64,1.64,0,0,0,.31,1.07,1.19,1.19,0,0,0,1,.37,1.83,1.83,0,0,0,.89-.22,2.88,2.88,0,0,0,.76-.62V5.73H46v6.08h-.64a.27.27,0,0,1-.29-.22L45,10.93a3.32,3.32,0,0,1-.89.71,2.3,2.3,0,0,1-1.13.27,2.23,2.23,0,0,1-.88-.17,1.84,1.84,0,0,1-.64-.46,2,2,0,0,1-.38-.73,3.1,3.1,0,0,1-.13-.94V5.73Z"/><path class="a4d34169-53bb-456c-a706-cd252cf23121" d="M47.72,11.81V5.73h.64a.28.28,0,0,1,.29.22l.08.66a3.32,3.32,0,0,1,.89-.7,2.28,2.28,0,0,1,1.13-.27,2.23,2.23,0,0,1,.88.16,1.74,1.74,0,0,1,.63.47,2,2,0,0,1,.39.73,3.1,3.1,0,0,1,.13.94v3.87H51.71V7.94a1.63,1.63,0,0,0-.31-1.07,1.19,1.19,0,0,0-1-.38,1.71,1.71,0,0,0-.89.23,2.87,2.87,0,0,0-.76.61v4.48Z"/><path class="a4d34169-53bb-456c-a706-cd252cf23121" d="M58.67,11.81a.26.26,0,0,1-.28-.22l-.1-.74a3.19,3.19,0,0,1-.89.76,2.3,2.3,0,0,1-1.15.28,2.1,2.1,0,0,1-1-.2,2.05,2.05,0,0,1-.73-.59,3,3,0,0,1-.46-1A4.92,4.92,0,0,1,54,8.79a4.2,4.2,0,0,1,.18-1.25,3,3,0,0,1,.52-1,2.34,2.34,0,0,1,.83-.67,2.44,2.44,0,0,1,1.1-.25,2.26,2.26,0,0,1,1,.19,2.44,2.44,0,0,1,.71.53V3h1.07v8.84ZM56.6,11a1.73,1.73,0,0,0,.92-.24,2.7,2.7,0,0,0,.72-.68V7.17a1.63,1.63,0,0,0-.64-.55,1.85,1.85,0,0,0-.78-.16,1.55,1.55,0,0,0-1.31.6,2.87,2.87,0,0,0-.45,1.73,4.29,4.29,0,0,0,.1,1,1.83,1.83,0,0,0,.3.69,1.08,1.08,0,0,0,.48.4A1.59,1.59,0,0,0,56.6,11Z"/><path class="a4d34169-53bb-456c-a706-cd252cf23121" d="M62.53,3.82a.77.77,0,0,1-.06.3.66.66,0,0,1-.17.23.81.81,0,0,1-.24.17.73.73,0,0,1-.3.06.72.72,0,0,1-.29-.06.81.81,0,0,1-.24-.17.63.63,0,0,1-.16-.23.77.77,0,0,1-.06-.3.82.82,0,0,1,.22-.54.78.78,0,0,1,.24-.16.72.72,0,0,1,.29-.06.73.73,0,0,1,.3.06.78.78,0,0,1,.24.16.74.74,0,0,1,.17.25A.72.72,0,0,1,62.53,3.82Zm-.24,1.91v6.08H61.22V5.73Z"/><path class="a4d34169-53bb-456c-a706-cd252cf23121" d="M64.17,11.81V5.73h.64A.28.28,0,0,1,65.1,6l.08.66a3.48,3.48,0,0,1,.89-.7,2.28,2.28,0,0,1,1.13-.27,2.23,2.23,0,0,1,.88.16,1.74,1.74,0,0,1,.63.47A2,2,0,0,1,69.1,7a3.1,3.1,0,0,1,.13.94v3.87H68.16V7.94a1.63,1.63,0,0,0-.31-1.07,1.19,1.19,0,0,0-1-.38,1.74,1.74,0,0,0-.89.23,3,3,0,0,0-.76.61v4.48Z"/><path class="a4d34169-53bb-456c-a706-cd252cf23121" d="M72.89,5.63a2.89,2.89,0,0,1,.74.09,2.18,2.18,0,0,1,.63.25h1.65v.4c0,.13-.08.21-.25.25l-.69.1a1.92,1.92,0,0,1,.2.87,1.77,1.77,0,0,1-.17.8,1.79,1.79,0,0,1-.47.62,2,2,0,0,1-.72.4,3,3,0,0,1-.92.14,3.44,3.44,0,0,1-.8-.1.94.94,0,0,0-.29.26.48.48,0,0,0-.1.28.4.4,0,0,0,.17.34,1.13,1.13,0,0,0,.46.16,3.34,3.34,0,0,0,.66,0h.75a4.53,4.53,0,0,1,.74.07,2.56,2.56,0,0,1,.66.22,1.24,1.24,0,0,1,.46.42,1.22,1.22,0,0,1,.17.69,1.65,1.65,0,0,1-.19.77,2.29,2.29,0,0,1-.56.66,3,3,0,0,1-.9.46,4,4,0,0,1-1.19.17,4.6,4.6,0,0,1-1.17-.13,2.77,2.77,0,0,1-.83-.36,1.48,1.48,0,0,1-.49-.51,1.22,1.22,0,0,1-.17-.61,1.12,1.12,0,0,1,.29-.77,2,2,0,0,1,.78-.5,1,1,0,0,1-.41-.32.86.86,0,0,1-.15-.53,1,1,0,0,1,0-.28A1.1,1.1,0,0,1,71,9.71a2.84,2.84,0,0,1,.24-.26,1.66,1.66,0,0,1,.34-.22,1.91,1.91,0,0,1-.71-.67,1.82,1.82,0,0,1-.25-1,1.92,1.92,0,0,1,.17-.81,1.7,1.7,0,0,1,.48-.62A2,2,0,0,1,72,5.77,3,3,0,0,1,72.89,5.63Zm1.9,6.49a.49.49,0,0,0-.13-.37.7.7,0,0,0-.34-.22,2.18,2.18,0,0,0-.5-.11,3.65,3.65,0,0,0-.59,0h-.64A2.43,2.43,0,0,1,72,11.3a1.85,1.85,0,0,0-.56.39.83.83,0,0,0-.21.56.7.7,0,0,0,.1.38,1,1,0,0,0,.32.31,1.86,1.86,0,0,0,.55.2,3.37,3.37,0,0,0,.77.08,3.57,3.57,0,0,0,.77-.08,1.8,1.8,0,0,0,.58-.23,1,1,0,0,0,.36-.34A.81.81,0,0,0,74.79,12.12Zm-1.9-3.28a1.72,1.72,0,0,0,.58-.09,1.13,1.13,0,0,0,.41-.25,1.16,1.16,0,0,0,.26-.39,1.53,1.53,0,0,0,.08-.49,1.16,1.16,0,0,0-.34-.89,1.64,1.64,0,0,0-2,0,1.2,1.2,0,0,0-.34.89,1.3,1.3,0,0,0,.09.49,1.14,1.14,0,0,0,.25.39,1.17,1.17,0,0,0,.42.25A1.6,1.6,0,0,0,72.89,8.84Z"/><circle class="cafdcdf5-60ae-4e5f-aca1-927a3f89499c" cx="9.08" cy="61.58" r="4.58"/><circle class="cafdcdf5-60ae-4e5f-aca1-927a3f89499c" cx="32.25" cy="61.58" r="4.58"/><circle class="cafdcdf5-60ae-4e5f-aca1-927a3f89499c" cx="20.5" cy="61.58" r="4.58"/><circle class="8746ba77-70c6-4125-9909-71cf37291c2e" cx="51.92" cy="61.58" r="4.58"/><circle class="8746ba77-70c6-4125-9909-71cf37291c2e" cx="75.08" cy="61.58" r="4.58"/><circle class="8746ba77-70c6-4125-9909-71cf37291c2e" cx="128.5" cy="61.58" r="4.58"/><circle class="cafdcdf5-60ae-4e5f-aca1-927a3f89499c" cx="116.75" cy="61.58" r="4.58"/><circle class="8746ba77-70c6-4125-9909-71cf37291c2e" cx="156.88" cy="61.58" r="4.58"/><circle class="cafdcdf5-60ae-4e5f-aca1-927a3f89499c" cx="145.13" cy="61.58" r="4.58"/><circle class="8746ba77-70c6-4125-9909-71cf37291c2e" cx="184.13" cy="61.58" r="4.58"/><circle class="cafdcdf5-60ae-4e5f-aca1-927a3f89499c" cx="172.38" cy="61.58" r="4.58"/><circle class="8746ba77-70c6-4125-9909-71cf37291c2e" cx="63.33" cy="61.58" r="4.58"/><circle class="cafdcdf5-60ae-4e5f-aca1-927a3f89499c" cx="9.08" cy="142.37" r="4.58"/><circle class="cafdcdf5-60ae-4e5f-aca1-927a3f89499c" cx="32.25" cy="142.37" r="4.58"/><circle class="cafdcdf5-60ae-4e5f-aca1-927a3f89499c" cx="20.5" cy="142.37" r="4.58"/><circle class="8746ba77-70c6-4125-9909-71cf37291c2e" cx="51.92" cy="142.37" r="4.58"/><circle class="8746ba77-70c6-4125-9909-71cf37291c2e" cx="75.08" cy="142.37" r="4.58"/><circle class="8746ba77-70c6-4125-9909-71cf37291c2e" cx="128.5" cy="142.37" r="4.58"/><circle class="cafdcdf5-60ae-4e5f-aca1-927a3f89499c" cx="116.75" cy="142.37" r="4.58"/><circle class="8746ba77-70c6-4125-9909-71cf37291c2e" cx="156.88" cy="142.37" r="4.58"/><circle class="cafdcdf5-60ae-4e5f-aca1-927a3f89499c" cx="145.13" cy="142.37" r="4.58"/><circle class="8746ba77-70c6-4125-9909-71cf37291c2e" cx="184.13" cy="142.37" r="4.58"/><circle class="cafdcdf5-60ae-4e5f-aca1-927a3f89499c" cx="172.38" cy="142.37" r="4.58"/><circle class="8746ba77-70c6-4125-9909-71cf37291c2e" cx="63.33" cy="142.37" r="4.58"/><circle class="cafdcdf5-60ae-4e5f-aca1-927a3f89499c" cx="9.08" cy="231.66" r="4.58"/><circle class="cafdcdf5-60ae-4e5f-aca1-927a3f89499c" cx="32.25" cy="231.66" r="4.58"/><circle class="cafdcdf5-60ae-4e5f-aca1-927a3f89499c" cx="20.5" cy="231.66" r="4.58"/><circle class="8746ba77-70c6-4125-9909-71cf37291c2e" cx="51.92" cy="231.66" r="4.58"/><circle class="8746ba77-70c6-4125-9909-71cf37291c2e" cx="75.08" cy="231.66" r="4.58"/><circle class="8746ba77-70c6-4125-9909-71cf37291c2e" cx="128.5" cy="231.66" r="4.58"/><circle class="cafdcdf5-60ae-4e5f-aca1-927a3f89499c" cx="116.75" cy="231.66" r="4.58"/><circle class="8746ba77-70c6-4125-9909-71cf37291c2e" cx="156.88" cy="231.66" r="4.58"/><circle class="cafdcdf5-60ae-4e5f-aca1-927a3f89499c" cx="145.13" cy="231.66" r="4.58"/><circle class="8746ba77-70c6-4125-9909-71cf37291c2e" cx="184.13" cy="231.66" r="4.58"/><circle class="cafdcdf5-60ae-4e5f-aca1-927a3f89499c" cx="172.38" cy="231.66" r="4.58"/><circle class="8746ba77-70c6-4125-9909-71cf37291c2e" cx="63.33" cy="231.66" r="4.58"/><circle class="ae31a38b-a90c-420a-b6c3-eeea5d42a08c" cx="13.08" cy="185.42" r="4.58"/><circle class="ae31a38b-a90c-420a-b6c3-eeea5d42a08c" cx="28.25" cy="185.42" r="4.58"/><circle class="ae31a38b-a90c-420a-b6c3-eeea5d42a08c" cx="20.5" cy="185.42" r="4.58"/><circle class="8245e526-4cb0-44ce-a885-062e93391af8" cx="55.92" cy="185.42" r="4.58"/><circle class="8245e526-4cb0-44ce-a885-062e93391af8" cx="71.08" cy="185.42" r="4.58"/><circle class="8245e526-4cb0-44ce-a885-062e93391af8" cx="126.5" cy="185.42" r="4.58"/><circle class="ae31a38b-a90c-420a-b6c3-eeea5d42a08c" cx="118.75" cy="185.42" r="4.58"/><circle class="8245e526-4cb0-44ce-a885-062e93391af8" cx="154.88" cy="185.42" r="4.58"/><circle class="ae31a38b-a90c-420a-b6c3-eeea5d42a08c" cx="147.13" cy="185.42" r="4.58"/><circle class="8245e526-4cb0-44ce-a885-062e93391af8" cx="182.13" cy="185.42" r="4.58"/><circle class="ae31a38b-a90c-420a-b6c3-eeea5d42a08c" cx="174.38" cy="185.42" r="4.58"/><circle class="8245e526-4cb0-44ce-a885-062e93391af8" cx="63.33" cy="185.42" r="4.58"/><path class="6f178c31-a885-42d5-9fc8-784c8fbc70fd" d="M16.51,167.14h3.41v.9H15.44v-7.88h1.07Z"/><path class="6f178c31-a885-42d5-9fc8-784c8fbc70fd" d="M21.72,167.29h1.69v-5.37a4,4,0,0,1,0-.49L22,162.63l-.11.07-.11,0a.28.28,0,0,1-.15,0,.24.24,0,0,1-.09-.08l-.31-.43,2.34-2h.8v7.15h1.55V168H21.72Z"/><path class="6f178c31-a885-42d5-9fc8-784c8fbc70fd" d="M59.34,167.14h3.41v.9H58.27v-7.88h1.07Z"/><path class="6f178c31-a885-42d5-9fc8-784c8fbc70fd" d="M66.28,160.07a2.83,2.83,0,0,1,.93.15,2.13,2.13,0,0,1,.75.43,2,2,0,0,1,.5.69,2.27,2.27,0,0,1,.18.93,2.37,2.37,0,0,1-.13.81,3.46,3.46,0,0,1-.36.72,4.56,4.56,0,0,1-.52.66c-.19.22-.4.44-.62.66l-2.08,2.12a3.58,3.58,0,0,1,.45-.09,2.15,2.15,0,0,1,.43,0h2.64a.34.34,0,0,1,.26.1.32.32,0,0,1,.09.24V168H63.54v-.33a.85.85,0,0,1,0-.22.66.66,0,0,1,.14-.2l2.52-2.54c.21-.21.4-.42.58-.61a5.63,5.63,0,0,0,.44-.59,3.23,3.23,0,0,0,.28-.6,2.07,2.07,0,0,0,.1-.66,1.57,1.57,0,0,0-.11-.6,1.15,1.15,0,0,0-.3-.44,1.24,1.24,0,0,0-.45-.25,1.73,1.73,0,0,0-.56-.09,1.63,1.63,0,0,0-.55.09,1.41,1.41,0,0,0-.45.25,1.31,1.31,0,0,0-.33.37,1.5,1.5,0,0,0-.19.47.42.42,0,0,1-.13.23.33.33,0,0,1-.23.07h-.13l-.51-.09a2.79,2.79,0,0,1,.3-.95,2.25,2.25,0,0,1,1.33-1.12A2.91,2.91,0,0,1,66.28,160.07Z"/><path class="6f178c31-a885-42d5-9fc8-784c8fbc70fd" d="M117.26,167.14h3.41v.9h-4.48v-7.88h1.07Z"/><path class="6f178c31-a885-42d5-9fc8-784c8fbc70fd" d="M122.47,167.29h1.69v-5.37a4,4,0,0,1,0-.49l-1.41,1.2-.11.07-.11,0a.28.28,0,0,1-.15,0,.24.24,0,0,1-.09-.08l-.31-.43,2.34-2h.8v7.15h1.55V168h-4.22Z"/><path class="6f178c31-a885-42d5-9fc8-784c8fbc70fd" d="M147,167.14h3.41v.9h-4.48v-7.88H147Z"/><path class="6f178c31-a885-42d5-9fc8-784c8fbc70fd" d="M153.94,160.07a2.85,2.85,0,0,1,.94.15,2.13,2.13,0,0,1,.75.43,2.19,2.19,0,0,1,.5.69,2.27,2.27,0,0,1,.18.93,2.64,2.64,0,0,1-.13.81,3.46,3.46,0,0,1-.36.72,5.38,5.38,0,0,1-.52.66q-.3.33-.63.66l-2.07,2.12a3.58,3.58,0,0,1,.45-.09,2.15,2.15,0,0,1,.43,0h2.64a.3.3,0,0,1,.25.1.3.3,0,0,1,.1.24V168h-5.26v-.33a.57.57,0,0,1,0-.22.63.63,0,0,1,.13-.2l2.53-2.54c.21-.21.4-.42.57-.61a4.51,4.51,0,0,0,.44-.59,2.75,2.75,0,0,0,.29-.6,2.39,2.39,0,0,0,.1-.66,1.57,1.57,0,0,0-.11-.6,1.29,1.29,0,0,0-.31-.44,1.17,1.17,0,0,0-.45-.25,1.73,1.73,0,0,0-1.1,0,1.41,1.41,0,0,0-.45.25,1.31,1.31,0,0,0-.33.37,1.5,1.5,0,0,0-.19.47.42.42,0,0,1-.13.23.35.35,0,0,1-.23.07h-.13l-.51-.09a3,3,0,0,1,.29-.95,2.23,2.23,0,0,1,1.34-1.12A2.89,2.89,0,0,1,153.94,160.07Z"/><path class="6f178c31-a885-42d5-9fc8-784c8fbc70fd" d="M174.26,167.14h3.41v.9h-4.48v-7.88h1.07Z"/><path class="6f178c31-a885-42d5-9fc8-784c8fbc70fd" d="M181.3,160.07a3,3,0,0,1,.92.14,2.35,2.35,0,0,1,.73.41,1.88,1.88,0,0,1,.65,1.47,2.3,2.3,0,0,1-.1.67,1.63,1.63,0,0,1-.28.52,1.56,1.56,0,0,1-.43.37,2.38,2.38,0,0,1-.56.25,2.11,2.11,0,0,1,1.15.68,1.84,1.84,0,0,1,.39,1.2,2.38,2.38,0,0,1-.2,1,2.19,2.19,0,0,1-.57.74,2.6,2.6,0,0,1-.83.47,3.4,3.4,0,0,1-1,.16,3.05,3.05,0,0,1-1.07-.16,2.25,2.25,0,0,1-.76-.43,2.3,2.3,0,0,1-.5-.65,4,4,0,0,1-.34-.82l.42-.17a.48.48,0,0,1,.23-.05.38.38,0,0,1,.19,0,.28.28,0,0,1,.13.15l0,.05,0,0c.05.1.11.22.19.36a1.67,1.67,0,0,0,.29.38,1.79,1.79,0,0,0,.47.29,1.71,1.71,0,0,0,.69.12,1.81,1.81,0,0,0,.72-.13,1.64,1.64,0,0,0,.52-.35,1.37,1.37,0,0,0,.31-.48,1.41,1.41,0,0,0,.1-.52,2.16,2.16,0,0,0-.08-.59,1,1,0,0,0-.31-.45,1.5,1.5,0,0,0-.62-.3,3.53,3.53,0,0,0-1-.11v-.72a3.08,3.08,0,0,0,.86-.1,1.66,1.66,0,0,0,.58-.29,1.13,1.13,0,0,0,.33-.43,1.48,1.48,0,0,0,.1-.57,1.55,1.55,0,0,0-.11-.59,1.17,1.17,0,0,0-.29-.42,1.22,1.22,0,0,0-.45-.24,1.73,1.73,0,0,0-1.1,0,1.41,1.41,0,0,0-.45.25,1.14,1.14,0,0,0-.32.37,1.52,1.52,0,0,0-.2.47.47.47,0,0,1-.13.23.35.35,0,0,1-.23.07h-.13l-.51-.09a2.79,2.79,0,0,1,.3-.95,2.25,2.25,0,0,1,1.33-1.12A3,3,0,0,1,181.3,160.07Z"/></g></svg>