<svg xmlns="http://www.w3.org/2000/svg" viewBox="0 0 250 251"><defs><style>.\30 012af03-e750-4f04-990f-9045250b65dd{fill:#ededed;stroke:#dadada;}.b6547c22-cc11-4a37-84e5-ffd897bc62a8{fill:#3c3c3b;}.\34 4aa3d58-a0f9-456c-9d3f-09c8942708f3{fill:#f6dfa4;}.\35 de7f281-1760-4a1d-a1e8-3df6384a484c{fill:none;stroke:#c6c6c6;}</style></defs><title>workflow</title><g id="d17f651e-4ba8-431f-9975-7f85b424a2b9" data-name="background"><rect class="0012af03-e750-4f04-990f-9045250b65dd" x="131.5" y="99.87" width="109.17" height="88.33" rx="4.03" ry="4.03"/><rect class="0012af03-e750-4f04-990f-9045250b65dd" x="131.5" y="200" width="108.5" height="47" rx="2.93" ry="2.93"/></g><g id="40fe6eb1-4fb8-4dd1-b5c1-1b3ebbef6951" data-name="shapes"><polygon class="b6547c22-cc11-4a37-84e5-ffd897bc62a8" points="51.75 38.25 47.33 45.9 42.92 38.25 51.75 38.25"/><polygon class="b6547c22-cc11-4a37-84e5-ffd897bc62a8" points="51.75 80.57 47.33 88.22 42.92 80.57 51.75 80.57"/><polygon class="b6547c22-cc11-4a37-84e5-ffd897bc62a8" points="179.75 124.1 175.33 131.75 170.92 124.1 179.75 124.1"/><polygon class="b6547c22-cc11-4a37-84e5-ffd897bc62a8" points="179.75 156.8 175.33 164.45 170.92 156.8 179.75 156.8"/><polygon class="b6547c22-cc11-4a37-84e5-ffd897bc62a8" points="51.75 122.89 47.33 130.54 42.92 122.89 51.75 122.89"/><polygon class="b6547c22-cc11-4a37-84e5-ffd897bc62a8" points="51.75 165.21 47.33 172.86 42.92 165.21 51.75 165.21"/><polygon class="b6547c22-cc11-4a37-84e5-ffd897bc62a8" points="51.75 207.53 47.33 215.18 42.92 207.53 51.75 207.53"/></g><g id="558b0482-d307-47d7-b05a-81cd309b067e" data-name="text-titles"><path class="b6547c22-cc11-4a37-84e5-ffd897bc62a8" d="M18.53,6.66v1H14.41v2.86h3.34v.91H14.41v2.93h4.12v.95H13.24V6.66Z"/><path class="b6547c22-cc11-4a37-84e5-ffd897bc62a8" d="M21.46,12.15l-2-3h1a.31.31,0,0,1,.19.05.26.26,0,0,1,.11.12l1.49,2.28a1.5,1.5,0,0,1,.16-.34l1.3-1.92a.87.87,0,0,1,.12-.14A.25.25,0,0,1,24,9.18h1L22.9,12.09,25,15.26H24a.28.28,0,0,1-.21-.07.44.44,0,0,1-.12-.15l-1.53-2.38A1.07,1.07,0,0,1,22,13L20.6,15a.64.64,0,0,1-.13.15.21.21,0,0,1-.18.07h-1Z"/><path class="b6547c22-cc11-4a37-84e5-ffd897bc62a8" d="M26.09,17.32V9.18h.63a.27.27,0,0,1,.29.23l.09.72A3.41,3.41,0,0,1,28,9.36a2.32,2.32,0,0,1,1.16-.28,2.13,2.13,0,0,1,1,.2,1.94,1.94,0,0,1,.72.59,2.7,2.7,0,0,1,.46,1,4.83,4.83,0,0,1,.17,1.33,4.15,4.15,0,0,1-.18,1.25,3.22,3.22,0,0,1-.52,1,2.34,2.34,0,0,1-.83.66,2.44,2.44,0,0,1-1.1.25,2.35,2.35,0,0,1-1-.19,2,2,0,0,1-.7-.53v2.69Zm2.7-7.38a1.72,1.72,0,0,0-.91.24,2.7,2.7,0,0,0-.72.68V13.8a1.75,1.75,0,0,0,.64.56,2,2,0,0,0,.78.16,1.53,1.53,0,0,0,1.31-.61,2.85,2.85,0,0,0,.45-1.73,4.4,4.4,0,0,0-.1-1,2,2,0,0,0-.31-.7,1.13,1.13,0,0,0-.48-.39A1.53,1.53,0,0,0,28.79,9.94Z"/><path class="b6547c22-cc11-4a37-84e5-ffd897bc62a8" d="M35.12,9.09a2.79,2.79,0,0,1,1,.18,2.24,2.24,0,0,1,.79.53,2.36,2.36,0,0,1,.53.85,3.44,3.44,0,0,1,.19,1.16.62.62,0,0,1-.06.33.2.2,0,0,1-.2.09h-4a3.34,3.34,0,0,0,.15,1,2.12,2.12,0,0,0,.4.71,1.56,1.56,0,0,0,.6.42,1.94,1.94,0,0,0,.78.15,2.34,2.34,0,0,0,.69-.1,3.46,3.46,0,0,0,.5-.2l.35-.2a.51.51,0,0,1,.25-.09.23.23,0,0,1,.2.1l.3.39a2.11,2.11,0,0,1-.47.42,4.15,4.15,0,0,1-.6.29,4.42,4.42,0,0,1-.65.17,3.68,3.68,0,0,1-.66.06A3.11,3.11,0,0,1,34,15.13a2.54,2.54,0,0,1-.92-.62,2.79,2.79,0,0,1-.6-1,4,4,0,0,1-.22-1.39,3.58,3.58,0,0,1,.19-1.19A2.72,2.72,0,0,1,33,10a2.48,2.48,0,0,1,.89-.63A2.84,2.84,0,0,1,35.12,9.09Zm0,.78a1.65,1.65,0,0,0-1.22.45,2.13,2.13,0,0,0-.55,1.24h3.31a2.37,2.37,0,0,0-.1-.68,1.57,1.57,0,0,0-.3-.54,1.39,1.39,0,0,0-.49-.34A1.48,1.48,0,0,0,35.14,9.87Z"/><path class="b6547c22-cc11-4a37-84e5-ffd897bc62a8" d="M39,15.26V9.18h.61a.34.34,0,0,1,.24.07.33.33,0,0,1,.09.23l.07.95a2.86,2.86,0,0,1,.77-1,1.71,1.71,0,0,1,1.08-.35,1.66,1.66,0,0,1,.46.05,1.8,1.8,0,0,1,.38.16l-.14.8a.18.18,0,0,1-.19.15,1,1,0,0,1-.26-.06,1.52,1.52,0,0,0-.48,0,1.38,1.38,0,0,0-.94.32,2.48,2.48,0,0,0-.62.94v3.87Z"/><path class="b6547c22-cc11-4a37-84e5-ffd897bc62a8" d="M45.26,7.28a.72.72,0,0,1-.06.29.81.81,0,0,1-.17.24.78.78,0,0,1-.24.16A.72.72,0,0,1,44.5,8,.73.73,0,0,1,44.2,8a.74.74,0,0,1-.4-.4.72.72,0,0,1-.06-.29A.73.73,0,0,1,43.8,7,.72.72,0,0,1,44,6.73a.78.78,0,0,1,.24-.16.73.73,0,0,1,.3-.06.72.72,0,0,1,.29.06.78.78,0,0,1,.24.16A.74.74,0,0,1,45.2,7,.73.73,0,0,1,45.26,7.28ZM45,9.18v6.08H44V9.18Z"/><path class="b6547c22-cc11-4a37-84e5-ffd897bc62a8" d="M46.91,15.26V9.18h.63a.27.27,0,0,1,.29.23l.08.62a3,3,0,0,1,.75-.68,1.83,1.83,0,0,1,1-.26,1.43,1.43,0,0,1,1,.34,2,2,0,0,1,.55.92,1.78,1.78,0,0,1,.33-.57A1.91,1.91,0,0,1,52,9.39a1.78,1.78,0,0,1,.55-.23,2.32,2.32,0,0,1,.59-.07,2.26,2.26,0,0,1,.85.15,1.69,1.69,0,0,1,.64.45,2.17,2.17,0,0,1,.4.72,3.28,3.28,0,0,1,.13,1v3.87H54.08V11.39a1.62,1.62,0,0,0-.32-1.08,1.08,1.08,0,0,0-.9-.37,1.39,1.39,0,0,0-.5.09,1.19,1.19,0,0,0-.42.28,1.28,1.28,0,0,0-.28.45,1.73,1.73,0,0,0-.11.63v3.87H50.48V11.39a1.67,1.67,0,0,0-.29-1.09,1,1,0,0,0-.86-.36,1.35,1.35,0,0,0-.73.21,2.44,2.44,0,0,0-.63.58v4.53Z"/><path class="b6547c22-cc11-4a37-84e5-ffd897bc62a8" d="M59.17,9.09a2.7,2.7,0,0,1,1,.18,2.2,2.2,0,0,1,.8.53,2.36,2.36,0,0,1,.53.85,3.45,3.45,0,0,1,.18,1.16.64.64,0,0,1,0,.33.2.2,0,0,1-.2.09h-4a3.33,3.33,0,0,0,.16,1,2.29,2.29,0,0,0,.39.71,1.56,1.56,0,0,0,.6.42,2,2,0,0,0,.79.15,2.39,2.39,0,0,0,.69-.1,3.46,3.46,0,0,0,.5-.2l.35-.2a.45.45,0,0,1,.24-.09.24.24,0,0,1,.21.1l.3.39a2.16,2.16,0,0,1-.48.42,3.59,3.59,0,0,1-.59.29,4.42,4.42,0,0,1-.65.17,3.71,3.71,0,0,1-.67.06,3.19,3.19,0,0,1-1.16-.22,2.5,2.5,0,0,1-.91-.62,3,3,0,0,1-.61-1,4.23,4.23,0,0,1-.21-1.39,3.58,3.58,0,0,1,.19-1.19,2.86,2.86,0,0,1,.56-1,2.61,2.61,0,0,1,.9-.63A2.81,2.81,0,0,1,59.17,9.09Zm0,.78a1.64,1.64,0,0,0-1.22.45,2.13,2.13,0,0,0-.55,1.24h3.3a2.07,2.07,0,0,0-.1-.68,1.42,1.42,0,0,0-.3-.54,1.27,1.27,0,0,0-.48-.34A1.51,1.51,0,0,0,59.19,9.87Z"/><path class="b6547c22-cc11-4a37-84e5-ffd897bc62a8" d="M63.05,15.26V9.18h.63a.27.27,0,0,1,.29.23l.09.66a3.13,3.13,0,0,1,.88-.71,2.3,2.3,0,0,1,1.13-.27,2.19,2.19,0,0,1,.88.16,1.78,1.78,0,0,1,.64.47,2,2,0,0,1,.38.73,3.09,3.09,0,0,1,.14.94v3.87H67V11.39a1.63,1.63,0,0,0-.32-1.07,1.19,1.19,0,0,0-1-.38,1.84,1.84,0,0,0-.89.23,2.88,2.88,0,0,0-.75.62v4.47Z"/><path class="b6547c22-cc11-4a37-84e5-ffd897bc62a8" d="M71.56,15.36a1.51,1.51,0,0,1-1.11-.4,1.65,1.65,0,0,1-.38-1.16V10.08h-.73a.25.25,0,0,1-.17-.06.24.24,0,0,1-.06-.18V9.42l1-.13.25-1.88a.18.18,0,0,1,.08-.14.24.24,0,0,1,.17-.06h.54V9.3h1.74v.78H71.14v3.65a.81.81,0,0,0,.18.57.68.68,0,0,0,.48.18.85.85,0,0,0,.29,0l.22-.1.15-.1a.21.21,0,0,1,.11-.05.19.19,0,0,1,.15.11l.31.51a2.08,2.08,0,0,1-.66.4A2.28,2.28,0,0,1,71.56,15.36Z"/><path class="b6547c22-cc11-4a37-84e5-ffd897bc62a8" d="M78.66,15.26h-.48a.49.49,0,0,1-.25,0,.27.27,0,0,1-.12-.2l-.12-.56c-.16.14-.32.27-.47.38a2.36,2.36,0,0,1-.48.29,2.45,2.45,0,0,1-.54.18,3.06,3.06,0,0,1-.63.06,2.28,2.28,0,0,1-.66-.1,1.57,1.57,0,0,1-.54-.3,1.43,1.43,0,0,1-.36-.5,1.81,1.81,0,0,1-.14-.72,1.41,1.41,0,0,1,.2-.7,1.68,1.68,0,0,1,.64-.59A4.22,4.22,0,0,1,75.86,12a7.91,7.91,0,0,1,1.75-.17v-.48a1.69,1.69,0,0,0-.3-1.08,1.13,1.13,0,0,0-.9-.36,1.83,1.83,0,0,0-.66.1,2.19,2.19,0,0,0-.46.22l-.34.22a.44.44,0,0,1-.28.1.28.28,0,0,1-.18-.06.29.29,0,0,1-.13-.14l-.2-.34a3.56,3.56,0,0,1,1.09-.72,3.37,3.37,0,0,1,1.29-.24,2.38,2.38,0,0,1,.91.16,2,2,0,0,1,.66.47,1.93,1.93,0,0,1,.41.73,3,3,0,0,1,.14.93Zm-2.77-.65a2,2,0,0,0,.51-.06,1.91,1.91,0,0,0,.44-.16,2.48,2.48,0,0,0,.4-.26,2.92,2.92,0,0,0,.37-.34V12.54a7.58,7.58,0,0,0-1.26.09,3.51,3.51,0,0,0-.84.25,1.18,1.18,0,0,0-.47.35.83.83,0,0,0-.14.46,1.09,1.09,0,0,0,.07.42,1,1,0,0,0,.21.28.9.9,0,0,0,.32.17A1.6,1.6,0,0,0,75.89,14.61Z"/><path class="b6547c22-cc11-4a37-84e5-ffd897bc62a8" d="M81.47,6.42v8.84H80.4V6.42Z"/><path class="b6547c22-cc11-4a37-84e5-ffd897bc62a8" d="M35.45,29.66a.27.27,0,0,1-.29-.22l-.1-.74a3.06,3.06,0,0,1-.89.76,2.26,2.26,0,0,1-1.15.29,2.09,2.09,0,0,1-.94-.21,1.89,1.89,0,0,1-.73-.59,2.82,2.82,0,0,1-.46-1,4.92,4.92,0,0,1-.16-1.34,4.24,4.24,0,0,1,.18-1.25,3.15,3.15,0,0,1,.51-1,2.38,2.38,0,0,1,1.93-.91,2.16,2.16,0,0,1,1,.19,2.24,2.24,0,0,1,.71.53V20.82h1.06v8.84Zm-2.07-.78a1.69,1.69,0,0,0,.91-.24A2.58,2.58,0,0,0,35,28V25a1.82,1.82,0,0,0-.65-.55,1.78,1.78,0,0,0-.78-.16,1.52,1.52,0,0,0-1.3.61,2.77,2.77,0,0,0-.46,1.72,4.29,4.29,0,0,0,.1,1,2.14,2.14,0,0,0,.3.7,1.26,1.26,0,0,0,.49.4A1.69,1.69,0,0,0,33.38,28.88Z"/><path class="b6547c22-cc11-4a37-84e5-ffd897bc62a8" d="M40.28,23.49a2.75,2.75,0,0,1,1,.18,2.2,2.2,0,0,1,.8.53,2.34,2.34,0,0,1,.52.85,3.21,3.21,0,0,1,.19,1.16.64.64,0,0,1,0,.33.22.22,0,0,1-.2.09h-4a3.33,3.33,0,0,0,.16,1,2.11,2.11,0,0,0,.39.71,1.56,1.56,0,0,0,.6.42,2,2,0,0,0,.78.15,2.11,2.11,0,0,0,.7-.1,3.46,3.46,0,0,0,.5-.2c.14-.07.25-.14.35-.2a.45.45,0,0,1,.24-.09.24.24,0,0,1,.21.1l.3.39a2.16,2.16,0,0,1-.48.42,3.59,3.59,0,0,1-.59.29,4.77,4.77,0,0,1-.65.17,3.79,3.79,0,0,1-.67.06,3.15,3.15,0,0,1-1.16-.22,2.62,2.62,0,0,1-.92-.62,3.09,3.09,0,0,1-.6-1,4.23,4.23,0,0,1-.21-1.39,3.58,3.58,0,0,1,.19-1.19,3,3,0,0,1,.56-1,2.52,2.52,0,0,1,.9-.63A2.79,2.79,0,0,1,40.28,23.49Zm0,.78a1.64,1.64,0,0,0-1.22.45A2.07,2.07,0,0,0,38.54,26h3.3a2.11,2.11,0,0,0-.1-.68,1.44,1.44,0,0,0-.3-.53A1.2,1.2,0,0,0,41,24.4,1.51,1.51,0,0,0,40.31,24.27Z"/><path class="b6547c22-cc11-4a37-84e5-ffd897bc62a8" d="M47.65,24.59a.26.26,0,0,1-.23.13.37.37,0,0,1-.2-.07l-.28-.15-.39-.15a2.12,2.12,0,0,0-.54-.06,1.88,1.88,0,0,0-.49.06,1.29,1.29,0,0,0-.37.19.86.86,0,0,0-.23.28.69.69,0,0,0-.08.35.59.59,0,0,0,.13.39,1.3,1.3,0,0,0,.36.27,4.73,4.73,0,0,0,.5.2l.58.18.58.22a2.14,2.14,0,0,1,.51.3,1.51,1.51,0,0,1,.35.44,1.39,1.39,0,0,1,.14.63,2,2,0,0,1-.15.78,1.71,1.71,0,0,1-.45.62,2.09,2.09,0,0,1-.72.41,2.93,2.93,0,0,1-1,.15,3,3,0,0,1-1.15-.21,2.83,2.83,0,0,1-.88-.53l.25-.41a.46.46,0,0,1,.12-.12.29.29,0,0,1,.17,0,.46.46,0,0,1,.23.08l.29.19a2.26,2.26,0,0,0,.41.19,2.15,2.15,0,0,0,.61.08,1.82,1.82,0,0,0,.55-.08,1.21,1.21,0,0,0,.39-.22.9.9,0,0,0,.23-.32A1,1,0,0,0,47,28a.64.64,0,0,0-.14-.42,1.15,1.15,0,0,0-.36-.28,2.59,2.59,0,0,0-.5-.21l-.59-.18c-.19-.06-.39-.14-.58-.22a1.69,1.69,0,0,1-.5-.31,1.33,1.33,0,0,1-.36-.45,1.54,1.54,0,0,1-.14-.67,1.59,1.59,0,0,1,.15-.67,1.5,1.5,0,0,1,.42-.56,2.13,2.13,0,0,1,.68-.39,2.81,2.81,0,0,1,.91-.14,2.85,2.85,0,0,1,1.08.19,2.54,2.54,0,0,1,.83.52Z"/><path class="b6547c22-cc11-4a37-84e5-ffd897bc62a8" d="M50.8,21.68a.72.72,0,0,1-.06.29.81.81,0,0,1-.17.24.78.78,0,0,1-.24.16.73.73,0,0,1-.3.06.72.72,0,0,1-.29-.06.74.74,0,0,1-.4-.4.72.72,0,0,1-.06-.29.73.73,0,0,1,.06-.3.82.82,0,0,1,.16-.25.78.78,0,0,1,.24-.16.72.72,0,0,1,.29-.06.73.73,0,0,1,.3.06.78.78,0,0,1,.24.16.85.85,0,0,1,.17.25A.73.73,0,0,1,50.8,21.68Zm-.24,1.9v6.08H49.49V23.58Z"/><path class="b6547c22-cc11-4a37-84e5-ffd897bc62a8" d="M54.49,23.48a2.89,2.89,0,0,1,.74.09,2.51,2.51,0,0,1,.63.25h1.65v.4c0,.13-.08.22-.25.25l-.69.1a1.92,1.92,0,0,1,.2.87,2,2,0,0,1-.17.81,1.89,1.89,0,0,1-.47.62,2.28,2.28,0,0,1-.72.39,3,3,0,0,1-.92.14,3,3,0,0,1-.8-.1.94.94,0,0,0-.29.26.48.48,0,0,0-.1.28.38.38,0,0,0,.17.34,1.3,1.3,0,0,0,.46.17,4.33,4.33,0,0,0,.66,0h.74a4.56,4.56,0,0,1,.75.06,2.56,2.56,0,0,1,.66.22,1.24,1.24,0,0,1,.46.42,1.31,1.31,0,0,1,.17.69,1.62,1.62,0,0,1-.19.77,2.29,2.29,0,0,1-.56.66,3.17,3.17,0,0,1-.9.46,4,4,0,0,1-1.19.17,4.5,4.5,0,0,1-1.17-.13,3,3,0,0,1-.83-.35,1.54,1.54,0,0,1-.5-.52,1.21,1.21,0,0,1-.16-.61,1.08,1.08,0,0,1,.28-.76,2.08,2.08,0,0,1,.79-.51,1,1,0,0,1-.41-.32.8.8,0,0,1-.16-.53.86.86,0,0,1,.05-.27.85.85,0,0,1,.15-.28,1.94,1.94,0,0,1,.24-.27,2.22,2.22,0,0,1,.34-.22,1.91,1.91,0,0,1-.71-.67,1.82,1.82,0,0,1-.25-1,1.78,1.78,0,0,1,.17-.81,1.7,1.7,0,0,1,.48-.62,2.08,2.08,0,0,1,.72-.39A3.12,3.12,0,0,1,54.49,23.48ZM56.39,30a.51.51,0,0,0-.13-.37.75.75,0,0,0-.34-.22,2.18,2.18,0,0,0-.5-.11,3.81,3.81,0,0,0-.59,0h-.64a2.51,2.51,0,0,1-.62-.08,1.78,1.78,0,0,0-.55.4.79.79,0,0,0-.21.55.76.76,0,0,0,.1.39.93.93,0,0,0,.32.3,1.9,1.9,0,0,0,.54.21,3.58,3.58,0,0,0,.78.07,3.64,3.64,0,0,0,.77-.08,2.07,2.07,0,0,0,.58-.22,1.1,1.1,0,0,0,.36-.35A.81.81,0,0,0,56.39,30Zm-1.9-3.28a1.62,1.62,0,0,0,.57-.09,1.09,1.09,0,0,0,.42-.25,1,1,0,0,0,.25-.39,1.3,1.3,0,0,0,.09-.49,1.21,1.21,0,0,0-.34-.89,1.38,1.38,0,0,0-1-.33,1.35,1.35,0,0,0-1,.33,1.18,1.18,0,0,0-.34.89,1.3,1.3,0,0,0,.09.49,1.14,1.14,0,0,0,.25.39,1.17,1.17,0,0,0,.42.25A1.6,1.6,0,0,0,54.49,26.69Z"/><path class="b6547c22-cc11-4a37-84e5-ffd897bc62a8" d="M58.58,29.66V23.58h.63a.27.27,0,0,1,.29.23l.08.66a3.32,3.32,0,0,1,.89-.71,2.3,2.3,0,0,1,1.13-.27,2.19,2.19,0,0,1,.88.16,1.78,1.78,0,0,1,.64.47,2.11,2.11,0,0,1,.38.73,3.09,3.09,0,0,1,.14.94v3.87H62.57V25.79a1.63,1.63,0,0,0-.32-1.07,1.19,1.19,0,0,0-1-.38,1.84,1.84,0,0,0-.89.23,3.09,3.09,0,0,0-.76.62v4.47Z"/><path class="b6547c22-cc11-4a37-84e5-ffd897bc62a8" d="M37.18,55.37V59H36v-8.6h2.43a5.37,5.37,0,0,1,1.41.16,2.72,2.72,0,0,1,1,.48,1.88,1.88,0,0,1,.57.75,2.46,2.46,0,0,1,.19,1,2.37,2.37,0,0,1-.15.85,2.2,2.2,0,0,1-.41.71,2.74,2.74,0,0,1-.67.54,3,3,0,0,1-.89.33,1.33,1.33,0,0,1,.38.37L42.37,59h-1a.53.53,0,0,1-.47-.25l-2.23-3.07a.62.62,0,0,0-.22-.21.84.84,0,0,0-.36-.06Zm0-.85h1.21a3.06,3.06,0,0,0,.9-.12,1.84,1.84,0,0,0,.65-.35,1.5,1.5,0,0,0,.39-.54,1.7,1.7,0,0,0,.13-.69,1.36,1.36,0,0,0-.5-1.15,2.45,2.45,0,0,0-1.51-.4H37.18Z"/><path class="b6547c22-cc11-4a37-84e5-ffd897bc62a8" d="M44.46,50.4a.53.53,0,0,1,.17.15l5,6.49,0-.31V50.36h1V59H50a.52.52,0,0,1-.23-.05.65.65,0,0,1-.18-.16l-5-6.48c0,.1,0,.2,0,.29s0,.19,0,.27V59h-1v-8.6h.6A.47.47,0,0,1,44.46,50.4Z"/><path class="b6547c22-cc11-4a37-84e5-ffd897bc62a8" d="M59.77,59h-.9a.39.39,0,0,1-.25-.08.62.62,0,0,1-.15-.2l-.8-2.08H53.81L53,58.68a.62.62,0,0,1-.14.19.39.39,0,0,1-.26.09h-.9l3.44-8.6h1.18Zm-5.63-3.2h3.21L56,52.26a5.38,5.38,0,0,1-.26-.8c0,.16-.09.31-.13.45a3.78,3.78,0,0,1-.12.36Z"/><path class="b6547c22-cc11-4a37-84e5-ffd897bc62a8" d="M23.8,67.18a2.7,2.7,0,0,1,1,.18,2.33,2.33,0,0,1,.8.53,2.45,2.45,0,0,1,.53.85,3.48,3.48,0,0,1,.19,1.16.66.66,0,0,1-.06.34.22.22,0,0,1-.2.08H22a3.27,3.27,0,0,0,.16,1,2,2,0,0,0,.4.71,1.54,1.54,0,0,0,.6.43,2.13,2.13,0,0,0,.78.14,2.4,2.4,0,0,0,.69-.09,5.19,5.19,0,0,0,.5-.2,3.22,3.22,0,0,0,.35-.21.48.48,0,0,1,.24-.09.24.24,0,0,1,.21.1l.3.39a2,2,0,0,1-.48.42,2.49,2.49,0,0,1-.59.29,3.45,3.45,0,0,1-.65.17,3.68,3.68,0,0,1-.66.06,3.2,3.2,0,0,1-1.17-.21,2.52,2.52,0,0,1-.91-.63,2.86,2.86,0,0,1-.61-1A4.19,4.19,0,0,1,21,70.19,3.58,3.58,0,0,1,21.15,69a2.91,2.91,0,0,1,.56-1,2.78,2.78,0,0,1,.9-.64A3,3,0,0,1,23.8,67.18Zm0,.79a1.67,1.67,0,0,0-1.22.44,2.16,2.16,0,0,0-.55,1.24h3.31a2.15,2.15,0,0,0-.11-.68,1.33,1.33,0,0,0-.3-.53,1.3,1.3,0,0,0-.48-.35A1.67,1.67,0,0,0,23.82,68Z"/><path class="b6547c22-cc11-4a37-84e5-ffd897bc62a8" d="M28.74,70.24l-2-3h1a.32.32,0,0,1,.19,0,.43.43,0,0,1,.11.12l1.49,2.28a2,2,0,0,1,.15-.34L31,67.46a.77.77,0,0,1,.12-.13.2.2,0,0,1,.15,0h1l-2,2.9,2.13,3.18h-1a.32.32,0,0,1-.2-.07,1,1,0,0,1-.13-.16l-1.53-2.38a1,1,0,0,1-.12.31l-1.42,2.07a1,1,0,0,1-.13.16.27.27,0,0,1-.19.07h-.95Z"/><path class="b6547c22-cc11-4a37-84e5-ffd897bc62a8" d="M35.21,73.45a1.47,1.47,0,0,1-1.11-.4,1.6,1.6,0,0,1-.39-1.16V68.17H33a.23.23,0,0,1-.16-.06.21.21,0,0,1-.07-.17v-.43l1-.13L34,65.51a.28.28,0,0,1,.08-.15.25.25,0,0,1,.17-.06h.54v2.1h1.74v.77H34.78v3.65a.74.74,0,0,0,.19.57.66.66,0,0,0,.48.19.84.84,0,0,0,.29,0,1,1,0,0,0,.21-.1,1,1,0,0,0,.15-.1.21.21,0,0,1,.12,0,.19.19,0,0,1,.15.1l.31.51a2,2,0,0,1-.67.4A2.22,2.22,0,0,1,35.21,73.45Z"/><path class="b6547c22-cc11-4a37-84e5-ffd897bc62a8" d="M37.84,73.36V67.28h.61a.27.27,0,0,1,.33.29l.07,1a2.73,2.73,0,0,1,.78-1,1.78,1.78,0,0,1,1.53-.3,1.77,1.77,0,0,1,.38.15l-.14.8a.18.18,0,0,1-.19.15l-.26,0a1.48,1.48,0,0,0-.48-.06,1.4,1.4,0,0,0-.93.32,2.46,2.46,0,0,0-.63.95v3.87Z"/><path class="b6547c22-cc11-4a37-84e5-ffd897bc62a8" d="M46.91,73.36h-.47a.55.55,0,0,1-.25,0,.25.25,0,0,1-.13-.21l-.12-.56-.47.39a2.31,2.31,0,0,1-.48.28,2.37,2.37,0,0,1-.53.18,3.16,3.16,0,0,1-.64.06,2.07,2.07,0,0,1-.66-.1,1.3,1.3,0,0,1-.54-.3,1.43,1.43,0,0,1-.36-.5,1.74,1.74,0,0,1-.14-.72,1.34,1.34,0,0,1,.2-.69,1.78,1.78,0,0,1,.64-.6,4.3,4.3,0,0,1,1.16-.42A7.75,7.75,0,0,1,45.86,70v-.47a1.66,1.66,0,0,0-.3-1.08,1.11,1.11,0,0,0-.9-.37,2,2,0,0,0-.65.1,3,3,0,0,0-.47.22l-.33.23a.54.54,0,0,1-.28.09.3.3,0,0,1-.19,0,.57.57,0,0,1-.13-.14l-.19-.35a3.52,3.52,0,0,1,1.08-.72,3.37,3.37,0,0,1,1.29-.24,2.34,2.34,0,0,1,.91.17,1.89,1.89,0,0,1,.67.47,1.87,1.87,0,0,1,.4.72,2.85,2.85,0,0,1,.14.94Zm-2.77-.66a2.12,2.12,0,0,0,.52-.06,1.79,1.79,0,0,0,.44-.16,2,2,0,0,0,.39-.25,3,3,0,0,0,.37-.35V70.63a7.37,7.37,0,0,0-1.25.09,3.7,3.7,0,0,0-.84.25,1.13,1.13,0,0,0-.47.36.74.74,0,0,0-.15.45,1,1,0,0,0,.08.42.78.78,0,0,0,.21.29.83.83,0,0,0,.31.16A1.6,1.6,0,0,0,44.14,72.7Z"/><path class="b6547c22-cc11-4a37-84e5-ffd897bc62a8" d="M52.68,68.36a.47.47,0,0,1-.1.1.26.26,0,0,1-.14,0,.34.34,0,0,1-.19-.08L52,68.25a3.89,3.89,0,0,0-.39-.16A1.85,1.85,0,0,0,51,68a1.9,1.9,0,0,0-.78.15,1.62,1.62,0,0,0-.58.46,2.05,2.05,0,0,0-.34.73,3.48,3.48,0,0,0-.12,1,3.6,3.6,0,0,0,.12,1,2.21,2.21,0,0,0,.36.72,1.48,1.48,0,0,0,.55.45,1.78,1.78,0,0,0,.74.15,1.93,1.93,0,0,0,.64-.09,1.64,1.64,0,0,0,.42-.21,2.27,2.27,0,0,0,.28-.21.32.32,0,0,1,.21-.09.24.24,0,0,1,.21.1l.3.39a2.33,2.33,0,0,1-1,.71,3.56,3.56,0,0,1-1.26.23,2.67,2.67,0,0,1-1.06-.21,2.42,2.42,0,0,1-.85-.61,2.93,2.93,0,0,1-.56-1,3.91,3.91,0,0,1-.21-1.33,3.86,3.86,0,0,1,.19-1.25,2.79,2.79,0,0,1,.55-1,2.37,2.37,0,0,1,.9-.65A2.92,2.92,0,0,1,51,67.18a2.85,2.85,0,0,1,1.13.21A2.71,2.71,0,0,1,53,68Z"/><path class="b6547c22-cc11-4a37-84e5-ffd897bc62a8" d="M56,73.45a1.47,1.47,0,0,1-1.11-.4,1.6,1.6,0,0,1-.39-1.16V68.17h-.73a.23.23,0,0,1-.16-.06.21.21,0,0,1-.07-.17v-.43l1-.13.25-1.87a.21.21,0,0,1,.07-.15A.25.25,0,0,1,55,65.3h.54v2.1h1.74v.77H55.55v3.65a.74.74,0,0,0,.19.57.66.66,0,0,0,.48.19.84.84,0,0,0,.29,0,1,1,0,0,0,.21-.1l.16-.1a.17.17,0,0,1,.11,0,.19.19,0,0,1,.15.1l.31.51a2,2,0,0,1-.67.4A2.22,2.22,0,0,1,56,73.45Z"/><path class="b6547c22-cc11-4a37-84e5-ffd897bc62a8" d="M60,65.37a.72.72,0,0,1-.06.29.87.87,0,0,1-.41.41.77.77,0,0,1-.3.06.72.72,0,0,1-.29-.06.81.81,0,0,1-.24-.17.78.78,0,0,1-.16-.24.72.72,0,0,1-.06-.29.8.8,0,0,1,.06-.3.78.78,0,0,1,.16-.24.81.81,0,0,1,.24-.17.72.72,0,0,1,.29-.06.77.77,0,0,1,.3.06.77.77,0,0,1,.47.71Zm-.24,1.91v6.08H58.73V67.28Z"/><path class="b6547c22-cc11-4a37-84e5-ffd897bc62a8" d="M64.14,67.18a3.11,3.11,0,0,1,1.21.22,2.56,2.56,0,0,1,.91.63,2.94,2.94,0,0,1,.58,1,4.29,4.29,0,0,1,0,2.59,2.9,2.9,0,0,1-.58,1,2.44,2.44,0,0,1-.91.63,3.41,3.41,0,0,1-2.41,0,2.44,2.44,0,0,1-.91-.63,2.76,2.76,0,0,1-.59-1,4.29,4.29,0,0,1,0-2.59A2.81,2.81,0,0,1,62,68a2.56,2.56,0,0,1,.91-.63A3.09,3.09,0,0,1,64.14,67.18Zm0,5.43A1.59,1.59,0,0,0,65.49,72a2.82,2.82,0,0,0,.44-1.68,2.85,2.85,0,0,0-.44-1.69A1.56,1.56,0,0,0,64.14,68a1.8,1.8,0,0,0-.79.16,1.44,1.44,0,0,0-.56.45,1.84,1.84,0,0,0-.33.72,4,4,0,0,0,0,1.94,1.87,1.87,0,0,0,.33.71,1.44,1.44,0,0,0,.56.45A2,2,0,0,0,64.14,72.61Z"/><path class="b6547c22-cc11-4a37-84e5-ffd897bc62a8" d="M68.36,73.36V67.28H69a.27.27,0,0,1,.29.22l.08.66a3.52,3.52,0,0,1,.89-.71,2.3,2.3,0,0,1,1.13-.27,2.19,2.19,0,0,1,.88.17,1.75,1.75,0,0,1,.64.46,2.2,2.2,0,0,1,.38.73,3.16,3.16,0,0,1,.13.95v3.87H72.35V69.49A1.67,1.67,0,0,0,72,68.41a1.19,1.19,0,0,0-1-.38,1.84,1.84,0,0,0-.89.23,3.09,3.09,0,0,0-.76.62v4.48Z"/><path class="b6547c22-cc11-4a37-84e5-ffd897bc62a8" d="M30.73,98.92h3.72v1H29.57V91.3h1.16Z"/><path class="b6547c22-cc11-4a37-84e5-ffd897bc62a8" d="M37,91.91a.69.69,0,0,1-.07.29.87.87,0,0,1-.41.41.72.72,0,0,1-.29.06.68.68,0,0,1-.29-.06.87.87,0,0,1-.41-.41.68.68,0,0,1-.06-.29.72.72,0,0,1,.06-.29.74.74,0,0,1,.17-.25.78.78,0,0,1,.24-.16.69.69,0,0,1,.29-.07.73.73,0,0,1,.29.07.78.78,0,0,1,.24.16.74.74,0,0,1,.17.25A.73.73,0,0,1,37,91.91Zm-.24,1.91V99.9H35.69V93.82Z"/><path class="b6547c22-cc11-4a37-84e5-ffd897bc62a8" d="M38.68,99.9V91.06h1.07V94.7a3,3,0,0,1,.87-.71,2.41,2.41,0,0,1,2.07-.07,2,2,0,0,1,.73.59,3,3,0,0,1,.46,1A4.85,4.85,0,0,1,44,96.82a4.15,4.15,0,0,1-.18,1.25,2.88,2.88,0,0,1-.52,1,2.34,2.34,0,0,1-.83.67,2.44,2.44,0,0,1-1.1.24,2,2,0,0,1-1-.23,2.23,2.23,0,0,1-.71-.63l-.06.55a.25.25,0,0,1-.27.23Zm2.71-5.32a1.73,1.73,0,0,0-.92.24,2.55,2.55,0,0,0-.72.68v2.93a1.6,1.6,0,0,0,.64.56,1.78,1.78,0,0,0,.78.16,1.54,1.54,0,0,0,1.31-.6,2.87,2.87,0,0,0,.46-1.73,4.24,4.24,0,0,0-.11-1,2.05,2.05,0,0,0-.3-.7,1.26,1.26,0,0,0-.49-.4A1.67,1.67,0,0,0,41.39,94.58Z"/><path class="b6547c22-cc11-4a37-84e5-ffd897bc62a8" d="M45.35,99.9V93.82H46a.3.3,0,0,1,.24.07.45.45,0,0,1,.09.22l.07,1a2.91,2.91,0,0,1,.77-1,1.71,1.71,0,0,1,1.08-.36,1.65,1.65,0,0,1,.46.06,1.53,1.53,0,0,1,.37.16l-.13.8a.18.18,0,0,1-.19.15.9.9,0,0,1-.26-.06,1.52,1.52,0,0,0-.48-.06,1.37,1.37,0,0,0-.94.33,2.3,2.3,0,0,0-.62.94V99.9Z"/><path class="b6547c22-cc11-4a37-84e5-ffd897bc62a8" d="M54.42,99.9H54a.63.63,0,0,1-.26-.05.27.27,0,0,1-.12-.2l-.12-.57a5.09,5.09,0,0,1-.47.39,2.92,2.92,0,0,1-.48.29,2.43,2.43,0,0,1-.54.17,3,3,0,0,1-.63.07,2.28,2.28,0,0,1-.66-.1,1.57,1.57,0,0,1-.54-.3,1.47,1.47,0,0,1-.36-.51,1.73,1.73,0,0,1-.14-.71,1.35,1.35,0,0,1,.2-.7,1.68,1.68,0,0,1,.64-.59,3.9,3.9,0,0,1,1.15-.43,8,8,0,0,1,1.75-.16V96a1.68,1.68,0,0,0-.3-1.08,1.12,1.12,0,0,0-.9-.36,1.83,1.83,0,0,0-.66.1,2.19,2.19,0,0,0-.46.22l-.34.22a.43.43,0,0,1-.27.1.29.29,0,0,1-.19-.06.35.35,0,0,1-.13-.14l-.19-.34A3.28,3.28,0,0,1,51,94a3.37,3.37,0,0,1,1.29-.24,2.38,2.38,0,0,1,.91.17,1.85,1.85,0,0,1,.66.47,2,2,0,0,1,.41.72,3.14,3.14,0,0,1,.14.94Zm-2.77-.65a2,2,0,0,0,.51-.06A1.91,1.91,0,0,0,52.6,99a2.48,2.48,0,0,0,.4-.26,2.92,2.92,0,0,0,.37-.34V97.17a7.26,7.26,0,0,0-1.25.1,3.28,3.28,0,0,0-.84.24,1.16,1.16,0,0,0-.48.36.83.83,0,0,0-.14.46.86.86,0,0,0,.08.41A.7.7,0,0,0,51,99a.76.76,0,0,0,.31.16A1.23,1.23,0,0,0,51.65,99.25Z"/><path class="b6547c22-cc11-4a37-84e5-ffd897bc62a8" d="M56,99.9V93.82h.61a.3.3,0,0,1,.24.07.32.32,0,0,1,.09.22l.07,1a2.91,2.91,0,0,1,.77-1,1.71,1.71,0,0,1,1.08-.36,1.65,1.65,0,0,1,.46.06,1.8,1.8,0,0,1,.38.16l-.14.8a.18.18,0,0,1-.19.15,1,1,0,0,1-.26-.06,1.48,1.48,0,0,0-.48-.06,1.38,1.38,0,0,0-.94.33,2.41,2.41,0,0,0-.62.94V99.9Z"/><path class="b6547c22-cc11-4a37-84e5-ffd897bc62a8" d="M62.66,101.69a.47.47,0,0,1-.14.19.34.34,0,0,1-.25.08h-.79l1.11-2.42-2.51-5.72H61a.28.28,0,0,1,.21.07.53.53,0,0,1,.12.15L63,97.87c0,.09.07.18.1.26s0,.18.07.27a2.76,2.76,0,0,1,.08-.27l.1-.27L64.88,94a.48.48,0,0,1,.13-.16.31.31,0,0,1,.19-.06h.85Z"/><path class="b6547c22-cc11-4a37-84e5-ffd897bc62a8" d="M17.19,116.36v-8.14h.64a.26.26,0,0,1,.28.22l.09.72a3.36,3.36,0,0,1,.89-.76,2.32,2.32,0,0,1,1.16-.29,2.28,2.28,0,0,1,.95.2,2.07,2.07,0,0,1,.72.6,2.92,2.92,0,0,1,.47,1,5.41,5.41,0,0,1,.16,1.34,4.15,4.15,0,0,1-.18,1.25,2.88,2.88,0,0,1-.52,1,2.31,2.31,0,0,1-.82.67,2.5,2.5,0,0,1-1.1.24,2.37,2.37,0,0,1-1-.18,2.24,2.24,0,0,1-.7-.53v2.69ZM19.9,109a1.73,1.73,0,0,0-.92.24,2.55,2.55,0,0,0-.72.68v2.93a1.58,1.58,0,0,0,.64.56,1.86,1.86,0,0,0,.79.16A1.55,1.55,0,0,0,21,113a2.87,2.87,0,0,0,.45-1.73,4.4,4.4,0,0,0-.1-1,2.05,2.05,0,0,0-.3-.7,1.33,1.33,0,0,0-.49-.4A1.67,1.67,0,0,0,19.9,109Z"/><path class="b6547c22-cc11-4a37-84e5-ffd897bc62a8" d="M23.81,114.3v-6.08h.62a.33.33,0,0,1,.24.07.45.45,0,0,1,.09.22l.07.95a2.8,2.8,0,0,1,.77-1,1.68,1.68,0,0,1,1.08-.36,1.58,1.58,0,0,1,.45.06,1.61,1.61,0,0,1,.38.16l-.14.8a.18.18,0,0,1-.18.15.84.84,0,0,1-.26-.06,1.59,1.59,0,0,0-.49-.06,1.36,1.36,0,0,0-.93.33,2.42,2.42,0,0,0-.63.94v3.87Z"/><path class="b6547c22-cc11-4a37-84e5-ffd897bc62a8" d="M31.06,108.13a2.7,2.7,0,0,1,1,.18,2.2,2.2,0,0,1,.8.53,2.36,2.36,0,0,1,.53.85,3.42,3.42,0,0,1,.19,1.15.66.66,0,0,1-.06.34c0,.06-.1.08-.2.08H29.27a3.22,3.22,0,0,0,.16,1,2.08,2.08,0,0,0,.4.72,1.42,1.42,0,0,0,.6.42,1.94,1.94,0,0,0,.78.14,2.4,2.4,0,0,0,.69-.09,3.46,3.46,0,0,0,.5-.2,3.34,3.34,0,0,0,.35-.2A.48.48,0,0,1,33,113a.24.24,0,0,1,.21.1l.3.39a1.74,1.74,0,0,1-.48.41,3,3,0,0,1-.59.3,4.42,4.42,0,0,1-.65.17,4.89,4.89,0,0,1-.66,0,3.2,3.2,0,0,1-1.17-.21,2.5,2.5,0,0,1-.91-.62,3,3,0,0,1-.61-1,4.23,4.23,0,0,1-.21-1.39,3.54,3.54,0,0,1,.19-1.19,2.86,2.86,0,0,1,.56-1,2.61,2.61,0,0,1,.9-.63A2.84,2.84,0,0,1,31.06,108.13Zm0,.78a1.64,1.64,0,0,0-1.22.45,2.13,2.13,0,0,0-.55,1.24h3.31a2.06,2.06,0,0,0-.11-.68,1.3,1.3,0,0,0-.3-.54,1.42,1.42,0,0,0-.48-.35A1.67,1.67,0,0,0,31.08,108.91Z"/><path class="b6547c22-cc11-4a37-84e5-ffd897bc62a8" d="M34.94,116.36v-8.14h.63a.27.27,0,0,1,.29.22l.09.72a3.36,3.36,0,0,1,.89-.76,2.32,2.32,0,0,1,1.16-.29,2.28,2.28,0,0,1,1,.2,2.07,2.07,0,0,1,.72.6,2.73,2.73,0,0,1,.46,1,5,5,0,0,1,.17,1.34,4.15,4.15,0,0,1-.18,1.25,3.06,3.06,0,0,1-.52,1,2.26,2.26,0,0,1-.83.67,2.44,2.44,0,0,1-1.1.24,2.35,2.35,0,0,1-1-.18,2.13,2.13,0,0,1-.7-.53v2.69Zm2.7-7.38a1.72,1.72,0,0,0-.91.24,2.55,2.55,0,0,0-.72.68v2.93a1.58,1.58,0,0,0,.64.56,1.85,1.85,0,0,0,.78.16,1.55,1.55,0,0,0,1.31-.6,2.87,2.87,0,0,0,.45-1.73,4.4,4.4,0,0,0-.1-1,1.88,1.88,0,0,0-.31-.7,1.23,1.23,0,0,0-.48-.4A1.69,1.69,0,0,0,37.64,109Z"/><path class="b6547c22-cc11-4a37-84e5-ffd897bc62a8" d="M46,114.3h-.48a.58.58,0,0,1-.25,0,.27.27,0,0,1-.13-.2l-.12-.57a5,5,0,0,1-.46.39,4.09,4.09,0,0,1-.48.29,2.43,2.43,0,0,1-.54.17,2.48,2.48,0,0,1-.63.07,2.41,2.41,0,0,1-.67-.1,1.62,1.62,0,0,1-.53-.3,1.34,1.34,0,0,1-.37-.5,1.81,1.81,0,0,1-.13-.72,1.29,1.29,0,0,1,.2-.7,1.68,1.68,0,0,1,.64-.59,3.8,3.8,0,0,1,1.15-.43A8,8,0,0,1,45,110.9v-.48a1.69,1.69,0,0,0-.31-1.08,1.1,1.1,0,0,0-.89-.36,1.83,1.83,0,0,0-.66.1,2.19,2.19,0,0,0-.46.22c-.13.08-.25.15-.34.22a.46.46,0,0,1-.28.1.33.33,0,0,1-.19-.06.58.58,0,0,1-.13-.14l-.19-.34a3.42,3.42,0,0,1,1.09-.73,3.37,3.37,0,0,1,1.29-.24,2.29,2.29,0,0,1,.9.17,1.8,1.8,0,0,1,.67.47,2,2,0,0,1,.41.72,3.14,3.14,0,0,1,.14.94Zm-2.78-.65a2.12,2.12,0,0,0,.52-.06,2.09,2.09,0,0,0,.44-.16,2.48,2.48,0,0,0,.4-.26,3.81,3.81,0,0,0,.37-.34v-1.25a7.5,7.5,0,0,0-1.26.09,3.55,3.55,0,0,0-.84.24,1.2,1.2,0,0,0-.47.36.77.77,0,0,0-.15.46,1,1,0,0,0,.08.41.7.7,0,0,0,.21.29.83.83,0,0,0,.31.16A1.23,1.23,0,0,0,43.25,113.65Z"/><path class="b6547c22-cc11-4a37-84e5-ffd897bc62a8" d="M47.65,114.3v-6.08h.61a.33.33,0,0,1,.24.07.45.45,0,0,1,.09.22l.07.95a2.8,2.8,0,0,1,.77-1,1.71,1.71,0,0,1,1.08-.36,1.53,1.53,0,0,1,.45.06,1.45,1.45,0,0,1,.38.16l-.14.8a.17.17,0,0,1-.18.15.9.9,0,0,1-.26-.06,1.59,1.59,0,0,0-.49-.06,1.36,1.36,0,0,0-.93.33,2.42,2.42,0,0,0-.63.94v3.87Z"/><path class="b6547c22-cc11-4a37-84e5-ffd897bc62a8" d="M56.72,114.3h-.48a.62.62,0,0,1-.25,0,.27.27,0,0,1-.12-.2l-.12-.57a5.09,5.09,0,0,1-.47.39,2.92,2.92,0,0,1-.48.29,2.43,2.43,0,0,1-.54.17,2.48,2.48,0,0,1-.63.07,2.41,2.41,0,0,1-.67-.1,1.62,1.62,0,0,1-.53-.3,1.45,1.45,0,0,1-.37-.5,1.81,1.81,0,0,1-.13-.72,1.38,1.38,0,0,1,.2-.7,1.68,1.68,0,0,1,.64-.59,3.9,3.9,0,0,1,1.15-.43,8,8,0,0,1,1.75-.16v-.48a1.64,1.64,0,0,0-.31-1.08,1.1,1.1,0,0,0-.89-.36,1.83,1.83,0,0,0-.66.1,2.19,2.19,0,0,0-.46.22l-.34.22a.44.44,0,0,1-.28.1.33.33,0,0,1-.19-.06.41.41,0,0,1-.12-.14l-.2-.34a3.42,3.42,0,0,1,1.09-.73,3.37,3.37,0,0,1,1.29-.24,2.38,2.38,0,0,1,.91.17,1.85,1.85,0,0,1,.66.47,2,2,0,0,1,.41.72,3.14,3.14,0,0,1,.14.94ZM54,113.65a2,2,0,0,0,.51-.06,2.09,2.09,0,0,0,.44-.16,2.48,2.48,0,0,0,.4-.26,3.81,3.81,0,0,0,.37-.34v-1.25a7.58,7.58,0,0,0-1.26.09,3.55,3.55,0,0,0-.84.24,1.2,1.2,0,0,0-.47.36.76.76,0,0,0-.14.46,1,1,0,0,0,.07.41.94.94,0,0,0,.21.29.88.88,0,0,0,.32.16A1.23,1.23,0,0,0,54,113.65Z"/><path class="b6547c22-cc11-4a37-84e5-ffd897bc62a8" d="M60.18,114.4a1.47,1.47,0,0,1-1.11-.41,1.58,1.58,0,0,1-.38-1.16v-3.71H58a.21.21,0,0,1-.22-.24v-.42l1-.13.25-1.88a.22.22,0,0,1,.08-.15.28.28,0,0,1,.16,0h.54v2.09h1.74v.78H59.75v3.64a.78.78,0,0,0,.19.57.62.62,0,0,0,.48.19.84.84,0,0,0,.29,0l.21-.09.16-.1a.21.21,0,0,1,.11,0,.19.19,0,0,1,.15.1l.31.51a2,2,0,0,1-.67.41A2.18,2.18,0,0,1,60.18,114.4Z"/><path class="b6547c22-cc11-4a37-84e5-ffd897bc62a8" d="M64.24,106.31a.68.68,0,0,1-.06.29.87.87,0,0,1-.41.41.73.73,0,0,1-.3.06.72.72,0,0,1-.29-.06.81.81,0,0,1-.24-.17.78.78,0,0,1-.16-.24.68.68,0,0,1-.06-.29.82.82,0,0,1,.22-.54.78.78,0,0,1,.24-.16.73.73,0,0,1,.29-.07.73.73,0,0,1,.3.07.78.78,0,0,1,.24.16.74.74,0,0,1,.17.25A.72.72,0,0,1,64.24,106.31ZM64,108.22v6.08H62.93v-6.08Z"/><path class="b6547c22-cc11-4a37-84e5-ffd897bc62a8" d="M68.35,108.13a3.09,3.09,0,0,1,1.2.22,2.56,2.56,0,0,1,.91.63,2.9,2.9,0,0,1,.58,1,4.08,4.08,0,0,1,.2,1.3,4,4,0,0,1-.2,1.29,2.94,2.94,0,0,1-.58,1,2.42,2.42,0,0,1-.91.62,3.41,3.41,0,0,1-2.41,0,2.42,2.42,0,0,1-.91-.62,2.65,2.65,0,0,1-.58-1,3.71,3.71,0,0,1-.21-1.29,3.81,3.81,0,0,1,.21-1.3,2.61,2.61,0,0,1,.58-1,2.56,2.56,0,0,1,.91-.63A3.11,3.11,0,0,1,68.35,108.13Zm0,5.42a1.56,1.56,0,0,0,1.34-.6,3.47,3.47,0,0,0,0-3.38,1.57,1.57,0,0,0-1.34-.61,2,2,0,0,0-.8.16,1.64,1.64,0,0,0-.56.45,2,2,0,0,0-.33.72,3.64,3.64,0,0,0-.11,1,3.6,3.6,0,0,0,.11,1A2,2,0,0,0,67,113a1.5,1.5,0,0,0,.56.44A1.81,1.81,0,0,0,68.35,113.55Z"/><path class="b6547c22-cc11-4a37-84e5-ffd897bc62a8" d="M72.56,114.3v-6.08h.63a.27.27,0,0,1,.29.22l.08.66a3.48,3.48,0,0,1,.89-.7,2.5,2.5,0,0,1,2-.11,1.78,1.78,0,0,1,.64.47,2,2,0,0,1,.38.73,3,3,0,0,1,.14.94v3.87H76.55v-3.87a1.63,1.63,0,0,0-.32-1.07,1.16,1.16,0,0,0-1-.38,1.74,1.74,0,0,0-.89.23,3,3,0,0,0-.76.61v4.48Z"/><path class="b6547c22-cc11-4a37-84e5-ffd897bc62a8" d="M161.65,110v3.59h-1.16V105h2.43a5.37,5.37,0,0,1,1.41.16,2.64,2.64,0,0,1,1,.48,1.88,1.88,0,0,1,.57.75,2.46,2.46,0,0,1,.19,1,2.61,2.61,0,0,1-.14.85,2.3,2.3,0,0,1-.42.71,2.56,2.56,0,0,1-.67.54,3.36,3.36,0,0,1-.89.34,1.2,1.2,0,0,1,.39.36l2.5,3.42h-1a.53.53,0,0,1-.47-.25l-2.23-3.07a.62.62,0,0,0-.22-.21.84.84,0,0,0-.36-.06Zm0-.85h1.22a3,3,0,0,0,.89-.12,1.76,1.76,0,0,0,.65-.35,1.39,1.39,0,0,0,.39-.54,1.67,1.67,0,0,0,.14-.69,1.35,1.35,0,0,0-.51-1.15,2.45,2.45,0,0,0-1.51-.39h-1.27Z"/><path class="b6547c22-cc11-4a37-84e5-ffd897bc62a8" d="M170.34,107.42a2.7,2.7,0,0,1,1,.18,2.33,2.33,0,0,1,.8.53,2.45,2.45,0,0,1,.53.85,3.48,3.48,0,0,1,.19,1.16.66.66,0,0,1-.06.34.22.22,0,0,1-.2.08h-4a3.27,3.27,0,0,0,.16,1,2,2,0,0,0,.4.71,1.54,1.54,0,0,0,.6.43,2.13,2.13,0,0,0,.78.14,2.4,2.4,0,0,0,.69-.09,5.19,5.19,0,0,0,.5-.2,3.22,3.22,0,0,0,.35-.21.48.48,0,0,1,.24-.09.27.27,0,0,1,.21.1l.3.39a2,2,0,0,1-.48.42,2.49,2.49,0,0,1-.59.29,3.45,3.45,0,0,1-.65.17,3.68,3.68,0,0,1-.66.06,3.2,3.2,0,0,1-1.17-.21,2.52,2.52,0,0,1-.91-.63,2.9,2.9,0,0,1-.61-1,4.29,4.29,0,0,1-.21-1.4,3.48,3.48,0,0,1,.19-1.18,2.86,2.86,0,0,1,.56-1,2.78,2.78,0,0,1,.9-.64A3,3,0,0,1,170.34,107.42Zm0,.79a1.67,1.67,0,0,0-1.22.44,2.16,2.16,0,0,0-.55,1.24h3.31a2.15,2.15,0,0,0-.11-.68,1.33,1.33,0,0,0-.3-.53,1.3,1.3,0,0,0-.48-.35A1.67,1.67,0,0,0,170.36,108.21Z"/><path class="b6547c22-cc11-4a37-84e5-ffd897bc62a8" d="M178.68,113.6h-.47a.63.63,0,0,1-.26,0,.27.27,0,0,1-.12-.21l-.12-.56-.47.39a2.31,2.31,0,0,1-.48.28,2.45,2.45,0,0,1-.54.18,3.06,3.06,0,0,1-.63.06,2,2,0,0,1-.66-.1,1.3,1.3,0,0,1-.54-.3,1.43,1.43,0,0,1-.36-.5,1.74,1.74,0,0,1-.14-.72,1.34,1.34,0,0,1,.2-.69,1.78,1.78,0,0,1,.64-.6,4.17,4.17,0,0,1,1.16-.42,7.75,7.75,0,0,1,1.74-.17v-.47a1.66,1.66,0,0,0-.3-1.08,1.11,1.11,0,0,0-.9-.37,2.08,2.08,0,0,0-.66.1,3.3,3.3,0,0,0-.46.22l-.33.23a.56.56,0,0,1-.28.1.31.31,0,0,1-.19-.06.43.43,0,0,1-.13-.14l-.19-.34a3.21,3.21,0,0,1,2.37-1,2.38,2.38,0,0,1,.91.17,2,2,0,0,1,.67.47,2,2,0,0,1,.4.72,2.85,2.85,0,0,1,.14.94Zm-2.77-.66a2.12,2.12,0,0,0,.52-.06,1.79,1.79,0,0,0,.44-.16,2.34,2.34,0,0,0,.39-.25,3.92,3.92,0,0,0,.37-.34v-1.26a7.37,7.37,0,0,0-1.25.09,3.7,3.7,0,0,0-.84.25,1.07,1.07,0,0,0-.47.36.74.74,0,0,0-.15.45,1,1,0,0,0,.08.42.78.78,0,0,0,.21.29.83.83,0,0,0,.31.16A1.6,1.6,0,0,0,175.91,112.94Z"/><path class="b6547c22-cc11-4a37-84e5-ffd897bc62a8" d="M184.58,113.6a.28.28,0,0,1-.29-.23l-.09-.73a3.36,3.36,0,0,1-.9.75,2.37,2.37,0,0,1-2.09.09,2,2,0,0,1-.73-.59,2.91,2.91,0,0,1-.46-1,5,5,0,0,1-.16-1.34,4.15,4.15,0,0,1,.18-1.25,3,3,0,0,1,.52-1,2.42,2.42,0,0,1,.82-.67,2.45,2.45,0,0,1,1.11-.24,2.12,2.12,0,0,1,.95.19,2.24,2.24,0,0,1,.71.53v-3.37h1.07v8.84Zm-2.07-.78a1.69,1.69,0,0,0,.91-.24,2.59,2.59,0,0,0,.73-.68V109a1.69,1.69,0,0,0-.65-.56,1.94,1.94,0,0,0-.78-.16,1.54,1.54,0,0,0-1.3.61,2.78,2.78,0,0,0-.46,1.73,4.26,4.26,0,0,0,.1,1,2,2,0,0,0,.3.7,1.18,1.18,0,0,0,.49.4A1.69,1.69,0,0,0,182.51,112.82Z"/><path class="b6547c22-cc11-4a37-84e5-ffd897bc62a8" d="M190.49,108.52a.23.23,0,0,1-.22.13.48.48,0,0,1-.21-.06,3,3,0,0,0-.67-.3,1.73,1.73,0,0,0-.54-.07,1.43,1.43,0,0,0-.48.07,1,1,0,0,0-.37.19.8.8,0,0,0-.24.28.77.77,0,0,0-.08.34.56.56,0,0,0,.14.39,1.06,1.06,0,0,0,.35.27,3,3,0,0,0,.51.2l.58.19c.19.06.39.14.58.22a2.29,2.29,0,0,1,.5.3,1.29,1.29,0,0,1,.36.44,1.34,1.34,0,0,1,.13.63,2,2,0,0,1-.15.77,1.71,1.71,0,0,1-.44.62,2.3,2.3,0,0,1-.72.41,3,3,0,0,1-1,.15,3,3,0,0,1-1.15-.21,2.6,2.6,0,0,1-.87-.53l.25-.4a.26.26,0,0,1,.11-.12.3.3,0,0,1,.18-.05.37.37,0,0,1,.22.09l.29.18a2.76,2.76,0,0,0,.42.19,1.77,1.77,0,0,0,.61.08,1.46,1.46,0,0,0,.54-.08.93.93,0,0,0,.39-.22.76.76,0,0,0,.23-.31,1,1,0,0,0,.08-.39.64.64,0,0,0-.14-.42,1.11,1.11,0,0,0-.35-.28,3,3,0,0,0-.51-.2l-.58-.18-.58-.22a2.57,2.57,0,0,1-.51-.31,1.35,1.35,0,0,1-.49-1.12,1.64,1.64,0,0,1,.56-1.24,1.94,1.94,0,0,1,.68-.38,2.61,2.61,0,0,1,.92-.15,2.76,2.76,0,0,1,1.07.19,2.6,2.6,0,0,1,.83.52Z"/><rect class="44aa3d58-a0f9-456c-9d3f-09c8942708f3" x="193.67" y="104.17" width="17.83" height="12" rx="2.18" ry="2.18"/><path class="b6547c22-cc11-4a37-84e5-ffd897bc62a8" d="M202.56,109.65a4,4,0,0,1-.1.93,3.68,3.68,0,0,1-.28.83,3.76,3.76,0,0,1-.46.71,3.31,3.31,0,0,1-.62.56l1.84,2h-1.11a1.44,1.44,0,0,1-.43-.06.82.82,0,0,1-.36-.24L200,113.21a3,3,0,0,1-.52.1,3.36,3.36,0,0,1-.56,0,3.8,3.8,0,0,1-1.49-.28,3.32,3.32,0,0,1-1.16-.77,3.56,3.56,0,0,1-.75-1.17,4.16,4.16,0,0,1,0-2.95,3.56,3.56,0,0,1,.75-1.17,3.32,3.32,0,0,1,1.16-.77,4.13,4.13,0,0,1,3,0,3.42,3.42,0,0,1,1.15.77,3.56,3.56,0,0,1,.75,1.17A4,4,0,0,1,202.56,109.65Zm-1.38,0a3.48,3.48,0,0,0-.15-1.06,2.16,2.16,0,0,0-.46-.8,1.82,1.82,0,0,0-.71-.51,2.62,2.62,0,0,0-1.91,0,1.93,1.93,0,0,0-.72.51,2.16,2.16,0,0,0-.46.8,3.62,3.62,0,0,0,0,2.13,2.24,2.24,0,0,0,.46.8,1.91,1.91,0,0,0,.72.5,2.62,2.62,0,0,0,1.91,0,1.8,1.8,0,0,0,.71-.5,2.24,2.24,0,0,0,.46-.8A3.5,3.5,0,0,0,201.18,109.65Z"/><path class="b6547c22-cc11-4a37-84e5-ffd897bc62a8" d="M208.6,111.56a.23.23,0,0,1,.18.09l.53.57a2.78,2.78,0,0,1-1.08.84,3.78,3.78,0,0,1-1.54.29,3.71,3.71,0,0,1-1.45-.27,3.31,3.31,0,0,1-1.1-.77,3.42,3.42,0,0,1-.69-1.17,4.43,4.43,0,0,1-.25-1.49,4,4,0,0,1,.27-1.49,3.44,3.44,0,0,1,.76-1.16,3.4,3.4,0,0,1,1.18-.77,4,4,0,0,1,1.5-.27,3.58,3.58,0,0,1,1.41.26,3.24,3.24,0,0,1,1,.68l-.45.62a.35.35,0,0,1-.1.11.29.29,0,0,1-.17,0,.4.4,0,0,1-.24-.09l-.3-.19a2.36,2.36,0,0,0-.47-.2,2.43,2.43,0,0,0-.72-.09,2.34,2.34,0,0,0-.93.18,2.13,2.13,0,0,0-.74.51,2.54,2.54,0,0,0-.48.8,3.23,3.23,0,0,0-.17,1.06,3.33,3.33,0,0,0,.17,1.09,2.42,2.42,0,0,0,.47.8,2.1,2.1,0,0,0,.69.5,2.27,2.27,0,0,0,.86.17,3.73,3.73,0,0,0,.5,0,1.64,1.64,0,0,0,.41-.1,1.46,1.46,0,0,0,.36-.16,3.59,3.59,0,0,0,.33-.25.35.35,0,0,1,.1-.08A.28.28,0,0,1,208.6,111.56Z"/><rect class="44aa3d58-a0f9-456c-9d3f-09c8942708f3" x="201.67" y="138.5" width="17.83" height="12" rx="2.18" ry="2.18"/><path class="b6547c22-cc11-4a37-84e5-ffd897bc62a8" d="M210.56,144a4.08,4.08,0,0,1-.1.93,3.6,3.6,0,0,1-.28.82,3.46,3.46,0,0,1-.46.71,3,3,0,0,1-.62.57l1.84,2h-1.11a1.18,1.18,0,0,1-.43-.07.82.82,0,0,1-.36-.24L208,147.54a3,3,0,0,1-.52.11,5,5,0,0,1-.56,0,4,4,0,0,1-1.49-.27,3.49,3.49,0,0,1-1.16-.78,3.56,3.56,0,0,1-.75-1.17,4.14,4.14,0,0,1,0-2.94,3.5,3.5,0,0,1,.75-1.18,3.46,3.46,0,0,1,1.16-.77,4.13,4.13,0,0,1,3,0,3.44,3.44,0,0,1,1.15.78,3.36,3.36,0,0,1,.75,1.17A3.92,3.92,0,0,1,210.56,144Zm-1.38,0a3.55,3.55,0,0,0-.15-1.07,2.33,2.33,0,0,0-.46-.8,1.93,1.93,0,0,0-.71-.51,2.77,2.77,0,0,0-1.91,0,2.05,2.05,0,0,0-.72.51,2.33,2.33,0,0,0-.46.8,3.25,3.25,0,0,0-.16,1.07,3.29,3.29,0,0,0,.16,1.07,2.33,2.33,0,0,0,.46.8,2.16,2.16,0,0,0,.72.5,2.77,2.77,0,0,0,1.91,0,2,2,0,0,0,.71-.5,2.33,2.33,0,0,0,.46-.8A3.59,3.59,0,0,0,209.18,144Z"/><path class="b6547c22-cc11-4a37-84e5-ffd897bc62a8" d="M216.6,145.9a.25.25,0,0,1,.18.08l.53.58a2.85,2.85,0,0,1-1.08.83,3.62,3.62,0,0,1-1.54.29,3.71,3.71,0,0,1-1.45-.27,3.31,3.31,0,0,1-1.1-.77,3.24,3.24,0,0,1-.69-1.17,4.38,4.38,0,0,1-.25-1.48,4,4,0,0,1,.27-1.49,3.48,3.48,0,0,1,.76-1.17,3.38,3.38,0,0,1,1.18-.76,3.82,3.82,0,0,1,1.5-.28,3.58,3.58,0,0,1,1.41.26,3.24,3.24,0,0,1,1,.68l-.45.63a.32.32,0,0,1-.1.1.29.29,0,0,1-.17,0,.4.4,0,0,1-.24-.09,3.11,3.11,0,0,0-.3-.2,2.4,2.4,0,0,0-.47-.19,2.43,2.43,0,0,0-.72-.09,2.34,2.34,0,0,0-.93.18,2,2,0,0,0-.74.5,2.49,2.49,0,0,0-.48.81,3.14,3.14,0,0,0-.17,1.06,3.26,3.26,0,0,0,.17,1.08,2.32,2.32,0,0,0,.47.8,2,2,0,0,0,.69.5,2.1,2.1,0,0,0,.86.17,3.73,3.73,0,0,0,.5,0,2.26,2.26,0,0,0,.41-.09,1.49,1.49,0,0,0,.36-.17,2.39,2.39,0,0,0,.33-.25.3.3,0,0,1,.1-.07A.28.28,0,0,1,216.6,145.9Z"/><rect class="44aa3d58-a0f9-456c-9d3f-09c8942708f3" x="216.67" y="170.5" width="17.83" height="12" rx="2.18" ry="2.18"/><path class="b6547c22-cc11-4a37-84e5-ffd897bc62a8" d="M225.56,176a4.08,4.08,0,0,1-.1.93,3.6,3.6,0,0,1-.28.82,3.46,3.46,0,0,1-.46.71,3,3,0,0,1-.62.57l1.84,2h-1.11a1.18,1.18,0,0,1-.43-.07.82.82,0,0,1-.36-.24L223,179.54a3,3,0,0,1-.52.11,5,5,0,0,1-.56,0,4,4,0,0,1-1.49-.27,3.49,3.49,0,0,1-1.16-.78,3.56,3.56,0,0,1-.75-1.17,4.14,4.14,0,0,1,0-2.94,3.5,3.5,0,0,1,.75-1.18,3.46,3.46,0,0,1,1.16-.77,4.13,4.13,0,0,1,3,0,3.44,3.44,0,0,1,1.15.78,3.36,3.36,0,0,1,.75,1.17A3.92,3.92,0,0,1,225.56,176Zm-1.38,0a3.55,3.55,0,0,0-.15-1.07,2.33,2.33,0,0,0-.46-.8,1.93,1.93,0,0,0-.71-.51,2.77,2.77,0,0,0-1.91,0,2.05,2.05,0,0,0-.72.51,2.33,2.33,0,0,0-.46.8,3.25,3.25,0,0,0-.16,1.07,3.29,3.29,0,0,0,.16,1.07,2.33,2.33,0,0,0,.46.8,2.16,2.16,0,0,0,.72.5,2.77,2.77,0,0,0,1.91,0,2,2,0,0,0,.71-.5,2.33,2.33,0,0,0,.46-.8A3.59,3.59,0,0,0,224.18,176Z"/><path class="b6547c22-cc11-4a37-84e5-ffd897bc62a8" d="M231.6,177.9a.25.25,0,0,1,.18.08l.53.58a2.85,2.85,0,0,1-1.08.83,3.62,3.62,0,0,1-1.54.29,3.71,3.71,0,0,1-1.45-.27,3.31,3.31,0,0,1-1.1-.77,3.24,3.24,0,0,1-.69-1.17,4.38,4.38,0,0,1-.25-1.48,4,4,0,0,1,.27-1.49,3.48,3.48,0,0,1,.76-1.17,3.38,3.38,0,0,1,1.18-.76,3.82,3.82,0,0,1,1.5-.28,3.58,3.58,0,0,1,1.41.26,3.24,3.24,0,0,1,1,.68l-.45.63a.32.32,0,0,1-.1.1.29.29,0,0,1-.17,0,.4.4,0,0,1-.24-.09,3.11,3.11,0,0,0-.3-.2,2.4,2.4,0,0,0-.47-.19,2.43,2.43,0,0,0-.72-.09,2.34,2.34,0,0,0-.93.18,2,2,0,0,0-.74.5,2.49,2.49,0,0,0-.48.81,3.14,3.14,0,0,0-.17,1.06,3.26,3.26,0,0,0,.17,1.08,2.32,2.32,0,0,0,.47.8,2,2,0,0,0,.69.5,2.1,2.1,0,0,0,.86.17,3.73,3.73,0,0,0,.5,0,2.26,2.26,0,0,0,.41-.09,1.49,1.49,0,0,0,.36-.17,2.39,2.39,0,0,0,.33-.25.3.3,0,0,1,.1-.07A.28.28,0,0,1,231.6,177.9Z"/><rect class="44aa3d58-a0f9-456c-9d3f-09c8942708f3" x="79" y="54.17" width="17.83" height="12" rx="2.18" ry="2.18"/><path class="b6547c22-cc11-4a37-84e5-ffd897bc62a8" d="M87.9,59.65a4,4,0,0,1-.1.93,3.7,3.7,0,0,1-.29.83,3.32,3.32,0,0,1-.46.71,3.25,3.25,0,0,1-.61.56l1.83,2H87.16a1.44,1.44,0,0,1-.43-.06.74.74,0,0,1-.35-.24l-1.06-1.17a3.18,3.18,0,0,1-.52.1,3.43,3.43,0,0,1-.56,0,3.82,3.82,0,0,1-1.5-.28,3.32,3.32,0,0,1-1.16-.77,3.56,3.56,0,0,1-.75-1.17,4.31,4.31,0,0,1,0-3A3.56,3.56,0,0,1,81.58,57a3.32,3.32,0,0,1,1.16-.77,4.13,4.13,0,0,1,3,0,3.46,3.46,0,0,1,1.16.77,3.38,3.38,0,0,1,.74,1.17A4,4,0,0,1,87.9,59.65Zm-1.38,0a3.19,3.19,0,0,0-.16-1.06,2.14,2.14,0,0,0-.45-.8,1.93,1.93,0,0,0-.72-.51,2.4,2.4,0,0,0-1-.18,2.49,2.49,0,0,0-1,.18,1.93,1.93,0,0,0-.72.51,2.16,2.16,0,0,0-.46.8,3.62,3.62,0,0,0,0,2.13,2.24,2.24,0,0,0,.46.8,1.91,1.91,0,0,0,.72.5,2.49,2.49,0,0,0,1,.18,2.4,2.4,0,0,0,1-.18,1.91,1.91,0,0,0,.72-.5,2.22,2.22,0,0,0,.45-.8A3.21,3.21,0,0,0,86.52,59.65Z"/><path class="b6547c22-cc11-4a37-84e5-ffd897bc62a8" d="M93.93,61.56a.26.26,0,0,1,.19.09l.53.57a2.93,2.93,0,0,1-1.08.84,3.83,3.83,0,0,1-1.55.29,3.66,3.66,0,0,1-1.44-.27,3.21,3.21,0,0,1-1.1-.77,3.44,3.44,0,0,1-.7-1.17,4.44,4.44,0,0,1-.24-1.49,4,4,0,0,1,.27-1.49A3.3,3.3,0,0,1,89.57,57a3.36,3.36,0,0,1,1.17-.77A4.1,4.1,0,0,1,92.25,56a3.65,3.65,0,0,1,1.41.26,3.36,3.36,0,0,1,1,.68l-.45.62a.52.52,0,0,1-.1.11.32.32,0,0,1-.18,0,.4.4,0,0,1-.23-.09,2.48,2.48,0,0,0-.31-.19,2.53,2.53,0,0,0-.46-.2,2.69,2.69,0,0,0-1.66.09,2.09,2.09,0,0,0-.73.51,2.22,2.22,0,0,0-.48.8,3,3,0,0,0-.18,1.06,3.08,3.08,0,0,0,.18,1.09,2.4,2.4,0,0,0,.46.8,2,2,0,0,0,.7.5,2.2,2.2,0,0,0,.86.17,3.84,3.84,0,0,0,.5,0,1.89,1.89,0,0,0,.41-.1,1.58,1.58,0,0,0,.35-.16,3.59,3.59,0,0,0,.33-.25.38.38,0,0,1,.11-.08A.27.27,0,0,1,93.93,61.56Z"/><rect class="44aa3d58-a0f9-456c-9d3f-09c8942708f3" x="83.67" y="95.5" width="17.83" height="12" rx="2.18" ry="2.18"/><path class="b6547c22-cc11-4a37-84e5-ffd897bc62a8" d="M92.56,101a4.08,4.08,0,0,1-.1.93,3.6,3.6,0,0,1-.28.82,3.46,3.46,0,0,1-.46.71,3,3,0,0,1-.62.57l1.84,2H91.83a1.18,1.18,0,0,1-.43-.07.82.82,0,0,1-.36-.24L90,104.54a3,3,0,0,1-.52.11,5,5,0,0,1-.56,0,4,4,0,0,1-1.49-.27,3.49,3.49,0,0,1-1.16-.78,3.56,3.56,0,0,1-.75-1.17,4.14,4.14,0,0,1,0-2.94,3.5,3.5,0,0,1,.75-1.18,3.46,3.46,0,0,1,1.16-.77,4.13,4.13,0,0,1,3,0,3.44,3.44,0,0,1,1.15.78,3.36,3.36,0,0,1,.75,1.17A3.92,3.92,0,0,1,92.56,101Zm-1.38,0A3.55,3.55,0,0,0,91,99.92a2.33,2.33,0,0,0-.46-.8,1.93,1.93,0,0,0-.71-.51,2.77,2.77,0,0,0-1.91,0,2.05,2.05,0,0,0-.72.51,2.33,2.33,0,0,0-.46.8,3.25,3.25,0,0,0-.16,1.07,3.29,3.29,0,0,0,.16,1.07,2.33,2.33,0,0,0,.46.8,2.16,2.16,0,0,0,.72.5,2.77,2.77,0,0,0,1.91,0,2,2,0,0,0,.71-.5,2.33,2.33,0,0,0,.46-.8A3.59,3.59,0,0,0,91.18,101Z"/><path class="b6547c22-cc11-4a37-84e5-ffd897bc62a8" d="M98.6,102.9a.25.25,0,0,1,.18.08l.53.58a2.85,2.85,0,0,1-1.08.83,3.62,3.62,0,0,1-1.54.29,3.71,3.71,0,0,1-1.45-.27,3.31,3.31,0,0,1-1.1-.77,3.24,3.24,0,0,1-.69-1.17A4.38,4.38,0,0,1,93.2,101a4,4,0,0,1,.27-1.49,3.48,3.48,0,0,1,.76-1.17,3.38,3.38,0,0,1,1.18-.76,3.85,3.85,0,0,1,1.5-.28,3.58,3.58,0,0,1,1.41.26,3.24,3.24,0,0,1,1,.68l-.45.63a.32.32,0,0,1-.1.1.29.29,0,0,1-.17.05.4.4,0,0,1-.24-.09l-.3-.2a2.4,2.4,0,0,0-.47-.19,2.43,2.43,0,0,0-.72-.09,2.34,2.34,0,0,0-.93.18,2,2,0,0,0-.74.5,2.49,2.49,0,0,0-.48.81,3.14,3.14,0,0,0-.17,1.06,3.26,3.26,0,0,0,.17,1.08,2.32,2.32,0,0,0,.47.8,2,2,0,0,0,.69.5,2.1,2.1,0,0,0,.86.17,3.73,3.73,0,0,0,.5,0,2.26,2.26,0,0,0,.41-.09,1.49,1.49,0,0,0,.36-.17,2.39,2.39,0,0,0,.33-.25.3.3,0,0,1,.1-.07A.28.28,0,0,1,98.6,102.9Z"/><path class="b6547c22-cc11-4a37-84e5-ffd897bc62a8" d="M157.63,144.79l.12.32c0-.11.09-.22.13-.32a2.89,2.89,0,0,1,.15-.31l2.91-5.28a.33.33,0,0,1,.16-.17.78.78,0,0,1,.24,0h.86v8.6h-1v-6.32a2.44,2.44,0,0,1,0-.27c0-.1,0-.2,0-.3l-2.94,5.38a.46.46,0,0,1-.42.27h-.17a.46.46,0,0,1-.42-.27l-3-5.39c0,.1,0,.2,0,.3a2.72,2.72,0,0,1,0,.28v6.32h-1V139h.86a.7.7,0,0,1,.24,0,.3.3,0,0,1,.16.17l3,5.29A1.4,1.4,0,0,1,157.63,144.79Z"/><path class="b6547c22-cc11-4a37-84e5-ffd897bc62a8" d="M168.59,147.6h-.47a.63.63,0,0,1-.26,0,.27.27,0,0,1-.12-.21l-.12-.56-.47.39a2.92,2.92,0,0,1-.48.29,2.86,2.86,0,0,1-1.17.23,2,2,0,0,1-.66-.1,1.3,1.3,0,0,1-.54-.3,1.43,1.43,0,0,1-.36-.5,1.74,1.74,0,0,1-.14-.72,1.34,1.34,0,0,1,.2-.69,1.78,1.78,0,0,1,.64-.6,4.22,4.22,0,0,1,1.15-.42,7.91,7.91,0,0,1,1.75-.17v-.47a1.66,1.66,0,0,0-.3-1.08,1.12,1.12,0,0,0-.9-.37,2.08,2.08,0,0,0-.66.1,2.83,2.83,0,0,0-.46.22l-.34.23a.5.5,0,0,1-.27.1.29.29,0,0,1-.19-.06.43.43,0,0,1-.13-.14l-.19-.34a3.28,3.28,0,0,1,1.08-.73,3.37,3.37,0,0,1,1.29-.24,2.38,2.38,0,0,1,.91.17,1.85,1.85,0,0,1,.66.47,2,2,0,0,1,.41.72,3.14,3.14,0,0,1,.14.94Zm-2.77-.66a2,2,0,0,0,.51-.06,1.54,1.54,0,0,0,.44-.16,2.42,2.42,0,0,0,.4-.25,3.92,3.92,0,0,0,.37-.34v-1.26a6.38,6.38,0,0,0-1.25.1,3.28,3.28,0,0,0-.84.24,1.16,1.16,0,0,0-.48.36.8.8,0,0,0-.14.45.9.9,0,0,0,.08.42.78.78,0,0,0,.21.29.76.76,0,0,0,.31.16A1.6,1.6,0,0,0,165.82,146.94Z"/><path class="b6547c22-cc11-4a37-84e5-ffd897bc62a8" d="M170.21,149.65v-8.13h.64a.26.26,0,0,1,.28.22l.09.72a3.19,3.19,0,0,1,.89-.76,2.32,2.32,0,0,1,1.16-.29,2.28,2.28,0,0,1,.95.2,2,2,0,0,1,.72.6,2.83,2.83,0,0,1,.47,1,5.35,5.35,0,0,1,.16,1.34,4.2,4.2,0,0,1-.18,1.25,2.88,2.88,0,0,1-.52,1,2.42,2.42,0,0,1-.82.67,2.5,2.5,0,0,1-1.1.24,2.11,2.11,0,0,1-1.67-.71v2.68Zm2.71-7.38a1.73,1.73,0,0,0-.92.24,2.7,2.7,0,0,0-.72.68v2.94a1.66,1.66,0,0,0,.64.56,1.86,1.86,0,0,0,.79.16,1.55,1.55,0,0,0,1.3-.6,2.87,2.87,0,0,0,.45-1.73,4.29,4.29,0,0,0-.1-1,2,2,0,0,0-.3-.7,1.24,1.24,0,0,0-.49-.4A1.67,1.67,0,0,0,172.92,142.27Z"/><path class="b6547c22-cc11-4a37-84e5-ffd897bc62a8" d="M176.83,149.65v-8.13h.64a.27.27,0,0,1,.29.22l.09.72a3.06,3.06,0,0,1,.89-.76,2.28,2.28,0,0,1,1.15-.29,2.24,2.24,0,0,1,1,.2,1.92,1.92,0,0,1,.73.6,2.82,2.82,0,0,1,.46,1,4.92,4.92,0,0,1,.16,1.34,4.2,4.2,0,0,1-.18,1.25,3,3,0,0,1-.51,1,2.38,2.38,0,0,1-1.93.91,2.13,2.13,0,0,1-1-.19,2.24,2.24,0,0,1-.71-.52v2.68Zm2.71-7.38a1.75,1.75,0,0,0-.92.24,2.7,2.7,0,0,0-.72.68v2.94a1.69,1.69,0,0,0,.65.56,1.78,1.78,0,0,0,.78.16,1.53,1.53,0,0,0,1.3-.6,2.8,2.8,0,0,0,.46-1.73,4.24,4.24,0,0,0-.11-1,2,2,0,0,0-.3-.7,1.12,1.12,0,0,0-.49-.4A1.67,1.67,0,0,0,179.54,142.27Z"/><path class="b6547c22-cc11-4a37-84e5-ffd897bc62a8" d="M184.89,139.61a.59.59,0,0,1-.07.29.77.77,0,0,1-.41.41.72.72,0,0,1-.29.06.68.68,0,0,1-.29-.06.87.87,0,0,1-.41-.41.72.72,0,0,1-.06-.29.81.81,0,0,1,.47-.71.68.68,0,0,1,.29-.06.72.72,0,0,1,.29.06.77.77,0,0,1,.41.41A.66.66,0,0,1,184.89,139.61Zm-.24,1.91v6.08h-1.07v-6.08Z"/><path class="b6547c22-cc11-4a37-84e5-ffd897bc62a8" d="M186.53,147.6v-6.08h.64a.26.26,0,0,1,.28.22l.09.66a3.48,3.48,0,0,1,.88-.71,2.33,2.33,0,0,1,1.13-.27,2.16,2.16,0,0,1,.88.17,1.67,1.67,0,0,1,.64.46,2.22,2.22,0,0,1,.39.73,3.52,3.52,0,0,1,.13.95v3.87h-1.07v-3.87a1.63,1.63,0,0,0-.32-1.07,1.16,1.16,0,0,0-1-.39,1.81,1.81,0,0,0-.88.23,2.76,2.76,0,0,0-.76.62v4.48Z"/><path class="b6547c22-cc11-4a37-84e5-ffd897bc62a8" d="M195.25,141.42a3.5,3.5,0,0,1,.74.08,2.53,2.53,0,0,1,.63.26h1.64v.39c0,.14-.08.22-.25.26l-.69.09a1.81,1.81,0,0,1,.21.87,1.92,1.92,0,0,1-.17.81,2,2,0,0,1-.48.62,2.28,2.28,0,0,1-.72.4,2.94,2.94,0,0,1-.91.13,3,3,0,0,1-.81-.1,1.08,1.08,0,0,0-.29.27.53.53,0,0,0-.1.28.38.38,0,0,0,.18.34,1.24,1.24,0,0,0,.46.16,4.19,4.19,0,0,0,.65.05h.75a3.81,3.81,0,0,1,.75.07,1.92,1.92,0,0,1,.65.22,1.22,1.22,0,0,1,.46.41,1.23,1.23,0,0,1,.18.7,1.6,1.6,0,0,1-.2.76,1.94,1.94,0,0,1-.56.66,2.77,2.77,0,0,1-.89.46,3.69,3.69,0,0,1-1.2.18,4.44,4.44,0,0,1-1.16-.14,2.44,2.44,0,0,1-.83-.35,1.61,1.61,0,0,1-.5-.51,1.24,1.24,0,0,1-.16-.61,1.11,1.11,0,0,1,.28-.77,1.91,1.91,0,0,1,.78-.5,1.11,1.11,0,0,1-.41-.32.87.87,0,0,1-.15-.54.86.86,0,0,1,.05-.27,1.22,1.22,0,0,1,.14-.28,1.52,1.52,0,0,1,.25-.26,1.27,1.27,0,0,1,.33-.22,1.83,1.83,0,0,1-1-1.65,1.91,1.91,0,0,1,.17-.8,1.85,1.85,0,0,1,.48-.62,2.45,2.45,0,0,1,.73-.4A3,3,0,0,1,195.25,141.42Zm1.89,6.48a.57.57,0,0,0-.12-.37,1.05,1.05,0,0,0-.34-.22,3.1,3.1,0,0,0-.5-.11,5.66,5.66,0,0,0-.6,0H195a2.11,2.11,0,0,1-.62-.08,1.82,1.82,0,0,0-.56.4.81.81,0,0,0-.21.56.76.76,0,0,0,.11.38.87.87,0,0,0,.32.31,2,2,0,0,0,.54.2,3.5,3.5,0,0,0,.77.08,3.67,3.67,0,0,0,.78-.08,2,2,0,0,0,.57-.23,1.13,1.13,0,0,0,.37-.35A.84.84,0,0,0,197.14,147.9Zm-1.89-3.27a1.7,1.7,0,0,0,.57-.09,1.11,1.11,0,0,0,.42-.26,1,1,0,0,0,.25-.38,1.35,1.35,0,0,0,.08-.5,1.18,1.18,0,0,0-.34-.89,1.62,1.62,0,0,0-2,0,1.18,1.18,0,0,0-.34.89,1.59,1.59,0,0,0,.08.5,1,1,0,0,0,.26.38,1.15,1.15,0,0,0,.41.26A1.7,1.7,0,0,0,195.25,144.63Z"/><path class="b6547c22-cc11-4a37-84e5-ffd897bc62a8" d="M146.38,175.8a5.34,5.34,0,0,1-.12,1.15,5.11,5.11,0,0,1-.36,1,4.21,4.21,0,0,1-.57.85,4,4,0,0,1-.76.67l2.21,2.38h-1a1.12,1.12,0,0,1-.38-.06.72.72,0,0,1-.31-.21L143.62,180a5.65,5.65,0,0,1-.71.17,4.9,4.9,0,0,1-.77.06,4.56,4.56,0,0,1-1.73-.32,3.93,3.93,0,0,1-1.34-.91,4,4,0,0,1-.86-1.39,5.21,5.21,0,0,1,0-3.54,4.17,4.17,0,0,1,.86-1.4,3.91,3.91,0,0,1,1.34-.9,4.7,4.7,0,0,1,3.46,0,3.91,3.91,0,0,1,1.34.9,4.17,4.17,0,0,1,.86,1.4A4.84,4.84,0,0,1,146.38,175.8Zm-1.2,0a4.46,4.46,0,0,0-.21-1.42,3.19,3.19,0,0,0-.61-1.07,2.82,2.82,0,0,0-1-.67,3.57,3.57,0,0,0-2.52,0,2.73,2.73,0,0,0-1,.67,3,3,0,0,0-.62,1.07,4.91,4.91,0,0,0,0,2.84,3,3,0,0,0,.62,1.06,2.73,2.73,0,0,0,1,.67,3.57,3.57,0,0,0,2.52,0,2.82,2.82,0,0,0,1-.67,3.14,3.14,0,0,0,.61-1.06A4.46,4.46,0,0,0,145.18,175.8Z"/><path class="b6547c22-cc11-4a37-84e5-ffd897bc62a8" d="M148.72,174v3.87A1.63,1.63,0,0,0,149,179a1.19,1.19,0,0,0,1,.38,1.8,1.8,0,0,0,.88-.22,3,3,0,0,0,.77-.62V174h1.06v6.08h-.63a.28.28,0,0,1-.29-.23l-.08-.65a3.28,3.28,0,0,1-.89.7,2.33,2.33,0,0,1-1.13.27,2.19,2.19,0,0,1-.88-.16,1.78,1.78,0,0,1-.64-.47,2.08,2.08,0,0,1-.39-.72,3.53,3.53,0,0,1-.12-1V174Z"/><path class="b6547c22-cc11-4a37-84e5-ffd897bc62a8" d="M158.94,180.1h-.48a.58.58,0,0,1-.25,0,.28.28,0,0,1-.13-.21l-.12-.56-.46.39a4.09,4.09,0,0,1-.48.29,2.86,2.86,0,0,1-1.17.23,2.09,2.09,0,0,1-.67-.1,1.48,1.48,0,0,1-.9-.8,1.75,1.75,0,0,1-.13-.72,1.25,1.25,0,0,1,.2-.69,1.74,1.74,0,0,1,.63-.6,4.3,4.3,0,0,1,1.16-.42,7.91,7.91,0,0,1,1.75-.17v-.47a1.66,1.66,0,0,0-.31-1.08,1.1,1.1,0,0,0-.89-.37,2.08,2.08,0,0,0-.66.1,2.83,2.83,0,0,0-.46.22l-.34.23a.53.53,0,0,1-.28.1.33.33,0,0,1-.19-.06.86.86,0,0,1-.13-.14l-.19-.34a3.42,3.42,0,0,1,1.09-.73,3.37,3.37,0,0,1,1.29-.24,2.29,2.29,0,0,1,.9.17,1.8,1.8,0,0,1,.67.47,2,2,0,0,1,.41.72,3.14,3.14,0,0,1,.14.94Zm-2.78-.66a2.12,2.12,0,0,0,.52-.06,1.65,1.65,0,0,0,.44-.16,2.42,2.42,0,0,0,.4-.25c.12-.1.25-.22.37-.34v-1.26a6.49,6.49,0,0,0-1.26.1,3.55,3.55,0,0,0-.84.24,1.2,1.2,0,0,0-.47.36.74.74,0,0,0-.15.45,1,1,0,0,0,.08.42.78.78,0,0,0,.21.29.83.83,0,0,0,.31.16A1.6,1.6,0,0,0,156.16,179.44Z"/><path class="b6547c22-cc11-4a37-84e5-ffd897bc62a8" d="M160.56,180.1V174h.63a.27.27,0,0,1,.29.22l.08.66a3.52,3.52,0,0,1,.89-.71,2.28,2.28,0,0,1,1.13-.27,2.23,2.23,0,0,1,.88.17,1.71,1.71,0,0,1,.63.46,2.22,2.22,0,0,1,.39.73,3.16,3.16,0,0,1,.13.95v3.87h-1.06v-3.87a1.63,1.63,0,0,0-.32-1.07,1.16,1.16,0,0,0-1-.39,1.84,1.84,0,0,0-.89.23,3.09,3.09,0,0,0-.76.62v4.48Z"/><path class="b6547c22-cc11-4a37-84e5-ffd897bc62a8" d="M169.07,180.19a1.47,1.47,0,0,1-1.11-.4,1.59,1.59,0,0,1-.38-1.16v-3.72h-.74a.25.25,0,0,1-.16-.06.21.21,0,0,1-.06-.17v-.43l1-.12.25-1.88a.22.22,0,0,1,.08-.15.23.23,0,0,1,.16-.06h.54v2.1h1.74v.77h-1.74v3.65a.78.78,0,0,0,.19.57.66.66,0,0,0,.48.19.84.84,0,0,0,.29,0,1,1,0,0,0,.21-.1l.16-.1a.19.19,0,0,1,.11,0,.19.19,0,0,1,.15.1l.31.51a1.87,1.87,0,0,1-.67.4A2.18,2.18,0,0,1,169.07,180.19Z"/><path class="b6547c22-cc11-4a37-84e5-ffd897bc62a8" d="M173.13,172.11a.72.72,0,0,1-.06.29.87.87,0,0,1-.41.41.73.73,0,0,1-.3.06.72.72,0,0,1-.29-.06.81.81,0,0,1-.24-.17.78.78,0,0,1-.16-.24.72.72,0,0,1-.06-.29.8.8,0,0,1,.06-.3.78.78,0,0,1,.16-.24.81.81,0,0,1,.24-.17.72.72,0,0,1,.29-.06.73.73,0,0,1,.3.06.77.77,0,0,1,.47.71Zm-.24,1.91v6.08h-1.07V174Z"/><path class="b6547c22-cc11-4a37-84e5-ffd897bc62a8" d="M175,180.1v-5.17l-.68-.08a.53.53,0,0,1-.2-.09.19.19,0,0,1-.08-.18v-.44h1v-.34a2.8,2.8,0,0,1,.17-1,2.17,2.17,0,0,1,.52-.8,2.22,2.22,0,0,1,.87-.52,3.42,3.42,0,0,1,1.21-.19l.46,0a1.93,1.93,0,0,1,.41.09l0,.56a.13.13,0,0,1-.07.1l-.18,0h-.3a2.2,2.2,0,0,0-1.54.44,1.66,1.66,0,0,0-.49,1.32v.31h3.68v6h-1.07v-5.19h-2.57v5.19Z"/><path class="b6547c22-cc11-4a37-84e5-ffd897bc62a8" d="M185.76,175.1a.32.32,0,0,1-.1.1.22.22,0,0,1-.13,0,.37.37,0,0,1-.2-.08l-.26-.16a2.18,2.18,0,0,0-.4-.17,1.82,1.82,0,0,0-.56-.07,1.8,1.8,0,0,0-.79.16,1.4,1.4,0,0,0-.57.45,2.06,2.06,0,0,0-.35.73,3.48,3.48,0,0,0-.12,1,3.35,3.35,0,0,0,.13,1,2.05,2.05,0,0,0,.35.71,1.44,1.44,0,0,0,.56.45,1.7,1.7,0,0,0,.73.15,1.89,1.89,0,0,0,.64-.09,1.64,1.64,0,0,0,.42-.21,1.7,1.7,0,0,0,.28-.21.33.33,0,0,1,.22-.09.25.25,0,0,1,.2.1l.3.39a2.37,2.37,0,0,1-1,.72,3.73,3.73,0,0,1-1.25.22,2.64,2.64,0,0,1-1.06-.21,2.34,2.34,0,0,1-.85-.61,2.94,2.94,0,0,1-.57-1,3.91,3.91,0,0,1-.21-1.33,4.15,4.15,0,0,1,.19-1.25,2.88,2.88,0,0,1,.55-1,2.54,2.54,0,0,1,.9-.65,3,3,0,0,1,1.23-.24,2.8,2.8,0,0,1,1.12.21,2.71,2.71,0,0,1,.87.58Z"/><path class="b6547c22-cc11-4a37-84e5-ffd897bc62a8" d="M191.68,180.1h-.47a.55.55,0,0,1-.25,0,.25.25,0,0,1-.13-.21l-.12-.56-.47.39a2.92,2.92,0,0,1-.48.29,2.74,2.74,0,0,1-.53.17,3.1,3.1,0,0,1-.64.06,2.07,2.07,0,0,1-.66-.1,1.37,1.37,0,0,1-.54-.3,1.43,1.43,0,0,1-.36-.5,1.74,1.74,0,0,1-.14-.72,1.34,1.34,0,0,1,.2-.69,1.78,1.78,0,0,1,.64-.6,4.3,4.3,0,0,1,1.16-.42,7.81,7.81,0,0,1,1.74-.17v-.47a1.66,1.66,0,0,0-.3-1.08,1.11,1.11,0,0,0-.9-.37,2,2,0,0,0-.65.1,3,3,0,0,0-.47.22l-.33.23a.56.56,0,0,1-.28.1.31.31,0,0,1-.19-.06.57.57,0,0,1-.13-.14l-.19-.34a3.42,3.42,0,0,1,1.09-.73,3.3,3.3,0,0,1,1.29-.24,2.29,2.29,0,0,1,.9.17,1.8,1.8,0,0,1,.67.47,2.12,2.12,0,0,1,.41.72,3.14,3.14,0,0,1,.13.94Zm-2.77-.66a2.12,2.12,0,0,0,.52-.06,1.79,1.79,0,0,0,.44-.16,2,2,0,0,0,.39-.25,3.92,3.92,0,0,0,.37-.34v-1.26a6.38,6.38,0,0,0-1.25.1,3.41,3.41,0,0,0-.84.24,1.13,1.13,0,0,0-.47.36.74.74,0,0,0-.15.45,1,1,0,0,0,.08.42.78.78,0,0,0,.21.29.83.83,0,0,0,.31.16A1.6,1.6,0,0,0,188.91,179.44Z"/><path class="b6547c22-cc11-4a37-84e5-ffd897bc62a8" d="M195.14,180.19a1.44,1.44,0,0,1-1.1-.4,1.6,1.6,0,0,1-.39-1.16v-3.72h-.73a.21.21,0,0,1-.16-.06.18.18,0,0,1-.07-.17v-.43l1-.12.24-1.88a.28.28,0,0,1,.08-.15.25.25,0,0,1,.17-.06h.54v2.1h1.74v.77h-1.74v3.65a.74.74,0,0,0,.19.57.66.66,0,0,0,.48.19.88.88,0,0,0,.29,0,1,1,0,0,0,.21-.1l.15-.1a.19.19,0,0,1,.11,0,.17.17,0,0,1,.15.1l.31.51a1.83,1.83,0,0,1-.66.4A2.24,2.24,0,0,1,195.14,180.19Z"/><path class="b6547c22-cc11-4a37-84e5-ffd897bc62a8" d="M199.21,172.11a.59.59,0,0,1-.07.29.78.78,0,0,1-.16.24.85.85,0,0,1-.25.17.72.72,0,0,1-.29.06.68.68,0,0,1-.29-.06.87.87,0,0,1-.41-.41.72.72,0,0,1-.06-.29.81.81,0,0,1,.47-.71.68.68,0,0,1,.29-.06.72.72,0,0,1,.29.06.85.85,0,0,1,.25.17.78.78,0,0,1,.16.24A.66.66,0,0,1,199.21,172.11ZM199,174v6.08H197.9V174Z"/><path class="b6547c22-cc11-4a37-84e5-ffd897bc62a8" d="M203.31,173.92a3.25,3.25,0,0,1,1.2.22,2.6,2.6,0,0,1,.92.63,2.85,2.85,0,0,1,.57,1,4.29,4.29,0,0,1,0,2.59,2.72,2.72,0,0,1-.57,1,2.37,2.37,0,0,1-.92.63,3.06,3.06,0,0,1-1.2.22,3.09,3.09,0,0,1-1.2-.22,2.37,2.37,0,0,1-.92-.63,2.9,2.9,0,0,1-.58-1,4.29,4.29,0,0,1,0-2.59,3,3,0,0,1,.58-1,2.6,2.6,0,0,1,.92-.63A3.29,3.29,0,0,1,203.31,173.92Zm0,5.43a1.55,1.55,0,0,0,1.34-.61,2.75,2.75,0,0,0,.45-1.68,2.78,2.78,0,0,0-.45-1.69,1.53,1.53,0,0,0-1.34-.61,1.77,1.77,0,0,0-.79.16,1.37,1.37,0,0,0-.56.45,2,2,0,0,0-.34.72,4.33,4.33,0,0,0,0,1.94,2,2,0,0,0,.34.71,1.37,1.37,0,0,0,.56.45A1.92,1.92,0,0,0,203.31,179.35Z"/><path class="b6547c22-cc11-4a37-84e5-ffd897bc62a8" d="M207.52,180.1V174h.64a.27.27,0,0,1,.29.22l.08.66a3.36,3.36,0,0,1,.89-.71,2.28,2.28,0,0,1,1.13-.27,2.23,2.23,0,0,1,.88.17,1.71,1.71,0,0,1,.63.46,2.22,2.22,0,0,1,.39.73,3.16,3.16,0,0,1,.13.95v3.87h-1.07v-3.87a1.63,1.63,0,0,0-.31-1.07,1.17,1.17,0,0,0-1-.39,1.81,1.81,0,0,0-.88.23,2.92,2.92,0,0,0-.76.62v4.48Z"/><path class="b6547c22-cc11-4a37-84e5-ffd897bc62a8" d="M164.34,209a4.75,4.75,0,0,1-.31,1.76,3.77,3.77,0,0,1-.86,1.35,3.86,3.86,0,0,1-1.34.88,4.8,4.8,0,0,1-1.73.31h-3.21v-8.6h3.21a4.59,4.59,0,0,1,1.73.31,3.84,3.84,0,0,1,1.34.87,3.9,3.9,0,0,1,.86,1.36A4.75,4.75,0,0,1,164.34,209Zm-1.2,0a4.46,4.46,0,0,0-.21-1.42,3.19,3.19,0,0,0-.61-1.05,2.66,2.66,0,0,0-1-.66,3.4,3.4,0,0,0-1.26-.23h-2v6.71h2a3.4,3.4,0,0,0,1.26-.22,2.79,2.79,0,0,0,1-.66,3.19,3.19,0,0,0,.61-1.05A4.46,4.46,0,0,0,163.14,209Z"/><path class="b6547c22-cc11-4a37-84e5-ffd897bc62a8" d="M167.18,205.34a.72.72,0,0,1-.06.29.87.87,0,0,1-.41.41.73.73,0,0,1-.3.06.72.72,0,0,1-.29-.06.81.81,0,0,1-.24-.17.78.78,0,0,1-.16-.24.72.72,0,0,1-.06-.29.8.8,0,0,1,.06-.3.78.78,0,0,1,.16-.24.81.81,0,0,1,.24-.17.72.72,0,0,1,.29-.06.73.73,0,0,1,.3.06.77.77,0,0,1,.47.71Zm-.24,1.91v6.08h-1.07v-6.08Z"/><path class="b6547c22-cc11-4a37-84e5-ffd897bc62a8" d="M169.07,213.33v-5.17l-.68-.08a.53.53,0,0,1-.2-.09.19.19,0,0,1-.08-.18v-.44h1v-.59a2.93,2.93,0,0,1,.14-.93,1.87,1.87,0,0,1,.42-.68,1.63,1.63,0,0,1,.66-.42,2.35,2.35,0,0,1,.86-.15,2.29,2.29,0,0,1,.76.12l0,.54a.14.14,0,0,1-.11.14,1,1,0,0,1-.27,0h-.18a1.54,1.54,0,0,0-.5.08.86.86,0,0,0-.39.23,1.06,1.06,0,0,0-.25.43,2,2,0,0,0-.09.65v.56h1.76v.77h-1.72v5.19Z"/><path class="b6547c22-cc11-4a37-84e5-ffd897bc62a8" d="M173.11,213.33v-5.17l-.67-.08a.51.51,0,0,1-.21-.09.22.22,0,0,1-.08-.18v-.44h1v-.59a2.67,2.67,0,0,1,.15-.93,1.63,1.63,0,0,1,.42-.68,1.66,1.66,0,0,1,.65-.42,2.41,2.41,0,0,1,.87-.15,2.27,2.27,0,0,1,.75.12l0,.54a.13.13,0,0,1-.1.14,1.06,1.06,0,0,1-.27,0h-.19a1.59,1.59,0,0,0-.5.08.86.86,0,0,0-.39.23,1.05,1.05,0,0,0-.24.43,2,2,0,0,0-.09.65v.56h1.76v.77h-1.73v5.19Z"/><path class="b6547c22-cc11-4a37-84e5-ffd897bc62a8" d="M179.32,207.15a2.79,2.79,0,0,1,1,.18,2.43,2.43,0,0,1,.8.53,2.59,2.59,0,0,1,.52.85,3.25,3.25,0,0,1,.19,1.16.83.83,0,0,1-.05.34.26.26,0,0,1-.21.08h-4a3.63,3.63,0,0,0,.15,1,2,2,0,0,0,.4.71,1.7,1.7,0,0,0,.6.43,2.13,2.13,0,0,0,.78.14,2.31,2.31,0,0,0,.69-.09,3.05,3.05,0,0,0,.5-.2l.35-.2a.45.45,0,0,1,.25-.1.25.25,0,0,1,.2.1l.3.39a2.11,2.11,0,0,1-.47.42,2.69,2.69,0,0,1-.59.29,3,3,0,0,1-.65.17,3.88,3.88,0,0,1-.67.06,3.11,3.11,0,0,1-1.16-.21,2.65,2.65,0,0,1-.92-.63,2.74,2.74,0,0,1-.6-1,4,4,0,0,1-.22-1.4,3.48,3.48,0,0,1,.2-1.18,2.7,2.7,0,0,1,.56-1,2.64,2.64,0,0,1,.89-.64A3,3,0,0,1,179.32,207.15Zm0,.79a1.65,1.65,0,0,0-1.21.44,2.17,2.17,0,0,0-.56,1.24h3.31a2.15,2.15,0,0,0-.1-.68,1.62,1.62,0,0,0-.3-.53,1.33,1.33,0,0,0-.49-.35A1.6,1.6,0,0,0,179.34,207.94Z"/><path class="b6547c22-cc11-4a37-84e5-ffd897bc62a8" d="M183.2,213.33v-6.08h.61a.27.27,0,0,1,.33.29l.08,1a2.69,2.69,0,0,1,.77-1,1.78,1.78,0,0,1,1.53-.3,1.61,1.61,0,0,1,.38.16l-.14.79a.18.18,0,0,1-.19.15.76.76,0,0,1-.25-.05,1.59,1.59,0,0,0-.49-.06,1.4,1.4,0,0,0-.93.32,2.46,2.46,0,0,0-.63,1v3.87Z"/><path class="b6547c22-cc11-4a37-84e5-ffd897bc62a8" d="M190.44,207.15a2.75,2.75,0,0,1,1,.18,2.33,2.33,0,0,1,.8.53,2.43,2.43,0,0,1,.52.85,3.25,3.25,0,0,1,.19,1.16.68.68,0,0,1-.05.34.23.23,0,0,1-.2.08h-4.05a3.27,3.27,0,0,0,.16,1,2,2,0,0,0,.39.71,1.7,1.7,0,0,0,.6.43,2.21,2.21,0,0,0,.78.14,2.43,2.43,0,0,0,.7-.09,3.46,3.46,0,0,0,.5-.2l.35-.2a.4.4,0,0,1,.24-.1.27.27,0,0,1,.21.1l.3.39a2.16,2.16,0,0,1-.48.42,2.49,2.49,0,0,1-.59.29,3,3,0,0,1-.65.17,3.79,3.79,0,0,1-.67.06,3.15,3.15,0,0,1-1.16-.21,2.65,2.65,0,0,1-.92-.63,3,3,0,0,1-.6-1,4.29,4.29,0,0,1-.21-1.4,3.48,3.48,0,0,1,.19-1.18,2.86,2.86,0,0,1,.56-1,2.68,2.68,0,0,1,.9-.64A3,3,0,0,1,190.44,207.15Zm0,.79a1.67,1.67,0,0,0-1.22.44,2.1,2.1,0,0,0-.55,1.24H192a2.15,2.15,0,0,0-.1-.68,1.62,1.62,0,0,0-.3-.53,1.3,1.3,0,0,0-.48-.35A1.67,1.67,0,0,0,190.47,207.94Z"/><path class="b6547c22-cc11-4a37-84e5-ffd897bc62a8" d="M194.33,213.33v-6.08H195a.27.27,0,0,1,.29.22l.08.66a3.52,3.52,0,0,1,.89-.71,2.28,2.28,0,0,1,1.13-.27,2.23,2.23,0,0,1,.88.17,1.63,1.63,0,0,1,.63.47,2.08,2.08,0,0,1,.39.72,3.16,3.16,0,0,1,.13,1v3.87h-1.06v-3.87a1.67,1.67,0,0,0-.32-1.08,1.19,1.19,0,0,0-1-.38,1.84,1.84,0,0,0-.89.23,3.09,3.09,0,0,0-.76.62v4.48Z"/><path class="b6547c22-cc11-4a37-84e5-ffd897bc62a8" d="M202.84,213.42a1.47,1.47,0,0,1-1.11-.4,1.59,1.59,0,0,1-.38-1.16v-3.72h-.74a.25.25,0,0,1-.16-.06.21.21,0,0,1-.06-.17v-.43l1-.12.25-1.88a.22.22,0,0,1,.08-.15.23.23,0,0,1,.16-.06h.54v2.1h1.74v.77h-1.74v3.65a.74.74,0,0,0,.19.57.66.66,0,0,0,.48.19.84.84,0,0,0,.29-.05,1,1,0,0,0,.21-.1l.16-.1a.17.17,0,0,1,.11,0,.19.19,0,0,1,.15.1l.31.51a2,2,0,0,1-.67.41A2.4,2.4,0,0,1,202.84,213.42Z"/><path class="b6547c22-cc11-4a37-84e5-ffd897bc62a8" d="M206.9,205.34a.72.72,0,0,1-.06.29.87.87,0,0,1-.41.41.77.77,0,0,1-.3.06.72.72,0,0,1-.29-.06.81.81,0,0,1-.24-.17.78.78,0,0,1-.16-.24.72.72,0,0,1-.06-.29.8.8,0,0,1,.06-.3.78.78,0,0,1,.16-.24.81.81,0,0,1,.24-.17.72.72,0,0,1,.29-.06.77.77,0,0,1,.3.06.77.77,0,0,1,.47.71Zm-.24,1.91v6.08h-1.07v-6.08Z"/><path class="b6547c22-cc11-4a37-84e5-ffd897bc62a8" d="M213,213.33h-.48a.62.62,0,0,1-.25-.05.27.27,0,0,1-.12-.21l-.12-.56-.47.39a2.31,2.31,0,0,1-.48.28,2.45,2.45,0,0,1-.54.18,3.06,3.06,0,0,1-.63.06,2,2,0,0,1-.66-.1,1.3,1.3,0,0,1-.54-.3,1.43,1.43,0,0,1-.36-.5,1.74,1.74,0,0,1-.14-.72,1.34,1.34,0,0,1,.2-.69,1.7,1.7,0,0,1,.64-.6,4.22,4.22,0,0,1,1.15-.42,7.91,7.91,0,0,1,1.75-.17v-.47a1.66,1.66,0,0,0-.3-1.08,1.14,1.14,0,0,0-.9-.37,2.08,2.08,0,0,0-.66.1,2.19,2.19,0,0,0-.46.23l-.34.22a.5.5,0,0,1-.28.1.28.28,0,0,1-.18-.06.43.43,0,0,1-.13-.14l-.2-.34a3.42,3.42,0,0,1,1.09-.73,3.37,3.37,0,0,1,1.29-.24,2.38,2.38,0,0,1,.91.17,1.85,1.85,0,0,1,.66.47,2,2,0,0,1,.41.72,3.14,3.14,0,0,1,.14.94Zm-2.77-.66a2.67,2.67,0,0,0,.51,0,1.92,1.92,0,0,0,.44-.17,2.42,2.42,0,0,0,.4-.25,3.92,3.92,0,0,0,.37-.34V210.6a6.56,6.56,0,0,0-1.26.1,3.55,3.55,0,0,0-.84.24,1.2,1.2,0,0,0-.47.36.8.8,0,0,0-.14.45,1.06,1.06,0,0,0,.07.42,1.08,1.08,0,0,0,.21.29.88.88,0,0,0,.32.16A1.23,1.23,0,0,0,210.24,212.67Z"/><path class="b6547c22-cc11-4a37-84e5-ffd897bc62a8" d="M215.82,204.49v8.84h-1.07v-8.84Z"/><path class="b6547c22-cc11-4a37-84e5-ffd897bc62a8" d="M177.18,226.88a6.11,6.11,0,0,0,.64,0,4.16,4.16,0,0,0,.55-.1c.17-.05.34-.1.49-.16a4.54,4.54,0,0,0,.45-.21v-1.9H178a.23.23,0,0,1-.18-.07.19.19,0,0,1-.07-.16v-.66h2.64v3.3a4.72,4.72,0,0,1-.68.41,4.17,4.17,0,0,1-.75.29,4.41,4.41,0,0,1-.85.17,7.52,7.52,0,0,1-1,.06,4.58,4.58,0,0,1-1.72-.32,3.86,3.86,0,0,1-1.34-.9,4.07,4.07,0,0,1-.88-1.39,4.86,4.86,0,0,1-.31-1.78,5.09,5.09,0,0,1,.3-1.79,3.92,3.92,0,0,1,2.27-2.29,5,5,0,0,1,1.82-.32,5.61,5.61,0,0,1,.95.08,4.79,4.79,0,0,1,.81.21,3.81,3.81,0,0,1,.7.35,3.68,3.68,0,0,1,.59.45l-.33.53a.31.31,0,0,1-.26.16.35.35,0,0,1-.21-.07l-.34-.2a2.35,2.35,0,0,0-.45-.23,3.13,3.13,0,0,0-.63-.19,4.27,4.27,0,0,0-.86-.08,3.49,3.49,0,0,0-1.32.24,2.66,2.66,0,0,0-1,.68,2.88,2.88,0,0,0-.63,1.06,4.17,4.17,0,0,0-.23,1.41,4.32,4.32,0,0,0,.23,1.45,3.21,3.21,0,0,0,.66,1.09,3,3,0,0,0,1,.68A3.5,3.5,0,0,0,177.18,226.88Z"/><path class="b6547c22-cc11-4a37-84e5-ffd897bc62a8" d="M184.4,221.55a2.7,2.7,0,0,1,1,.18,2.33,2.33,0,0,1,.8.53,2.41,2.41,0,0,1,.53.86,3.38,3.38,0,0,1,.19,1.15.66.66,0,0,1-.06.34.22.22,0,0,1-.2.08h-4a3.27,3.27,0,0,0,.16,1,2,2,0,0,0,.4.71,1.44,1.44,0,0,0,.6.43,2.13,2.13,0,0,0,.78.14,2.4,2.4,0,0,0,.69-.09,5.19,5.19,0,0,0,.5-.2,3.22,3.22,0,0,0,.35-.21.48.48,0,0,1,.24-.09.27.27,0,0,1,.21.1l.3.39a2,2,0,0,1-.48.42,2.49,2.49,0,0,1-.59.29,3.45,3.45,0,0,1-.65.17,3.68,3.68,0,0,1-.66.06,3.2,3.2,0,0,1-1.17-.21,2.41,2.41,0,0,1-.91-.63,2.9,2.9,0,0,1-.61-1,4.29,4.29,0,0,1-.21-1.4,3.48,3.48,0,0,1,.19-1.18,2.86,2.86,0,0,1,.56-1,2.78,2.78,0,0,1,.9-.64A3,3,0,0,1,184.4,221.55Zm0,.79a1.64,1.64,0,0,0-1.22.45,2.1,2.1,0,0,0-.55,1.23H186a2.15,2.15,0,0,0-.11-.68,1.33,1.33,0,0,0-.3-.53,1.3,1.3,0,0,0-.48-.35A1.67,1.67,0,0,0,184.42,222.34Z"/><path class="b6547c22-cc11-4a37-84e5-ffd897bc62a8" d="M188.28,227.73v-6.08h.63a.27.27,0,0,1,.29.22l.09.66a3.31,3.31,0,0,1,.88-.71,2.3,2.3,0,0,1,1.13-.27,2.19,2.19,0,0,1,.88.17,1.75,1.75,0,0,1,.64.46,2,2,0,0,1,.38.73,3.16,3.16,0,0,1,.14,1v3.87h-1.07v-3.87a1.63,1.63,0,0,0-.32-1.07,1.16,1.16,0,0,0-1-.39,1.84,1.84,0,0,0-.89.23,2.88,2.88,0,0,0-.75.62v4.48Z"/><path class="b6547c22-cc11-4a37-84e5-ffd897bc62a8" d="M197.36,221.55a2.7,2.7,0,0,1,1,.18,2.33,2.33,0,0,1,.8.53,2.41,2.41,0,0,1,.53.86,3.38,3.38,0,0,1,.19,1.15.66.66,0,0,1-.06.34.22.22,0,0,1-.2.08h-4.05a3.27,3.27,0,0,0,.16,1,2,2,0,0,0,.4.71,1.48,1.48,0,0,0,.59.43,2.22,2.22,0,0,0,.79.14,2.4,2.4,0,0,0,.69-.09,5.19,5.19,0,0,0,.5-.2,3.22,3.22,0,0,0,.35-.21.45.45,0,0,1,.24-.09.27.27,0,0,1,.21.1l.3.39a2,2,0,0,1-.48.42,2.49,2.49,0,0,1-.59.29,3.45,3.45,0,0,1-.65.17,3.68,3.68,0,0,1-.66.06,3.2,3.2,0,0,1-1.17-.21,2.41,2.41,0,0,1-.91-.63,2.9,2.9,0,0,1-.61-1,4.29,4.29,0,0,1-.21-1.4,3.48,3.48,0,0,1,.19-1.18,2.86,2.86,0,0,1,.56-1,2.78,2.78,0,0,1,.9-.64A3,3,0,0,1,197.36,221.55Zm0,.79a1.64,1.64,0,0,0-1.22.45,2.1,2.1,0,0,0-.55,1.23h3.31a2.15,2.15,0,0,0-.11-.68,1.46,1.46,0,0,0-.3-.53,1.3,1.3,0,0,0-.48-.35A1.67,1.67,0,0,0,197.38,222.34Z"/><path class="b6547c22-cc11-4a37-84e5-ffd897bc62a8" d="M163.88,233.53v.95h-4.13v2.85h3.34v.91h-3.34v2.94h4.13v.95h-5.3v-8.6Z"/><path class="b6547c22-cc11-4a37-84e5-ffd897bc62a8" d="M166.8,239l-2-3h1a.35.35,0,0,1,.2,0,.63.63,0,0,1,.1.12l1.49,2.28a2.06,2.06,0,0,1,.16-.34l1.3-1.92.13-.13a.2.2,0,0,1,.15,0h1l-2,2.9,2.13,3.18h-1a.33.33,0,0,1-.21-.07.61.61,0,0,1-.12-.16l-1.53-2.38a1,1,0,0,1-.13.31L166,241.9c0,.06-.09.11-.13.16a.29.29,0,0,1-.19.07h-1Z"/><path class="b6547c22-cc11-4a37-84e5-ffd897bc62a8" d="M171.43,244.18v-8.13h.64a.26.26,0,0,1,.28.22l.09.72a3.19,3.19,0,0,1,.89-.76,2.32,2.32,0,0,1,1.16-.29,2.28,2.28,0,0,1,.95.2,1.94,1.94,0,0,1,.72.59,2.78,2.78,0,0,1,.46,1,4.9,4.9,0,0,1,.17,1.34,4.2,4.2,0,0,1-.18,1.25,3,3,0,0,1-.52,1,2.55,2.55,0,0,1-.82.67,2.51,2.51,0,0,1-1.11.24,2.1,2.1,0,0,1-1.66-.71v2.68Zm2.71-7.38a1.73,1.73,0,0,0-.92.24,2.7,2.7,0,0,0-.72.68v2.94a1.66,1.66,0,0,0,.64.56,1.86,1.86,0,0,0,.79.16,1.55,1.55,0,0,0,1.3-.6,2.87,2.87,0,0,0,.45-1.73,4.29,4.29,0,0,0-.1-1,2,2,0,0,0-.3-.7,1.24,1.24,0,0,0-.49-.4A1.67,1.67,0,0,0,174.14,236.8Z"/><path class="b6547c22-cc11-4a37-84e5-ffd897bc62a8" d="M178.05,242.13v-6.08h.61a.4.4,0,0,1,.25.06.41.41,0,0,1,.08.23l.08.95a2.8,2.8,0,0,1,.77-1,1.67,1.67,0,0,1,1.07-.36,1.63,1.63,0,0,1,.84.22l-.14.79a.18.18,0,0,1-.18.15,1.14,1.14,0,0,1-.26,0,1.59,1.59,0,0,0-.49-.06,1.4,1.4,0,0,0-.93.32,2.46,2.46,0,0,0-.63.95v3.87Z"/><path class="b6547c22-cc11-4a37-84e5-ffd897bc62a8" d="M185.3,236a2.73,2.73,0,0,1,1,.18,2.33,2.33,0,0,1,.8.53,2.45,2.45,0,0,1,.53.85,3.49,3.49,0,0,1,.18,1.16.68.68,0,0,1-.05.34.23.23,0,0,1-.2.08h-4.05a3.27,3.27,0,0,0,.16,1,2,2,0,0,0,.39.71,1.7,1.7,0,0,0,.6.43,2.22,2.22,0,0,0,.79.14,2.4,2.4,0,0,0,.69-.09,5.19,5.19,0,0,0,.5-.2l.35-.2a.4.4,0,0,1,.24-.1.27.27,0,0,1,.21.1l.3.39a2.16,2.16,0,0,1-.48.42,2.49,2.49,0,0,1-.59.29,3,3,0,0,1-.65.17,3.71,3.71,0,0,1-.67.06,3.15,3.15,0,0,1-1.16-.21,2.52,2.52,0,0,1-.91-.63,2.9,2.9,0,0,1-.61-1,4.29,4.29,0,0,1-.21-1.4,3.48,3.48,0,0,1,.19-1.18,2.86,2.86,0,0,1,.56-1,2.78,2.78,0,0,1,.9-.64A3,3,0,0,1,185.3,236Zm0,.79a1.67,1.67,0,0,0-1.22.44,2.16,2.16,0,0,0-.55,1.24h3.3a2.15,2.15,0,0,0-.1-.68,1.62,1.62,0,0,0-.3-.53,1.3,1.3,0,0,0-.48-.35A1.67,1.67,0,0,0,185.32,236.74Z"/><path class="b6547c22-cc11-4a37-84e5-ffd897bc62a8" d="M192.66,237.05a.25.25,0,0,1-.23.13.49.49,0,0,1-.2-.06A1.77,1.77,0,0,0,192,237l-.39-.15a1.73,1.73,0,0,0-.54-.07,1.53,1.53,0,0,0-.49.07,1.43,1.43,0,0,0-.37.19.79.79,0,0,0-.31.62.56.56,0,0,0,.13.39,1,1,0,0,0,.36.27,3,3,0,0,0,.51.2l.57.19c.2.07.4.14.58.22a2.14,2.14,0,0,1,.51.3,1.27,1.27,0,0,1,.35.44,1.33,1.33,0,0,1,.14.63,2,2,0,0,1-.15.77,1.71,1.71,0,0,1-.44.62,2.24,2.24,0,0,1-.73.41,2.93,2.93,0,0,1-1,.15,3,3,0,0,1-1.15-.21,2.65,2.65,0,0,1-.88-.53l.26-.4A.22.22,0,0,1,189,241a.29.29,0,0,1,.17-.05.4.4,0,0,1,.23.09l.29.18a2.38,2.38,0,0,0,.42.19,1.77,1.77,0,0,0,.61.08,1.5,1.5,0,0,0,.54-.08.93.93,0,0,0,.39-.22.76.76,0,0,0,.23-.31,1,1,0,0,0,.08-.39.6.6,0,0,0-.14-.41,1.11,1.11,0,0,0-.35-.29,3,3,0,0,0-.51-.2l-.58-.18-.59-.22a2.23,2.23,0,0,1-.5-.31,1.35,1.35,0,0,1-.49-1.12,1.52,1.52,0,0,1,.14-.67,1.69,1.69,0,0,1,.42-.57,1.94,1.94,0,0,1,.68-.38A2.59,2.59,0,0,1,191,236a2.85,2.85,0,0,1,1.08.19,2.71,2.71,0,0,1,.83.52Z"/><path class="b6547c22-cc11-4a37-84e5-ffd897bc62a8" d="M197.86,237.05a.22.22,0,0,1-.22.13.41.41,0,0,1-.2-.06l-.28-.15-.39-.15a1.81,1.81,0,0,0-.54-.07,1.53,1.53,0,0,0-.49.07,1.29,1.29,0,0,0-.37.19.77.77,0,0,0-.23.28.66.66,0,0,0-.08.34.56.56,0,0,0,.13.39,1,1,0,0,0,.36.27,3.26,3.26,0,0,0,.5.2l.58.19.58.22a2.14,2.14,0,0,1,.51.3,1.39,1.39,0,0,1,.35.44,1.33,1.33,0,0,1,.14.63,2,2,0,0,1-.15.77,1.63,1.63,0,0,1-.45.62,2.09,2.09,0,0,1-.72.41,2.93,2.93,0,0,1-1,.15,3,3,0,0,1-1.15-.21,2.65,2.65,0,0,1-.88-.53l.25-.4a.23.23,0,0,1,.12-.12.29.29,0,0,1,.17-.05.4.4,0,0,1,.23.09l.29.18a2.26,2.26,0,0,0,.41.19,1.84,1.84,0,0,0,.61.08,1.55,1.55,0,0,0,.55-.08,1,1,0,0,0,.39-.22.87.87,0,0,0,.23-.31,1,1,0,0,0,.07-.39.59.59,0,0,0-.13-.41,1,1,0,0,0-.36-.29,2.89,2.89,0,0,0-.5-.2l-.59-.18-.58-.22a2.57,2.57,0,0,1-.51-.31,1.6,1.6,0,0,1-.35-.46,1.46,1.46,0,0,1-.14-.66,1.53,1.53,0,0,1,.15-.67,1.46,1.46,0,0,1,.42-.57,2,2,0,0,1,.67-.38,2.65,2.65,0,0,1,.92-.15,2.85,2.85,0,0,1,1.08.19,2.55,2.55,0,0,1,.82.52Z"/><path class="b6547c22-cc11-4a37-84e5-ffd897bc62a8" d="M201,234.14a.72.72,0,0,1-.06.29.87.87,0,0,1-.41.41.77.77,0,0,1-.3.06.72.72,0,0,1-.29-.06.81.81,0,0,1-.24-.17.78.78,0,0,1-.16-.24.72.72,0,0,1-.06-.29.8.8,0,0,1,.06-.3.78.78,0,0,1,.16-.24.81.81,0,0,1,.24-.17.72.72,0,0,1,.29-.06.77.77,0,0,1,.3.06.77.77,0,0,1,.47.71Zm-.24,1.91v6.08h-1.07v-6.08Z"/><path class="b6547c22-cc11-4a37-84e5-ffd897bc62a8" d="M205.12,236a3.3,3.3,0,0,1,1.21.22,2.56,2.56,0,0,1,.91.63,2.94,2.94,0,0,1,.58,1,4.29,4.29,0,0,1,0,2.59,2.9,2.9,0,0,1-.58,1,2.44,2.44,0,0,1-.91.63,3.41,3.41,0,0,1-2.41,0,2.44,2.44,0,0,1-.91-.63,2.61,2.61,0,0,1-.58-1,4.1,4.1,0,0,1,0-2.59,2.65,2.65,0,0,1,.58-1,2.56,2.56,0,0,1,.91-.63A3.29,3.29,0,0,1,205.12,236Zm0,5.43a1.59,1.59,0,0,0,1.35-.61,2.82,2.82,0,0,0,.44-1.68,2.85,2.85,0,0,0-.44-1.69,1.56,1.56,0,0,0-1.35-.61,1.8,1.8,0,0,0-.79.16,1.44,1.44,0,0,0-.56.45,1.84,1.84,0,0,0-.33.72,4,4,0,0,0,0,1.94,1.87,1.87,0,0,0,.33.71,1.44,1.44,0,0,0,.56.45A2,2,0,0,0,205.12,241.38Z"/><path class="b6547c22-cc11-4a37-84e5-ffd897bc62a8" d="M209.34,242.13v-6.08H210a.27.27,0,0,1,.29.22l.08.66a3.52,3.52,0,0,1,.89-.71,2.3,2.3,0,0,1,1.13-.27,2.19,2.19,0,0,1,.88.17,1.75,1.75,0,0,1,.64.46,2.2,2.2,0,0,1,.38.73,3.16,3.16,0,0,1,.13.95v3.87h-1.06v-3.87a1.67,1.67,0,0,0-.32-1.08,1.19,1.19,0,0,0-1-.38,1.84,1.84,0,0,0-.89.23,3.09,3.09,0,0,0-.76.62v4.48Z"/><path class="b6547c22-cc11-4a37-84e5-ffd897bc62a8" d="M13.67,187.49a5,5,0,0,1-.3,1.76,3.9,3.9,0,0,1-2.2,2.23,4.8,4.8,0,0,1-1.73.31H6.22v-8.6H9.44a4.59,4.59,0,0,1,1.73.31,3.79,3.79,0,0,1,1.33.87,3.92,3.92,0,0,1,.87,1.36A5,5,0,0,1,13.67,187.49Zm-1.19,0a4.19,4.19,0,0,0-.22-1.42,2.88,2.88,0,0,0-.61-1,2.5,2.5,0,0,0-1-.66,3.31,3.31,0,0,0-1.25-.23h-2v6.71H9.44a3.31,3.31,0,0,0,1.25-.22,2.62,2.62,0,0,0,1-.66,2.88,2.88,0,0,0,.61-1.05A4.19,4.19,0,0,0,12.48,187.49Z"/><path class="b6547c22-cc11-4a37-84e5-ffd897bc62a8" d="M19.55,191.79h-.47a.58.58,0,0,1-.25,0,.25.25,0,0,1-.13-.21l-.12-.56c-.16.14-.31.27-.47.39a2.31,2.31,0,0,1-.48.28,2.21,2.21,0,0,1-.53.18,3.1,3.1,0,0,1-.64.06,2.07,2.07,0,0,1-.66-.1,1.41,1.41,0,0,1-.9-.8,1.75,1.75,0,0,1-.13-.72,1.33,1.33,0,0,1,.19-.69,1.86,1.86,0,0,1,.64-.6,4.3,4.3,0,0,1,1.16-.42,7.81,7.81,0,0,1,1.74-.17v-.47a1.66,1.66,0,0,0-.3-1.08,1.11,1.11,0,0,0-.9-.37,2,2,0,0,0-.65.1,2.19,2.19,0,0,0-.46.23c-.13.08-.25.15-.34.22a.53.53,0,0,1-.28.1.33.33,0,0,1-.19-.06.57.57,0,0,1-.13-.14l-.19-.34a3.42,3.42,0,0,1,1.09-.73,3.3,3.3,0,0,1,1.29-.24,2.29,2.29,0,0,1,.9.17,1.8,1.8,0,0,1,.67.47,2.12,2.12,0,0,1,.41.72,3.14,3.14,0,0,1,.13.94Zm-2.77-.66a2.78,2.78,0,0,0,.52,0,2.35,2.35,0,0,0,.44-.17,2.42,2.42,0,0,0,.4-.25c.12-.1.24-.22.36-.34v-1.26a6.38,6.38,0,0,0-1.25.1,3.55,3.55,0,0,0-.84.24,1.13,1.13,0,0,0-.47.36.74.74,0,0,0-.15.45,1,1,0,0,0,.08.42.78.78,0,0,0,.21.29.83.83,0,0,0,.31.16A1.23,1.23,0,0,0,16.78,191.13Z"/><path class="b6547c22-cc11-4a37-84e5-ffd897bc62a8" d="M23,191.88a1.47,1.47,0,0,1-1.11-.4,1.6,1.6,0,0,1-.39-1.16V186.6h-.73a.23.23,0,0,1-.16-.06.18.18,0,0,1-.07-.17v-.43l1-.12.24-1.88a.28.28,0,0,1,.08-.15.25.25,0,0,1,.17-.06h.54v2.1h1.74v.77H22.59v3.65a.74.74,0,0,0,.19.57.66.66,0,0,0,.48.19.84.84,0,0,0,.29,0,1,1,0,0,0,.21-.1,1,1,0,0,0,.15-.1.21.21,0,0,1,.11,0,.17.17,0,0,1,.15.1l.32.51a2.15,2.15,0,0,1-.67.41A2.45,2.45,0,0,1,23,191.88Z"/><path class="b6547c22-cc11-4a37-84e5-ffd897bc62a8" d="M30.11,191.79h-.47a.58.58,0,0,1-.25,0,.25.25,0,0,1-.13-.21l-.12-.56c-.16.14-.31.27-.47.39a2.31,2.31,0,0,1-.48.28,2.21,2.21,0,0,1-.53.18,3.1,3.1,0,0,1-.64.06,2.07,2.07,0,0,1-.66-.1,1.37,1.37,0,0,1-.54-.3,1.43,1.43,0,0,1-.36-.5,1.75,1.75,0,0,1-.13-.72,1.33,1.33,0,0,1,.19-.69,1.86,1.86,0,0,1,.64-.6,4.3,4.3,0,0,1,1.16-.42,7.81,7.81,0,0,1,1.74-.17v-.47a1.66,1.66,0,0,0-.3-1.08,1.11,1.11,0,0,0-.9-.37,2,2,0,0,0-.65.1,2.29,2.29,0,0,0-.47.23l-.33.22a.56.56,0,0,1-.28.1.31.31,0,0,1-.19-.06.57.57,0,0,1-.13-.14l-.19-.34a3.42,3.42,0,0,1,1.09-.73A3.3,3.3,0,0,1,28,185.6a2.29,2.29,0,0,1,.9.17,1.8,1.8,0,0,1,.67.47A2.12,2.12,0,0,1,30,187a3.14,3.14,0,0,1,.13.94Zm-2.77-.66a2.78,2.78,0,0,0,.52,0,2.35,2.35,0,0,0,.44-.17,2,2,0,0,0,.39-.25,3.92,3.92,0,0,0,.37-.34v-1.26a6.38,6.38,0,0,0-1.25.1,3.55,3.55,0,0,0-.84.24,1.13,1.13,0,0,0-.47.36.74.74,0,0,0-.15.45,1,1,0,0,0,.08.42.78.78,0,0,0,.21.29.83.83,0,0,0,.31.16A1.23,1.23,0,0,0,27.34,191.13Z"/><path class="b6547c22-cc11-4a37-84e5-ffd897bc62a8" d="M34.05,193.84v-8.13h.64a.26.26,0,0,1,.28.22l.09.72a3.19,3.19,0,0,1,.89-.76,2.32,2.32,0,0,1,1.16-.29,2.28,2.28,0,0,1,1,.2,1.94,1.94,0,0,1,.72.59,3,3,0,0,1,.47,1,5.35,5.35,0,0,1,.16,1.34,4.2,4.2,0,0,1-.18,1.25,3,3,0,0,1-.52,1,2.55,2.55,0,0,1-.82.67,2.5,2.5,0,0,1-1.1.24,2.11,2.11,0,0,1-1.67-.71v2.68Zm2.71-7.38a1.73,1.73,0,0,0-.92.24,2.7,2.7,0,0,0-.72.68v2.94a1.66,1.66,0,0,0,.64.56,1.86,1.86,0,0,0,.79.16,1.55,1.55,0,0,0,1.3-.6,2.87,2.87,0,0,0,.45-1.73,4.29,4.29,0,0,0-.1-1,2,2,0,0,0-.3-.7,1.24,1.24,0,0,0-.49-.4A1.67,1.67,0,0,0,36.76,186.46Z"/><path class="b6547c22-cc11-4a37-84e5-ffd897bc62a8" d="M40.67,191.79v-6.08h.62a.38.38,0,0,1,.24.06.5.5,0,0,1,.09.23l.07.95a2.8,2.8,0,0,1,.77-1,1.68,1.68,0,0,1,1.08-.36,1.58,1.58,0,0,1,.45.06,1.61,1.61,0,0,1,.38.16l-.14.79a.18.18,0,0,1-.18.15.77.77,0,0,1-.26,0,1.59,1.59,0,0,0-.49-.06,1.4,1.4,0,0,0-.93.32,2.46,2.46,0,0,0-.63.95v3.87Z"/><path class="b6547c22-cc11-4a37-84e5-ffd897bc62a8" d="M48,185.61a3.29,3.29,0,0,1,1.2.22,2.56,2.56,0,0,1,.91.63,2.79,2.79,0,0,1,.58,1,4.29,4.29,0,0,1,0,2.59,2.74,2.74,0,0,1-.58,1,2.44,2.44,0,0,1-.91.63,3.09,3.09,0,0,1-1.2.22,3.06,3.06,0,0,1-1.2-.22,2.48,2.48,0,0,1-.92-.63,2.9,2.9,0,0,1-.58-1,4.29,4.29,0,0,1,0-2.59,2.94,2.94,0,0,1,.58-1,2.6,2.6,0,0,1,.92-.63A3.25,3.25,0,0,1,48,185.61ZM48,191a1.55,1.55,0,0,0,1.34-.61,2.75,2.75,0,0,0,.45-1.68,2.78,2.78,0,0,0-.45-1.69,1.53,1.53,0,0,0-1.34-.61,1.77,1.77,0,0,0-.79.16,1.37,1.37,0,0,0-.56.45,1.92,1.92,0,0,0-.34.72,4.33,4.33,0,0,0,0,1.94,1.88,1.88,0,0,0,.34.71,1.37,1.37,0,0,0,.56.45A1.92,1.92,0,0,0,48,191Z"/><path class="b6547c22-cc11-4a37-84e5-ffd897bc62a8" d="M56.33,186.79a.47.47,0,0,1-.1.1.26.26,0,0,1-.14,0,.34.34,0,0,1-.19-.08l-.27-.16a2.4,2.4,0,0,0-.39-.17,2.2,2.2,0,0,0-1.35.08,1.62,1.62,0,0,0-.58.46,2.25,2.25,0,0,0-.35.73,3.93,3.93,0,0,0-.11,1,3.6,3.6,0,0,0,.12,1,2.37,2.37,0,0,0,.36.73,1.47,1.47,0,0,0,.55.44,1.78,1.78,0,0,0,.74.15,1.93,1.93,0,0,0,.64-.09,1.64,1.64,0,0,0,.42-.21l.28-.2a.29.29,0,0,1,.21-.1.27.27,0,0,1,.21.1l.3.39a2.25,2.25,0,0,1-1,.71,3.56,3.56,0,0,1-1.26.23,2.67,2.67,0,0,1-1.06-.21,2.42,2.42,0,0,1-.85-.61,2.68,2.68,0,0,1-.56-1,3.91,3.91,0,0,1-.21-1.33,3.86,3.86,0,0,1,.19-1.25,2.81,2.81,0,0,1,.55-1,2.37,2.37,0,0,1,.9-.65,2.92,2.92,0,0,1,1.22-.24,2.85,2.85,0,0,1,1.13.21,2.71,2.71,0,0,1,.87.58Z"/><path class="b6547c22-cc11-4a37-84e5-ffd897bc62a8" d="M60.19,185.61a2.75,2.75,0,0,1,1,.18,2.26,2.26,0,0,1,1.32,1.38,3.25,3.25,0,0,1,.19,1.16.83.83,0,0,1-.05.34.26.26,0,0,1-.21.08h-4a3.27,3.27,0,0,0,.16,1,1.87,1.87,0,0,0,.39.71,1.7,1.7,0,0,0,.6.43,2.13,2.13,0,0,0,.78.14,2.31,2.31,0,0,0,.69-.09,3.19,3.19,0,0,0,.51-.2l.35-.2a.4.4,0,0,1,.24-.1.23.23,0,0,1,.2.1l.3.39a2.11,2.11,0,0,1-.47.42,2.49,2.49,0,0,1-.59.29,3,3,0,0,1-.65.17,3.88,3.88,0,0,1-.67.06,3.11,3.11,0,0,1-1.16-.21,2.65,2.65,0,0,1-.92-.63,2.74,2.74,0,0,1-.6-1,4.28,4.28,0,0,1-.22-1.4,3.48,3.48,0,0,1,.2-1.18,2.86,2.86,0,0,1,.56-1,2.64,2.64,0,0,1,.89-.64A3,3,0,0,1,60.19,185.61Zm0,.79a1.66,1.66,0,0,0-1.22.44,2.1,2.1,0,0,0-.55,1.24h3.3a2.15,2.15,0,0,0-.1-.68,1.62,1.62,0,0,0-.3-.53,1.3,1.3,0,0,0-.48-.35A1.67,1.67,0,0,0,60.22,186.4Z"/><path class="b6547c22-cc11-4a37-84e5-ffd897bc62a8" d="M67.55,186.71a.22.22,0,0,1-.22.13.41.41,0,0,1-.2-.06l-.28-.15-.39-.15a1.81,1.81,0,0,0-.54-.07,1.49,1.49,0,0,0-.49.07,1.29,1.29,0,0,0-.37.19.77.77,0,0,0-.23.28.66.66,0,0,0-.08.34.56.56,0,0,0,.13.39,1,1,0,0,0,.36.27,2.89,2.89,0,0,0,.5.2l.58.19.58.22a1.9,1.9,0,0,1,.5.3,1.39,1.39,0,0,1,.36.44,1.33,1.33,0,0,1,.14.63,2,2,0,0,1-.15.77,1.63,1.63,0,0,1-.45.62,1.94,1.94,0,0,1-.72.41,2.93,2.93,0,0,1-1,.15,3,3,0,0,1-1.15-.21,2.65,2.65,0,0,1-.88-.53l.25-.4a.23.23,0,0,1,.12-.12.29.29,0,0,1,.17-.05.4.4,0,0,1,.23.09,3.06,3.06,0,0,0,.29.18A2.26,2.26,0,0,0,65,191a1.8,1.8,0,0,0,.61.08,1.55,1.55,0,0,0,.55-.08,1.07,1.07,0,0,0,.39-.22.87.87,0,0,0,.23-.31,1,1,0,0,0,.07-.39.59.59,0,0,0-.13-.41,1,1,0,0,0-.36-.29,3,3,0,0,0-.51-.2l-.58-.18-.58-.22a2.57,2.57,0,0,1-.51-.31,1.6,1.6,0,0,1-.35-.46,1.46,1.46,0,0,1-.14-.66,1.53,1.53,0,0,1,.15-.67,1.46,1.46,0,0,1,.42-.57,2,2,0,0,1,.67-.38,2.65,2.65,0,0,1,.92-.15,2.85,2.85,0,0,1,1.08.19,2.55,2.55,0,0,1,.82.52Z"/><path class="b6547c22-cc11-4a37-84e5-ffd897bc62a8" d="M72.76,186.71a.23.23,0,0,1-.22.13.41.41,0,0,1-.2-.06l-.28-.15-.4-.15a1.73,1.73,0,0,0-.54-.07,1.43,1.43,0,0,0-.48.07,1.17,1.17,0,0,0-.37.19A.92.92,0,0,0,70,187a.77.77,0,0,0-.08.34.56.56,0,0,0,.14.39,1,1,0,0,0,.36.27,2.6,2.6,0,0,0,.5.2l.58.19.58.22a2.07,2.07,0,0,1,.5.3,1.39,1.39,0,0,1,.36.44,1.34,1.34,0,0,1,.13.63,2,2,0,0,1-.15.77,1.6,1.6,0,0,1-.44.62,2.12,2.12,0,0,1-.72.41,2.93,2.93,0,0,1-1,.15,3.07,3.07,0,0,1-1.16-.21,2.71,2.71,0,0,1-.87-.53l.25-.4a.26.26,0,0,1,.11-.12.35.35,0,0,1,.18-.05.4.4,0,0,1,.23.09,3.06,3.06,0,0,0,.29.18,2.26,2.26,0,0,0,.41.19,1.8,1.8,0,0,0,.61.08,1.55,1.55,0,0,0,.55-.08,1.07,1.07,0,0,0,.39-.22.87.87,0,0,0,.23-.31,1,1,0,0,0,.07-.39.59.59,0,0,0-.13-.41,1,1,0,0,0-.36-.29,3,3,0,0,0-.51-.2l-.58-.18-.58-.22a2.57,2.57,0,0,1-.51-.31,1.35,1.35,0,0,1-.49-1.12,1.64,1.64,0,0,1,.56-1.24,2,2,0,0,1,.68-.38,2.65,2.65,0,0,1,.92-.15,2.85,2.85,0,0,1,1.08.19,2.67,2.67,0,0,1,.82.52Z"/><path class="b6547c22-cc11-4a37-84e5-ffd897bc62a8" d="M75.92,183.8a.59.59,0,0,1-.07.29.78.78,0,0,1-.16.24.74.74,0,0,1-.25.17.73.73,0,0,1-.58,0,.87.87,0,0,1-.41-.41.72.72,0,0,1-.06-.29.81.81,0,0,1,.47-.71.73.73,0,0,1,.58,0,.74.74,0,0,1,.25.17.78.78,0,0,1,.16.24A.66.66,0,0,1,75.92,183.8Zm-.24,1.91v6.08H74.61v-6.08Z"/><path class="b6547c22-cc11-4a37-84e5-ffd897bc62a8" d="M77.56,191.79v-6.08h.64a.27.27,0,0,1,.29.22l.08.66a3.48,3.48,0,0,1,.88-.71,2.34,2.34,0,0,1,1.14-.27,2.14,2.14,0,0,1,.87.17,1.59,1.59,0,0,1,.64.47,2.08,2.08,0,0,1,.39.72,3.16,3.16,0,0,1,.13.95v3.87H81.55v-3.87a1.67,1.67,0,0,0-.31-1.08,1.19,1.19,0,0,0-1-.38,1.81,1.81,0,0,0-.88.23,2.76,2.76,0,0,0-.76.62v4.48Z"/><path class="b6547c22-cc11-4a37-84e5-ffd897bc62a8" d="M86.28,185.61a3,3,0,0,1,.74.08,2.53,2.53,0,0,1,.63.26H89.3v.39c0,.14-.09.22-.25.26l-.69.09a2,2,0,0,1,0,1.68,1.82,1.82,0,0,1-.48.62,2.28,2.28,0,0,1-.72.4,3.25,3.25,0,0,1-1.71,0,1,1,0,0,0-.3.27.51.51,0,0,0-.09.28.37.37,0,0,0,.17.34,1.3,1.3,0,0,0,.46.16,4.23,4.23,0,0,0,.66.05h.74a3.67,3.67,0,0,1,.75.07,1.92,1.92,0,0,1,.65.22,1.25,1.25,0,0,1,.47.41,1.32,1.32,0,0,1,.17.7,1.6,1.6,0,0,1-.2.76,1.94,1.94,0,0,1-.56.66,2.77,2.77,0,0,1-.89.46,3.67,3.67,0,0,1-1.19.18,4.46,4.46,0,0,1-1.17-.14,2.44,2.44,0,0,1-.83-.35,1.61,1.61,0,0,1-.5-.51,1.24,1.24,0,0,1-.16-.61,1.11,1.11,0,0,1,.28-.77,1.89,1.89,0,0,1,.79-.5,1.14,1.14,0,0,1-.42-.32.89.89,0,0,1-.15-.54.86.86,0,0,1,0-.27,1,1,0,0,1,.15-.28,1.16,1.16,0,0,1,.24-.26,1.33,1.33,0,0,1,.34-.22,1.91,1.91,0,0,1-.71-.67,2,2,0,0,1-.08-1.79,1.76,1.76,0,0,1,.47-.61,2.45,2.45,0,0,1,.73-.4A3,3,0,0,1,86.28,185.61Zm1.9,6.48a.55.55,0,0,0-.13-.37.84.84,0,0,0-.34-.22,3.1,3.1,0,0,0-.5-.11,5.65,5.65,0,0,0-.59,0H86a2.11,2.11,0,0,1-.62-.08,1.66,1.66,0,0,0-.55.4.78.78,0,0,0-.22.56.76.76,0,0,0,.11.38,1,1,0,0,0,.32.31,2,2,0,0,0,.54.2,3.5,3.5,0,0,0,.77.08,3.67,3.67,0,0,0,.78-.08,2.06,2.06,0,0,0,.58-.23,1.1,1.1,0,0,0,.36-.35A.85.85,0,0,0,88.18,192.09Zm-1.9-3.27a1.62,1.62,0,0,0,.57-.09,1.11,1.11,0,0,0,.42-.26.9.9,0,0,0,.25-.38,1.35,1.35,0,0,0,.09-.5,1.21,1.21,0,0,0-.34-.89,1.38,1.38,0,0,0-1-.33,1.33,1.33,0,0,0-1,.33,1.18,1.18,0,0,0-.34.89,1.35,1.35,0,0,0,.09.5.9.9,0,0,0,.25.38,1.11,1.11,0,0,0,.42.26A1.6,1.6,0,0,0,86.28,188.82Z"/><path class="b6547c22-cc11-4a37-84e5-ffd897bc62a8" d="M21.06,229.81a4.75,4.75,0,0,1-.31,1.76,3.82,3.82,0,0,1-2.2,2.23,4.76,4.76,0,0,1-1.73.3H13.61v-8.59h3.21a4.56,4.56,0,0,1,1.73.31,3.7,3.7,0,0,1,1.34.87,3.9,3.9,0,0,1,.86,1.36A4.75,4.75,0,0,1,21.06,229.81Zm-1.19,0a4.45,4.45,0,0,0-.22-1.42,3,3,0,0,0-.61-1,2.66,2.66,0,0,0-1-.66,3.21,3.21,0,0,0-1.26-.23h-2v6.71h2a3.21,3.21,0,0,0,1.26-.23,2.77,2.77,0,0,0,1-.65,3,3,0,0,0,.61-1.06A4.35,4.35,0,0,0,19.87,229.81Z"/><path class="b6547c22-cc11-4a37-84e5-ffd897bc62a8" d="M26.94,234.1h-.47a.65.65,0,0,1-.26,0,.29.29,0,0,1-.12-.21l-.12-.56-.47.39A2.31,2.31,0,0,1,25,234a2.45,2.45,0,0,1-.54.18,3.06,3.06,0,0,1-.63.06,2,2,0,0,1-.66-.1,1.3,1.3,0,0,1-.54-.3,1.43,1.43,0,0,1-.36-.5,1.74,1.74,0,0,1-.14-.72,1.34,1.34,0,0,1,.2-.69,1.78,1.78,0,0,1,.64-.6,4.22,4.22,0,0,1,1.15-.42,7.91,7.91,0,0,1,1.75-.17v-.47a1.66,1.66,0,0,0-.3-1.08,1.08,1.08,0,0,0-.9-.37,2.08,2.08,0,0,0-.66.1,2.83,2.83,0,0,0-.46.22l-.34.23a.48.48,0,0,1-.27.09.29.29,0,0,1-.19,0,.43.43,0,0,1-.13-.14l-.19-.35a3.4,3.4,0,0,1,1.08-.72,3.37,3.37,0,0,1,1.29-.24,2.21,2.21,0,0,1,.91.17,1.83,1.83,0,0,1,.66.46,2,2,0,0,1,.41.73,3.09,3.09,0,0,1,.14.94Zm-2.77-.65a2,2,0,0,0,.51-.06,1.54,1.54,0,0,0,.44-.16,2.42,2.42,0,0,0,.4-.25,3,3,0,0,0,.37-.35v-1.25a7.37,7.37,0,0,0-1.25.09,3.7,3.7,0,0,0-.84.25,1.07,1.07,0,0,0-.47.36.72.72,0,0,0-.15.45.93.93,0,0,0,.08.42.78.78,0,0,0,.21.29.76.76,0,0,0,.31.16A1.6,1.6,0,0,0,24.17,233.45Z"/><path class="b6547c22-cc11-4a37-84e5-ffd897bc62a8" d="M30.4,234.2a1.47,1.47,0,0,1-1.11-.4,1.65,1.65,0,0,1-.38-1.16v-3.72h-.73a.25.25,0,0,1-.17-.06.21.21,0,0,1-.06-.17v-.43l1-.13.25-1.87a.22.22,0,0,1,.08-.15.24.24,0,0,1,.17-.06H30v2.1h1.74v.77H30v3.65a.8.8,0,0,0,.18.57.69.69,0,0,0,.48.19.84.84,0,0,0,.29-.05,1.12,1.12,0,0,0,.22-.1l.15-.1a.19.19,0,0,1,.11,0,.17.17,0,0,1,.15.1l.31.51a1.83,1.83,0,0,1-.66.4A2.24,2.24,0,0,1,30.4,234.2Z"/><path class="b6547c22-cc11-4a37-84e5-ffd897bc62a8" d="M37.5,234.1H37a.65.65,0,0,1-.26,0,.29.29,0,0,1-.12-.21l-.12-.56-.47.39a2.31,2.31,0,0,1-.48.28,2.45,2.45,0,0,1-.54.18,3.06,3.06,0,0,1-.63.06,2,2,0,0,1-.66-.1,1.3,1.3,0,0,1-.54-.3,1.43,1.43,0,0,1-.36-.5,1.74,1.74,0,0,1-.14-.72,1.34,1.34,0,0,1,.2-.69,1.7,1.7,0,0,1,.64-.6,4.22,4.22,0,0,1,1.15-.42,7.91,7.91,0,0,1,1.75-.17v-.47a1.66,1.66,0,0,0-.3-1.08,1.09,1.09,0,0,0-.9-.37,2.08,2.08,0,0,0-.66.1,2.83,2.83,0,0,0-.46.22l-.34.23a.48.48,0,0,1-.27.09.29.29,0,0,1-.19,0,.43.43,0,0,1-.13-.14l-.19-.35a3.4,3.4,0,0,1,1.08-.72,3.37,3.37,0,0,1,1.29-.24,2.21,2.21,0,0,1,.91.17,1.83,1.83,0,0,1,.66.46,2,2,0,0,1,.41.73,3.09,3.09,0,0,1,.14.94Zm-2.77-.65a2,2,0,0,0,.51-.06,1.54,1.54,0,0,0,.44-.16,2.42,2.42,0,0,0,.4-.25,3,3,0,0,0,.37-.35v-1.25a7.37,7.37,0,0,0-1.25.09,3.7,3.7,0,0,0-.84.25,1.16,1.16,0,0,0-.48.36.77.77,0,0,0-.14.45.93.93,0,0,0,.08.42.78.78,0,0,0,.21.29.76.76,0,0,0,.31.16A1.6,1.6,0,0,0,34.73,233.45Z"/><path class="b6547c22-cc11-4a37-84e5-ffd897bc62a8" d="M45.9,234.1h-.47a.65.65,0,0,1-.26,0,.29.29,0,0,1-.12-.21l-.12-.56-.47.39A2.31,2.31,0,0,1,44,234a2.45,2.45,0,0,1-.54.18,3.06,3.06,0,0,1-.63.06,2,2,0,0,1-.66-.1,1.3,1.3,0,0,1-.54-.3,1.43,1.43,0,0,1-.36-.5,1.74,1.74,0,0,1-.14-.72,1.34,1.34,0,0,1,.2-.69,1.7,1.7,0,0,1,.64-.6,4.22,4.22,0,0,1,1.15-.42,7.91,7.91,0,0,1,1.75-.17v-.47a1.66,1.66,0,0,0-.3-1.08,1.09,1.09,0,0,0-.9-.37,2.08,2.08,0,0,0-.66.1,2.83,2.83,0,0,0-.46.22l-.34.23a.48.48,0,0,1-.27.09.29.29,0,0,1-.19,0,.43.43,0,0,1-.13-.14l-.19-.35a3.4,3.4,0,0,1,1.08-.72,3.37,3.37,0,0,1,1.29-.24,2.21,2.21,0,0,1,.91.17,1.83,1.83,0,0,1,.66.46,2,2,0,0,1,.41.73,3.09,3.09,0,0,1,.14.94Zm-2.77-.65a2,2,0,0,0,.51-.06,1.54,1.54,0,0,0,.44-.16,2.42,2.42,0,0,0,.4-.25,3,3,0,0,0,.37-.35v-1.25a7.37,7.37,0,0,0-1.25.09,3.7,3.7,0,0,0-.84.25,1.16,1.16,0,0,0-.48.36.77.77,0,0,0-.14.45.93.93,0,0,0,.08.42.78.78,0,0,0,.21.29.76.76,0,0,0,.31.16A1.6,1.6,0,0,0,43.13,233.45Z"/><path class="b6547c22-cc11-4a37-84e5-ffd897bc62a8" d="M47.52,234.1V228h.64a.26.26,0,0,1,.28.22l.09.66a3.48,3.48,0,0,1,.88-.71,2.33,2.33,0,0,1,1.13-.27,2.16,2.16,0,0,1,.88.17,1.67,1.67,0,0,1,.64.46,2.22,2.22,0,0,1,.39.73,3.5,3.5,0,0,1,.13.94v3.87H51.51v-3.87a1.65,1.65,0,0,0-.32-1.07,1.19,1.19,0,0,0-1-.38,1.81,1.81,0,0,0-.88.23,2.76,2.76,0,0,0-.76.62v4.47Z"/><path class="b6547c22-cc11-4a37-84e5-ffd897bc62a8" d="M58.66,234.1h-.48a.6.6,0,0,1-.25,0,.3.3,0,0,1-.13-.21l-.12-.56-.46.39a3,3,0,0,1-.48.28,2.45,2.45,0,0,1-.54.18,3.06,3.06,0,0,1-.63.06,2.09,2.09,0,0,1-.67-.1,1.48,1.48,0,0,1-.9-.8,1.75,1.75,0,0,1-.13-.72,1.25,1.25,0,0,1,.2-.69,1.74,1.74,0,0,1,.63-.6,4.3,4.3,0,0,1,1.16-.42,7.91,7.91,0,0,1,1.75-.17v-.47a1.66,1.66,0,0,0-.31-1.08,1.07,1.07,0,0,0-.89-.37,2.08,2.08,0,0,0-.66.1,2.83,2.83,0,0,0-.46.22l-.34.23a.51.51,0,0,1-.28.09.32.32,0,0,1-.19,0,.86.86,0,0,1-.13-.14l-.19-.35a3.56,3.56,0,0,1,1.09-.72,3.37,3.37,0,0,1,1.29-.24,2.13,2.13,0,0,1,.9.17,1.78,1.78,0,0,1,.67.46,2,2,0,0,1,.41.73,3.09,3.09,0,0,1,.14.94Zm-2.78-.65a2.12,2.12,0,0,0,.52-.06,1.65,1.65,0,0,0,.44-.16,2.42,2.42,0,0,0,.4-.25,4,4,0,0,0,.37-.35v-1.25a7.5,7.5,0,0,0-1.26.09,4,4,0,0,0-.84.25,1.2,1.2,0,0,0-.47.36.72.72,0,0,0-.15.45A1.08,1.08,0,0,0,55,233a.78.78,0,0,0,.21.29.83.83,0,0,0,.31.16A1.6,1.6,0,0,0,55.88,233.45Z"/><path class="b6547c22-cc11-4a37-84e5-ffd897bc62a8" d="M61.46,225.27v8.83H60.4v-8.83Z"/><path class="b6547c22-cc11-4a37-84e5-ffd897bc62a8" d="M65.13,235.9a.55.55,0,0,1-.14.19.34.34,0,0,1-.25.07H64l1.11-2.41L62.56,228h.92a.32.32,0,0,1,.22.07.42.42,0,0,1,.11.15l1.62,3.83a2.77,2.77,0,0,1,.1.26c0,.09,0,.18.07.27a2.76,2.76,0,0,1,.08-.27c0-.09.06-.18.1-.27l1.57-3.82a.34.34,0,0,1,.13-.16.33.33,0,0,1,.19-.06h.85Z"/><path class="b6547c22-cc11-4a37-84e5-ffd897bc62a8" d="M73,229a.23.23,0,0,1-.22.13.35.35,0,0,1-.2-.07l-.28-.14a1.68,1.68,0,0,0-.4-.15,1.73,1.73,0,0,0-.54-.07,1.43,1.43,0,0,0-.48.07,1,1,0,0,0-.37.19.92.92,0,0,0-.24.28.77.77,0,0,0-.08.34.56.56,0,0,0,.14.39,1.3,1.3,0,0,0,.36.27,2.6,2.6,0,0,0,.5.2l.58.19a5.77,5.77,0,0,1,.58.22,2.07,2.07,0,0,1,.5.3,1.29,1.29,0,0,1,.36.44,1.34,1.34,0,0,1,.13.63,2,2,0,0,1-.15.77,1.71,1.71,0,0,1-.44.62,2.3,2.3,0,0,1-.72.41,3,3,0,0,1-1,.15,3.06,3.06,0,0,1-1.15-.21,2.71,2.71,0,0,1-.87-.53l.25-.41a.43.43,0,0,1,.11-.12.44.44,0,0,1,.18,0,.4.4,0,0,1,.23.09l.29.18a2.26,2.26,0,0,0,.41.19,1.8,1.8,0,0,0,.61.08,1.55,1.55,0,0,0,.55-.08,1.24,1.24,0,0,0,.39-.22.9.9,0,0,0,.23-.32,1,1,0,0,0,.07-.38.64.64,0,0,0-.13-.42,1.15,1.15,0,0,0-.36-.28,3,3,0,0,0-.51-.2l-.58-.19a5.71,5.71,0,0,1-.58-.21,2.57,2.57,0,0,1-.51-.31,1.35,1.35,0,0,1-.49-1.13,1.66,1.66,0,0,1,.14-.66,1.69,1.69,0,0,1,.42-.57,2,2,0,0,1,.68-.38,2.65,2.65,0,0,1,.92-.15,2.85,2.85,0,0,1,1.08.19,2.67,2.67,0,0,1,.82.52Z"/><path class="b6547c22-cc11-4a37-84e5-ffd897bc62a8" d="M76.13,226.12a.59.59,0,0,1-.07.29.78.78,0,0,1-.16.24.82.82,0,0,1-.25.16.64.64,0,0,1-.58,0,.78.78,0,0,1-.24-.16.81.81,0,0,1-.17-.24.72.72,0,0,1-.06-.29.77.77,0,0,1,.06-.3.87.87,0,0,1,.41-.41.73.73,0,0,1,.58,0,.85.85,0,0,1,.25.17.78.78,0,0,1,.16.24A.63.63,0,0,1,76.13,226.12ZM75.89,228v6.07H74.82V228Z"/><path class="b6547c22-cc11-4a37-84e5-ffd897bc62a8" d="M81.25,229a.23.23,0,0,1-.22.13.35.35,0,0,1-.2-.07l-.28-.14a1.68,1.68,0,0,0-.4-.15,1.73,1.73,0,0,0-.54-.07,1.43,1.43,0,0,0-.48.07,1,1,0,0,0-.37.19.92.92,0,0,0-.24.28.77.77,0,0,0-.08.34.56.56,0,0,0,.14.39,1.41,1.41,0,0,0,.35.27,3,3,0,0,0,.51.2l.58.19a5.77,5.77,0,0,1,.58.22,2.29,2.29,0,0,1,.5.3,1.29,1.29,0,0,1,.36.44,1.34,1.34,0,0,1,.13.63,2,2,0,0,1-.15.77,1.71,1.71,0,0,1-.44.62,2.3,2.3,0,0,1-.72.41,3,3,0,0,1-1,.15,3.06,3.06,0,0,1-1.15-.21,2.71,2.71,0,0,1-.87-.53l.25-.41a.43.43,0,0,1,.11-.12.44.44,0,0,1,.18,0A.37.37,0,0,1,78,233l.3.18a2.26,2.26,0,0,0,.41.19,1.77,1.77,0,0,0,.61.08,1.46,1.46,0,0,0,.54-.08,1,1,0,0,0,.39-.22.82.82,0,0,0,.24-.32,1,1,0,0,0,.07-.38.64.64,0,0,0-.13-.42,1.15,1.15,0,0,0-.36-.28,3,3,0,0,0-.51-.2l-.58-.19a5.71,5.71,0,0,1-.58-.21,2.57,2.57,0,0,1-.51-.31,1.35,1.35,0,0,1-.49-1.13,1.66,1.66,0,0,1,.14-.66,1.69,1.69,0,0,1,.42-.57,2,2,0,0,1,.68-.38,2.61,2.61,0,0,1,.92-.15,2.85,2.85,0,0,1,1.08.19,2.67,2.67,0,0,1,.82.52Z"/><path class="b6547c22-cc11-4a37-84e5-ffd897bc62a8" d="M22.55,142.21a.58.58,0,0,1-.12.14.24.24,0,0,1-.15,0,.4.4,0,0,1-.24-.1,2.89,2.89,0,0,0-.34-.22,2.59,2.59,0,0,0-.5-.23,2.47,2.47,0,0,0-1.39,0,1.61,1.61,0,0,0-.5.29,1.15,1.15,0,0,0-.31.42,1.32,1.32,0,0,0-.1.53.92.92,0,0,0,.18.59,1.41,1.41,0,0,0,.46.41,4,4,0,0,0,.66.29l.76.26a7,7,0,0,1,.76.29,2.84,2.84,0,0,1,.66.42,2,2,0,0,1,.47.62,2.16,2.16,0,0,1,.17.9,2.89,2.89,0,0,1-.19,1.06,2.61,2.61,0,0,1-.56.86,2.71,2.71,0,0,1-.91.57,3.32,3.32,0,0,1-1.22.21,3.78,3.78,0,0,1-1.52-.3,3.39,3.39,0,0,1-1.17-.82l.33-.55a.63.63,0,0,1,.12-.11.3.3,0,0,1,.15-.05.48.48,0,0,1,.29.14,4.43,4.43,0,0,0,.41.3,3.47,3.47,0,0,0,.58.29,2.36,2.36,0,0,0,.85.14,2.17,2.17,0,0,0,.74-.12,1.59,1.59,0,0,0,.55-.32,1.39,1.39,0,0,0,.34-.49,1.66,1.66,0,0,0,.12-.64,1.05,1.05,0,0,0-.18-.64,1.33,1.33,0,0,0-.46-.42,3.36,3.36,0,0,0-.66-.29l-.76-.24a7.61,7.61,0,0,1-.75-.28,2.48,2.48,0,0,1-.66-.42,2,2,0,0,1-.46-.65,2.41,2.41,0,0,1,0-1.83,2.31,2.31,0,0,1,.51-.76,2.42,2.42,0,0,1,.83-.53,3.09,3.09,0,0,1,1.14-.2,3.64,3.64,0,0,1,1.31.23,3,3,0,0,1,1,.66Z"/><path class="b6547c22-cc11-4a37-84e5-ffd897bc62a8" d="M26.74,143.29a2.56,2.56,0,0,1,1,.19,2.26,2.26,0,0,1,.8.52,2.39,2.39,0,0,1,.52.86,3.15,3.15,0,0,1,.19,1.15.83.83,0,0,1-.05.34.26.26,0,0,1-.21.08H25a3.22,3.22,0,0,0,.16,1,1.8,1.8,0,0,0,.39.71,1.58,1.58,0,0,0,.6.43,1.94,1.94,0,0,0,.78.14,2.31,2.31,0,0,0,.69-.09,3.19,3.19,0,0,0,.51-.2l.35-.2a.4.4,0,0,1,.24-.1.22.22,0,0,1,.2.11l.3.39a1.85,1.85,0,0,1-.47.41,2.49,2.49,0,0,1-.59.29,3,3,0,0,1-.65.17,3.88,3.88,0,0,1-.67.06,3.11,3.11,0,0,1-1.16-.21,2.52,2.52,0,0,1-.92-.63,2.74,2.74,0,0,1-.6-1,4.27,4.27,0,0,1-.22-1.39,3.54,3.54,0,0,1,.2-1.19,2.86,2.86,0,0,1,.56-1,2.64,2.64,0,0,1,.89-.64A3,3,0,0,1,26.74,143.29Zm0,.79a1.62,1.62,0,0,0-1.22.45,2,2,0,0,0-.55,1.24h3.3a2.17,2.17,0,0,0-.1-.69,1.62,1.62,0,0,0-.3-.53,1.3,1.3,0,0,0-.48-.35A1.67,1.67,0,0,0,26.77,144.08Z"/><path class="b6547c22-cc11-4a37-84e5-ffd897bc62a8" d="M35.54,143.39v8.14H34.47v-3a3.44,3.44,0,0,1-.87.71,2.29,2.29,0,0,1-1.12.27,2.24,2.24,0,0,1-.95-.2,2,2,0,0,1-.73-.59,2.82,2.82,0,0,1-.46-1,5,5,0,0,1-.16-1.34,4.15,4.15,0,0,1,.18-1.25,3,3,0,0,1,.52-1,2.55,2.55,0,0,1,.82-.67,2.51,2.51,0,0,1,1.11-.24,2.2,2.2,0,0,1,1,.21,2.3,2.3,0,0,1,.73.6l.07-.48a.27.27,0,0,1,.29-.22Zm-2.71,5.3a1.75,1.75,0,0,0,.92-.24,2.7,2.7,0,0,0,.72-.68v-2.94a1.72,1.72,0,0,0-.64-.55,1.85,1.85,0,0,0-.78-.16,1.54,1.54,0,0,0-1.31.6,2.87,2.87,0,0,0-.46,1.73,4.3,4.3,0,0,0,.11,1,1.68,1.68,0,0,0,.3.69,1.15,1.15,0,0,0,.48.4A1.53,1.53,0,0,0,32.83,148.69Z"/><path class="b6547c22-cc11-4a37-84e5-ffd897bc62a8" d="M38.26,143.39v3.88a1.6,1.6,0,0,0,.31,1.06,1.18,1.18,0,0,0,1,.38,1.83,1.83,0,0,0,.89-.22,2.73,2.73,0,0,0,.76-.62v-4.48h1.07v6.08h-.64a.28.28,0,0,1-.29-.22l-.08-.66a3.52,3.52,0,0,1-.89.71,2.41,2.41,0,0,1-1.13.26,2.23,2.23,0,0,1-.88-.16,1.87,1.87,0,0,1-.64-.47,1.91,1.91,0,0,1-.38-.72,3.14,3.14,0,0,1-.13-.94v-3.88Z"/><path class="b6547c22-cc11-4a37-84e5-ffd897bc62a8" d="M46.41,143.29a2.59,2.59,0,0,1,1,.19,2.26,2.26,0,0,1,.8.52,2.54,2.54,0,0,1,.52.86,3.15,3.15,0,0,1,.19,1.15.83.83,0,0,1,0,.34.26.26,0,0,1-.21.08h-4a3.57,3.57,0,0,0,.15,1,1.94,1.94,0,0,0,.4.71,1.58,1.58,0,0,0,.6.43,1.94,1.94,0,0,0,.78.14,2.31,2.31,0,0,0,.69-.09,3.05,3.05,0,0,0,.5-.2l.35-.2a.45.45,0,0,1,.25-.1.23.23,0,0,1,.2.11l.3.39a1.85,1.85,0,0,1-.47.41,2.69,2.69,0,0,1-.59.29,3,3,0,0,1-.65.17,3.88,3.88,0,0,1-.67.06,3.11,3.11,0,0,1-1.16-.21,2.44,2.44,0,0,1-.92-.63,2.74,2.74,0,0,1-.6-1,4,4,0,0,1-.22-1.39,3.54,3.54,0,0,1,.2-1.19,2.7,2.7,0,0,1,.56-1,2.64,2.64,0,0,1,.89-.64A3,3,0,0,1,46.41,143.29Zm0,.79a1.61,1.61,0,0,0-1.21.45,2.11,2.11,0,0,0-.56,1.24H48a2.17,2.17,0,0,0-.1-.69,1.62,1.62,0,0,0-.3-.53,1.33,1.33,0,0,0-.49-.35A1.64,1.64,0,0,0,46.43,144.08Z"/><path class="b6547c22-cc11-4a37-84e5-ffd897bc62a8" d="M50.29,149.47v-6.08h.64a.27.27,0,0,1,.29.22l.08.66a3.48,3.48,0,0,1,.88-.71,2.34,2.34,0,0,1,1.14-.27,2.14,2.14,0,0,1,.87.17,1.59,1.59,0,0,1,.64.47,2,2,0,0,1,.39.73,3.05,3.05,0,0,1,.13.94v3.87H54.28V145.6a1.63,1.63,0,0,0-.31-1.07,1.16,1.16,0,0,0-1-.38,1.8,1.8,0,0,0-.88.22,3,3,0,0,0-.76.62v4.48Z"/><path class="b6547c22-cc11-4a37-84e5-ffd897bc62a8" d="M61.11,144.47a.32.32,0,0,1-.1.1.17.17,0,0,1-.13,0,.37.37,0,0,1-.2-.08l-.27-.16a2.06,2.06,0,0,0-.39-.17,1.85,1.85,0,0,0-.57-.07,1.78,1.78,0,0,0-.78.16,1.52,1.52,0,0,0-.58.46,2,2,0,0,0-.34.72,3.55,3.55,0,0,0-.12,1,3.32,3.32,0,0,0,.13,1,2.2,2.2,0,0,0,.35.72,1.55,1.55,0,0,0,.55.44,1.78,1.78,0,0,0,.74.15,1.93,1.93,0,0,0,.64-.09,1.64,1.64,0,0,0,.42-.21,2.6,2.6,0,0,0,.28-.2.29.29,0,0,1,.21-.1.24.24,0,0,1,.21.11l.3.39a2.42,2.42,0,0,1-1,.71,3.56,3.56,0,0,1-1.26.22,2.67,2.67,0,0,1-1.06-.21,2.39,2.39,0,0,1-.84-.61,2.85,2.85,0,0,1-.57-1,4.26,4.26,0,0,1,0-2.58,3,3,0,0,1,.55-1,2.37,2.37,0,0,1,.9-.65,3,3,0,0,1,1.22-.24,2.85,2.85,0,0,1,1.13.21,2.58,2.58,0,0,1,.87.59Z"/><path class="b6547c22-cc11-4a37-84e5-ffd897bc62a8" d="M64,141.48a.69.69,0,0,1-.07.29.87.87,0,0,1-.41.41.72.72,0,0,1-.29.06.68.68,0,0,1-.29-.06.87.87,0,0,1-.41-.41.68.68,0,0,1-.06-.29.81.81,0,0,1,.47-.71.68.68,0,0,1,.29-.06.72.72,0,0,1,.29.06.87.87,0,0,1,.41.41A.82.82,0,0,1,64,141.48Zm-.24,1.91v6.08H62.69v-6.08Z"/><path class="b6547c22-cc11-4a37-84e5-ffd897bc62a8" d="M65.64,149.47v-6.08h.64a.26.26,0,0,1,.28.22l.09.66a3.48,3.48,0,0,1,.88-.71,2.33,2.33,0,0,1,1.13-.27,2.19,2.19,0,0,1,.88.17,1.59,1.59,0,0,1,.64.47,1.88,1.88,0,0,1,.38.73,3,3,0,0,1,.14.94v3.87H69.63V145.6a1.63,1.63,0,0,0-.32-1.07,1.16,1.16,0,0,0-1-.38,1.77,1.77,0,0,0-.88.22,3,3,0,0,0-.76.62v4.48Z"/><path class="b6547c22-cc11-4a37-84e5-ffd897bc62a8" d="M74.36,143.29a2.94,2.94,0,0,1,.74.09,2,2,0,0,1,.62.25h1.65v.4c0,.13-.08.21-.25.25l-.69.09a1.81,1.81,0,0,1,.21.87,1.92,1.92,0,0,1-.17.81,2,2,0,0,1-.48.62,2.1,2.1,0,0,1-.72.4,2.94,2.94,0,0,1-.91.14,3,3,0,0,1-.81-.11,1.28,1.28,0,0,0-.29.27.56.56,0,0,0-.1.28.38.38,0,0,0,.18.34,1.24,1.24,0,0,0,.46.16,4.19,4.19,0,0,0,.65,0h.75a3.81,3.81,0,0,1,.75.07,2.17,2.17,0,0,1,.65.22,1.17,1.17,0,0,1,.46.42,1.2,1.2,0,0,1,.18.69,1.6,1.6,0,0,1-.2.76,2.06,2.06,0,0,1-.56.66,2.77,2.77,0,0,1-.89.46,3.74,3.74,0,0,1-1.2.18,5,5,0,0,1-1.16-.13,2.83,2.83,0,0,1-.84-.36,1.57,1.57,0,0,1-.49-.51,1.25,1.25,0,0,1-.17-.61,1.12,1.12,0,0,1,.29-.77,1.91,1.91,0,0,1,.78-.5,1.11,1.11,0,0,1-.41-.32.87.87,0,0,1-.15-.54.71.71,0,0,1,.05-.27,1.22,1.22,0,0,1,.14-.28,1.52,1.52,0,0,1,.25-.26,1.36,1.36,0,0,1,.33-.22,1.88,1.88,0,0,1-.7-.67,1.84,1.84,0,0,1-.26-1,1.91,1.91,0,0,1,.17-.8,1.85,1.85,0,0,1,.48-.62,2.22,2.22,0,0,1,.73-.39A2.75,2.75,0,0,1,74.36,143.29Zm1.89,6.49a.58.58,0,0,0-.12-.38.86.86,0,0,0-.35-.21,2.2,2.2,0,0,0-.49-.12,5.74,5.74,0,0,0-.6,0h-.63a2.06,2.06,0,0,1-.62-.09,2,2,0,0,0-.56.4.81.81,0,0,0-.21.56.73.73,0,0,0,.11.38.87.87,0,0,0,.32.31,2,2,0,0,0,.54.2,3.75,3.75,0,0,0,1.54,0,1.71,1.71,0,0,0,.58-.23,1.13,1.13,0,0,0,.37-.35A.83.83,0,0,0,76.25,149.78Zm-1.89-3.28a1.7,1.7,0,0,0,.57-.09,1.34,1.34,0,0,0,.42-.25,1.14,1.14,0,0,0,.25-.39,1.59,1.59,0,0,0,.08-.5,1.15,1.15,0,0,0-.34-.88,1.62,1.62,0,0,0-2,0,1.15,1.15,0,0,0-.34.88,1.59,1.59,0,0,0,.08.5,1.16,1.16,0,0,0,.26.39,1.29,1.29,0,0,0,.41.25A1.66,1.66,0,0,0,74.36,146.5Z"/><line class="5de7f281-1760-4a1d-a1e8-3df6384a484c" x1="87.83" y1="231.49" x2="131.5" y2="231.49"/><path class="5de7f281-1760-4a1d-a1e8-3df6384a484c" d="M92.33,190.19h4.25c2.34,0,5.38-2.29,6.75-5.09L121,149c1.37-2.8,4.29-5.09,6.49-5.09h4"/></g></svg>