<svg xmlns="http://www.w3.org/2000/svg" viewBox="0 0 118.66 36"><g id="Layer_2" data-name="Layer 2"><g id="Layer_1-2" data-name="Layer 1"><polygon points="6.74 12.37 6.74 16.01 5.54 16.01 7.21 19.72 8.84 16.01 7.64 16.01 7.64 12.37 6.74 12.37"/><path d="M30,17.69H28.34a2,2,0,0,0-1.53-1.53V12.83h2.47a.47.47,0,0,0,.46-.46v-.68h3.58a.45.45,0,0,0,.37-.2.48.48,0,0,0,.05-.42A17.48,17.48,0,1,0,17.47,35a17.29,17.29,0,0,0,1.76-.09L19.46,36l3.31-2.34-4-.89L19,34c-.52,0-1,.08-1.57.08a16.44,16.44,0,0,1-3.31-.33V30a2.06,2.06,0,0,0,1.53-1.53h4.7a.45.45,0,0,0,.45-.45V12.37h-.9V27.52H15.69A2.07,2.07,0,0,0,14.16,26V21.8a.46.46,0,0,0-.46-.45H10.57v-.69a.45.45,0,0,0-.45-.45H4.27a.46.46,0,0,0-.46.45v2.28a.46.46,0,0,0,.46.45H6.74v6.69A16.56,16.56,0,0,1,2,11.69H12.56v-.91H2.32A16.68,16.68,0,0,1,6.74,4.87v5.22h.91V4.15a16.44,16.44,0,0,1,5.6-2.7V4.09a2,2,0,0,0,0,4V18.14a.45.45,0,0,0,.45.45h5.54v-.9H14.16V8.05a2,2,0,0,0,0-4V1.24A16.44,16.44,0,0,1,17.47.91a16.8,16.8,0,0,1,2.47.18v9h.9V1.25a16.47,16.47,0,0,1,11.8,9.53h-2.9v-.69a.46.46,0,0,0-.46-.45H23.43a.45.45,0,0,0-.45.45v.69H14.84v.91H23v.68a.46.46,0,0,0,.45.46H25.9v3.33a2,2,0,0,0-1.53,1.53H21.53v.9h2.84a2,2,0,0,0,4,0H30v1.2l3.72-1.63L30,16.49ZM14.84,28a1.14,1.14,0,1,1-1.14-1.13A1.14,1.14,0,0,1,14.84,28ZM4.72,21.11h5v1.38H4.72Zm2.93,2.28h2.47a.45.45,0,0,0,.45-.45v-.69h2.68V26a2,2,0,0,0,0,4V33.5a16.62,16.62,0,0,1-5.6-2.7ZM14.84,6.07A1.14,1.14,0,1,1,13.7,4.94,1.13,1.13,0,0,1,14.84,6.07Zm9,4.48h4.95v1.37H23.88Zm2.48,8.72a1.13,1.13,0,1,1,1.13-1.13A1.14,1.14,0,0,1,26.36,19.27Z"/><path d="M39.91,22.7a.25.25,0,0,1-.06.17.17.17,0,0,1-.13.08,1.6,1.6,0,0,0-.95.38A3.55,3.55,0,0,0,38,24.55l-4,9c0,.08-.1.12-.22.12a.25.25,0,0,1-.22-.12l-2.25-4.7-2.59,4.7a.25.25,0,0,1-.22.12.23.23,0,0,1-.23-.12l-3.94-9a3.15,3.15,0,0,0-.78-1.18A2,2,0,0,0,22.4,23a.15.15,0,0,1-.12-.07.2.2,0,0,1-.05-.15q0-.21.12-.21c.35,0,.72,0,1.1,0a9.09,9.09,0,0,0,1,.05c.32,0,.7,0,1.14-.05s.86,0,1.21,0q.12,0,.12.21c0,.15,0,.22-.07.22a1.57,1.57,0,0,0-.83.27.7.7,0,0,0-.31.6,1.12,1.12,0,0,0,.13.47l3.21,7.38L31,28.16l-1.72-3.61a4.8,4.8,0,0,0-.76-1.26,1.56,1.56,0,0,0-.91-.34s-.07,0-.11-.07a.25.25,0,0,1-.05-.15c0-.14,0-.21.11-.21a9.54,9.54,0,0,1,1,0,6.66,6.66,0,0,0,.91.05,8.92,8.92,0,0,0,1-.05c.36,0,.71,0,1.07,0q.12,0,.12.21c0,.15,0,.22-.08.22q-1,.07-1.05.6a2,2,0,0,0,.24.74l1.14,2.31L33,24.48a1.65,1.65,0,0,0,.23-.75q0-.74-1.05-.78c-.06,0-.1-.07-.1-.22a.24.24,0,0,1,.05-.14c0-.05.06-.07.1-.07.25,0,.56,0,.93,0a7.54,7.54,0,0,0,.86.05c.16,0,.4,0,.72,0s.73-.05,1-.05q.09,0,.09.18c0,.17-.06.25-.17.25a2,2,0,0,0-1,.34,4.17,4.17,0,0,0-.93,1.26l-1.51,2.8,2,4.16,3-7a1.85,1.85,0,0,0,.16-.72c0-.51-.35-.79-1.05-.82-.06,0-.1-.07-.1-.22s0-.21.15-.21.56,0,.91,0a6.6,6.6,0,0,0,.82.05,6.1,6.1,0,0,0,.8-.05c.31,0,.6,0,.85,0C39.87,22.52,39.91,22.58,39.91,22.7Z"/><path d="M41.93,33.28q0,.15-.09.15l-.87,0-.82,0-.82,0-.89,0q-.09,0-.09-.15t.09-.15a2,2,0,0,0,.91-.25.79.79,0,0,0,.24-.68V27a1.14,1.14,0,0,0-.1-.54.61.61,0,0,0-.34-.25,2.93,2.93,0,0,0-.71-.14c-.06,0-.09,0-.09-.16s0-.15.09-.15c.25,0,.55,0,.89,0l.82,0,.82,0c.34,0,.63,0,.87,0q.09,0,.09.15c0,.11,0,.16-.09.16a2.94,2.94,0,0,0-.7.14.65.65,0,0,0-.34.25,1.14,1.14,0,0,0-.09.54V32.2a1.19,1.19,0,0,0,.09.54.71.71,0,0,0,.34.25,2.84,2.84,0,0,0,.7.14Q41.93,33.14,41.93,33.28Z"/><path d="M51.17,33.28q0,.15-.09.15l-.88,0-.83,0-.89,0-1,0q-.09,0-.09-.15c0-.09,0-.14.08-.15.49-.06.74-.18.74-.36a.66.66,0,0,0-.24-.39l-2.19-2.23a1.06,1.06,0,0,0-.31-.23.84.84,0,0,0-.35-.05V32.2a1.05,1.05,0,0,0,.1.54.62.62,0,0,0,.34.25,2.84,2.84,0,0,0,.7.14q.09,0,.09.15t-.09.15l-.88,0-.83,0-.81,0-.89,0c-.05,0-.08,0-.08-.15s0-.14.08-.15a2,2,0,0,0,.91-.25A.79.79,0,0,0,44,32.2V27a1,1,0,0,0-.1-.54.58.58,0,0,0-.33-.25,3,3,0,0,0-.72-.14c-.05,0-.08,0-.08-.16s0-.15.08-.15c.25,0,.54,0,.89,0l.81,0,.83,0c.34,0,.64,0,.88,0q.09,0,.09.15c0,.11,0,.16-.09.16a3,3,0,0,0-.71.14.63.63,0,0,0-.33.25,1,1,0,0,0-.1.54v2.5a1.13,1.13,0,0,0,.35-.05,1.51,1.51,0,0,0,.31-.23l2.42-2.39c.2-.19.3-.32.3-.41a.23.23,0,0,0-.15-.22,1.68,1.68,0,0,0-.56-.13c-.06,0-.09,0-.09-.16s0-.15.1-.15a6.49,6.49,0,0,1,.68,0l.75,0a5.56,5.56,0,0,0,.67,0l.51,0c.05,0,.08.05.08.15s0,.16-.09.16a2.56,2.56,0,0,0-.83.21,3.47,3.47,0,0,0-.73.56l-2.51,2.39,3.12,3.18a2.67,2.67,0,0,0,.64.49,3.24,3.24,0,0,0,1,.22C51.14,33.14,51.17,33.19,51.17,33.28Z"/><path d="M55.45,33.28c0,.1,0,.15-.08.15l-.88,0-.82,0-.82,0-.89,0q-.09,0-.09-.15t.09-.15a2,2,0,0,0,.91-.25.79.79,0,0,0,.24-.68V27a1,1,0,0,0-.1-.54.58.58,0,0,0-.34-.25,2.83,2.83,0,0,0-.71-.14c-.06,0-.09,0-.09-.16s0-.15.09-.15c.25,0,.55,0,.89,0l.82,0,.82,0c.34,0,.63,0,.88,0,.06,0,.08.05.08.15s0,.16-.08.16a2.93,2.93,0,0,0-.71.14.58.58,0,0,0-.33.25,1,1,0,0,0-.1.54V32.2a1.05,1.05,0,0,0,.1.54.63.63,0,0,0,.33.25,2.84,2.84,0,0,0,.7.14Q55.45,33.14,55.45,33.28Z"/><path d="M65.3,25.73a3,3,0,0,1-1.07,2.32A3.8,3.8,0,0,1,61.6,29c-.63,0-1.25,0-1.86-.07V31.7a1.56,1.56,0,0,0,.14.77.87.87,0,0,0,.48.35,4.16,4.16,0,0,0,1,.21c.09,0,.13.08.13.21s0,.22-.13.22c-.35,0-.76,0-1.25,0s-.85-.05-1.17-.05-.71,0-1.18.05-.91,0-1.26,0c-.08,0-.13-.07-.13-.22s.05-.2.13-.21a3,3,0,0,0,1.3-.35,1.18,1.18,0,0,0,.34-1V24.29a1.61,1.61,0,0,0-.14-.78.91.91,0,0,0-.48-.35,4.36,4.36,0,0,0-1-.21c-.08,0-.13-.07-.13-.22s.05-.21.13-.21c.35,0,.77,0,1.26,0s.86.05,1.18.05.71,0,1.17-.05.9,0,1.25,0a4.54,4.54,0,0,1,2.94.82A2.89,2.89,0,0,1,65.3,25.73Zm-1.74,0a2.91,2.91,0,0,0-.62-2,2,2,0,0,0-1.64-.71,3.9,3.9,0,0,0-.95.09.78.78,0,0,0-.47.31,1.73,1.73,0,0,0-.14.84v3.62a.47.47,0,0,0,.22.46,2.44,2.44,0,0,0,.92.11,2.61,2.61,0,0,0,2-.73A2.79,2.79,0,0,0,63.56,25.73Z"/><path d="M71.65,33.28q0,.15-.09.15l-.86,0-.7,0-.83,0-.9,0c-.06,0-.08,0-.08-.15s0-.15.06-.15A1.86,1.86,0,0,0,69,33a.35.35,0,0,0,.21-.33,1.7,1.7,0,0,0-.11-.46l-.63-1.85H66.17l-.63,1.71a1.79,1.79,0,0,0-.12.53c0,.33.3.5.89.53,0,0,.07,0,.07.15s0,.15-.09.15l-.73,0-.68,0-.59,0-.64,0c-.06,0-.08,0-.08-.13s0-.16.12-.17a1.38,1.38,0,0,0,.73-.25A2.33,2.33,0,0,0,65,32l2.58-6.33a.14.14,0,0,1,.15-.09c.09,0,.15,0,.17.08L70.14,32a1.78,1.78,0,0,0,.52.78,1.74,1.74,0,0,0,.88.32C71.62,33.14,71.65,33.19,71.65,33.28ZM68.31,30l-1-2.81L66.3,30Z"/><path d="M78.39,27.59c0,.06-.07.1-.2.1a.11.11,0,0,1-.11-.08,2,2,0,0,0-.68-1.1,2.22,2.22,0,0,0-1.3-.32h-.52a.57.57,0,0,0-.37.09.46.46,0,0,0-.1.33V32.2a1.05,1.05,0,0,0,.1.54.66.66,0,0,0,.34.25,2.94,2.94,0,0,0,.7.14q.09,0,.09.15t-.09.15l-.88,0-.81,0-.83,0-.88,0q-.09,0-.09-.15t.09-.15a2,2,0,0,0,.9-.25A.79.79,0,0,0,74,32.2V26.61a.42.42,0,0,0-.1-.33.55.55,0,0,0-.37-.09h-.43a2.55,2.55,0,0,0-1.41.4,1.83,1.83,0,0,0-.83,1,.11.11,0,0,1-.12.08q-.18,0-.18-.12c.2-.56.4-1.18.58-1.89a21.34,21.34,0,0,0,3.43.16,22.09,22.09,0,0,0,3.5-.16A18.84,18.84,0,0,0,78.39,27.59Z"/><path d="M87.71,33.28q0,.15-.09.15l-.89,0-.82,0-.77,0-.84,0s-.08,0-.08-.15,0-.14.09-.15A2.23,2.23,0,0,0,85,33a.49.49,0,0,0,.29-.25,1.66,1.66,0,0,0,.06-.53V29.74h-4.2V32.2a1.66,1.66,0,0,0,.06.53.49.49,0,0,0,.29.25,2.23,2.23,0,0,0,.69.15q.09,0,.09.15t-.09.15l-.83,0-.77,0-.83,0-.88,0q-.09,0-.09-.15t.09-.15a2,2,0,0,0,.9-.25A.79.79,0,0,0,80,32.2V27a1.17,1.17,0,0,0-.09-.54.65.65,0,0,0-.34-.25,2.93,2.93,0,0,0-.71-.14c-.06,0-.09,0-.09-.16s0-.15.09-.15c.24,0,.54,0,.88,0l.83,0,.77,0c.31,0,.59,0,.83,0q.09,0,.09.15c0,.11,0,.16-.09.16a2.63,2.63,0,0,0-.65.13.55.55,0,0,0-.3.22,1.25,1.25,0,0,0-.09.58v2.38h4.2V27a1.7,1.7,0,0,0-.06-.53.49.49,0,0,0-.29-.25,2.24,2.24,0,0,0-.7-.15s-.08,0-.08-.16,0-.15.08-.15c.25,0,.53,0,.84,0l.77,0,.82,0c.34,0,.64,0,.89,0q.09,0,.09.15c0,.11,0,.16-.09.16a2.93,2.93,0,0,0-.71.14.65.65,0,0,0-.34.25,1.14,1.14,0,0,0-.1.54V32.2a.79.79,0,0,0,.24.68,2,2,0,0,0,.91.25Q87.71,33.14,87.71,33.28Z"/><path d="M100.61,25.9a.16.16,0,0,1,0,.12.12.12,0,0,1-.09.06,1.15,1.15,0,0,0-.67.26,2.44,2.44,0,0,0-.53.85l-2.81,6.33a.14.14,0,0,1-.15.09.18.18,0,0,1-.16-.09l-1.58-3.28-1.81,3.28a.16.16,0,0,1-.15.09.16.16,0,0,1-.16-.09L89.7,27.19a2,2,0,0,0-.55-.82,1.38,1.38,0,0,0-.79-.29.14.14,0,0,1-.09,0,.21.21,0,0,1,0-.11q0-.15.09-.15a6.74,6.74,0,0,1,.77,0l.71,0,.79,0c.32,0,.61,0,.85,0q.09,0,.09.15c0,.11,0,.16,0,.16a1.11,1.11,0,0,0-.59.18.51.51,0,0,0-.21.42.9.9,0,0,0,.09.34L93,32.18l1.33-2.46-1.21-2.53a3.31,3.31,0,0,0-.54-.87,1.07,1.07,0,0,0-.63-.24s0,0-.08,0a.2.2,0,0,1,0-.11c0-.1,0-.15.08-.15a4.64,4.64,0,0,1,.67,0,6.4,6.4,0,0,0,.64,0l.7,0a6.28,6.28,0,0,1,.75,0s.08.05.08.15,0,.16,0,.16c-.49,0-.74.17-.74.42a1.4,1.4,0,0,0,.17.51l.8,1.62.79-1.48a1.23,1.23,0,0,0,.17-.53c0-.34-.25-.52-.74-.54,0,0-.07,0-.07-.16a.21.21,0,0,1,0-.1s0-.05.06-.05a5.48,5.48,0,0,1,.65,0l.61,0,.5,0c.28,0,.51,0,.7,0,0,0,.07.05.07.13s0,.18-.12.18a1.42,1.42,0,0,0-.7.23,3.26,3.26,0,0,0-.65.88l-1.06,2,1.44,2.92,2.11-4.92a1.23,1.23,0,0,0,.11-.5c0-.36-.24-.55-.74-.57,0,0-.06,0-.06-.16s0-.15.1-.15a5.33,5.33,0,0,1,.64,0l.57,0,.56,0a4.38,4.38,0,0,1,.59,0C100.59,25.77,100.61,25.82,100.61,25.9Z"/><path d="M106.64,33.28q0,.15-.09.15l-.86,0-.71,0-.83,0-.89,0q-.09,0-.09-.15c0-.1,0-.15.07-.15a1.8,1.8,0,0,0,.7-.13.34.34,0,0,0,.22-.33,1.7,1.7,0,0,0-.11-.46l-.63-1.85h-2.26l-.63,1.71a1.79,1.79,0,0,0-.12.53c0,.33.29.5.89.53q.06,0,.06.15c0,.1,0,.15-.08.15l-.74,0-.67,0-.6,0-.64,0s-.08,0-.08-.13,0-.16.13-.17a1.34,1.34,0,0,0,.72-.25A2.33,2.33,0,0,0,100,32l2.57-6.33a.16.16,0,0,1,.16-.09c.09,0,.14,0,.16.08L105.13,32a1.5,1.5,0,0,0,1.4,1.1C106.6,33.14,106.64,33.19,106.64,33.28ZM103.3,30l-1-2.81-1,2.81Z"/><path d="M113.73,25.92a.15.15,0,0,1,0,.11s0,0-.08,0a2.14,2.14,0,0,0-.83.22,2.65,2.65,0,0,0-.66.72l-2.06,3V32.2a1.55,1.55,0,0,0,.07.53.49.49,0,0,0,.29.25,2.24,2.24,0,0,0,.7.15c.06,0,.08.06.08.15s0,.15-.08.15l-.84,0-.78,0-.82,0-.88,0q-.09,0-.09-.15t.09-.15a2,2,0,0,0,.91-.25.79.79,0,0,0,.24-.68V30L107,27a2.38,2.38,0,0,0-.69-.72,2,2,0,0,0-.8-.22c-.06,0-.08,0-.08-.16s0-.15.08-.15.41,0,.71,0l.78,0,.77,0c.39,0,.71,0,1,0q.09,0,.09.15c0,.11,0,.16-.09.16-.48.06-.72.19-.72.37a1.21,1.21,0,0,0,.23.58l1.59,2.48L111.55,27a.93.93,0,0,0,.17-.46.33.33,0,0,0-.19-.31,1.87,1.87,0,0,0-.67-.17s-.06,0-.06-.16,0-.15.09-.15.48,0,.79,0l.76,0,.59,0a4.45,4.45,0,0,1,.61,0Q113.73,25.77,113.73,25.92Z"/><path d="M118.66,31.22A2.32,2.32,0,0,1,118,33a2.35,2.35,0,0,1-1.76.65,4.77,4.77,0,0,1-1.17-.18,4.74,4.74,0,0,0-1-.16c0-.62-.07-1.25-.13-1.87,0-.06,0-.09.16-.09s.13,0,.14.09a3.11,3.11,0,0,0,.77,1.44,1.85,1.85,0,0,0,1.3.42,1.36,1.36,0,0,0,1-.39,1.5,1.5,0,0,0,.36-1.08,1.26,1.26,0,0,0-.32-.83A5.45,5.45,0,0,0,116,30a5.79,5.79,0,0,1-1.56-1.17,1.7,1.7,0,0,1-.37-1.07,2,2,0,0,1,.66-1.51,2.37,2.37,0,0,1,1.69-.62,4.4,4.4,0,0,1,.89.1,4.44,4.44,0,0,0,.81.1c0,.64.1,1.21.18,1.7q0,.09-.15.09c-.1,0-.16,0-.17-.09a2.36,2.36,0,0,0-.55-1.19,1.41,1.41,0,0,0-1-.36,1.24,1.24,0,0,0-1.35,1.34,1.16,1.16,0,0,0,.3.75,6,6,0,0,0,1.33.95,5.92,5.92,0,0,1,1.59,1.18A1.64,1.64,0,0,1,118.66,31.22Z"/></g></g></svg>