<svg xmlns="http://www.w3.org/2000/svg" viewBox="0 0 190.61 307.99"><defs><style>.\35 e28e097-300f-47ab-bd0d-512868267927,.\39 bda5729-c1f0-42b5-804f-ffa6a223721a{fill:none;}.\35 e28e097-300f-47ab-bd0d-512868267927,.\38 88a9742-f7c0-49d1-8ecb-01bb2959ccd7,.\39 bda5729-c1f0-42b5-804f-ffa6a223721a,.d0a57250-2c1c-43c4-895c-e73d27654770,.de425201-b6b3-4a6c-8ff9-48af4ef3578c{stroke:#575756;stroke-miterlimit:10;}.\35 e28e097-300f-47ab-bd0d-512868267927{stroke-dasharray:1.83 1.83;}.\36 e9f7ce7-03d5-4ee3-a94a-54056081c483,.de425201-b6b3-4a6c-8ff9-48af4ef3578c{fill:#a7cee3;}.\38 88a9742-f7c0-49d1-8ecb-01bb2959ccd7,.d0a57250-2c1c-43c4-895c-e73d27654770,.de425201-b6b3-4a6c-8ff9-48af4ef3578c{stroke-width:0.5px;}.d0a57250-2c1c-43c4-895c-e73d27654770,.e873b108-167d-46f5-aa5e-55a41ef4f281{fill:#fb9a99;}.\38 88a9742-f7c0-49d1-8ecb-01bb2959ccd7{fill:#fffbbf;}.\33 cea2ad4-9693-482d-94f8-38dc7de575c0{fill:#575756;}</style></defs><title>rnaseq</title><g id="92559195-ea14-426a-95a6-ce0ca1ab0866" data-name="lines"><line class="9bda5729-c1f0-42b5-804f-ffa6a223721a" x1="48.44" y1="109.69" x2="70.59" y2="109.69"/><line class="9bda5729-c1f0-42b5-804f-ffa6a223721a" x1="48.44" y1="139.66" x2="70.59" y2="139.66"/><line class="9bda5729-c1f0-42b5-804f-ffa6a223721a" x1="48.44" y1="128.85" x2="49.44" y2="128.85"/><line class="5e28e097-300f-47ab-bd0d-512868267927" x1="51.27" y1="128.85" x2="68.67" y2="128.85"/><line class="9bda5729-c1f0-42b5-804f-ffa6a223721a" x1="69.59" y1="128.85" x2="70.59" y2="128.85"/></g><g id="67fa1e90-3370-4e9e-b84f-d511cdb91fdb" data-name="boxes"><rect class="de425201-b6b3-4a6c-8ff9-48af4ef3578c" x="5.77" y="77.98" width="100.58" height="7.67"/><rect class="d0a57250-2c1c-43c4-895c-e73d27654770" x="69.7" y="67.2" width="46.55" height="7.67"/><rect class="de425201-b6b3-4a6c-8ff9-48af4ef3578c" x="5.77" y="295.49" width="42.44" height="7.67"/><rect class="d0a57250-2c1c-43c4-895c-e73d27654770" x="36.24" y="284.71" width="46.55" height="7.67"/><rect class="de425201-b6b3-4a6c-8ff9-48af4ef3578c" x="5.77" y="167.24" width="80.42" height="7.67"/><rect class="888a9742-f7c0-49d1-8ecb-01bb2959ccd7" x="65.2" y="178.01" width="51.04" height="7.67"/><rect class="888a9742-f7c0-49d1-8ecb-01bb2959ccd7" x="22.36" y="263.25" width="93.88" height="7.67"/><rect class="d0a57250-2c1c-43c4-895c-e73d27654770" x="5.42" y="156.46" width="46.55" height="7.67"/><rect class="de425201-b6b3-4a6c-8ff9-48af4ef3578c" x="5.77" y="252.24" width="83.51" height="7.67"/><rect class="888a9742-f7c0-49d1-8ecb-01bb2959ccd7" x="73.49" y="295.49" width="42.75" height="7.67"/><rect class="d0a57250-2c1c-43c4-895c-e73d27654770" x="36.24" y="241.46" width="46.55" height="7.67"/><rect class="888a9742-f7c0-49d1-8ecb-01bb2959ccd7" x="59.51" y="220.87" width="56.73" height="7.67"/><rect class="de425201-b6b3-4a6c-8ff9-48af4ef3578c" x="5.77" y="209.86" width="74.76" height="7.67"/><rect class="d0a57250-2c1c-43c4-895c-e73d27654770" x="29.24" y="199.08" width="46.55" height="7.67"/><rect class="de425201-b6b3-4a6c-8ff9-48af4ef3578c" x="5.77" y="105.85" width="42.44" height="7.67"/><rect class="de425201-b6b3-4a6c-8ff9-48af4ef3578c" x="70.4" y="105.85" width="37.77" height="7.67"/><rect class="d0a57250-2c1c-43c4-895c-e73d27654770" x="40.7" y="95.08" width="46.55" height="7.67"/><rect class="de425201-b6b3-4a6c-8ff9-48af4ef3578c" x="5.77" y="135.82" width="42.44" height="7.67"/><rect class="de425201-b6b3-4a6c-8ff9-48af4ef3578c" x="70.4" y="135.82" width="37.77" height="7.67"/><rect class="d0a57250-2c1c-43c4-895c-e73d27654770" x="40.7" y="125.05" width="7.74" height="7.67"/><rect class="d0a57250-2c1c-43c4-895c-e73d27654770" x="70.4" y="125.05" width="15.79" height="7.67"/><rect class="e873b108-167d-46f5-aa5e-55a41ef4f281" x="25.14" y="19.37" width="46.59" height="15.83"/><path class="3cea2ad4-9693-482d-94f8-38dc7de575c0" d="M71.48,19.62V35H25.39V19.62H71.48m.5-.5H24.89V35.46H72V19.12Z"/><rect class="6e9f7ce7-03d5-4ee3-a94a-54056081c483" x="5.52" y="38.51" width="101.08" height="15.83"/><path class="3cea2ad4-9693-482d-94f8-38dc7de575c0" d="M106.35,38.76V54.09H5.77V38.76H106.35m.5-.5H5.27V54.59H106.85V38.26Z"/></g><g id="b01ff962-5722-4790-9c42-485f788d087a" data-name="text-annotations"><path class="3cea2ad4-9693-482d-94f8-38dc7de575c0" d="M47.25,49.91a5.41,5.41,0,0,0,.59,0,4,4,0,0,0,.5-.09,3,3,0,0,0,.45-.15l.41-.19V47.71H48a.25.25,0,0,1-.17-.06.2.2,0,0,1-.06-.15v-.61h2.42v3a3.9,3.9,0,0,1-.62.37,3.71,3.71,0,0,1-.68.27,6.13,6.13,0,0,1-.79.16,8.46,8.46,0,0,1-.91.05,4.22,4.22,0,0,1-1.57-.29,3.52,3.52,0,0,1-1.23-.83,3.79,3.79,0,0,1-.81-1.27,4.78,4.78,0,0,1,0-3.28,3.64,3.64,0,0,1,.81-1.27A3.59,3.59,0,0,1,45.64,43a4.6,4.6,0,0,1,1.67-.29,5.65,5.65,0,0,1,.86.07,4.11,4.11,0,0,1,.75.2,4.21,4.21,0,0,1,.64.31,5.56,5.56,0,0,1,.54.42l-.3.48a.28.28,0,0,1-.24.15.41.41,0,0,1-.2-.06l-.31-.19a3.09,3.09,0,0,0-.41-.21,3.37,3.37,0,0,0-.58-.17,3.62,3.62,0,0,0-.79-.07,3.09,3.09,0,0,0-1.2.22,2.45,2.45,0,0,0-.92.62,2.66,2.66,0,0,0-.58,1,4.1,4.1,0,0,0,0,2.62,2.87,2.87,0,0,0,.59,1,2.54,2.54,0,0,0,.92.62A2.92,2.92,0,0,0,47.25,49.91Z"/><path class="3cea2ad4-9693-482d-94f8-38dc7de575c0" d="M53.86,45a2.56,2.56,0,0,1,.93.17,2,2,0,0,1,.73.49,2.34,2.34,0,0,1,.48.78,3.14,3.14,0,0,1,.17,1.06.53.53,0,0,1-.05.3.19.19,0,0,1-.18.08H52.23a3.12,3.12,0,0,0,.14.92,1.93,1.93,0,0,0,.36.65,1.63,1.63,0,0,0,.55.39A1.88,1.88,0,0,0,54,50a1.91,1.91,0,0,0,.63-.09,2,2,0,0,0,.46-.18l.33-.18a.4.4,0,0,1,.22-.09.23.23,0,0,1,.19.09l.27.36a1.73,1.73,0,0,1-.43.38,2.56,2.56,0,0,1-.55.27,4,4,0,0,1-.59.16,4.3,4.3,0,0,1-.61,0,3.08,3.08,0,0,1-1.07-.19A2.58,2.58,0,0,1,52,50a2.52,2.52,0,0,1-.55-.93,3.82,3.82,0,0,1-.2-1.28,3.18,3.18,0,0,1,.18-1.08,2.64,2.64,0,0,1,.51-.88,2.57,2.57,0,0,1,.82-.59A2.75,2.75,0,0,1,53.86,45Zm0,.72a1.5,1.5,0,0,0-1.11.41,2,2,0,0,0-.51,1.14h3a2,2,0,0,0-.09-.62,1.31,1.31,0,0,0-.28-.49,1.16,1.16,0,0,0-.44-.32A1.4,1.4,0,0,0,53.88,45.74Z"/><path class="3cea2ad4-9693-482d-94f8-38dc7de575c0" d="M57.42,50.68V45.11H58a.26.26,0,0,1,.27.21l.07.6a3.35,3.35,0,0,1,.82-.65,2.12,2.12,0,0,1,1-.25,2.05,2.05,0,0,1,.81.15,1.79,1.79,0,0,1,.58.43,2.05,2.05,0,0,1,.36.67,3,3,0,0,1,.12.87v3.54h-1V47.14a1.54,1.54,0,0,0-.29-1,1.09,1.09,0,0,0-.88-.35,1.7,1.7,0,0,0-.82.21,2.62,2.62,0,0,0-.69.57v4.1Z"/><path class="3cea2ad4-9693-482d-94f8-38dc7de575c0" d="M65.74,45a2.56,2.56,0,0,1,.93.17,2,2,0,0,1,.73.49,2.34,2.34,0,0,1,.48.78,3.14,3.14,0,0,1,.17,1.06.53.53,0,0,1,0,.3.19.19,0,0,1-.18.08H64.11a3.12,3.12,0,0,0,.14.92,1.93,1.93,0,0,0,.36.65,1.63,1.63,0,0,0,.55.39,1.88,1.88,0,0,0,.72.13,1.91,1.91,0,0,0,.63-.09,2,2,0,0,0,.46-.18l.33-.18a.4.4,0,0,1,.22-.09.23.23,0,0,1,.19.09l.27.36a1.73,1.73,0,0,1-.43.38,2.56,2.56,0,0,1-.55.27,4,4,0,0,1-.59.16,4.3,4.3,0,0,1-.61,0,3.08,3.08,0,0,1-1.07-.19,2.58,2.58,0,0,1-.84-.58,2.52,2.52,0,0,1-.55-.93,3.82,3.82,0,0,1-.2-1.28,3.18,3.18,0,0,1,.18-1.08,2.64,2.64,0,0,1,.51-.88,2.57,2.57,0,0,1,.82-.59A2.75,2.75,0,0,1,65.74,45Zm0,.72a1.5,1.5,0,0,0-1.11.41,2,2,0,0,0-.51,1.14h3a2,2,0,0,0-.09-.62,1.31,1.31,0,0,0-.28-.49,1.16,1.16,0,0,0-.44-.32A1.4,1.4,0,0,0,65.76,45.74Z"/><path class="3cea2ad4-9693-482d-94f8-38dc7de575c0" d="M38.05,28.22v3.29H37V23.63h2.22a5,5,0,0,1,1.3.15,2.52,2.52,0,0,1,.9.44,1.76,1.76,0,0,1,.52.69,2.44,2.44,0,0,1,0,1.68,2.1,2.1,0,0,1-.38.65,2.3,2.3,0,0,1-.61.5,3.32,3.32,0,0,1-.82.31,1,1,0,0,1,.35.33l2.3,3.13h-.94a.45.45,0,0,1-.43-.23l-2-2.81a.59.59,0,0,0-.2-.19.75.75,0,0,0-.33-.06Zm0-.77h1.12a2.57,2.57,0,0,0,.82-.12,1.6,1.6,0,0,0,.59-.32,1.25,1.25,0,0,0,.36-.49,1.61,1.61,0,0,0,.12-.63,1.25,1.25,0,0,0-.46-1.06,2.24,2.24,0,0,0-1.39-.36H38.05Z"/><path class="3cea2ad4-9693-482d-94f8-38dc7de575c0" d="M46,25.85a2.56,2.56,0,0,1,.93.17,2.11,2.11,0,0,1,.73.48,2.34,2.34,0,0,1,.48.78,3.18,3.18,0,0,1,.17,1.06.55.55,0,0,1,0,.31.19.19,0,0,1-.18.08H44.38a3.12,3.12,0,0,0,.14.92,2,2,0,0,0,.36.65,1.63,1.63,0,0,0,.55.39,2.09,2.09,0,0,0,.72.13,2,2,0,0,0,.64-.09,2.8,2.8,0,0,0,.45-.18l.33-.19a.46.46,0,0,1,.22-.08.23.23,0,0,1,.19.09l.27.36a2,2,0,0,1-.43.38,2.56,2.56,0,0,1-.55.27,3,3,0,0,1-.59.15,3.23,3.23,0,0,1-.61.06,2.87,2.87,0,0,1-1.07-.2,2.41,2.41,0,0,1-.84-.57,2.52,2.52,0,0,1-.55-.93,3.86,3.86,0,0,1-.2-1.28,3.24,3.24,0,0,1,.18-1.09,2.6,2.6,0,0,1,.51-.87,2.42,2.42,0,0,1,.82-.59A2.75,2.75,0,0,1,46,25.85Zm0,.72a1.5,1.5,0,0,0-1.11.41,2,2,0,0,0-.51,1.14h3a2.08,2.08,0,0,0-.09-.63,1.39,1.39,0,0,0-.28-.49,1.43,1.43,0,0,0-.44-.32A1.57,1.57,0,0,0,46,26.57Z"/><path class="3cea2ad4-9693-482d-94f8-38dc7de575c0" d="M53.66,31.51h-.43a.5.5,0,0,1-.23,0,.27.27,0,0,1-.12-.19l-.11-.52c-.14.13-.29.25-.43.36a2.43,2.43,0,0,1-.44.26,2,2,0,0,1-.49.16,2.58,2.58,0,0,1-.58.06,2,2,0,0,1-.61-.09,1.26,1.26,0,0,1-.49-.28,1.21,1.21,0,0,1-.33-.46,1.47,1.47,0,0,1-.13-.66,1.13,1.13,0,0,1,.19-.63,1.55,1.55,0,0,1,.58-.55,3.69,3.69,0,0,1,1.06-.39,7.31,7.31,0,0,1,1.6-.15V28a1.47,1.47,0,0,0-.28-1,1,1,0,0,0-.82-.34,1.72,1.72,0,0,0-.6.09,1.91,1.91,0,0,0-.43.21l-.3.2a.48.48,0,0,1-.26.09.31.31,0,0,1-.17,0,.49.49,0,0,1-.12-.13l-.18-.31a3.19,3.19,0,0,1,1-.67,3,3,0,0,1,1.18-.22,2.16,2.16,0,0,1,.83.15,1.82,1.82,0,0,1,.61.43,1.92,1.92,0,0,1,.38.67,2.88,2.88,0,0,1,.12.86Zm-2.54-.6a2.26,2.26,0,0,0,.47-.05,2.48,2.48,0,0,0,.41-.15,1.69,1.69,0,0,0,.36-.23,3.4,3.4,0,0,0,.34-.32V29a6.31,6.31,0,0,0-1.15.09,3.6,3.6,0,0,0-.77.22,1,1,0,0,0-.43.33.68.68,0,0,0-.14.42.89.89,0,0,0,.08.38.57.57,0,0,0,.19.26.69.69,0,0,0,.28.15A1,1,0,0,0,51.12,30.91Z"/><path class="3cea2ad4-9693-482d-94f8-38dc7de575c0" d="M59.07,31.51a.26.26,0,0,1-.27-.2l-.08-.68a3,3,0,0,1-.82.7,2.15,2.15,0,0,1-1,.26A1.92,1.92,0,0,1,56,31.4a1.82,1.82,0,0,1-.67-.54,2.63,2.63,0,0,1-.42-.89,4.55,4.55,0,0,1-.15-1.23,3.78,3.78,0,0,1,.17-1.14,2.51,2.51,0,0,1,.47-.92,2.28,2.28,0,0,1,.76-.62,2.18,2.18,0,0,1,1-.22,1.89,1.89,0,0,1,1.52.66V23.41h1v8.1Zm-1.9-.71a1.55,1.55,0,0,0,.84-.23,2.26,2.26,0,0,0,.66-.62V27.26a1.55,1.55,0,0,0-.59-.51,1.64,1.64,0,0,0-.71-.15,1.42,1.42,0,0,0-1.2.56,2.58,2.58,0,0,0-.42,1.58,3.66,3.66,0,0,0,.1.94,1.74,1.74,0,0,0,.27.63,1.07,1.07,0,0,0,.45.37A1.4,1.4,0,0,0,57.17,30.8Z"/><path class="3cea2ad4-9693-482d-94f8-38dc7de575c0" d="M133.68,39.49a5.09,5.09,0,0,0,.58,0,3.86,3.86,0,0,0,.51-.09,3.26,3.26,0,0,0,.44-.15,3.89,3.89,0,0,0,.42-.19V37.29h-1.22a.24.24,0,0,1-.17-.06.2.2,0,0,1-.06-.15v-.6h2.42v3a4.49,4.49,0,0,1-.62.38,4.69,4.69,0,0,1-.69.26,4.48,4.48,0,0,1-.78.16,6.48,6.48,0,0,1-.91.05,4,4,0,0,1-1.57-.29,3.68,3.68,0,0,1-2-2.1,4.5,4.5,0,0,1-.29-1.63,4.84,4.84,0,0,1,.28-1.65,3.54,3.54,0,0,1,2.08-2.09,4.47,4.47,0,0,1,1.67-.29,4.79,4.79,0,0,1,.87.07,4.11,4.11,0,0,1,.75.19,3.1,3.1,0,0,1,.63.32,3.74,3.74,0,0,1,.55.41l-.31.49a.27.27,0,0,1-.24.15.4.4,0,0,1-.19-.07l-.31-.18a1.74,1.74,0,0,0-.41-.21,3.62,3.62,0,0,0-.58-.18,3.68,3.68,0,0,0-.79-.07,3.11,3.11,0,0,0-1.21.22,2.42,2.42,0,0,0-.91.62,2.76,2.76,0,0,0-.59,1,4,4,0,0,0-.2,1.29,3.91,3.91,0,0,0,.21,1.33,2.74,2.74,0,0,0,.6,1,2.52,2.52,0,0,0,.91.63A3.13,3.13,0,0,0,133.68,39.49Z"/><path class="3cea2ad4-9693-482d-94f8-38dc7de575c0" d="M140.29,34.61a2.51,2.51,0,0,1,.92.16,2.18,2.18,0,0,1,.73.49,2.06,2.06,0,0,1,.48.78,2.91,2.91,0,0,1,.18,1.06.69.69,0,0,1,0,.31.22.22,0,0,1-.19.07h-3.71a3.05,3.05,0,0,0,.15.92,1.77,1.77,0,0,0,.36.65,1.32,1.32,0,0,0,.55.39,1.8,1.8,0,0,0,.71.13,2,2,0,0,0,.64-.08,2.91,2.91,0,0,0,.46-.19,2.28,2.28,0,0,0,.32-.18.42.42,0,0,1,.22-.09.23.23,0,0,1,.19.1l.28.36a2,2,0,0,1-.44.38,2.24,2.24,0,0,1-.54.26,2.94,2.94,0,0,1-.6.16,3.14,3.14,0,0,1-.61.05,2.81,2.81,0,0,1-1.06-.19,2.24,2.24,0,0,1-.84-.57,2.83,2.83,0,0,1-.56-.94,3.81,3.81,0,0,1-.19-1.27,3.24,3.24,0,0,1,.18-1.09,2.48,2.48,0,0,1,.51-.88,2.31,2.31,0,0,1,.82-.58A2.68,2.68,0,0,1,140.29,34.61Zm0,.72a1.49,1.49,0,0,0-1.12.41,1.88,1.88,0,0,0-.5,1.13h3a1.79,1.79,0,0,0-.1-.62,1.37,1.37,0,0,0-.27-.49,1.28,1.28,0,0,0-.44-.32A1.46,1.46,0,0,0,140.31,35.33Z"/><path class="3cea2ad4-9693-482d-94f8-38dc7de575c0" d="M143.85,40.27V34.69h.58a.24.24,0,0,1,.26.21l.08.6a3.36,3.36,0,0,1,.81-.65,2.19,2.19,0,0,1,1-.24,2,2,0,0,1,.8.15,1.5,1.5,0,0,1,.59.43,1.94,1.94,0,0,1,.35.67,2.88,2.88,0,0,1,.12.86v3.55h-1V36.72a1.45,1.45,0,0,0-.29-1,1,1,0,0,0-.88-.35,1.63,1.63,0,0,0-.81.21,2.78,2.78,0,0,0-.69.56v4.11Z"/><path class="3cea2ad4-9693-482d-94f8-38dc7de575c0" d="M152.17,34.61a2.51,2.51,0,0,1,.92.16,2.18,2.18,0,0,1,.73.49,2.06,2.06,0,0,1,.48.78,2.91,2.91,0,0,1,.18,1.06.69.69,0,0,1,0,.31.22.22,0,0,1-.19.07h-3.71a3.05,3.05,0,0,0,.15.92,1.77,1.77,0,0,0,.36.65,1.32,1.32,0,0,0,.55.39,1.8,1.8,0,0,0,.71.13,2,2,0,0,0,.64-.08,2.91,2.91,0,0,0,.46-.19,2.28,2.28,0,0,0,.32-.18.42.42,0,0,1,.22-.09.23.23,0,0,1,.19.1l.28.36a2,2,0,0,1-.44.38,2.24,2.24,0,0,1-.54.26,2.94,2.94,0,0,1-.6.16,3.14,3.14,0,0,1-.61.05,2.81,2.81,0,0,1-1.06-.19,2.24,2.24,0,0,1-.84-.57,2.83,2.83,0,0,1-.56-.94,3.81,3.81,0,0,1-.19-1.27,3.24,3.24,0,0,1,.18-1.09,2.48,2.48,0,0,1,.51-.88,2.31,2.31,0,0,1,.82-.58A2.68,2.68,0,0,1,152.17,34.61Zm0,.72a1.49,1.49,0,0,0-1.12.41,1.88,1.88,0,0,0-.5,1.13h3a1.79,1.79,0,0,0-.1-.62,1.37,1.37,0,0,0-.27-.49,1.28,1.28,0,0,0-.44-.32A1.46,1.46,0,0,0,152.19,35.33Z"/><path class="3cea2ad4-9693-482d-94f8-38dc7de575c0" d="M164.49,40.27h-.83a.36.36,0,0,1-.23-.08.35.35,0,0,1-.13-.18l-.74-1.9H159l-.74,1.9a.46.46,0,0,1-.13.18.38.38,0,0,1-.23.08h-.83l3.15-7.88h1.09Zm-5.17-2.93h3L161,34.13a5.89,5.89,0,0,1-.24-.74q-.06.22-.12.42c0,.12-.07.23-.11.33Z"/><path class="3cea2ad4-9693-482d-94f8-38dc7de575c0" d="M133.68,78.78a5.09,5.09,0,0,0,.58,0,3.86,3.86,0,0,0,.51-.09l.44-.14.42-.2V76.58h-1.22a.24.24,0,0,1-.17-.06.2.2,0,0,1-.06-.15v-.6h2.42v3a4.49,4.49,0,0,1-.62.38,4.69,4.69,0,0,1-.69.26,3.71,3.71,0,0,1-.78.16,6.42,6.42,0,0,1-.91.06,4,4,0,0,1-1.57-.3,3.49,3.49,0,0,1-1.23-.82,3.68,3.68,0,0,1-.81-1.28,4.5,4.5,0,0,1-.29-1.63A4.74,4.74,0,0,1,130,74a3.52,3.52,0,0,1,2.08-2.1,4.68,4.68,0,0,1,1.67-.29,4.79,4.79,0,0,1,.87.07,3.44,3.44,0,0,1,.75.2,3.08,3.08,0,0,1,.63.31,3.74,3.74,0,0,1,.55.41l-.31.49a.27.27,0,0,1-.24.15.38.38,0,0,1-.19-.06l-.31-.19a2.23,2.23,0,0,0-.41-.21,3.62,3.62,0,0,0-.58-.18,4.46,4.46,0,0,0-.79-.07,3.11,3.11,0,0,0-1.21.22,2.42,2.42,0,0,0-.91.62,2.76,2.76,0,0,0-.59,1,4,4,0,0,0-.2,1.29A3.91,3.91,0,0,0,131,77a2.78,2.78,0,0,0,.6,1,2.5,2.5,0,0,0,.91.62A3.13,3.13,0,0,0,133.68,78.78Z"/><path class="3cea2ad4-9693-482d-94f8-38dc7de575c0" d="M140.29,73.9a2.32,2.32,0,0,1,.92.17,2,2,0,0,1,.73.48,2.06,2.06,0,0,1,.48.78,2.91,2.91,0,0,1,.18,1.06.69.69,0,0,1,0,.31.22.22,0,0,1-.19.07h-3.71a3.05,3.05,0,0,0,.15.92,1.9,1.9,0,0,0,.36.66,1.53,1.53,0,0,0,.55.39,2,2,0,0,0,.71.12,2,2,0,0,0,.64-.08,4.45,4.45,0,0,0,.46-.18l.32-.19a.4.4,0,0,1,.22-.08.22.22,0,0,1,.19.09l.28.36a2,2,0,0,1-.44.38,2.73,2.73,0,0,1-.54.27,2.93,2.93,0,0,1-.6.15,3.14,3.14,0,0,1-.61,0,2.81,2.81,0,0,1-1.06-.19,2.24,2.24,0,0,1-.84-.57,2.69,2.69,0,0,1-.56-.93,3.87,3.87,0,0,1-.19-1.28,3.24,3.24,0,0,1,.18-1.09,2.48,2.48,0,0,1,.51-.88,2.31,2.31,0,0,1,.82-.58A2.68,2.68,0,0,1,140.29,73.9Zm0,.72a1.53,1.53,0,0,0-1.12.41,1.88,1.88,0,0,0-.5,1.13h3a1.79,1.79,0,0,0-.1-.62,1.37,1.37,0,0,0-.27-.49,1.28,1.28,0,0,0-.44-.32A1.64,1.64,0,0,0,140.31,74.62Z"/><path class="3cea2ad4-9693-482d-94f8-38dc7de575c0" d="M143.85,79.56V74h.58a.23.23,0,0,1,.26.2l.08.6a3.09,3.09,0,0,1,.81-.64,2.08,2.08,0,0,1,1-.25,2,2,0,0,1,.8.15,1.5,1.5,0,0,1,.59.43,1.94,1.94,0,0,1,.35.67,2.88,2.88,0,0,1,.12.86v3.55h-1V76a1.45,1.45,0,0,0-.29-1,1.07,1.07,0,0,0-.88-.35,1.63,1.63,0,0,0-.81.21,2.78,2.78,0,0,0-.69.56v4.11Z"/><path class="3cea2ad4-9693-482d-94f8-38dc7de575c0" d="M152.17,73.9a2.32,2.32,0,0,1,.92.17,2,2,0,0,1,.73.48,2.06,2.06,0,0,1,.48.78,2.91,2.91,0,0,1,.18,1.06.69.69,0,0,1,0,.31.22.22,0,0,1-.19.07h-3.71a3.05,3.05,0,0,0,.15.92,1.9,1.9,0,0,0,.36.66,1.53,1.53,0,0,0,.55.39,2,2,0,0,0,.71.12,2,2,0,0,0,.64-.08,4.45,4.45,0,0,0,.46-.18l.32-.19a.4.4,0,0,1,.22-.08.22.22,0,0,1,.19.09l.28.36a2,2,0,0,1-.44.38,2.73,2.73,0,0,1-.54.27,2.93,2.93,0,0,1-.6.15,3.14,3.14,0,0,1-.61,0,2.81,2.81,0,0,1-1.06-.19,2.24,2.24,0,0,1-.84-.57,2.69,2.69,0,0,1-.56-.93,3.87,3.87,0,0,1-.19-1.28,3.24,3.24,0,0,1,.18-1.09,2.48,2.48,0,0,1,.51-.88,2.31,2.31,0,0,1,.82-.58A2.68,2.68,0,0,1,152.17,73.9Zm0,.72a1.53,1.53,0,0,0-1.12.41,1.88,1.88,0,0,0-.5,1.13h3a1.79,1.79,0,0,0-.1-.62,1.37,1.37,0,0,0-.27-.49,1.28,1.28,0,0,0-.44-.32A1.64,1.64,0,0,0,152.19,74.62Z"/><path class="3cea2ad4-9693-482d-94f8-38dc7de575c0" d="M164.49,79.56h-.83a.42.42,0,0,1-.23-.07.43.43,0,0,1-.13-.19l-.74-1.9H159l-.74,1.9a.46.46,0,0,1-.13.18.38.38,0,0,1-.23.08h-.83l3.15-7.88h1.09Zm-5.17-2.93h3L161,73.43a6.73,6.73,0,0,1-.24-.75q-.06.22-.12.42c0,.12-.07.24-.11.33Z"/><path class="3cea2ad4-9693-482d-94f8-38dc7de575c0" d="M11.5,84.42H11a.21.21,0,0,1-.15,0,.27.27,0,0,1-.09-.12l-.36-1H8.5l-.36,1a.28.28,0,0,1-.08.11.2.2,0,0,1-.15.06H7.36L9.08,80.1h.71ZM8.69,82.8h1.48l-.59-1.58c0-.06-.05-.13-.08-.21s-.05-.17-.07-.26c0,.1,0,.18-.07.26l-.07.21Z"/><path class="3cea2ad4-9693-482d-94f8-38dc7de575c0" d="M11.5,112.34H11a.21.21,0,0,1-.15,0,.31.31,0,0,1-.09-.11l-.36-1H8.5l-.36,1a.28.28,0,0,1-.08.11.25.25,0,0,1-.15,0H7.36L9.08,108h.71Zm-2.81-1.62h1.48l-.59-1.58a2.07,2.07,0,0,1-.08-.2c0-.08-.05-.17-.07-.26,0,.09,0,.18-.07.26s0,.15-.07.21Z"/><path class="3cea2ad4-9693-482d-94f8-38dc7de575c0" d="M11.5,141.29H11a.21.21,0,0,1-.15,0,.27.27,0,0,1-.09-.12l-.36-.95H8.5l-.36.95a.28.28,0,0,1-.08.11.2.2,0,0,1-.15,0H7.36L9.08,137h.71Zm-2.81-1.62h1.48l-.59-1.58a1.38,1.38,0,0,1-.08-.2c0-.08-.05-.17-.07-.26,0,.09,0,.18-.07.26l-.07.21Z"/><path class="3cea2ad4-9693-482d-94f8-38dc7de575c0" d="M11.5,173.91H11a.21.21,0,0,1-.15,0,.27.27,0,0,1-.09-.12l-.36-.95H8.5l-.36.95a.28.28,0,0,1-.08.11.2.2,0,0,1-.15,0H7.36l1.72-4.32h.71Zm-2.81-1.62h1.48l-.59-1.57c0-.06-.05-.13-.08-.21s-.05-.17-.07-.26c0,.1,0,.18-.07.26l-.07.21Z"/><path class="3cea2ad4-9693-482d-94f8-38dc7de575c0" d="M11.5,215.35H11a.21.21,0,0,1-.15,0,.27.27,0,0,1-.09-.12l-.36-.95H8.5l-.36.95a.28.28,0,0,1-.08.11.2.2,0,0,1-.15,0H7.36L9.08,211h.71Zm-2.81-1.62h1.48l-.59-1.57c0-.06-.05-.13-.08-.21s-.05-.17-.07-.26c0,.09,0,.18-.07.26l-.07.21Z"/><path class="3cea2ad4-9693-482d-94f8-38dc7de575c0" d="M11.5,258.11H11a.21.21,0,0,1-.15,0,.34.34,0,0,1-.09-.12l-.36-.95H8.5l-.36.95a.28.28,0,0,1-.08.11.2.2,0,0,1-.15.05H7.36l1.72-4.32h.71Zm-2.81-1.62h1.48l-.59-1.58a1.38,1.38,0,0,1-.08-.2c0-.08-.05-.17-.07-.26,0,.09,0,.18-.07.26l-.07.21Z"/><path class="3cea2ad4-9693-482d-94f8-38dc7de575c0" d="M11.5,301.4H11a.21.21,0,0,1-.15,0,.34.34,0,0,1-.09-.12l-.36-.95H8.5l-.36.95a.28.28,0,0,1-.08.11.2.2,0,0,1-.15,0H7.36l1.72-4.32h.71Zm-2.81-1.62h1.48l-.59-1.58a1.38,1.38,0,0,1-.08-.2c0-.08-.05-.17-.07-.26,0,.09,0,.18-.07.26l-.07.21Z"/><path class="3cea2ad4-9693-482d-94f8-38dc7de575c0" d="M76,301.4v-4.32h1.43a2.9,2.9,0,0,1,.71.08,1.19,1.19,0,0,1,.48.23.88.88,0,0,1,.28.36,1.19,1.19,0,0,1,.09.47,1,1,0,0,1,0,.3,1.16,1.16,0,0,1-.14.27,1.39,1.39,0,0,1-.59.39,1.31,1.31,0,0,1,.69.33.92.92,0,0,1,.22.64,1.18,1.18,0,0,1-.1.5,1.08,1.08,0,0,1-.3.4,1.38,1.38,0,0,1-.48.26,2.24,2.24,0,0,1-.66.09Zm.7-2.42h.7a1.12,1.12,0,0,0,.67-.17.61.61,0,0,0,.22-.5.62.62,0,0,0-.21-.52,1,1,0,0,0-.65-.16h-.73Zm0,.5v1.37h.87a1.16,1.16,0,0,0,.4-.06.87.87,0,0,0,.27-.15.59.59,0,0,0,.14-.23.64.64,0,0,0,0-.28.6.6,0,0,0-.21-.48,1,1,0,0,0-.66-.17Z"/><path class="3cea2ad4-9693-482d-94f8-38dc7de575c0" d="M24.65,269.24v-4.32h1.44a2.52,2.52,0,0,1,.71.08,1.33,1.33,0,0,1,.48.22.88.88,0,0,1,.28.36,1.21,1.21,0,0,1,.08.48.92.92,0,0,1,0,.29.72.72,0,0,1-.15.27.85.85,0,0,1-.24.22,1.14,1.14,0,0,1-.35.17,1.25,1.25,0,0,1,.69.34.89.89,0,0,1,.23.63,1.22,1.22,0,0,1-.1.51,1.14,1.14,0,0,1-.3.39,1.43,1.43,0,0,1-.49.26,1.89,1.89,0,0,1-.65.1Zm.7-2.42h.7a1.08,1.08,0,0,0,.68-.18.59.59,0,0,0,.22-.5.62.62,0,0,0-.21-.52,1.13,1.13,0,0,0-.65-.15h-.74Zm0,.49v1.37h.87a1.5,1.5,0,0,0,.4-.05.72.72,0,0,0,.27-.16.54.54,0,0,0,.15-.22.87.87,0,0,0,.05-.28.57.57,0,0,0-.21-.48,1,1,0,0,0-.66-.18Z"/><path class="3cea2ad4-9693-482d-94f8-38dc7de575c0" d="M61.83,226.71v-4.32h1.43a2.9,2.9,0,0,1,.71.08,1.19,1.19,0,0,1,.48.23.77.77,0,0,1,.28.36,1.19,1.19,0,0,1,.09.47,1,1,0,0,1,0,.3.94.94,0,0,1-.14.26,1.1,1.1,0,0,1-.25.23,1.07,1.07,0,0,1-.34.16,1.32,1.32,0,0,1,.68.34.88.88,0,0,1,.23.64,1.14,1.14,0,0,1-.4.9,1.38,1.38,0,0,1-.48.26,2.29,2.29,0,0,1-.66.09Zm.7-2.42h.7a1.12,1.12,0,0,0,.67-.17.61.61,0,0,0,.22-.51.6.6,0,0,0-.21-.51,1,1,0,0,0-.65-.16h-.73Zm0,.49v1.38h.87a1.2,1.2,0,0,0,.4-.06.71.71,0,0,0,.26-.15.57.57,0,0,0,.15-.23.64.64,0,0,0,.05-.28.6.6,0,0,0-.21-.48,1,1,0,0,0-.66-.18Z"/><path class="3cea2ad4-9693-482d-94f8-38dc7de575c0" d="M67.33,183.73v-4.32h1.43a2.9,2.9,0,0,1,.71.08,1.19,1.19,0,0,1,.48.23.8.8,0,0,1,.28.35,1.24,1.24,0,0,1,.09.48,1,1,0,0,1,0,.3.94.94,0,0,1-.14.26,1.1,1.1,0,0,1-.25.23,1.34,1.34,0,0,1-.34.16,1.32,1.32,0,0,1,.68.34.88.88,0,0,1,.23.64,1.14,1.14,0,0,1-.4.9,1.38,1.38,0,0,1-.48.26,2.29,2.29,0,0,1-.66.09Zm.7-2.42h.7a1.12,1.12,0,0,0,.67-.17.61.61,0,0,0,.22-.51.6.6,0,0,0-.21-.51,1,1,0,0,0-.65-.16H68Zm0,.49v1.38h.87a1.2,1.2,0,0,0,.4-.06.71.71,0,0,0,.26-.15.57.57,0,0,0,.15-.23.66.66,0,0,0,.05-.28.6.6,0,0,0-.21-.48,1,1,0,0,0-.66-.18Z"/><path class="3cea2ad4-9693-482d-94f8-38dc7de575c0" d="M136.65,297.07h-.83a.35.35,0,0,1-.23-.07.46.46,0,0,1-.13-.18l-.74-1.91h-3.53l-.74,1.91a.52.52,0,0,1-.13.17.38.38,0,0,1-.23.08h-.83l3.15-7.88h1.09Zm-5.17-2.93h2.94l-1.23-3.2a6.73,6.73,0,0,1-.24-.75c0,.16-.08.29-.12.42a3.17,3.17,0,0,1-.11.33Z"/><path class="3cea2ad4-9693-482d-94f8-38dc7de575c0" d="M137.49,297.07V291.5h.58a.26.26,0,0,1,.27.2l.07.57a2.7,2.7,0,0,1,.69-.62,1.62,1.62,0,0,1,.89-.24,1.31,1.31,0,0,1,.91.31,1.8,1.8,0,0,1,.5.85,1.67,1.67,0,0,1,.31-.52,1.62,1.62,0,0,1,.43-.36,1.48,1.48,0,0,1,.5-.21,2,2,0,0,1,.54-.07,2.09,2.09,0,0,1,.78.14,1.53,1.53,0,0,1,.59.41,1.75,1.75,0,0,1,.36.66,2.84,2.84,0,0,1,.13.9v3.55h-1v-3.55a1.45,1.45,0,0,0-.29-1,1,1,0,0,0-.83-.34,1.13,1.13,0,0,0-.45.09,1,1,0,0,0-.39.25,1.2,1.2,0,0,0-.26.41,1.72,1.72,0,0,0-.09.58v3.55h-1v-3.55a1.55,1.55,0,0,0-.27-1,1,1,0,0,0-.79-.33,1.22,1.22,0,0,0-.67.2,2,2,0,0,0-.57.53v4.15Z"/><path class="3cea2ad4-9693-482d-94f8-38dc7de575c0" d="M146.55,297.07V289h1v3.33a2.89,2.89,0,0,1,.79-.65,2.15,2.15,0,0,1,1-.24,2.05,2.05,0,0,1,.87.18,1.82,1.82,0,0,1,.67.54,2.72,2.72,0,0,1,.42.89,4.6,4.6,0,0,1,.15,1.23,3.9,3.9,0,0,1-.17,1.15,2.62,2.62,0,0,1-.47.91,2.24,2.24,0,0,1-1.77.84,1.89,1.89,0,0,1-.92-.21,2.11,2.11,0,0,1-.65-.58l-.05.5a.24.24,0,0,1-.26.21Zm2.49-4.88a1.55,1.55,0,0,0-.84.22,2.56,2.56,0,0,0-.66.62v2.7a1.53,1.53,0,0,0,.58.51,1.72,1.72,0,0,0,.72.15,1.42,1.42,0,0,0,1.2-.56,2.58,2.58,0,0,0,.42-1.58,4.23,4.23,0,0,0-.1-.94,1.8,1.8,0,0,0-.28-.64,1.08,1.08,0,0,0-.44-.36A1.46,1.46,0,0,0,149,292.19Z"/><path class="3cea2ad4-9693-482d-94f8-38dc7de575c0" d="M154,289.75a.66.66,0,0,1-.06.27,1.07,1.07,0,0,1-.15.22.91.91,0,0,1-.23.15.76.76,0,0,1-.27.05.75.75,0,0,1-.26-.05.71.71,0,0,1-.22-.15.82.82,0,0,1-.16-.22.86.86,0,0,1,0-.27.76.76,0,0,1,0-.27.73.73,0,0,1,.16-.23.71.71,0,0,1,.22-.15.58.58,0,0,1,.26-.05.59.59,0,0,1,.27.05.67.67,0,0,1,.38.38A.6.6,0,0,1,154,289.75Zm-.22,1.75v5.57h-1V291.5Z"/><path class="3cea2ad4-9693-482d-94f8-38dc7de575c0" d="M157.36,291.4a3,3,0,0,1,.68.08,2.44,2.44,0,0,1,.57.24h1.52v.36c0,.12-.08.2-.24.23l-.63.09a1.78,1.78,0,0,1,0,1.54,1.72,1.72,0,0,1-.43.57,2.11,2.11,0,0,1-.66.36,2.84,2.84,0,0,1-.84.13,2.55,2.55,0,0,1-.74-.1.89.89,0,0,0-.26.25.44.44,0,0,0-.1.25.36.36,0,0,0,.16.31,1.14,1.14,0,0,0,.43.15,3.45,3.45,0,0,0,.6.05h.68a3.93,3.93,0,0,1,.69.06,2.23,2.23,0,0,1,.6.2,1.12,1.12,0,0,1,.42.39,1.09,1.09,0,0,1,.16.63,1.49,1.49,0,0,1-.18.7,2,2,0,0,1-.51.61,3,3,0,0,1-.82.42,3.74,3.74,0,0,1-1.1.16,4.32,4.32,0,0,1-1.07-.12,2.42,2.42,0,0,1-.76-.33,1.34,1.34,0,0,1-.45-.47,1.12,1.12,0,0,1-.15-.56,1,1,0,0,1,.26-.7,1.75,1.75,0,0,1,.71-.46,1,1,0,0,1-.37-.29.78.78,0,0,1-.14-.5.77.77,0,0,1,0-.25,1,1,0,0,1,.14-.25,1.23,1.23,0,0,1,.22-.24,1.41,1.41,0,0,1,.31-.21,1.66,1.66,0,0,1-.65-.61,1.71,1.71,0,0,1-.23-.89,1.78,1.78,0,0,1,.15-.74,1.75,1.75,0,0,1,.44-.57,2.26,2.26,0,0,1,.67-.36A2.86,2.86,0,0,1,157.36,291.4Zm1.74,6A.49.49,0,0,0,159,297a.7.7,0,0,0-.31-.2,2,2,0,0,0-.46-.1,4.56,4.56,0,0,0-.54,0h-.59a2.1,2.1,0,0,1-.56-.07,1.66,1.66,0,0,0-.51.36.77.77,0,0,0-.2.52.67.67,0,0,0,.1.34.8.8,0,0,0,.29.29,1.63,1.63,0,0,0,.5.18,3,3,0,0,0,.71.07,3.11,3.11,0,0,0,.71-.07,1.83,1.83,0,0,0,.53-.21.92.92,0,0,0,.33-.32A.73.73,0,0,0,159.1,297.35Zm-1.74-3a1.38,1.38,0,0,0,.52-.09,1,1,0,0,0,.39-.23.86.86,0,0,0,.23-.35,1.33,1.33,0,0,0,.08-.45,1.08,1.08,0,0,0-.32-.82,1.22,1.22,0,0,0-.9-.3,1.25,1.25,0,0,0-.9.3,1.07,1.07,0,0,0-.31.82,1.33,1.33,0,0,0,.08.45.86.86,0,0,0,.23.35,1,1,0,0,0,.38.23A1.42,1.42,0,0,0,157.36,294.35Z"/><path class="3cea2ad4-9693-482d-94f8-38dc7de575c0" d="M162,291.5v3.55a1.51,1.51,0,0,0,.29,1,1.1,1.1,0,0,0,.88.35,1.63,1.63,0,0,0,.81-.21,2.43,2.43,0,0,0,.7-.56V291.5h1v5.57H165a.26.26,0,0,1-.27-.2l-.08-.6a3.09,3.09,0,0,1-.81.64,2,2,0,0,1-1,.25A2,2,0,0,1,162,297a1.57,1.57,0,0,1-.58-.43,1.72,1.72,0,0,1-.36-.67,2.88,2.88,0,0,1-.12-.86V291.5Z"/><path class="3cea2ad4-9693-482d-94f8-38dc7de575c0" d="M169.48,291.41a3,3,0,0,1,1.1.2,2.26,2.26,0,0,1,.83.58,2.48,2.48,0,0,1,.53.91,3.79,3.79,0,0,1,0,2.37,2.52,2.52,0,0,1-.53.9,2.26,2.26,0,0,1-.83.58,3.15,3.15,0,0,1-2.21,0,2.58,2.58,0,0,1-.84-.58,2.68,2.68,0,0,1-.53-.9,3.79,3.79,0,0,1,0-2.37,2.63,2.63,0,0,1,.53-.91,2.58,2.58,0,0,1,.84-.58A3,3,0,0,1,169.48,291.41Zm0,5a1.42,1.42,0,0,0,1.23-.55,3.18,3.18,0,0,0,0-3.09,1.43,1.43,0,0,0-1.23-.56,1.83,1.83,0,0,0-.73.14,1.31,1.31,0,0,0-.51.42,1.84,1.84,0,0,0-.31.66,3.46,3.46,0,0,0-.1.89,3.38,3.38,0,0,0,.1.88,1.84,1.84,0,0,0,.31.66,1.29,1.29,0,0,0,.51.41A1.83,1.83,0,0,0,169.48,296.38Z"/><path class="3cea2ad4-9693-482d-94f8-38dc7de575c0" d="M174.18,291.5v3.55a1.45,1.45,0,0,0,.3,1,1.07,1.07,0,0,0,.88.35,1.62,1.62,0,0,0,.8-.21,2.31,2.31,0,0,0,.7-.56V291.5h1v5.57h-.58a.26.26,0,0,1-.27-.2l-.07-.6a3.14,3.14,0,0,1-.82.64,2.25,2.25,0,0,1-1.84.1,1.66,1.66,0,0,1-.58-.43,1.72,1.72,0,0,1-.36-.67,2.89,2.89,0,0,1-.11-.86V291.5Z"/><path class="3cea2ad4-9693-482d-94f8-38dc7de575c0" d="M182.64,292.42a.21.21,0,0,1-.2.12.38.38,0,0,1-.19-.06l-.25-.14a3.42,3.42,0,0,0-.36-.14,1.85,1.85,0,0,0-.5-.06,1.51,1.51,0,0,0-.44.06,1.2,1.2,0,0,0-.34.18.74.74,0,0,0-.22.25.71.71,0,0,0-.07.32.56.56,0,0,0,.12.36,1.24,1.24,0,0,0,.33.25,4,4,0,0,0,.46.18l.53.17.53.2a1.83,1.83,0,0,1,.47.28,1.26,1.26,0,0,1,.32.4,1.14,1.14,0,0,1,.13.57,1.89,1.89,0,0,1-.14.72,1.51,1.51,0,0,1-.41.56,1.94,1.94,0,0,1-.66.38,2.74,2.74,0,0,1-.9.14,3,3,0,0,1-1.06-.19,2.77,2.77,0,0,1-.8-.49l.23-.37a.29.29,0,0,1,.11-.11.25.25,0,0,1,.16,0,.35.35,0,0,1,.21.08l.26.17a2.27,2.27,0,0,0,.38.17,1.82,1.82,0,0,0,.56.07,1.51,1.51,0,0,0,.5-.07,1.25,1.25,0,0,0,.36-.2,1,1,0,0,0,.21-.29.86.86,0,0,0,.07-.36.55.55,0,0,0-.13-.38,1.21,1.21,0,0,0-.32-.26,2.56,2.56,0,0,0-.47-.18l-.53-.17-.53-.2a2.16,2.16,0,0,1-.47-.28,1.7,1.7,0,0,1-.33-.42,1.41,1.41,0,0,1-.12-.61,1.5,1.5,0,0,1,.13-.62,1.58,1.58,0,0,1,.39-.51,1.88,1.88,0,0,1,.62-.36,2.39,2.39,0,0,1,.84-.13,2.78,2.78,0,0,1,1,.17,2.41,2.41,0,0,1,.75.48Z"/><path class="3cea2ad4-9693-482d-94f8-38dc7de575c0" d="M133.68,173a5.09,5.09,0,0,0,.58,0,3.86,3.86,0,0,0,.51-.09l.44-.14a4,4,0,0,0,.42-.2v-1.74h-1.22a.24.24,0,0,1-.17-.06.2.2,0,0,1-.06-.14V170h2.42v3a5.63,5.63,0,0,1-.62.37,4.71,4.71,0,0,1-.69.27,5.65,5.65,0,0,1-.78.16,8.46,8.46,0,0,1-.91,0,4,4,0,0,1-1.57-.3,3.49,3.49,0,0,1-1.23-.82,3.73,3.73,0,0,1-.81-1.27,4.56,4.56,0,0,1-.29-1.64,4.74,4.74,0,0,1,.28-1.64,3.68,3.68,0,0,1,.81-1.28,3.81,3.81,0,0,1,1.27-.82,4.68,4.68,0,0,1,1.67-.29,4.79,4.79,0,0,1,.87.07,3.44,3.44,0,0,1,.75.2,3.08,3.08,0,0,1,.63.31,3.2,3.2,0,0,1,.55.42l-.31.48a.27.27,0,0,1-.24.15.38.38,0,0,1-.19-.06l-.31-.19a3.09,3.09,0,0,0-.41-.21,2.84,2.84,0,0,0-.58-.17,3.63,3.63,0,0,0-.79-.08,3.3,3.3,0,0,0-1.21.22,2.54,2.54,0,0,0-.91.62,2.76,2.76,0,0,0-.59,1,4.32,4.32,0,0,0,0,2.63,2.74,2.74,0,0,0,.6,1,2.5,2.5,0,0,0,.91.62A3.13,3.13,0,0,0,133.68,173Z"/><path class="3cea2ad4-9693-482d-94f8-38dc7de575c0" d="M140.29,168.16a2.51,2.51,0,0,1,.92.17,2,2,0,0,1,.73.48,2.06,2.06,0,0,1,.48.78,3,3,0,0,1,.18,1.06.66.66,0,0,1,0,.31.23.23,0,0,1-.19.08h-3.71a3.16,3.16,0,0,0,.15.92,1.86,1.86,0,0,0,.36.65,1.53,1.53,0,0,0,.55.39,2,2,0,0,0,.71.13,2,2,0,0,0,.64-.09,4.45,4.45,0,0,0,.46-.18l.32-.19a.49.49,0,0,1,.22-.08.22.22,0,0,1,.19.09l.28.36a1.8,1.8,0,0,1-.44.38,2.73,2.73,0,0,1-.54.27,2.93,2.93,0,0,1-.6.15,3.15,3.15,0,0,1-.61.06,2.82,2.82,0,0,1-1.06-.2,2.24,2.24,0,0,1-.84-.57,2.69,2.69,0,0,1-.56-.93,3.87,3.87,0,0,1-.19-1.28,3.24,3.24,0,0,1,.18-1.09,2.48,2.48,0,0,1,.51-.88,2.44,2.44,0,0,1,.82-.58A2.68,2.68,0,0,1,140.29,168.16Zm0,.72a1.53,1.53,0,0,0-1.12.41,1.88,1.88,0,0,0-.5,1.14h3a1.81,1.81,0,0,0-.1-.63,1.37,1.37,0,0,0-.27-.49,1.43,1.43,0,0,0-.44-.32A1.64,1.64,0,0,0,140.31,168.88Z"/><path class="3cea2ad4-9693-482d-94f8-38dc7de575c0" d="M143.85,173.82v-5.57h.58a.24.24,0,0,1,.26.2l.08.61a2.94,2.94,0,0,1,.81-.65,2.08,2.08,0,0,1,1-.25,2,2,0,0,1,.8.15,1.61,1.61,0,0,1,.59.43,2,2,0,0,1,.35.67,2.93,2.93,0,0,1,.12.86v3.55h-1v-3.55a1.45,1.45,0,0,0-.29-1,1.07,1.07,0,0,0-.88-.35,1.63,1.63,0,0,0-.81.21,2.62,2.62,0,0,0-.69.57v4.1Z"/><path class="3cea2ad4-9693-482d-94f8-38dc7de575c0" d="M152.17,168.16a2.51,2.51,0,0,1,.92.17,2,2,0,0,1,.73.48,2.06,2.06,0,0,1,.48.78,3,3,0,0,1,.18,1.06.66.66,0,0,1,0,.31.23.23,0,0,1-.19.08h-3.71a3.16,3.16,0,0,0,.15.92,1.86,1.86,0,0,0,.36.65,1.53,1.53,0,0,0,.55.39,2,2,0,0,0,.71.13,2,2,0,0,0,.64-.09,4.45,4.45,0,0,0,.46-.18l.32-.19a.49.49,0,0,1,.22-.08.22.22,0,0,1,.19.09l.28.36a1.8,1.8,0,0,1-.44.38,2.73,2.73,0,0,1-.54.27,2.93,2.93,0,0,1-.6.15,3.15,3.15,0,0,1-.61.06,2.82,2.82,0,0,1-1.06-.2,2.24,2.24,0,0,1-.84-.57,2.69,2.69,0,0,1-.56-.93,3.87,3.87,0,0,1-.19-1.28,3.24,3.24,0,0,1,.18-1.09,2.48,2.48,0,0,1,.51-.88,2.44,2.44,0,0,1,.82-.58A2.68,2.68,0,0,1,152.17,168.16Zm0,.72a1.53,1.53,0,0,0-1.12.41,1.88,1.88,0,0,0-.5,1.14h3a1.81,1.81,0,0,0-.1-.63,1.37,1.37,0,0,0-.27-.49,1.43,1.43,0,0,0-.44-.32A1.64,1.64,0,0,0,152.19,168.88Z"/><path class="3cea2ad4-9693-482d-94f8-38dc7de575c0" d="M164.49,173.82h-.83a.35.35,0,0,1-.23-.07.46.46,0,0,1-.13-.18l-.74-1.91H159l-.74,1.91a.52.52,0,0,1-.13.17.38.38,0,0,1-.23.08h-.83l3.15-7.88h1.09Zm-5.17-2.93h3l-1.24-3.2a6.73,6.73,0,0,1-.24-.75c0,.16-.08.29-.12.42a3.17,3.17,0,0,1-.11.33Z"/><path class="3cea2ad4-9693-482d-94f8-38dc7de575c0" d="M136.65,258.82h-.83a.35.35,0,0,1-.23-.07.46.46,0,0,1-.13-.18l-.74-1.91h-3.53l-.74,1.91a.52.52,0,0,1-.13.17.38.38,0,0,1-.23.08h-.83l3.15-7.88h1.09Zm-5.17-2.93h2.94l-1.23-3.2a6.73,6.73,0,0,1-.24-.75c0,.16-.08.29-.12.42a3.17,3.17,0,0,1-.11.33Z"/><path class="3cea2ad4-9693-482d-94f8-38dc7de575c0" d="M137.49,258.82v-5.57h.58a.26.26,0,0,1,.27.2l.07.57a2.7,2.7,0,0,1,.69-.62,1.62,1.62,0,0,1,.89-.24,1.31,1.31,0,0,1,.91.31,1.8,1.8,0,0,1,.5.85,1.67,1.67,0,0,1,.31-.52,1.62,1.62,0,0,1,.43-.36,1.48,1.48,0,0,1,.5-.21,2,2,0,0,1,.54-.07,2.09,2.09,0,0,1,.78.14,1.53,1.53,0,0,1,.59.41,1.75,1.75,0,0,1,.36.66,2.84,2.84,0,0,1,.13.9v3.55h-1v-3.55a1.45,1.45,0,0,0-.29-1,1,1,0,0,0-.83-.34,1.13,1.13,0,0,0-.45.09,1,1,0,0,0-.39.25,1.2,1.2,0,0,0-.26.41,1.72,1.72,0,0,0-.09.58v3.55h-1v-3.55a1.55,1.55,0,0,0-.27-1,1,1,0,0,0-.79-.33,1.22,1.22,0,0,0-.67.2,2,2,0,0,0-.57.53v4.15Z"/><path class="3cea2ad4-9693-482d-94f8-38dc7de575c0" d="M146.55,258.82v-8.1h1v3.33a2.89,2.89,0,0,1,.79-.65,2.15,2.15,0,0,1,1-.24,2.05,2.05,0,0,1,.87.18,1.82,1.82,0,0,1,.67.54,2.72,2.72,0,0,1,.42.89,4.6,4.6,0,0,1,.15,1.23,3.9,3.9,0,0,1-.17,1.15,2.62,2.62,0,0,1-.47.91,2.24,2.24,0,0,1-1.77.84,1.89,1.89,0,0,1-.92-.21,2.11,2.11,0,0,1-.65-.58l-.05.5a.24.24,0,0,1-.26.21Zm2.49-4.88a1.55,1.55,0,0,0-.84.22,2.56,2.56,0,0,0-.66.62v2.7a1.53,1.53,0,0,0,.58.51,1.72,1.72,0,0,0,.72.15,1.42,1.42,0,0,0,1.2-.56,2.58,2.58,0,0,0,.42-1.58,4.23,4.23,0,0,0-.1-.94,1.8,1.8,0,0,0-.28-.64,1.08,1.08,0,0,0-.44-.36A1.46,1.46,0,0,0,149,253.94Z"/><path class="3cea2ad4-9693-482d-94f8-38dc7de575c0" d="M154,251.5a.66.66,0,0,1-.06.27,1.07,1.07,0,0,1-.15.22.91.91,0,0,1-.23.15.76.76,0,0,1-.27.05.75.75,0,0,1-.26-.05.71.71,0,0,1-.22-.15.82.82,0,0,1-.16-.22.86.86,0,0,1,0-.27.76.76,0,0,1,0-.27.73.73,0,0,1,.16-.23.71.71,0,0,1,.22-.15.58.58,0,0,1,.26,0,.59.59,0,0,1,.27,0,.67.67,0,0,1,.38.38A.6.6,0,0,1,154,251.5Zm-.22,1.75v5.57h-1v-5.57Z"/><path class="3cea2ad4-9693-482d-94f8-38dc7de575c0" d="M157.36,253.15a3,3,0,0,1,.68.08,2.44,2.44,0,0,1,.57.24h1.52v.36c0,.12-.08.2-.24.23l-.63.09a1.78,1.78,0,0,1,0,1.54,1.72,1.72,0,0,1-.43.57,2.11,2.11,0,0,1-.66.36,2.84,2.84,0,0,1-.84.13,2.55,2.55,0,0,1-.74-.1.89.89,0,0,0-.26.25.44.44,0,0,0-.1.25.36.36,0,0,0,.16.31,1.14,1.14,0,0,0,.43.15,3.45,3.45,0,0,0,.6.05h.68a3.93,3.93,0,0,1,.69.06,2.23,2.23,0,0,1,.6.2,1.12,1.12,0,0,1,.42.39,1.09,1.09,0,0,1,.16.63,1.49,1.49,0,0,1-.18.7,2,2,0,0,1-.51.61,3,3,0,0,1-.82.42,3.74,3.74,0,0,1-1.1.16,4.32,4.32,0,0,1-1.07-.12,2.42,2.42,0,0,1-.76-.33,1.34,1.34,0,0,1-.45-.47,1.12,1.12,0,0,1-.15-.56,1,1,0,0,1,.26-.7,1.75,1.75,0,0,1,.71-.46,1,1,0,0,1-.37-.29.78.78,0,0,1-.14-.5.77.77,0,0,1,0-.25,1,1,0,0,1,.14-.25,1.23,1.23,0,0,1,.22-.24,1.41,1.41,0,0,1,.31-.21,1.66,1.66,0,0,1-.65-.61,1.71,1.71,0,0,1-.23-.89,1.78,1.78,0,0,1,.15-.74,1.75,1.75,0,0,1,.44-.57,2.26,2.26,0,0,1,.67-.36A2.86,2.86,0,0,1,157.36,253.15Zm1.74,6a.49.49,0,0,0-.12-.34.7.7,0,0,0-.31-.2,2,2,0,0,0-.46-.1,4.56,4.56,0,0,0-.54,0h-.59a2.1,2.1,0,0,1-.56-.07,1.66,1.66,0,0,0-.51.36.77.77,0,0,0-.2.52.67.67,0,0,0,.1.34.8.8,0,0,0,.29.29,1.63,1.63,0,0,0,.5.18,3,3,0,0,0,.71.07,3.11,3.11,0,0,0,.71-.07,1.83,1.83,0,0,0,.53-.21.92.92,0,0,0,.33-.32A.73.73,0,0,0,159.1,259.1Zm-1.74-3a1.38,1.38,0,0,0,.52-.09,1,1,0,0,0,.39-.23.86.86,0,0,0,.23-.35,1.33,1.33,0,0,0,.08-.45,1.08,1.08,0,0,0-.32-.82,1.22,1.22,0,0,0-.9-.3,1.25,1.25,0,0,0-.9.3,1.07,1.07,0,0,0-.31.82,1.33,1.33,0,0,0,.08.45.86.86,0,0,0,.23.35,1,1,0,0,0,.38.23A1.42,1.42,0,0,0,157.36,256.1Z"/><path class="3cea2ad4-9693-482d-94f8-38dc7de575c0" d="M162,253.25v3.55a1.51,1.51,0,0,0,.29,1,1.1,1.1,0,0,0,.88.35,1.63,1.63,0,0,0,.81-.21,2.43,2.43,0,0,0,.7-.56v-4.11h1v5.57H165a.26.26,0,0,1-.27-.2l-.08-.6a3.09,3.09,0,0,1-.81.64,2,2,0,0,1-1,.25,2,2,0,0,1-.81-.15,1.57,1.57,0,0,1-.58-.43,1.72,1.72,0,0,1-.36-.67,2.88,2.88,0,0,1-.12-.86v-3.55Z"/><path class="3cea2ad4-9693-482d-94f8-38dc7de575c0" d="M169.48,253.16a3,3,0,0,1,1.1.2,2.26,2.26,0,0,1,.83.58,2.48,2.48,0,0,1,.53.91,3.79,3.79,0,0,1,0,2.37,2.52,2.52,0,0,1-.53.9,2.26,2.26,0,0,1-.83.58,3.15,3.15,0,0,1-2.21,0,2.58,2.58,0,0,1-.84-.58,2.68,2.68,0,0,1-.53-.9,3.79,3.79,0,0,1,0-2.37,2.63,2.63,0,0,1,.53-.91,2.58,2.58,0,0,1,.84-.58A3,3,0,0,1,169.48,253.16Zm0,5a1.42,1.42,0,0,0,1.23-.55,3.18,3.18,0,0,0,0-3.09,1.43,1.43,0,0,0-1.23-.56,1.83,1.83,0,0,0-.73.14,1.31,1.31,0,0,0-.51.42,1.84,1.84,0,0,0-.31.66,3.46,3.46,0,0,0-.1.89,3.38,3.38,0,0,0,.1.88,1.84,1.84,0,0,0,.31.66,1.29,1.29,0,0,0,.51.41A1.83,1.83,0,0,0,169.48,258.13Z"/><path class="3cea2ad4-9693-482d-94f8-38dc7de575c0" d="M174.18,253.25v3.55a1.45,1.45,0,0,0,.3,1,1.07,1.07,0,0,0,.88.35,1.62,1.62,0,0,0,.8-.21,2.31,2.31,0,0,0,.7-.56v-4.11h1v5.57h-.58a.26.26,0,0,1-.27-.2l-.07-.6a3.14,3.14,0,0,1-.82.64,2.25,2.25,0,0,1-1.84.1,1.66,1.66,0,0,1-.58-.43,1.72,1.72,0,0,1-.36-.67,2.89,2.89,0,0,1-.11-.86v-3.55Z"/><path class="3cea2ad4-9693-482d-94f8-38dc7de575c0" d="M182.64,254.17a.21.21,0,0,1-.2.12.38.38,0,0,1-.19-.06l-.25-.14a3.42,3.42,0,0,0-.36-.14,1.85,1.85,0,0,0-.5-.06,1.51,1.51,0,0,0-.44.06,1.2,1.2,0,0,0-.34.18.74.74,0,0,0-.22.25.71.71,0,0,0-.07.32.56.56,0,0,0,.12.36,1.24,1.24,0,0,0,.33.25,4,4,0,0,0,.46.18l.53.17.53.2a1.83,1.83,0,0,1,.47.28,1.26,1.26,0,0,1,.32.4,1.14,1.14,0,0,1,.13.57,1.89,1.89,0,0,1-.14.72,1.51,1.51,0,0,1-.41.56,1.94,1.94,0,0,1-.66.38,2.74,2.74,0,0,1-.9.14,3,3,0,0,1-1.06-.19,2.77,2.77,0,0,1-.8-.49l.23-.37a.29.29,0,0,1,.11-.11.25.25,0,0,1,.16,0,.35.35,0,0,1,.21.08l.26.17a2.27,2.27,0,0,0,.38.17,1.82,1.82,0,0,0,.56.07,1.51,1.51,0,0,0,.5-.07,1.25,1.25,0,0,0,.36-.2,1,1,0,0,0,.21-.29.86.86,0,0,0,.07-.36.55.55,0,0,0-.13-.38,1.21,1.21,0,0,0-.32-.26,2.56,2.56,0,0,0-.47-.18l-.53-.17-.53-.2a2.16,2.16,0,0,1-.47-.28,1.7,1.7,0,0,1-.33-.42,1.41,1.41,0,0,1-.12-.61,1.5,1.5,0,0,1,.13-.62,1.58,1.58,0,0,1,.39-.51,1.88,1.88,0,0,1,.62-.36,2.39,2.39,0,0,1,.84-.13,2.78,2.78,0,0,1,1,.17,2.41,2.41,0,0,1,.75.48Z"/><path class="3cea2ad4-9693-482d-94f8-38dc7de575c0" d="M136.65,216.44h-.83a.42.42,0,0,1-.23-.07.46.46,0,0,1-.13-.18l-.74-1.91h-3.53l-.74,1.91a.52.52,0,0,1-.13.17.38.38,0,0,1-.23.08h-.83l3.15-7.88h1.09Zm-5.17-2.93h2.94l-1.23-3.2a6.73,6.73,0,0,1-.24-.75q-.06.23-.12.42a3.17,3.17,0,0,1-.11.33Z"/><path class="3cea2ad4-9693-482d-94f8-38dc7de575c0" d="M137.49,216.44v-5.57h.58a.26.26,0,0,1,.27.2l.07.57a2.7,2.7,0,0,1,.69-.62,1.62,1.62,0,0,1,.89-.24,1.31,1.31,0,0,1,.91.31,1.75,1.75,0,0,1,.5.85,1.67,1.67,0,0,1,.31-.52,1.88,1.88,0,0,1,.43-.37,1.69,1.69,0,0,1,.5-.2,2,2,0,0,1,.54-.07,2.09,2.09,0,0,1,.78.14,1.53,1.53,0,0,1,.59.41,1.75,1.75,0,0,1,.36.66,2.75,2.75,0,0,1,.13.9v3.55h-1v-3.55a1.43,1.43,0,0,0-.29-1,1,1,0,0,0-.83-.34,1.13,1.13,0,0,0-.45.09,1,1,0,0,0-.39.25,1.2,1.2,0,0,0-.26.41,1.72,1.72,0,0,0-.09.58v3.55h-1v-3.55a1.55,1.55,0,0,0-.27-1,1,1,0,0,0-.79-.33,1.15,1.15,0,0,0-.67.2,2,2,0,0,0-.57.53v4.15Z"/><path class="3cea2ad4-9693-482d-94f8-38dc7de575c0" d="M146.55,216.44v-8.1h1v3.33a2.89,2.89,0,0,1,.79-.65,2.15,2.15,0,0,1,1-.24,2.05,2.05,0,0,1,.87.18,1.82,1.82,0,0,1,.67.54,2.72,2.72,0,0,1,.42.89,4.55,4.55,0,0,1,.15,1.23,3.78,3.78,0,0,1-.17,1.14,2.67,2.67,0,0,1-.47.92,2.24,2.24,0,0,1-1.77.84,1.89,1.89,0,0,1-.92-.21,2,2,0,0,1-.65-.59l-.05.51a.24.24,0,0,1-.26.21Zm2.49-4.88a1.55,1.55,0,0,0-.84.22,2.4,2.4,0,0,0-.66.62v2.7a1.53,1.53,0,0,0,.58.51,1.72,1.72,0,0,0,.72.15,1.42,1.42,0,0,0,1.2-.56,2.58,2.58,0,0,0,.42-1.58,4.16,4.16,0,0,0-.1-.94,1.8,1.8,0,0,0-.28-.64,1,1,0,0,0-.44-.36A1.46,1.46,0,0,0,149,211.56Z"/><path class="3cea2ad4-9693-482d-94f8-38dc7de575c0" d="M154,209.12a.58.58,0,0,1-.06.26.71.71,0,0,1-.15.22.73.73,0,0,1-.23.16.76.76,0,0,1-.27.05.75.75,0,0,1-.26-.05.87.87,0,0,1-.38-.38.75.75,0,0,1,0-.26.76.76,0,0,1,0-.27.63.63,0,0,1,.16-.23.71.71,0,0,1,.22-.15.58.58,0,0,1,.26-.06.6.6,0,0,1,.27.06.91.91,0,0,1,.23.15.76.76,0,0,1,.15.23A.6.6,0,0,1,154,209.12Zm-.22,1.75v5.57h-1v-5.57Z"/><path class="3cea2ad4-9693-482d-94f8-38dc7de575c0" d="M157.36,210.77a3,3,0,0,1,.68.08,2.08,2.08,0,0,1,.57.24h1.52v.36c0,.12-.08.2-.24.23l-.63.09a1.63,1.63,0,0,1,.19.8,1.67,1.67,0,0,1-.16.74,1.72,1.72,0,0,1-.43.57,2.33,2.33,0,0,1-.66.36,2.84,2.84,0,0,1-.84.12,2.94,2.94,0,0,1-.74-.09.89.89,0,0,0-.26.25.44.44,0,0,0-.1.25.36.36,0,0,0,.16.31,1.14,1.14,0,0,0,.43.15,3.45,3.45,0,0,0,.6.05h.68a3.93,3.93,0,0,1,.69.06,2.23,2.23,0,0,1,.6.2,1.18,1.18,0,0,1,.42.38,1.15,1.15,0,0,1,.16.64,1.49,1.49,0,0,1-.18.7,1.82,1.82,0,0,1-.51.6,2.77,2.77,0,0,1-.82.43,3.74,3.74,0,0,1-1.1.16,3.87,3.87,0,0,1-1.07-.13,2.42,2.42,0,0,1-.76-.32,1.43,1.43,0,0,1-.45-.47A1.15,1.15,0,0,1,155,217a1,1,0,0,1,.26-.7,1.75,1.75,0,0,1,.71-.46,1.09,1.09,0,0,1-.37-.29.78.78,0,0,1-.14-.5.77.77,0,0,1,0-.25,1,1,0,0,1,.14-.25,1,1,0,0,1,.22-.24,1.41,1.41,0,0,1,.31-.21,1.66,1.66,0,0,1-.65-.61,1.71,1.71,0,0,1-.23-.89,1.78,1.78,0,0,1,.15-.74,1.75,1.75,0,0,1,.44-.57,1.88,1.88,0,0,1,.67-.36A2.86,2.86,0,0,1,157.36,210.77Zm1.74,5.95a.47.47,0,0,0-.12-.34.7.7,0,0,0-.31-.2,2,2,0,0,0-.46-.1,3.12,3.12,0,0,0-.54,0h-.59a2.1,2.1,0,0,1-.56-.07,1.66,1.66,0,0,0-.51.36.76.76,0,0,0-.2.51.68.68,0,0,0,.1.35.71.71,0,0,0,.29.28,1.63,1.63,0,0,0,.5.19,3,3,0,0,0,.71.07,3.11,3.11,0,0,0,.71-.07,1.83,1.83,0,0,0,.53-.21,1,1,0,0,0,.33-.32A.73.73,0,0,0,159.1,216.72Zm-1.74-3a1.38,1.38,0,0,0,.52-.09,1,1,0,0,0,.39-.23.93.93,0,0,0,.23-.35,1.34,1.34,0,0,0,.08-.46,1.07,1.07,0,0,0-.32-.81,1.22,1.22,0,0,0-.9-.3,1.25,1.25,0,0,0-.9.3,1.06,1.06,0,0,0-.31.81,1.34,1.34,0,0,0,.08.46.93.93,0,0,0,.23.35,1,1,0,0,0,.38.23A1.42,1.42,0,0,0,157.36,213.72Z"/><path class="3cea2ad4-9693-482d-94f8-38dc7de575c0" d="M162,210.87v3.55a1.51,1.51,0,0,0,.29,1,1.1,1.1,0,0,0,.88.35,1.63,1.63,0,0,0,.81-.21,2.43,2.43,0,0,0,.7-.56v-4.11h1v5.57H165a.26.26,0,0,1-.27-.21l-.08-.59a3.09,3.09,0,0,1-.81.64,2.15,2.15,0,0,1-1,.25,1.86,1.86,0,0,1-.81-.16,1.55,1.55,0,0,1-.58-.42,1.8,1.8,0,0,1-.36-.67,2.93,2.93,0,0,1-.12-.86v-3.55Z"/><path class="3cea2ad4-9693-482d-94f8-38dc7de575c0" d="M169.48,210.78a3,3,0,0,1,1.1.2,2.26,2.26,0,0,1,.83.58,2.52,2.52,0,0,1,.53.9,3.46,3.46,0,0,1,.19,1.19,3.42,3.42,0,0,1-.19,1.19,2.52,2.52,0,0,1-.53.9,2.26,2.26,0,0,1-.83.58,3.15,3.15,0,0,1-2.21,0,2.58,2.58,0,0,1-.84-.58,2.68,2.68,0,0,1-.53-.9,3.67,3.67,0,0,1-.19-1.19,3.71,3.71,0,0,1,.19-1.19,2.68,2.68,0,0,1,.53-.9,2.58,2.58,0,0,1,.84-.58A3,3,0,0,1,169.48,210.78Zm0,5a1.42,1.42,0,0,0,1.23-.55,2.58,2.58,0,0,0,.4-1.55,2.62,2.62,0,0,0-.4-1.55,1.42,1.42,0,0,0-1.23-.55,1.83,1.83,0,0,0-.73.14,1.29,1.29,0,0,0-.51.41,1.81,1.81,0,0,0-.31.67,4,4,0,0,0,0,1.77,1.84,1.84,0,0,0,.31.66,1.29,1.29,0,0,0,.51.41A1.83,1.83,0,0,0,169.48,215.75Z"/><path class="3cea2ad4-9693-482d-94f8-38dc7de575c0" d="M174.18,210.87v3.55a1.45,1.45,0,0,0,.3,1,1.07,1.07,0,0,0,.88.35,1.62,1.62,0,0,0,.8-.21,2.31,2.31,0,0,0,.7-.56v-4.11h1v5.57h-.58a.26.26,0,0,1-.27-.21l-.07-.59a3.14,3.14,0,0,1-.82.64,2.15,2.15,0,0,1-1,.25,1.89,1.89,0,0,1-.81-.16,1.63,1.63,0,0,1-.58-.42,1.8,1.8,0,0,1-.36-.67,2.94,2.94,0,0,1-.11-.86v-3.55Z"/><path class="3cea2ad4-9693-482d-94f8-38dc7de575c0" d="M182.64,211.79a.21.21,0,0,1-.2.12.38.38,0,0,1-.19-.06l-.25-.14a3.42,3.42,0,0,0-.36-.14,1.85,1.85,0,0,0-.5-.06,1.51,1.51,0,0,0-.44.06,1,1,0,0,0-.34.18.74.74,0,0,0-.22.25.71.71,0,0,0-.07.32.56.56,0,0,0,.12.36,1.22,1.22,0,0,0,.33.24,2.76,2.76,0,0,0,.46.19l.53.17.53.2a1.8,1.8,0,0,1,.47.27,1.3,1.3,0,0,1,.32.41,1.14,1.14,0,0,1,.13.57,1.89,1.89,0,0,1-.14.72,1.59,1.59,0,0,1-.41.56,1.94,1.94,0,0,1-.66.38,2.74,2.74,0,0,1-.9.14,3,3,0,0,1-1.06-.19,2.77,2.77,0,0,1-.8-.49l.23-.37a.29.29,0,0,1,.11-.11.25.25,0,0,1,.16,0,.4.4,0,0,1,.21.07,2,2,0,0,0,.26.17,2.25,2.25,0,0,0,.38.18,1.82,1.82,0,0,0,.56.07,1.51,1.51,0,0,0,.5-.07,1.25,1.25,0,0,0,.36-.2,1,1,0,0,0,.21-.29.86.86,0,0,0,.07-.36.55.55,0,0,0-.13-.38,1,1,0,0,0-.32-.26,2.56,2.56,0,0,0-.47-.18l-.53-.17-.53-.2a1.86,1.86,0,0,1-.47-.29,1.4,1.4,0,0,1-.33-.42,1.37,1.37,0,0,1-.12-.6,1.44,1.44,0,0,1,.52-1.13,1.88,1.88,0,0,1,.62-.36,2.39,2.39,0,0,1,.84-.13,2.78,2.78,0,0,1,1,.17,2.41,2.41,0,0,1,.75.48Z"/><path class="3cea2ad4-9693-482d-94f8-38dc7de575c0" d="M133.68,105.66a5.09,5.09,0,0,0,.58,0,3.86,3.86,0,0,0,.51-.09,3.26,3.26,0,0,0,.44-.15,3.89,3.89,0,0,0,.42-.19v-1.74h-1.22a.24.24,0,0,1-.17-.06.2.2,0,0,1-.06-.15v-.6h2.42v3a4.41,4.41,0,0,1-.62.37,3.81,3.81,0,0,1-.69.27,4.48,4.48,0,0,1-.78.16,6.48,6.48,0,0,1-.91,0,4,4,0,0,1-1.57-.29,3.68,3.68,0,0,1-2-2.1,4.5,4.5,0,0,1-.29-1.63,4.84,4.84,0,0,1,.28-1.65,3.54,3.54,0,0,1,2.08-2.09,4.47,4.47,0,0,1,1.67-.29,5.94,5.94,0,0,1,.87.06,5.11,5.11,0,0,1,.75.2,3.1,3.1,0,0,1,.63.32,3.74,3.74,0,0,1,.55.41l-.31.48a.27.27,0,0,1-.24.15.38.38,0,0,1-.19-.06l-.31-.18a2.22,2.22,0,0,0-.41-.22,5.13,5.13,0,0,0-.58-.17,3.68,3.68,0,0,0-.79-.07,3.11,3.11,0,0,0-1.21.22,2.42,2.42,0,0,0-.91.62,2.68,2.68,0,0,0-.59,1,4,4,0,0,0-.2,1.29,3.91,3.91,0,0,0,.21,1.33,2.74,2.74,0,0,0,.6,1,2.38,2.38,0,0,0,.91.62A2.94,2.94,0,0,0,133.68,105.66Z"/><path class="3cea2ad4-9693-482d-94f8-38dc7de575c0" d="M140.29,100.78a2.51,2.51,0,0,1,.92.16,2.18,2.18,0,0,1,.73.49,2.06,2.06,0,0,1,.48.78,2.91,2.91,0,0,1,.18,1.06.73.73,0,0,1,0,.31.22.22,0,0,1-.19.07h-3.71a3.11,3.11,0,0,0,.15.92,1.77,1.77,0,0,0,.36.65,1.32,1.32,0,0,0,.55.39,1.8,1.8,0,0,0,.71.13,2.38,2.38,0,0,0,.64-.08,2.91,2.91,0,0,0,.46-.19,2.28,2.28,0,0,0,.32-.18.42.42,0,0,1,.22-.09.21.21,0,0,1,.19.1l.28.35a1.84,1.84,0,0,1-.44.39,2.69,2.69,0,0,1-.54.26,2.94,2.94,0,0,1-.6.16,4.18,4.18,0,0,1-.61.05,2.81,2.81,0,0,1-1.06-.19,2.15,2.15,0,0,1-.84-.58,2.69,2.69,0,0,1-.56-.93,3.81,3.81,0,0,1-.19-1.27,3.24,3.24,0,0,1,.18-1.09,2.48,2.48,0,0,1,.51-.88,2.31,2.31,0,0,1,.82-.58A2.68,2.68,0,0,1,140.29,100.78Zm0,.72a1.49,1.49,0,0,0-1.12.41,1.88,1.88,0,0,0-.5,1.13h3a1.79,1.79,0,0,0-.1-.62,1.37,1.37,0,0,0-.27-.49,1.16,1.16,0,0,0-.44-.32A1.46,1.46,0,0,0,140.31,101.5Z"/><path class="3cea2ad4-9693-482d-94f8-38dc7de575c0" d="M143.85,106.44v-5.58h.58a.24.24,0,0,1,.26.21l.08.6a3.13,3.13,0,0,1,.81-.65,2.19,2.19,0,0,1,1-.24,2,2,0,0,1,.8.15,1.5,1.5,0,0,1,.59.43,1.89,1.89,0,0,1,.35.66,3,3,0,0,1,.12.87v3.55h-1v-3.55a1.45,1.45,0,0,0-.29-1,1,1,0,0,0-.88-.35,1.63,1.63,0,0,0-.81.21,2.4,2.4,0,0,0-.69.56v4.11Z"/><path class="3cea2ad4-9693-482d-94f8-38dc7de575c0" d="M152.17,100.78a2.51,2.51,0,0,1,.92.16,2.18,2.18,0,0,1,.73.49,2.06,2.06,0,0,1,.48.78,2.91,2.91,0,0,1,.18,1.06.73.73,0,0,1,0,.31.22.22,0,0,1-.19.07h-3.71a3.11,3.11,0,0,0,.15.92,1.77,1.77,0,0,0,.36.65,1.32,1.32,0,0,0,.55.39,1.8,1.8,0,0,0,.71.13,2.38,2.38,0,0,0,.64-.08,2.91,2.91,0,0,0,.46-.19,2.28,2.28,0,0,0,.32-.18.42.42,0,0,1,.22-.09.21.21,0,0,1,.19.1l.28.35a1.84,1.84,0,0,1-.44.39,2.69,2.69,0,0,1-.54.26,2.94,2.94,0,0,1-.6.16,4.18,4.18,0,0,1-.61.05,2.81,2.81,0,0,1-1.06-.19,2.15,2.15,0,0,1-.84-.58,2.69,2.69,0,0,1-.56-.93,3.81,3.81,0,0,1-.19-1.27,3.24,3.24,0,0,1,.18-1.09,2.48,2.48,0,0,1,.51-.88,2.31,2.31,0,0,1,.82-.58A2.68,2.68,0,0,1,152.17,100.78Zm0,.72a1.49,1.49,0,0,0-1.12.41,1.88,1.88,0,0,0-.5,1.13h3a1.79,1.79,0,0,0-.1-.62,1.37,1.37,0,0,0-.27-.49,1.16,1.16,0,0,0-.44-.32A1.46,1.46,0,0,0,152.19,101.5Z"/><path class="3cea2ad4-9693-482d-94f8-38dc7de575c0" d="M164.49,106.44h-.83a.36.36,0,0,1-.23-.08.35.35,0,0,1-.13-.18l-.74-1.9H159l-.74,1.9a.46.46,0,0,1-.13.18.38.38,0,0,1-.23.08h-.83l3.15-7.89h1.09Zm-5.17-2.93h3L161,100.3a5.89,5.89,0,0,1-.24-.74q-.06.22-.12.42c0,.12-.07.23-.11.33Z"/><path class="3cea2ad4-9693-482d-94f8-38dc7de575c0" d="M133.68,136.19a5,5,0,0,0,.58,0,3.86,3.86,0,0,0,.51-.09,3.22,3.22,0,0,0,.44-.14,4,4,0,0,0,.42-.2V134h-1.22a.24.24,0,0,1-.17-.06.2.2,0,0,1-.06-.14v-.61h2.42v3a5.63,5.63,0,0,1-.62.37,3.81,3.81,0,0,1-.69.27,5.65,5.65,0,0,1-.78.16,8.46,8.46,0,0,1-.91.05,4,4,0,0,1-1.57-.3,3.49,3.49,0,0,1-1.23-.82,3.73,3.73,0,0,1-.81-1.27,4.56,4.56,0,0,1-.29-1.64,4.74,4.74,0,0,1,.28-1.64,3.68,3.68,0,0,1,.81-1.28,3.81,3.81,0,0,1,1.27-.82,4.68,4.68,0,0,1,1.67-.29,4.79,4.79,0,0,1,.87.07,4.11,4.11,0,0,1,.75.2,3.08,3.08,0,0,1,.63.31,3.2,3.2,0,0,1,.55.42l-.31.48a.27.27,0,0,1-.24.15.38.38,0,0,1-.19-.06l-.31-.19a3.09,3.09,0,0,0-.41-.21,2.84,2.84,0,0,0-.58-.17,3.63,3.63,0,0,0-.79-.08,3.3,3.3,0,0,0-1.21.22,2.54,2.54,0,0,0-.91.62,2.76,2.76,0,0,0-.59,1,4.06,4.06,0,0,0-.2,1.29,4,4,0,0,0,.21,1.34,2.74,2.74,0,0,0,.6,1,2.5,2.5,0,0,0,.91.62A3.13,3.13,0,0,0,133.68,136.19Z"/><path class="3cea2ad4-9693-482d-94f8-38dc7de575c0" d="M140.29,131.3a2.51,2.51,0,0,1,.92.17,2,2,0,0,1,.73.48,2.06,2.06,0,0,1,.48.78,3,3,0,0,1,.18,1.06.66.66,0,0,1,0,.31.23.23,0,0,1-.19.08h-3.71a3.11,3.11,0,0,0,.15.92,1.86,1.86,0,0,0,.36.65,1.53,1.53,0,0,0,.55.39,2,2,0,0,0,.71.13,2,2,0,0,0,.64-.09,3,3,0,0,0,.46-.18l.32-.19a.49.49,0,0,1,.22-.08.22.22,0,0,1,.19.09l.28.36a1.8,1.8,0,0,1-.44.38,2.73,2.73,0,0,1-.54.27,2.93,2.93,0,0,1-.6.15,3.15,3.15,0,0,1-.61.06,2.82,2.82,0,0,1-1.06-.2,2.24,2.24,0,0,1-.84-.57,2.69,2.69,0,0,1-.56-.93,3.87,3.87,0,0,1-.19-1.28,3.24,3.24,0,0,1,.18-1.09,2.44,2.44,0,0,1,.51-.87,2.33,2.33,0,0,1,.82-.59A2.68,2.68,0,0,1,140.29,131.3Zm0,.72a1.53,1.53,0,0,0-1.12.41,1.88,1.88,0,0,0-.5,1.14h3a1.81,1.81,0,0,0-.1-.63,1.37,1.37,0,0,0-.27-.49,1.43,1.43,0,0,0-.44-.32A1.64,1.64,0,0,0,140.31,132Z"/><path class="3cea2ad4-9693-482d-94f8-38dc7de575c0" d="M143.85,137v-5.57h.58a.24.24,0,0,1,.26.2l.08.61a2.94,2.94,0,0,1,.81-.65,2.08,2.08,0,0,1,1-.25,2,2,0,0,1,.8.15,1.61,1.61,0,0,1,.59.43,2,2,0,0,1,.35.67,2.93,2.93,0,0,1,.12.86V137h-1v-3.55a1.45,1.45,0,0,0-.29-1,1.07,1.07,0,0,0-.88-.35,1.63,1.63,0,0,0-.81.21,2.62,2.62,0,0,0-.69.57V137Z"/><path class="3cea2ad4-9693-482d-94f8-38dc7de575c0" d="M152.17,131.3a2.51,2.51,0,0,1,.92.17,2,2,0,0,1,.73.48,2.06,2.06,0,0,1,.48.78,3,3,0,0,1,.18,1.06.66.66,0,0,1,0,.31.23.23,0,0,1-.19.08h-3.71a3.11,3.11,0,0,0,.15.92,1.86,1.86,0,0,0,.36.65,1.53,1.53,0,0,0,.55.39,2,2,0,0,0,.71.13,2,2,0,0,0,.64-.09,3,3,0,0,0,.46-.18l.32-.19a.49.49,0,0,1,.22-.08.22.22,0,0,1,.19.09l.28.36a1.8,1.8,0,0,1-.44.38,2.73,2.73,0,0,1-.54.27,2.93,2.93,0,0,1-.6.15,3.15,3.15,0,0,1-.61.06,2.82,2.82,0,0,1-1.06-.2,2.24,2.24,0,0,1-.84-.57,2.69,2.69,0,0,1-.56-.93,3.87,3.87,0,0,1-.19-1.28,3.24,3.24,0,0,1,.18-1.09,2.44,2.44,0,0,1,.51-.87,2.33,2.33,0,0,1,.82-.59A2.68,2.68,0,0,1,152.17,131.3Zm0,.72a1.53,1.53,0,0,0-1.12.41,1.88,1.88,0,0,0-.5,1.14h3a1.81,1.81,0,0,0-.1-.63,1.37,1.37,0,0,0-.27-.49,1.43,1.43,0,0,0-.44-.32A1.64,1.64,0,0,0,152.19,132Z"/><path class="3cea2ad4-9693-482d-94f8-38dc7de575c0" d="M164.49,137h-.83a.35.35,0,0,1-.23-.07.46.46,0,0,1-.13-.18l-.74-1.91H159l-.74,1.91a.52.52,0,0,1-.13.17.32.32,0,0,1-.23.08h-.83l3.15-7.88h1.09ZM159.32,134h3l-1.24-3.2a7.22,7.22,0,0,1-.24-.74c0,.15-.08.28-.12.41a3.17,3.17,0,0,1-.11.33Z"/></g><g id="e49c9dd1-4f69-49b1-9e1a-fa5d83921346" data-name="text-titles"><path class="3cea2ad4-9693-482d-94f8-38dc7de575c0" d="M134.05,14.17a2.24,2.24,0,0,0,.84-.15,1.84,1.84,0,0,0,.62-.44,1.94,1.94,0,0,0,.39-.69A2.74,2.74,0,0,0,136,12V6.8h1.61V12a4,4,0,0,1-.25,1.44,3.23,3.23,0,0,1-.71,1.13,3.17,3.17,0,0,1-1.14.74,3.93,3.93,0,0,1-1.5.27,4,4,0,0,1-1.5-.27,3.13,3.13,0,0,1-1.13-.74,3.23,3.23,0,0,1-.71-1.13,4,4,0,0,1-.25-1.44V6.8h1.61V12a2.83,2.83,0,0,0,.14.9,2.09,2.09,0,0,0,.38.69,1.84,1.84,0,0,0,.62.44A2.24,2.24,0,0,0,134.05,14.17Z"/><path class="3cea2ad4-9693-482d-94f8-38dc7de575c0" d="M139.21,15.47V9.32h.91a.37.37,0,0,1,.38.27l.1.48a3.17,3.17,0,0,1,.39-.34,2,2,0,0,1,.44-.27,2.05,2.05,0,0,1,.49-.18,2.65,2.65,0,0,1,.58-.06,2.24,2.24,0,0,1,.89.17,1.87,1.87,0,0,1,.65.48,2.12,2.12,0,0,1,.4.74,3.16,3.16,0,0,1,.13,1v3.91h-1.48V11.56a1.3,1.3,0,0,0-.26-.88,1,1,0,0,0-.78-.31,1.48,1.48,0,0,0-.72.18,2.5,2.5,0,0,0-.64.47v4.45Z"/><path class="3cea2ad4-9693-482d-94f8-38dc7de575c0" d="M147.83,7.52a.73.73,0,0,1-.08.36,1,1,0,0,1-.2.3,1.1,1.1,0,0,1-.31.2.9.9,0,0,1-.37.07.86.86,0,0,1-.36-.07,1.21,1.21,0,0,1-.3-.2,1,1,0,0,1-.2-.3.86.86,0,0,1-.07-.36.94.94,0,0,1,.07-.37,1.21,1.21,0,0,1,.2-.3,1.21,1.21,0,0,1,.3-.2.86.86,0,0,1,.36-.07.9.9,0,0,1,.37.07,1.1,1.1,0,0,1,.31.2,1.21,1.21,0,0,1,.2.3A.8.8,0,0,1,147.83,7.52Zm-.22,1.8v6.15h-1.48V9.32Z"/><path class="3cea2ad4-9693-482d-94f8-38dc7de575c0" d="M151.91,9.22a3.52,3.52,0,0,1,1.25.22,2.67,2.67,0,0,1,1,.63,2.89,2.89,0,0,1,.61,1,3.64,3.64,0,0,1,.22,1.31,3.66,3.66,0,0,1-.22,1.32,2.85,2.85,0,0,1-.61,1,2.67,2.67,0,0,1-1,.63,3.31,3.31,0,0,1-1.25.22,3.35,3.35,0,0,1-1.25-.22,2.67,2.67,0,0,1-1-.63,2.73,2.73,0,0,1-.62-1,3.66,3.66,0,0,1-.22-1.32,3.64,3.64,0,0,1,.22-1.31,2.77,2.77,0,0,1,.62-1,2.67,2.67,0,0,1,1-.63A3.56,3.56,0,0,1,151.91,9.22Zm0,5.2a1.32,1.32,0,0,0,1.14-.51,2.57,2.57,0,0,0,.37-1.51,2.58,2.58,0,0,0-.37-1.52,1.52,1.52,0,0,0-2.29,0,2.61,2.61,0,0,0-.37,1.52,2.57,2.57,0,0,0,.37,1.51A1.33,1.33,0,0,0,151.91,14.42Z"/><path class="3cea2ad4-9693-482d-94f8-38dc7de575c0" d="M156.11,15.47V9.32h.9a.36.36,0,0,1,.38.27l.1.48c.13-.12.26-.24.39-.34a2.27,2.27,0,0,1,.44-.27,2.13,2.13,0,0,1,.5-.18,2.56,2.56,0,0,1,.57-.06,2.29,2.29,0,0,1,.9.17,1.87,1.87,0,0,1,.65.48,2.29,2.29,0,0,1,.4.74,3.16,3.16,0,0,1,.13,1v3.91H160V11.56a1.36,1.36,0,0,0-.26-.88,1,1,0,0,0-.79-.31,1.54,1.54,0,0,0-.72.18,2.46,2.46,0,0,0-.63.47v4.45Z"/></g></svg>