<svg xmlns="http://www.w3.org/2000/svg" viewBox="0 0 1497.39 200.42"><defs><style>.cls-1{fill:#fff;}</style></defs><g id="Layer_1_Image" data-name="Layer 1 Image"><path class="cls-1" d="M1160.31,163.34V100.25H1147.5V90.64h12.81V88.43a27.31,27.31,0,0,1,1.84-10.38,20.51,20.51,0,0,1,5.28-7.61,22.49,22.49,0,0,1,8.39-4.67A37,37,0,0,1,1187,64.19a40.59,40.59,0,0,1,9.53,1.15l-.76,10.06c-1-.17-2.24-.32-3.56-.43s-2.63-.17-3.93-.17q-6.73,0-10.42,3.53c-2.45,2.35-3.66,5.73-3.66,10.12v2.21h13.67v9.61h-13.67v63.09h-13.87Z"/><path class="cls-1" d="M921.73,139.21a14.66,14.66,0,0,0-1.18-6.06,12.33,12.33,0,0,0-4.12-4.79,34,34,0,0,0-8-4.11,125.16,125.16,0,0,0-12.74-3.92,118.66,118.66,0,0,1-14.65-4.73,49.23,49.23,0,0,1-11.16-6.12,25.25,25.25,0,0,1-7.07-7.9,20.47,20.47,0,0,1-2.47-10.14A21.85,21.85,0,0,1,863,80.85a25.83,25.83,0,0,1,7.54-8.46,36.81,36.81,0,0,1,11.69-5.6,53.33,53.33,0,0,1,15.21-2,49.76,49.76,0,0,1,16.41,2.5A38,38,0,0,1,926,73.84a27.92,27.92,0,0,1,7.46,9.46A25.54,25.54,0,0,1,936,94.39H921.53a19.59,19.59,0,0,0-1.45-7.59,16.33,16.33,0,0,0-4.45-6.06,21.68,21.68,0,0,0-7.49-4,36,36,0,0,0-10.63-1.41,37.06,37.06,0,0,0-10,1.22,21,21,0,0,0-7.05,3.32,13.59,13.59,0,0,0-4.13,5,14.91,14.91,0,0,0-1.34,6.31,11.19,11.19,0,0,0,1.45,5.65,15.11,15.11,0,0,0,4.54,4.71,36.44,36.44,0,0,0,7.9,4A108.33,108.33,0,0,0,900.39,109a110.16,110.16,0,0,1,16,5.21,44.86,44.86,0,0,1,11.13,6.49,22.44,22.44,0,0,1,8.64,18.36,21.69,21.69,0,0,1-2.69,10.8,24.35,24.35,0,0,1-7.68,8.27,38.49,38.49,0,0,1-12,5.28,61.39,61.39,0,0,1-15.63,1.84,59.87,59.87,0,0,1-10-.85,53.49,53.49,0,0,1-9.64-2.51,45.5,45.5,0,0,1-8.55-4.17,31.87,31.87,0,0,1-6.86-5.77,25.47,25.47,0,0,1-4.58-7.4,23.92,23.92,0,0,1-1.65-9h14.46a16.23,16.23,0,0,0,2.21,8.64,18.51,18.51,0,0,0,5.93,5.95,27.19,27.19,0,0,0,8.55,3.45,45.63,45.63,0,0,0,10.15,1.1q11.4,0,17.45-4.16a13.08,13.08,0,0,0,6.08-11.35Z"/><path class="cls-1" d="M978.82,155.11a22.4,22.4,0,0,0,7-1.08,20.31,20.31,0,0,0,6-2.95,15.73,15.73,0,0,0,4.19-4.47,13.12,13.12,0,0,0,1.91-5.6H1011a20.19,20.19,0,0,1-3,9.24,27.82,27.82,0,0,1-7,7.73A35.86,35.86,0,0,1,991,163.29a36.77,36.77,0,0,1-12.18,2,40,40,0,0,1-15.93-2.93,31.88,31.88,0,0,1-11.28-7.9,32.51,32.51,0,0,1-6.71-11.54A43.55,43.55,0,0,1,942.69,129v-2.82a43.62,43.62,0,0,1,2.21-13.91,31.63,31.63,0,0,1,18-19.44,39.66,39.66,0,0,1,15.88-2.93,39.17,39.17,0,0,1,12.94,2,32.07,32.07,0,0,1,10.05,5.53,25.8,25.8,0,0,1,6.64,8.36,26.39,26.39,0,0,1,2.69,10.41H997.94a17,17,0,0,0-1.76-6.27,16.65,16.65,0,0,0-3.93-5.1,18.56,18.56,0,0,0-5.88-3.45,21.54,21.54,0,0,0-7.59-1.28,22.35,22.35,0,0,0-10.68,2.28,19.27,19.27,0,0,0-6.81,6,24,24,0,0,0-3.63,8.4,43.05,43.05,0,0,0-1,9.37V129a43.64,43.64,0,0,0,1,9.51,23.32,23.32,0,0,0,3.61,8.35,19,19,0,0,0,6.81,6,22.44,22.44,0,0,0,10.74,2.28Z"/><path class="cls-1" d="M1062.89,153.38h51.69v10.54h-66.16V64.77h14.45v88.61Z"/><path class="cls-1" d="M1226,164.68a42.27,42.27,0,0,1-15.32-2.62,34.33,34.33,0,0,1-11.72-7.29,31.48,31.48,0,0,1-7.49-11.12,36.83,36.83,0,0,1-2.62-14.1v-2.82a40.34,40.34,0,0,1,3-15.87,35.12,35.12,0,0,1,7.9-11.76,34.39,34.39,0,0,1,11.3-7.29,36,36,0,0,1,13.26-2.52,37.77,37.77,0,0,1,15,2.72,28.15,28.15,0,0,1,10.37,7.48,30.91,30.91,0,0,1,6,11.29,49.22,49.22,0,0,1,2,14.17v5.58h-54.93a28.26,28.26,0,0,0,1.85,9.39,22.32,22.32,0,0,0,4.79,7.6,22.77,22.77,0,0,0,7.49,5.1,24.86,24.86,0,0,0,9.92,1.89,26.1,26.1,0,0,0,12.43-2.7,30.62,30.62,0,0,0,8.92-7.11l8.46,5.9a32.47,32.47,0,0,1-4.73,5.21,31.16,31.16,0,0,1-6.49,4.49,37.68,37.68,0,0,1-8.5,3.17A43.36,43.36,0,0,1,1226,164.68Zm-1.72-65.17a21.15,21.15,0,0,0-7.72,1.37,19.48,19.48,0,0,0-6.3,4,21.46,21.46,0,0,0-4.6,6.52,30.7,30.7,0,0,0-2.51,8.94h40.6v-.94a31.9,31.9,0,0,0-1.3-7.18,18.8,18.8,0,0,0-3.37-6.38,17,17,0,0,0-5.88-4.58,20.61,20.61,0,0,0-8.92-1.74Z"/><path class="cls-1" d="M1281.81,152.79h51.69v10.55h-66.16V64.19h14.45v88.6Z"/><path class="cls-1" d="M1390.56,163.34a12.69,12.69,0,0,1-1.2-3.39c-.3-1.36-.54-2.78-.76-4.27a34.75,34.75,0,0,1-4.38,3.45,32.21,32.21,0,0,1-5.32,2.88,33.58,33.58,0,0,1-6.25,2,34.72,34.72,0,0,1-7.11.69,36.08,36.08,0,0,1-11.29-1.67,27.14,27.14,0,0,1-8.61-4.58,20.6,20.6,0,0,1-5.52-6.81,18.73,18.73,0,0,1-1.95-8.42,20.47,20.47,0,0,1,2.54-10.31,21.33,21.33,0,0,1,7.31-7.49,36.92,36.92,0,0,1,11.5-4.58,68.31,68.31,0,0,1,15.06-1.54h13.79v-5.7a13.21,13.21,0,0,0-4.35-10.38q-4.35-3.87-12.8-3.86a25.26,25.26,0,0,0-7.12.93,19.35,19.35,0,0,0-5.51,2.52,12.38,12.38,0,0,0-3.56,3.67,8.32,8.32,0,0,0-1.28,4.36h-13.93a15,15,0,0,1,2.28-7.73,23.36,23.36,0,0,1,6.49-6.88,36,36,0,0,1,10.15-5,43.23,43.23,0,0,1,13.31-1.9,45.84,45.84,0,0,1,12.17,1.51,27,27,0,0,1,9.55,4.58A21.48,21.48,0,0,1,1400,103a24,24,0,0,1,2.25,10.68V147.5a44.47,44.47,0,0,0,.72,7.76,27,27,0,0,0,2.13,7v1.09h-14.54Zm-23-9.49a25.68,25.68,0,0,0,7.06-.93,28.78,28.78,0,0,0,6-2.45,22.16,22.16,0,0,0,4.68-3.45,16.65,16.65,0,0,0,3.11-4V128.07h-11.55q-11.91,0-18.36,3.32c-4.29,2.22-6.44,5.56-6.44,10.05a12.33,12.33,0,0,0,1,4.91,10.28,10.28,0,0,0,3,3.92,15,15,0,0,0,4.86,2.63A21.22,21.22,0,0,0,1367.55,153.85Z"/><path class="cls-1" d="M1483.55,127.79a49,49,0,0,1-2.11,14.74,34.4,34.4,0,0,1-6.14,11.69,27.79,27.79,0,0,1-9.9,7.69,30.85,30.85,0,0,1-13.34,2.75,35,35,0,0,1-13.87-2.52,26.73,26.73,0,0,1-9.89-7.22l-.68,8.4h-12.74V64.19h13.87V98.65a27.24,27.24,0,0,1,9.74-6.93,34.41,34.41,0,0,1,13.42-2.4A31.93,31.93,0,0,1,1465.43,92a27.47,27.47,0,0,1,9.89,7.55,33.67,33.67,0,0,1,6.1,11.69,51.66,51.66,0,0,1,2.1,15.15v1.39Zm-13.87-1.41a44.2,44.2,0,0,0-1.13-10.24,24.5,24.5,0,0,0-3.62-8.42,18.07,18.07,0,0,0-6.56-5.75,21.11,21.11,0,0,0-9.89-2.13,25.05,25.05,0,0,0-6.9.87,21.41,21.41,0,0,0-5.52,2.41,19.27,19.27,0,0,0-4.23,3.62,25.9,25.9,0,0,0-3.08,4.49v31.45a24.92,24.92,0,0,0,3.19,4.49,19.24,19.24,0,0,0,4.28,3.62,20.27,20.27,0,0,0,5.51,2.41,24.85,24.85,0,0,0,6.9.87,20.4,20.4,0,0,0,9.59-2.08,18.41,18.41,0,0,0,6.51-5.64,24.78,24.78,0,0,0,3.76-8.36,42.21,42.21,0,0,0,1.19-10.24Z"/><path class="cls-1" d="M1035.61,163.92h-13.86V91.22h13.86Z"/><circle class="cls-1" cx="1028.67" cy="72.93" r="8.16"/><circle class="cls-1" cx="1131.55" cy="72.34" r="8.16"/><path class="cls-1" d="M1138.5,163.34h-13.87V90.66h13.87Z"/><path class="cls-1" d="M734.29,116.18a22.93,22.93,0,0,0,2.09-9.7,22.12,22.12,0,0,0-1.07-6.6c-.06-.17-.1-.34-.17-.52l-.07-.19c0-.11-.06-.22-.1-.33a.42.42,0,0,1-.07-.15c-1.34-4.3-4.53-8.2-8.22-12.72-4.54-5.53-9.66-11.78-12.33-20.22-2.6-8.21-2-15.84-1.43-22.57.48-5.75.91-11.2-.67-16.21v0c0-.05,0-.09,0-.13s-.06-.22-.08-.33l-.07-.15c0-.18-.11-.35-.15-.54-.11-.37-.24-.74-.37-1.09,0,0,0-.11-.06-.15-.11-.3-.24-.61-.37-.91,0,0,0,0,0,0a22.74,22.74,0,0,0-25.44-13.21c-.32.06-.67.15-1,.24a.27.27,0,0,1-.13,0,11.4,11.4,0,0,0-1.1.32,22.48,22.48,0,0,0-13.31,11.18,21,21,0,0,0-.93,2.06,22.5,22.5,0,0,0-1.63,8.66,22.12,22.12,0,0,0,1.07,6.6v0c.06.17.1.35.17.52l.06.17a1,1,0,0,1,0,.11l.06.15a1,1,0,0,1,0,.11l0,.11c1.32,4.28,4.51,8.18,8.22,12.7,4.54,5.53,9.66,11.8,12.33,20.24s2.08,16.6,1.54,23.79c-.43,5.79-.8,10.78.54,15v0a.5.5,0,0,1,0,.13c0,.1.06.21.08.32l0,.17c0,.18.11.35.15.55s.2.6.3.89a22.72,22.72,0,0,0,28.22,13.91,22.49,22.49,0,0,0,13.3-11.18C734,116.88,734.14,116.53,734.29,116.18Z"/><path class="cls-1" d="M802.48,59.09a26.92,26.92,0,0,0-49,8.65l-.13.66-.05.21c0,.15-.06.31-.08.46v0a.23.23,0,0,1,0,.11v0c-1.18,5.19-.2,11.09.91,17.93,1.36,8.42,2.93,17.94.65,28.25s-7.75,18.36-12.57,25.46c-3.88,5.7-7.22,10.63-8.33,15.75v0c0,.05,0,.09,0,.13s-.07.26-.11.39l-.07.22c0,.22-.11.43-.15.65A26.94,26.94,0,0,0,754,190.14a27.47,27.47,0,0,0,5.89.65,26.73,26.73,0,0,0,14.43-4.23,28.08,28.08,0,0,0,4.19-3.28,26.72,26.72,0,0,0,7.63-13.61c0-.21.09-.43.13-.62l0-.22c0-.15.06-.31.08-.46v0a.81.81,0,0,1,0-.11c1.17-5.21.19-11.11-.92-18-1.36-8.39-2.92-17.92-.65-28.21,2.22-10,7.4-17.53,12-24.13,3.91-5.64,7.6-11,8.94-17.06,0,0,0,0,0,0s0-.09,0-.13.06-.26.11-.39l.06-.22c0-.21.11-.43.15-.65A27,27,0,0,0,802.48,59.09Z"/><path class="cls-1" d="M650.92,68.66a24.22,24.22,0,1,0,11.93,14.19A24,24,0,0,0,650.92,68.66Z"/></g><g id="Layer_2" data-name="Layer 2"><g id="g7130"><path id="path7134" class="cls-1" d="M309.42,22.5h0a4.29,4.29,0,0,0-3.83-2.35h-3.5A2.37,2.37,0,0,0,300,23.58l5.85,11.67,5.34,9.09a57.74,57.74,0,0,0,16.66,18L362.6,86.7a43.48,43.48,0,0,1,11.84,12.41l11.35,18.24,1.66-14.69L378.3,86.34a33.81,33.81,0,0,0-10.75-11.62L329.88,49.55l-3.65-3.32a65.74,65.74,0,0,1-14.37-18.91l-2.44-4.82"/><path id="path7136" class="cls-1" d="M330,158.86h0L317.47,147.4l-7.55-18.5.27-7.09-3.66,12.67,2,7.75a36.22,36.22,0,0,0,15.35,21.41l32.92,21.42a20,20,0,0,0,10.87,3.23H369a3.34,3.34,0,0,0,1.66-6.24L330,158.86"/><path id="path7138" class="cls-1" d="M385.05,45h0l.14.27a5.12,5.12,0,0,1,.37,3.93l-1.42,4.63a1.79,1.79,0,0,1-3.12.58L362.2,30.21a3.82,3.82,0,0,1,3.21-6.15l5.85.3a5.1,5.1,0,0,1,4.25,2.7L385.05,45"/><path id="path7140" class="cls-1" d="M374.78,32.49h0a2.64,2.64,0,0,1-2.61,3.87l-27.55-2.84a2.44,2.44,0,0,0-.54,0L313.2,36.68a2.63,2.63,0,0,1-2.66-1.49l-3.25-6.81a2.65,2.65,0,0,1,2.89-3.74l33.11,6.48a2.7,2.7,0,0,0,.8,0l25.83-2.87a3.69,3.69,0,0,1,3.66,1.94l1.2,2.27"/><path id="path7142" class="cls-1" d="M383.22,50.7h0a2.52,2.52,0,0,1,.37,1.13h0a2.65,2.65,0,0,1-2.91,2.88l-22.91-2.38a2.69,2.69,0,0,0-.49,0L328,54.73a2.64,2.64,0,0,1-2-.69l-2.58-2.37a2.65,2.65,0,0,1,2-4.59l31.2,2.78a2.84,2.84,0,0,0,.82-.06l19.2-4.38a4.16,4.16,0,0,1,4.49,1.91l2,3.37"/><path id="path7144" class="cls-1" d="M347.72,66.19l15.79,2.63a2.66,2.66,0,0,0,1.34-.12l6.48-2.35a2.64,2.64,0,0,1,3.4,3.36l-.12.36a2.66,2.66,0,0,1-2.71,1.77l-7.14-.56a2.69,2.69,0,0,0-1.09.14l-8.39,3a2.64,2.64,0,0,1-2.77-.64L346.8,68a1,1,0,0,1,.92-1.77"/><path id="path7146" class="cls-1" d="M313.75,146.67h0a2.65,2.65,0,0,0,3,1.77l16.4-3.17a2.76,2.76,0,0,1,.64,0l12.17.65a2.64,2.64,0,0,0,2.5-1.44l.43-.85a2.65,2.65,0,0,0-3-3.77l-11.91,3a2.56,2.56,0,0,1-1,.05L314.05,140a1.62,1.62,0,0,0-1.78,2.11l1.48,4.55"/><path id="path7148" class="cls-1" d="M369.51,87.18l-4.11,2a2.58,2.58,0,0,1-1.19.26l-16.82-.23a2.64,2.64,0,0,0-2.61,2l-.9,3.84a2.65,2.65,0,0,0,3.45,3.11L364.88,92a2.7,2.7,0,0,1,1.38-.1l4.29.83a2.65,2.65,0,0,0,2.74-4l-.39-.6a2.64,2.64,0,0,0-3.39-1"/><path id="path7150" class="cls-1" d="M383.51,106.27h0a2.65,2.65,0,0,1-2.57,3.57l-21-.73a2.43,2.43,0,0,0-.6,0l-34.17,6.71a2.65,2.65,0,0,1-2.73-4.06L327,105a2.67,2.67,0,0,1,2.51-1.18l29.79,3.28a2.62,2.62,0,0,0,.79,0l20-3.77a2.69,2.69,0,0,1,3,1.71l.47,1.28"/><path id="path7152" class="cls-1" d="M355.38,176.32h0a2.65,2.65,0,0,1-1.74,4.81l-18.17-1.3-.65,0L315,182.65a2.65,2.65,0,0,1-2.63-4l2.33-3.79a2.65,2.65,0,0,1,2.93-1.17l16.89,4.45a2.6,2.6,0,0,0,1.3,0l16.34-2.77a3.64,3.64,0,0,1,2.74.61l.48.33"/><path id="path7154" class="cls-1" d="M374.89,119,369.8,129.2a2.65,2.65,0,0,1-2.65,1.44l-27.7-2.94a2.75,2.75,0,0,0-.7,0l-27,4.32a2.65,2.65,0,0,1-2.71-3.95l1.6-2.75a2.63,2.63,0,0,1,2.46-1.31l25.64,1.64a2.44,2.44,0,0,0,.66,0L374.89,119h0"/><path id="path7156" class="cls-1" d="M380.08,56.53l5.71-8.72-.31,13.07a6.59,6.59,0,0,1-1.37,3.85l-5.93,7.67a72.17,72.17,0,0,1-15.26,14.66l-35.25,25a36.14,36.14,0,0,0-6,5.38s-12.14,12.33-15.13,17c.47-2.41.59-3.72.59-3.72A44.2,44.2,0,0,1,316,110.51l2.93-3.75A37.47,37.47,0,0,1,327,99.09l34.57-23.91a53.83,53.83,0,0,0,7.64-6.41l5-5.09a45.11,45.11,0,0,0,5.78-7.15h0"/><path id="path7158" class="cls-1" d="M357,131.8l-23.2,16a70.14,70.14,0,0,0-18.9,19.45l-13.08,20.11a1.34,1.34,0,0,0,1.13,2.08H309a4.3,4.3,0,0,0,3.68-2.08l3.16-5.3a78.83,78.83,0,0,1,22-23.86l23.92-17a135.17,135.17,0,0,0,18.26-15.6l3.92-4a10.59,10.59,0,0,0,3-7l.45-12,0,0a31.34,31.34,0,0,1-6.83,10l-1,1a25.34,25.34,0,0,1-2.33,2.07L357,131.8"/><path id="path7160" class="cls-1" d="M17,13V192.27H55.53V88.72L106,192.27h45.79V13H113.25V116.36L62.44,13Z"/><path id="path7162" class="cls-1" d="M208.83,114.18v46.71h24.76q15.69,0,23.17-6t7.48-18.39q0-22.31-31.87-22.31Zm0-30.16h22.06q15.45,0,22.38-4.78t6.92-15.81q0-10.3-7.54-14.78t-23.84-4.47h-20V84Zm-38-71H226.6Q264.73,13,282,23.89T299.18,58.4q0,16.07-7.54,26.36a30.15,30.15,0,0,1-20,12.38v1.23q17,3.8,24.58,14.22t7.53,27.7q0,24.53-17.71,38.25t-48.12,13.73H170.82V13"/><path id="path7164" class="cls-1" d="M504.21,141.38q0,23.66-17.47,37.27t-48.6,13.62q-28.69,0-50.76-10.51V147.35q18.15,7.89,30.71,11.11a93.16,93.16,0,0,0,23,3.23q12.5,0,19.18-4.66t6.68-13.86A15.06,15.06,0,0,0,464,134a32.58,32.58,0,0,0-8.64-7.71q-5.7-3.69-23.23-11.82Q415.69,107,407.49,100a54.4,54.4,0,0,1-13.12-16.13q-4.9-9.19-4.9-21.5,0-23.17,16.12-36.44t44.56-13.26c9.32,0,14.77,1.27,23.17,3.64,9.35,2.64,14.13,3.72,23.15,7.18L497,58.67a99.9,99.9,0,0,0-28.21-13.38c-6.5-2-13.78-1.76-19.83-1.76q-10.79,0-16.55,4.9a16,16,0,0,0-5.76,12.78,15.56,15.56,0,0,0,2.33,8.55,25.28,25.28,0,0,0,7.42,7q5.08,3.4,24.09,12.25,25.13,11.72,34.45,23.48t9.31,28.85"/></g></g></svg>